<?xml version="1.0" encoding="utf-8"?>
<!-- Generator: Adobe Illustrator 16.0.0, SVG Export Plug-In . SVG Version: 6.00 Build 0)  -->
<!DOCTYPE svg PUBLIC "-//W3C//DTD SVG 1.1//EN" "http://www.w3.org/Graphics/SVG/1.1/DTD/svg11.dtd">
<svg version="1.1" id="Layer_1" xmlns="http://www.w3.org/2000/svg" xmlns:xlink="http://www.w3.org/1999/xlink" x="0px" y="0px"
	 width="300px" height="370.195px" viewBox="0 0 300 370.195" enable-background="new 0 0 300 370.195" xml:space="preserve">
<g>
	<g>
		<defs>
			<filter id="Adobe_OpacityMaskFilter" filterUnits="userSpaceOnUse" x="80.005" y="282.021" width="160.217" height="91.251">
				<feFlood  style="flood-color:white;flood-opacity:1" result="back"/>
				<feBlend  in="SourceGraphic" in2="back" mode="normal"/>
			</filter>
		</defs>
		<mask maskUnits="userSpaceOnUse" x="80.005" y="282.021" width="160.217" height="91.251" id="SVGID_1_">
			<g filter="url(#Adobe_OpacityMaskFilter)">
				<linearGradient id="SVGID_2_" gradientUnits="userSpaceOnUse" x1="161.7617" y1="373.2705" x2="161.7617" y2="280.1633">
					<stop  offset="0" style="stop-color:#000000"/>
					<stop  offset="0.2204" style="stop-color:#030303"/>
					<stop  offset="0.3956" style="stop-color:#0C0C0D"/>
					<stop  offset="0.5552" style="stop-color:#1C1C1E"/>
					<stop  offset="0.7055" style="stop-color:#323236"/>
					<stop  offset="0.8494" style="stop-color:#4F4F54"/>
					<stop  offset="0.9866" style="stop-color:#717179"/>
					<stop  offset="1" style="stop-color:#75757D"/>
				</linearGradient>
				<rect x="84.02" y="279.271" fill="url(#SVGID_2_)" width="155.484" height="94"/>
			</g>
		</mask>
		<g mask="url(#SVGID_1_)">
			
				<linearGradient id="SVGID_3_" gradientUnits="userSpaceOnUse" x1="100.4092" y1="41.0967" x2="100.4092" y2="-242.9939" gradientTransform="matrix(0.9563 0.2598 -0.2924 -1.1251 92.1261 316.021)">
				<stop  offset="0" style="stop-color:#9C9CA6"/>
				<stop  offset="0.0061" style="stop-color:#9898A2"/>
				<stop  offset="0.0585" style="stop-color:#787880"/>
				<stop  offset="0.1146" style="stop-color:#5E5E64"/>
				<stop  offset="0.1747" style="stop-color:#49494E"/>
				<stop  offset="0.2409" style="stop-color:#3B3B3F"/>
				<stop  offset="0.3177" style="stop-color:#333336"/>
				<stop  offset="0.4301" style="stop-color:#303033"/>
				<stop  offset="0.4579" style="stop-color:#2B2B2D"/>
				<stop  offset="0.4936" style="stop-color:#1C1C1D"/>
				<stop  offset="0.5334" style="stop-color:#030303"/>
				<stop  offset="0.5376" style="stop-color:#000000"/>
			</linearGradient>
			<path fill="url(#SVGID_3_)" d="M187.44,299.356c-1.983-0.861-3.912-1.521-5.735-1.961c-10.135-2.438-36.849-8.867-51.628-12.424
				v0.139c1.13,0.367,2.283,0.791,3.451,1.27c24.93,10.242,44.328,48.096,58.383,86.891h47.593
				C224.943,337.22,207.547,308.085,187.44,299.356z"/>
			<g>
				<defs>
					<path id="SVGID_4_" d="M171.423,373.271c-0.588-2.953-1.037-5.16-1.318-6.467c-3.727-17.313-13.636-74.959,18.187-61.143
						c17.674,7.672,33.57,35.385,46.695,67.609h4.829c-14.456-35.961-31.865-65.012-52.375-73.914
						c-1.983-0.861-3.912-1.521-5.735-1.961c-14.036-3.377-59.879-14.408-61.767-14.863c-14.315-3.447-46.137,17.408-31.379,90.738
						H171.423z"/>
				</defs>
				<clipPath id="SVGID_5_">
					<use xlink:href="#SVGID_4_"  overflow="visible"/>
				</clipPath>
				<g clip-path="url(#SVGID_5_)">
					
						<linearGradient id="SVGID_6_" gradientUnits="userSpaceOnUse" x1="-81.3716" y1="-126.2056" x2="112.9017" y2="56.5971" gradientTransform="matrix(0.947 0.2254 -0.3213 -1.1325 105.0649 338.512)">
						<stop  offset="0.328" style="stop-color:#303033"/>
						<stop  offset="0.5232" style="stop-color:#2D2D2F"/>
						<stop  offset="0.7051" style="stop-color:#222224"/>
						<stop  offset="0.8812" style="stop-color:#101011"/>
						<stop  offset="1" style="stop-color:#000000"/>
					</linearGradient>
					<path fill="url(#SVGID_6_)" d="M240.222,373.271c-14.676-35.965-32.296-65.021-52.781-73.914
						c-1.983-0.861-3.912-1.521-5.735-1.961c-14.036-3.377-59.879-14.408-61.767-14.863c-22.327-5.375-38.499,33.094-39.9,46.324
						c-0.418,3.945,3.138,21.295,8.521,44.414H240.222z"/>
					
						<linearGradient id="SVGID_7_" gradientUnits="userSpaceOnUse" x1="-323.6953" y1="-54.835" x2="105.1164" y2="30.5201" gradientTransform="matrix(0.947 0.2254 -0.3213 -1.1325 105.0649 338.512)">
						<stop  offset="0.5376" style="stop-color:#74747B"/>
						<stop  offset="0.6386" style="stop-color:#6B6B72"/>
						<stop  offset="0.8066" style="stop-color:#535358"/>
						<stop  offset="1" style="stop-color:#303033"/>
					</linearGradient>
					<path fill="url(#SVGID_7_)" d="M166.159,373.271c-0.775-3.92-1.354-6.785-1.688-8.338
						c-3.221-14.959-14.841-75.256,17.234-67.537c-14.036-3.377-59.879-14.408-61.767-14.863
						c-22.327-5.375-38.499,33.094-39.9,46.324c-0.418,3.945,3.138,21.295,8.521,44.414H166.159z"/>
				</g>
			</g>
			<g>
				<path d="M211.943,373.271h4.742c0.211-0.398,0.273-0.904,0.117-1.51c-0.478-1.859-2.659-3.857-4.874-4.463
					c-2.216-0.609-3.626,0.398-3.147,2.258C209.132,370.921,210.41,372.36,211.943,373.271z"/>
				<path d="M206.523,349.806c0.44,1.709-1.002,2.602-3.217,1.996c-2.214-0.609-4.368-2.488-4.807-4.201
					c-0.44-1.709,1.001-2.602,3.215-1.994C203.931,346.214,206.085,348.095,206.523,349.806z"/>
			</g>
		</g>
	</g>
	<g>
		<g>
			<g>
				<path fill="#333336" d="M186.723,159.988c-1.008,4.531-6.614,36.978-8.953,42.503c-2.342,5.525-3.883,10.016-2.139,10.172
					c1.744,0.158,11.059-10.721,16.75-31.85c5.692-21.126,5.61-26.06,2.162-25.613C191.097,155.646,188.326,152.787,186.723,159.988
					z"/>
				
					<linearGradient id="SVGID_8_" gradientUnits="userSpaceOnUse" x1="199.9863" y1="336.71" x2="199.9863" y2="397.3779" gradientTransform="matrix(0.9208 0.3901 -0.3901 0.9208 142.1272 -233.0661)">
					<stop  offset="0" style="stop-color:#8A8A8A"/>
					<stop  offset="0.0185" style="stop-color:#A9A9A9"/>
					<stop  offset="0.0413" style="stop-color:#C8C8C8"/>
					<stop  offset="0.0653" style="stop-color:#E0E0E0"/>
					<stop  offset="0.0904" style="stop-color:#F2F2F2"/>
					<stop  offset="0.1176" style="stop-color:#FCFCFC"/>
					<stop  offset="0.1505" style="stop-color:#FFFFFF"/>
					<stop  offset="0.2009" style="stop-color:#DCDCDC"/>
					<stop  offset="0.2934" style="stop-color:#A1A1A1"/>
					<stop  offset="0.3617" style="stop-color:#7C7C7C"/>
					<stop  offset="0.3978" style="stop-color:#6E6E6E"/>
					<stop  offset="0.4214" style="stop-color:#878787"/>
					<stop  offset="0.462" style="stop-color:#ABABAB"/>
					<stop  offset="0.5028" style="stop-color:#C7C7C7"/>
					<stop  offset="0.5435" style="stop-color:#DCDCDC"/>
					<stop  offset="0.5839" style="stop-color:#E8E8E8"/>
					<stop  offset="0.6237" style="stop-color:#ECECEC"/>
					<stop  offset="0.6721" style="stop-color:#CCCCCC"/>
					<stop  offset="0.762" style="stop-color:#959595"/>
					<stop  offset="0.8292" style="stop-color:#737373"/>
					<stop  offset="0.8656" style="stop-color:#666666"/>
					<stop  offset="0.9001" style="stop-color:#848484"/>
					<stop  offset="0.939" style="stop-color:#9F9F9F"/>
					<stop  offset="0.9735" style="stop-color:#AFAFAF"/>
					<stop  offset="1" style="stop-color:#B5B5B5"/>
				</linearGradient>
				<path fill="url(#SVGID_8_)" d="M180.251,203.56c2.423-5.488,8.505-37.849,9.581-42.367c1.53-6.428,3.882-4.773,6.838-4.645
					c-0.364-1.125-1.093-1.482-2.127-1.348c-3.446,0.445-6.217-2.414-7.82,4.787c-1.008,4.531-6.614,36.978-8.953,42.503
					c-2.342,5.525-3.883,10.016-2.139,10.172c0.326,0.029,0.919-0.326,1.701-1.066C177.657,209.743,178.807,206.839,180.251,203.56z
					"/>
				<path d="M183.28,201.075c1.737-6.396,4.145-18.986,6.501-31.591c0.731-3.912,1.309-7.002,1.56-8.129
					c0.397-1.787,0.782-2.439,0.929-2.637c0.56-1.51,2.798-1.344,3.375,0.244c0.137,2.105-0.686,7.736-4.473,21.787
					C188.829,189.448,185.92,196.202,183.28,201.075z"/>
			</g>
			<g>
				
					<linearGradient id="SVGID_9_" gradientUnits="userSpaceOnUse" x1="246.9102" y1="193.5176" x2="246.9102" y2="328.25" gradientTransform="matrix(0.9563 0.2924 -0.2924 0.9563 92.1261 -173.663)">
					<stop  offset="0" style="stop-color:#9C9CA6"/>
					<stop  offset="0.0171" style="stop-color:#6F6F76"/>
					<stop  offset="0.0348" style="stop-color:#48484C"/>
					<stop  offset="0.0521" style="stop-color:#28282B"/>
					<stop  offset="0.0685" style="stop-color:#121213"/>
					<stop  offset="0.0838" style="stop-color:#050505"/>
					<stop  offset="0.0968" style="stop-color:#000000"/>
				</linearGradient>
				<path fill="url(#SVGID_9_)" d="M274.543,86.696c-0.082-1.48-0.733-2.351-1.568-2.636c-1.646-0.562-8.885-2.829-9.856-2.998
					c-1.62-0.281-3.721,1.446-3.829,5.008c-0.174,5.697-0.272,40.199-18.446,83.88c-7.013,16.857-9.344,25.218-9.563,29.132
					c-1.42,7.014-0.104,13.023,3.354,14.08c3.445,1.055,7.878-3.158,10.625-9.729c0.147-0.135,0.232-0.221,0.232-0.221
					C258.074,167.001,272.284,130.071,274.543,86.696z"/>
				
					<linearGradient id="SVGID_10_" gradientUnits="userSpaceOnUse" x1="218.1055" y1="222.8359" x2="284.1323" y2="288.8627" gradientTransform="matrix(0.9563 0.2924 -0.2924 0.9563 92.1261 -173.663)">
					<stop  offset="0.328" style="stop-color:#303033"/>
					<stop  offset="0.5232" style="stop-color:#2D2D2F"/>
					<stop  offset="0.7051" style="stop-color:#222224"/>
					<stop  offset="0.8812" style="stop-color:#101011"/>
					<stop  offset="1" style="stop-color:#000000"/>
				</linearGradient>
				<path fill="url(#SVGID_10_)" d="M245.491,203.214c12.583-36.212,26.793-73.143,29.052-116.518
					c-0.244-4.402-5.517-3.4-5.69,2.297c-0.173,5.698-0.272,40.2-18.446,83.881S245.491,203.214,245.491,203.214z"/>
			</g>
			
				<linearGradient id="SVGID_11_" gradientUnits="userSpaceOnUse" x1="163.168" y1="431.5586" x2="163.168" y2="140.7925" gradientTransform="matrix(0.9563 0.2924 -0.2924 0.9563 92.1261 -173.663)">
				<stop  offset="0" style="stop-color:#454549"/>
				<stop  offset="0.0869" style="stop-color:#3B3B3F"/>
				<stop  offset="0.2261" style="stop-color:#333336"/>
				<stop  offset="0.4301" style="stop-color:#303033"/>
				<stop  offset="0.4579" style="stop-color:#2B2B2D"/>
				<stop  offset="0.4936" style="stop-color:#1C1C1D"/>
				<stop  offset="0.5334" style="stop-color:#030303"/>
				<stop  offset="0.5376" style="stop-color:#000000"/>
			</linearGradient>
			<path fill="url(#SVGID_11_)" d="M258.128,153.181c7.958-28.658,17.729-122.226-17.901-134.321
				c-13.527-4.59-59.934-7.154-62.672-7.542c-1.631-0.229-3.332-0.428-5.077-0.6c4.034,0.653,4.39,13.033,7.942,14.238
				c2.898,0.983,5.725,2.225,8.403,3.689c25.636,14.025,23.54,80.373,4.339,125.216c-1.278,2.984-3.084,7.809,0.624,10.652
				c-11.665,40.134-38.964,124.085-82.843,116.58c-2.33-0.398-4.606-0.973-6.764-1.705c-25.526-8.66-45.42-58.699-47.474-73.262
				c-2.229-15.805,50.245-181.429,50.503-183.038l0.312-1.929l-0.341,1.918c-0.283,1.602-53.078,167.117-51.505,182.699
				c1.448,14.355,18.157,63.316,41.227,71.143c1.95,0.662,49.317,16.734,63.819,21.656c1.885,0.639,3.878,1.115,5.927,1.418
				C209.35,306.315,240.222,217.716,258.128,153.181z"/>
			
				<linearGradient id="SVGID_12_" gradientUnits="userSpaceOnUse" x1="192.7012" y1="431.5576" x2="192.7012" y2="140.7905" gradientTransform="matrix(0.9563 0.2924 -0.2924 0.9563 92.1261 -173.663)">
				<stop  offset="0.4301" style="stop-color:#9C9CA6"/>
				<stop  offset="0.4422" style="stop-color:#9898A2"/>
				<stop  offset="0.4543" style="stop-color:#8D8D96"/>
				<stop  offset="0.4665" style="stop-color:#7A7A82"/>
				<stop  offset="0.4786" style="stop-color:#606066"/>
				<stop  offset="0.4839" style="stop-color:#525257"/>
				<stop  offset="0.4994" style="stop-color:#3B3B3F"/>
				<stop  offset="0.5323" style="stop-color:#000000"/>
				<stop  offset="0.5353" style="stop-color:#080808"/>
				<stop  offset="0.546" style="stop-color:#1E1E20"/>
				<stop  offset="0.556" style="stop-color:#2B2B2E"/>
				<stop  offset="0.5645" style="stop-color:#303033"/>
				<stop  offset="0.6771" style="stop-color:#2B2B2D"/>
				<stop  offset="0.8216" style="stop-color:#1C1C1D"/>
				<stop  offset="0.983" style="stop-color:#030303"/>
				<stop  offset="1" style="stop-color:#000000"/>
			</linearGradient>
			<path fill="url(#SVGID_12_)" d="M180.42,24.957c2.898,0.983,5.725,2.225,8.403,3.689c25.636,14.025,23.16,74.626,4.339,125.216
				c-1.098,2.951-2.936,7.521,0.319,10.383l56.337,17.224c3.023-9.685,5.795-19.224,8.31-28.289
				c7.958-28.658,17.729-122.226-17.901-134.321c-13.527-4.59-59.934-7.154-62.672-7.542c-1.631-0.229-3.332-0.428-5.077-0.6
				C176.512,11.372,176.867,23.752,180.42,24.957z"/>
			<g>
				<defs>
					<path id="SVGID_13_" d="M256.959,157.005c7.958-28.657,18.897-126.05-16.732-138.145c-13.527-4.59-59.057-10.023-61.795-10.41
						c-22.953-3.242-59.518,2.145-69.473,11.377l-1.438,1.334l-0.341,1.918c-0.283,1.602-53.078,167.117-51.505,182.699
						c1.448,14.355,18.157,63.316,41.227,71.143c1.95,0.662,49.317,16.734,63.819,21.656c1.885,0.639,3.878,1.115,5.927,1.418
						C209.35,306.315,239.052,221.54,256.959,157.005z M167.526,294.06c-32.88-4.863-22.642-57.865-18.791-73.334
						c3.852-15.469,37.904-173.943,37.904-173.943c8.882-8.479,37.289-31.348,57.88-19.414c20.59,11.934,17.25,93.607,7.826,127.559
						C242.924,188.878,210.239,300.38,167.526,294.06z"/>
				</defs>
				<clipPath id="SVGID_14_">
					<use xlink:href="#SVGID_13_"  overflow="visible"/>
				</clipPath>
				<g clip-path="url(#SVGID_14_)">
					
						<linearGradient id="SVGID_15_" gradientUnits="userSpaceOnUse" x1="64.7373" y1="203.0801" x2="269.5341" y2="395.7849" gradientTransform="matrix(0.947 0.3213 -0.3213 0.947 105.0649 -189.8478)">
						<stop  offset="0.328" style="stop-color:#303033"/>
						<stop  offset="0.5232" style="stop-color:#2D2D2F"/>
						<stop  offset="0.7051" style="stop-color:#222224"/>
						<stop  offset="0.8812" style="stop-color:#101011"/>
						<stop  offset="1" style="stop-color:#000000"/>
					</linearGradient>
					<path fill="url(#SVGID_15_)" d="M257.915,157.298l0.212-0.766c8.811-31.739,13.994-120.102-10.599-134.356
						c-2.316-1.342-4.771-2.458-7.302-3.316c-13.527-4.59-60.053-6.652-62.672-7.542c-22.33-7.576-58.641-0.724-68.596,8.509
						l-1.438,1.334l-0.341,1.918c-0.283,1.602-53.078,167.117-51.505,182.699c1.448,14.355,18.157,63.316,41.227,71.143
						c1.95,0.662,49.317,16.734,63.819,21.656c1.885,0.639,3.878,1.115,5.927,1.418C209.35,306.315,240.008,221.833,257.915,157.298
						z"/>
					
						<linearGradient id="SVGID_16_" gradientUnits="userSpaceOnUse" x1="139.874" y1="154.2134" x2="139.874" y2="444.6382" gradientTransform="matrix(0.947 0.3213 -0.3213 0.947 105.0649 -189.8478)">
						<stop  offset="0" style="stop-color:#9C9CA6"/>
						<stop  offset="0.1536" style="stop-color:#77777E"/>
						<stop  offset="0.3085" style="stop-color:#58585E"/>
						<stop  offset="0.4574" style="stop-color:#424246"/>
						<stop  offset="0.5963" style="stop-color:#353538"/>
						<stop  offset="0.7151" style="stop-color:#303033"/>
						<stop  offset="0.8255" style="stop-color:#323235"/>
						<stop  offset="0.8809" style="stop-color:#39393D"/>
						<stop  offset="0.924" style="stop-color:#46464A"/>
						<stop  offset="0.9608" style="stop-color:#58585D"/>
						<stop  offset="0.9933" style="stop-color:#6E6E75"/>
						<stop  offset="1" style="stop-color:#74747B"/>
					</linearGradient>
					<path fill="url(#SVGID_16_)" d="M142.914,219.276c3.762-15.111,37.532-171.976,37.823-173.574l0.351-1.915l1.408-1.345
						c9.746-9.303,36.165-30.899,57.73-23.582c-13.527-4.59-58.591-11.435-61.211-12.323c-22.329-7.576-60.102,4.058-70.057,13.29
						l-1.438,1.334l-0.341,1.918c-0.283,1.602-53.078,167.117-51.505,182.699c1.448,14.355,18.157,63.316,41.227,71.143
						c1.95,0.662,49.317,16.734,63.819,21.656C127.58,287.331,139.587,232.644,142.914,219.276z"/>
				</g>
			</g>
			<g>
				<path fill="#A4A6AD" d="M240.593,176.677c-0.841,4.566-5.249,37.197-7.384,42.804c-2.137,5.607-3.512,10.152-1.763,10.244
					c1.748,0.094,10.656-11.121,15.567-32.443c4.91-21.324,4.646-26.25,1.218-25.677
					C244.804,172.179,241.93,169.423,240.593,176.677z"/>
				
					<linearGradient id="SVGID_17_" gradientUnits="userSpaceOnUse" x1="253.5537" y1="316.3174" x2="253.5537" y2="376.9893" gradientTransform="matrix(0.9345 0.3559 -0.3559 0.9345 124.2342 -214.4553)">
					<stop  offset="0" style="stop-color:#8A8A8A"/>
					<stop  offset="0.0185" style="stop-color:#A9A9A9"/>
					<stop  offset="0.0413" style="stop-color:#C8C8C8"/>
					<stop  offset="0.0653" style="stop-color:#E0E0E0"/>
					<stop  offset="0.0904" style="stop-color:#F2F2F2"/>
					<stop  offset="0.1176" style="stop-color:#FCFCFC"/>
					<stop  offset="0.1505" style="stop-color:#FFFFFF"/>
					<stop  offset="0.2009" style="stop-color:#DCDCDC"/>
					<stop  offset="0.2934" style="stop-color:#A1A1A1"/>
					<stop  offset="0.3617" style="stop-color:#7C7C7C"/>
					<stop  offset="0.3978" style="stop-color:#6E6E6E"/>
					<stop  offset="0.4214" style="stop-color:#878787"/>
					<stop  offset="0.462" style="stop-color:#ABABAB"/>
					<stop  offset="0.5028" style="stop-color:#C7C7C7"/>
					<stop  offset="0.5435" style="stop-color:#DCDCDC"/>
					<stop  offset="0.5839" style="stop-color:#E8E8E8"/>
					<stop  offset="0.6237" style="stop-color:#ECECEC"/>
					<stop  offset="0.6721" style="stop-color:#CCCCCC"/>
					<stop  offset="0.762" style="stop-color:#959595"/>
					<stop  offset="0.8292" style="stop-color:#737373"/>
					<stop  offset="0.8656" style="stop-color:#666666"/>
					<stop  offset="0.9001" style="stop-color:#848484"/>
					<stop  offset="0.939" style="stop-color:#9F9F9F"/>
					<stop  offset="0.9735" style="stop-color:#AFAFAF"/>
					<stop  offset="1" style="stop-color:#B5B5B5"/>
				</linearGradient>
				<path fill="url(#SVGID_17_)" d="M235.729,220.46c2.219-5.574,7.105-38.139,8.015-42.691c1.293-6.48,3.704-4.916,6.663-4.894
					c-0.406-1.111-1.146-1.441-2.175-1.27c-3.428,0.574-6.302-2.182-7.639,5.072c-0.841,4.566-5.249,37.197-7.384,42.804
					c-2.137,5.607-3.512,10.152-1.763,10.244c0.327,0.018,0.905-0.361,1.66-1.127C233.364,226.733,234.404,223.788,235.729,220.46z"
					/>
				<path fill="#333336" d="M238.664,217.864c1.501-6.457,3.442-19.125,5.333-31.809c0.587-3.938,1.051-7.047,1.261-8.182
					c0.331-1.8,0.69-2.466,0.831-2.669c0.503-1.529,2.745-1.445,3.382,0.121c0.213,2.098-0.402,7.755-3.667,21.935
					C243.781,206.042,241.122,212.899,238.664,217.864z"/>
				<path fill="#A4A6AD" d="M248.916,178.263c-0.139,1.234-0.659,2.191-1.164,2.135c-0.506-0.057-0.801-1.104-0.665-2.34
					c0.14-1.232,0.66-2.189,1.164-2.134C248.757,175.982,249.053,177.029,248.916,178.263z"/>
			</g>
			<path d="M210.407,169.812l10.896,3.332c-1.713-1.906-2.503-2.955-1.964-4.395c0.106-0.281,0.228-0.584,0.354-0.9
				c0.812-2.033,1.734-4.336,0.879-6.031c-0.337-0.666-0.925-1.17-1.704-1.459c-0.405-0.152-0.798-0.287-1.18-0.404
				c-1.781-0.545-4.117-0.98-6.404,0.498l-0.21,0.137l-0.114,0.211c-0.431,0.801-1.971,6.006-0.825,8.518
				C210.215,169.492,210.312,169.652,210.407,169.812z"/>
			<g>
				<ellipse transform="matrix(0.9563 0.2925 -0.2925 0.9563 63.0351 -55.5135)" cx="217.177" cy="183.058" rx="4.334" ry="3.772"/>
				<ellipse transform="matrix(0.9563 0.2925 -0.2925 0.9563 68.6167 -52.7504)" cx="210.727" cy="203.106" rx="4.334" ry="3.531"/>
				<ellipse transform="matrix(0.9563 0.2922 -0.2922 0.9563 74.0957 -49.4232)" cx="202.479" cy="223.305" rx="4.334" ry="3.293"/>
				<ellipse transform="matrix(0.9563 0.2923 -0.2923 0.9563 79.2215 -45.7835)" cx="192.842" cy="242.252" rx="4.334" ry="3.052"/>
				<ellipse transform="matrix(0.9563 0.2924 -0.2924 0.9563 83.5677 -41.9819)" cx="182.22" cy="258.556" rx="4.335" ry="2.814"/>
			</g>
			
				<linearGradient id="SVGID_18_" gradientUnits="userSpaceOnUse" x1="220.3555" y1="305.4863" x2="220.3555" y2="283.3213" gradientTransform="matrix(0.9563 0.2924 -0.2924 0.9563 92.1261 -173.663)">
				<stop  offset="0" style="stop-color:#636363"/>
				<stop  offset="0.0224" style="stop-color:#838383"/>
				<stop  offset="0.0538" style="stop-color:#A9A9A9"/>
				<stop  offset="0.0866" style="stop-color:#C8C8C8"/>
				<stop  offset="0.1206" style="stop-color:#E0E0E0"/>
				<stop  offset="0.1564" style="stop-color:#F1F1F1"/>
				<stop  offset="0.1951" style="stop-color:#FCFCFC"/>
				<stop  offset="0.2419" style="stop-color:#FFFFFF"/>
				<stop  offset="0.2901" style="stop-color:#DCDCDC"/>
				<stop  offset="0.3786" style="stop-color:#A1A1A1"/>
				<stop  offset="0.4439" style="stop-color:#7C7C7C"/>
				<stop  offset="0.4785" style="stop-color:#6E6E6E"/>
				<stop  offset="0.4936" style="stop-color:#878787"/>
				<stop  offset="0.5197" style="stop-color:#ABABAB"/>
				<stop  offset="0.546" style="stop-color:#C7C7C7"/>
				<stop  offset="0.5721" style="stop-color:#DCDCDC"/>
				<stop  offset="0.5981" style="stop-color:#E8E8E8"/>
				<stop  offset="0.6237" style="stop-color:#ECECEC"/>
				<stop  offset="0.657" style="stop-color:#CCCCCC"/>
				<stop  offset="0.719" style="stop-color:#959595"/>
				<stop  offset="0.7653" style="stop-color:#737373"/>
				<stop  offset="0.7903" style="stop-color:#666666"/>
				<stop  offset="0.8378" style="stop-color:#4D4D4D"/>
				<stop  offset="0.9009" style="stop-color:#323232"/>
				<stop  offset="0.957" style="stop-color:#222222"/>
				<stop  offset="1" style="stop-color:#1C1C1C"/>
			</linearGradient>
			<path fill="url(#SVGID_18_)" d="M213.248,161.687c-0.408,0.834-1.73,5.658-1.096,7.594c0.634,1.938,2.871,3.145,2.609,5.504
				c-0.263,2.361-1.065,6.994,0.423,8.146c1.487,1.152,5.034,2.586,5.162-0.338s1.37-5.986-0.239-8.242
				c-1.61-2.258-2.956-3.715-2.107-6.068c0.85-2.355,2.629-6.17,0.574-6.973C216.52,160.509,214.881,160.355,213.248,161.687z"/>
			
				<linearGradient id="SVGID_19_" gradientUnits="userSpaceOnUse" x1="187.957" y1="263.7354" x2="252.9297" y2="263.7354" gradientTransform="matrix(0.9563 0.2924 -0.2924 0.9563 92.1261 -173.663)">
				<stop  offset="0" style="stop-color:#49494F"/>
				<stop  offset="0.4631" style="stop-color:#3C3C40"/>
				<stop  offset="1" style="stop-color:#303033"/>
			</linearGradient>
			<polygon fill="url(#SVGID_19_)" points="245.49,164.421 191.976,148.06 198.429,121.485 252.465,135.749 256.797,152.796 			"/>
			
				<linearGradient id="SVGID_20_" gradientUnits="userSpaceOnUse" x1="243.8018" y1="261.1074" x2="263.085" y2="261.1074" gradientTransform="matrix(0.9563 0.2924 -0.2924 0.9563 92.1261 -173.663)">
				<stop  offset="0" style="stop-color:#19191B"/>
				<stop  offset="0.3916" style="stop-color:#242426"/>
				<stop  offset="1" style="stop-color:#303033"/>
			</linearGradient>
			<path fill="url(#SVGID_20_)" d="M252.465,135.749c-1.765,11.226-3.272,18.553-6.975,28.672l17.419-0.406
				c3.963-7.83,7.442-19.926,8.387-28.002L252.465,135.749z"/>
			
				<linearGradient id="SVGID_21_" gradientUnits="userSpaceOnUse" x1="187.957" y1="247.1797" x2="261.8877" y2="247.1797" gradientTransform="matrix(0.9563 0.2924 -0.2924 0.9563 92.1261 -173.663)">
				<stop  offset="0" style="stop-color:#9C9CA6"/>
				<stop  offset="0.1536" style="stop-color:#77777E"/>
				<stop  offset="0.3085" style="stop-color:#58585E"/>
				<stop  offset="0.4574" style="stop-color:#424246"/>
				<stop  offset="0.5963" style="stop-color:#353538"/>
				<stop  offset="0.7151" style="stop-color:#303033"/>
				<stop  offset="0.8255" style="stop-color:#323235"/>
				<stop  offset="0.8809" style="stop-color:#39393D"/>
				<stop  offset="0.924" style="stop-color:#46464A"/>
				<stop  offset="0.9608" style="stop-color:#58585D"/>
				<stop  offset="0.9933" style="stop-color:#6E6E75"/>
				<stop  offset="1" style="stop-color:#74747B"/>
			</linearGradient>
			<polygon fill="url(#SVGID_21_)" points="267.397,134.238 271.296,136.013 252.465,135.749 198.429,121.485 202.879,120.589 
				202.842,121.313 249.609,134.034 			"/>
		</g>
		<g>
			
				<linearGradient id="SVGID_22_" gradientUnits="userSpaceOnUse" x1="131.0366" y1="12.9375" x2="131.0366" y2="224.0166" gradientTransform="matrix(1 0 0 1 -3.5044 1.7197)">
				<stop  offset="0.3333" style="stop-color:#414145"/>
				<stop  offset="0.5013" style="stop-color:#3E3E41"/>
				<stop  offset="0.6578" style="stop-color:#333336"/>
				<stop  offset="0.8099" style="stop-color:#212123"/>
				<stop  offset="0.9582" style="stop-color:#080809"/>
				<stop  offset="1" style="stop-color:#000000"/>
			</linearGradient>
			<path fill="url(#SVGID_22_)" d="M209.376,30.175c0,0-0.793-3.934-2.667-4.852c0,0-78-9.666-88.934-10.666
				c-14.602,0.666-33.066,15.667-38.622,26.367c0,0-33.777,103.633-38.876,118.063c-2.432,19.427,5.766,36.57,15.766,45.57
				c0,0,1.107,0.252,3.054,0.693c0.565,0.576,1.138,1.127,1.72,1.65c0,0,79.537,18.076,84.615,18.734
				c8.276-15.246,21.327-10.086,27.744-29.752L213.61,72.091C218.772,56.268,209.906,57.336,209.376,30.175z"/>
			<g>
				<defs>
					<path id="SVGID_23_" d="M79.153,41.024c5.556-10.7,24.021-25.701,38.622-26.367c10.934,1,88.934,10.666,88.934,10.666
						c-1.335,5.001-8.001,14.667-5.412,29.488c-6.347,19.445-35.41,111.893-39.498,125.201c-4.09,13.311-20.458,32.645-19.94,43.645
						c-5.149-0.666-85.815-19-85.815-19c-10-9-18.197-26.143-15.766-45.57C45.376,144.657,79.153,41.024,79.153,41.024z"/>
				</defs>
				<clipPath id="SVGID_24_">
					<use xlink:href="#SVGID_23_"  overflow="visible"/>
				</clipPath>
				<g clip-path="url(#SVGID_24_)">
					
						<image overflow="visible" width="781" height="938" xlink:href="68255A86.png"  transform="matrix(0.24 0 0 0.24 29.6738 6.6572)">
					</image>
				</g>
			</g>
			<g>
				<g>
					<defs>
						<path id="SVGID_25_" d="M46.936,175.75c-6.244-1.328-9.381-8.291-7.028-15.523L77.904,43.441
							c2.358-7.246,9.454-12.434,15.853-11.557l98.52,13.496c7.084,0.971,10.841,8.021,8.333,15.709l-40.434,123.894
							c-2.504,7.674-10.199,12.711-17.111,11.238L46.936,175.75z"/>
					</defs>
					<clipPath id="SVGID_26_">
						<use xlink:href="#SVGID_25_"  overflow="visible"/>
					</clipPath>
					<g clip-path="url(#SVGID_26_)">
						
							<image overflow="visible" width="707" height="703" xlink:href="68255A8A.png"  transform="matrix(0.24 0 0 0.24 35.6387 30.2988)">
						</image>
					</g>
					<g clip-path="url(#SVGID_26_)">
						
							<linearGradient id="SVGID_27_" gradientUnits="userSpaceOnUse" x1="48.2944" y1="266.1348" x2="165.1224" y2="301.6846" gradientTransform="matrix(0.9507 0.3102 -0.3102 0.9507 108.6633 -191.0162)">
							<stop  offset="0" style="stop-color:#8B8B8B"/>
							<stop  offset="0.1344" style="stop-color:#999999"/>
							<stop  offset="0.1619" style="stop-color:#929292"/>
							<stop  offset="0.3687" style="stop-color:#5E5E5E"/>
							<stop  offset="0.5628" style="stop-color:#353535"/>
							<stop  offset="0.7386" style="stop-color:#181818"/>
							<stop  offset="0.8901" style="stop-color:#060606"/>
							<stop  offset="1" style="stop-color:#000000"/>
						</linearGradient>
						<path fill="url(#SVGID_27_)" d="M46.936,175.75c-6.244-1.328-9.381-8.291-7.028-15.523L77.904,43.441
							c2.358-7.246,9.454-12.434,15.853-11.557l98.52,13.496c7.084,0.971,10.841,8.021,8.333,15.709l-40.434,123.894
							c-2.504,7.674-10.199,12.711-17.111,11.238L46.936,175.75z"/>
						
							<linearGradient id="SVGID_28_" gradientUnits="userSpaceOnUse" x1="43.603" y1="223.7021" x2="156.4001" y2="258.0254" gradientTransform="matrix(0.963 0.2327 -0.2327 0.963 81.4975 -143.2619)">
							<stop  offset="0" style="stop-color:#686868"/>
							<stop  offset="0.1344" style="stop-color:#737373"/>
							<stop  offset="0.2425" style="stop-color:#5E5E5E"/>
							<stop  offset="0.4742" style="stop-color:#353535"/>
							<stop  offset="0.6856" style="stop-color:#181818"/>
							<stop  offset="0.8678" style="stop-color:#060606"/>
							<stop  offset="1" style="stop-color:#000000"/>
						</linearGradient>
						<path fill="url(#SVGID_28_)" d="M46.847,176.022c-6.244-1.33-9.381-8.292-7.028-15.525L77.816,43.713
							c2.357-7.246,9.454-12.433,15.852-11.555l98.515,13.509c7.083,0.972,10.84,8.022,8.332,15.711l-40.434,123.893
							c-2.504,7.674-10.199,12.711-17.11,11.238L46.847,176.022z"/>
						
							<linearGradient id="SVGID_29_" gradientUnits="userSpaceOnUse" x1="46.3892" y1="180.4453" x2="153.7983" y2="213.1291" gradientTransform="matrix(0.9754 0.1551 -0.1551 0.9754 54.3316 -95.5076)">
							<stop  offset="0" style="stop-color:#464646"/>
							<stop  offset="0.1344" style="stop-color:#4D4D4D"/>
							<stop  offset="0.3197" style="stop-color:#353535"/>
							<stop  offset="0.5925" style="stop-color:#181818"/>
							<stop  offset="0.8287" style="stop-color:#060606"/>
							<stop  offset="1" style="stop-color:#000000"/>
						</linearGradient>
						<path fill="url(#SVGID_29_)" d="M46.759,176.294c-6.244-1.332-9.381-8.294-7.027-15.527L77.728,43.984
							c2.358-7.246,9.453-12.433,15.852-11.554l98.51,13.522c7.083,0.973,10.84,8.024,8.332,15.713L159.988,185.56
							c-2.504,7.672-10.199,12.707-17.11,11.234L46.759,176.294z"/>
						
							<linearGradient id="SVGID_30_" gradientUnits="userSpaceOnUse" x1="56.6914" y1="137.9775" x2="157.5342" y2="168.6632" gradientTransform="matrix(0.9877 0.0776 -0.0776 0.9877 27.1663 -47.7533)">
							<stop  offset="0" style="stop-color:#232323"/>
							<stop  offset="0.1344" style="stop-color:#262626"/>
							<stop  offset="0.3571" style="stop-color:#181818"/>
							<stop  offset="0.7294" style="stop-color:#060606"/>
							<stop  offset="1" style="stop-color:#000000"/>
						</linearGradient>
						<path fill="url(#SVGID_30_)" d="M46.67,176.567c-6.243-1.334-9.381-8.296-7.027-15.529L77.64,44.255
							c2.358-7.246,9.453-12.432,15.852-11.552l98.506,13.536c7.082,0.974,10.839,8.026,8.331,15.715l-40.434,123.894
							c-2.504,7.672-10.199,12.707-17.109,11.234L46.67,176.567z"/>
						<path d="M46.582,176.839c-6.243-1.336-9.381-8.297-7.026-15.531L77.552,44.526c2.357-7.246,9.452-12.432,15.851-11.551
							l98.502,13.549c7.081,0.975,10.838,8.027,8.329,15.717l-40.433,123.893c-2.504,7.672-10.198,12.705-17.108,11.232
							L46.582,176.839z"/>
					</g>
				</g>
				<path fill="#1A1A1A" d="M49.523,164.57c-2.129-0.441-3.206-2.807-2.403-5.275L83.852,46.421
					c0.805-2.471,3.224-4.229,5.399-3.919l98.337,14.026c2.399,0.342,3.662,2.736,2.813,5.339l-38.769,118.821
					c-0.848,2.596-3.453,4.313-5.801,3.826L49.523,164.57z"/>
				
					<linearGradient id="SVGID_31_" gradientUnits="userSpaceOnUse" x1="50.5957" y1="231.0898" x2="158.6732" y2="339.1674" gradientTransform="matrix(0.9507 0.3102 -0.3102 0.9507 108.6638 -191.0172)">
					<stop  offset="0" style="stop-color:#8A8A8A"/>
					<stop  offset="0.0271" style="stop-color:#A9A9A9"/>
					<stop  offset="0.0605" style="stop-color:#C8C8C8"/>
					<stop  offset="0.0956" style="stop-color:#E0E0E0"/>
					<stop  offset="0.1324" style="stop-color:#F2F2F2"/>
					<stop  offset="0.1722" style="stop-color:#FCFCFC"/>
					<stop  offset="0.2204" style="stop-color:#FFFFFF"/>
					<stop  offset="0.2445" style="stop-color:#F9F9F9"/>
					<stop  offset="0.2757" style="stop-color:#E9E9E9"/>
					<stop  offset="0.3109" style="stop-color:#CECECE"/>
					<stop  offset="0.3489" style="stop-color:#A9A9A9"/>
					<stop  offset="0.3889" style="stop-color:#7A7A7A"/>
					<stop  offset="0.3978" style="stop-color:#6E6E6E"/>
					<stop  offset="0.409" style="stop-color:#878787"/>
					<stop  offset="0.4284" style="stop-color:#ABABAB"/>
					<stop  offset="0.4478" style="stop-color:#C7C7C7"/>
					<stop  offset="0.4672" style="stop-color:#DCDCDC"/>
					<stop  offset="0.4864" style="stop-color:#E8E8E8"/>
					<stop  offset="0.5054" style="stop-color:#ECECEC"/>
					<stop  offset="0.5309" style="stop-color:#DEDEDE"/>
					<stop  offset="0.5795" style="stop-color:#B8B8B8"/>
					<stop  offset="0.6456" style="stop-color:#7B7B7B"/>
					<stop  offset="0.6667" style="stop-color:#666666"/>
					<stop  offset="0.6879" style="stop-color:#7B7B7B"/>
					<stop  offset="0.7311" style="stop-color:#A1A1A1"/>
					<stop  offset="0.7742" style="stop-color:#BEBEBE"/>
					<stop  offset="0.8167" style="stop-color:#D3D3D3"/>
					<stop  offset="0.8583" style="stop-color:#E0E0E0"/>
					<stop  offset="0.8978" style="stop-color:#E4E4E4"/>
					<stop  offset="0.9226" style="stop-color:#E1E1E1"/>
					<stop  offset="0.9398" style="stop-color:#D8D8D8"/>
					<stop  offset="0.9546" style="stop-color:#C9C9C9"/>
					<stop  offset="0.9681" style="stop-color:#B3B3B3"/>
					<stop  offset="0.9807" style="stop-color:#979797"/>
					<stop  offset="0.9925" style="stop-color:#757575"/>
					<stop  offset="1" style="stop-color:#5B5B5B"/>
				</linearGradient>
				<path fill="url(#SVGID_31_)" d="M151.113,180.581c-0.746,2.287-3.028,3.791-5.095,3.363l-96.319-19.919
					c-1.875-0.387-2.817-2.461-2.11-4.633L84.328,46.49c0.709-2.175,2.831-3.716,4.744-3.443l98.329,14.054
					c2.108,0.3,3.218,2.401,2.472,4.69L151.113,180.581z"/>
				<path fill="#1A1A1A" d="M150.079,178.665c-0.724,2.219-2.94,3.682-4.942,3.27l-93.592-19.273
					c-1.822-0.375-2.742-2.393-2.056-4.502L85.268,48.221c0.689-2.114,2.752-3.611,4.613-3.344l95.49,13.728
					c2.045,0.293,3.118,2.334,2.395,4.555L150.079,178.665z"/>
				<polygon fill="#1A1A1A" points="148.106,181.327 49.537,161.087 87.116,45.621 187.647,60.13 				"/>
				<polygon fill="#030000" points="143.001,163.298 63.956,147.713 93.172,57.963 173.434,70.001 				"/>
				<g>
					<g>
						<path fill="#94C900" d="M160.068,72.479l-0.306,0.935l-1.087-0.166l-0.839,2.571l1.089,0.167l-0.308,0.938l5.872,0.906
							l1.455-4.457L160.068,72.479z M164.17,77.196l-4.867-0.749l0.306-0.935l-1.091-0.167l0.479-1.472l1.091,0.168l0.305-0.937
							l4.868,0.742L164.17,77.196z"/>
						<polygon fill="#94C900" points="164.788,74.045 164.104,73.94 163.18,76.775 163.865,76.882 						"/>
						<polygon fill="#94C900" points="163.621,73.866 162.936,73.764 162.013,76.596 162.697,76.701 						"/>
						<polygon fill="#94C900" points="162.447,73.688 161.765,73.585 160.842,76.415 161.523,76.521 						"/>
					</g>
					<g>
						<polygon fill="#568FA3" points="95.396,68.496 96.728,68.704 97.713,65.674 96.381,65.468 						"/>
						<polygon fill="#568FA3" points="97.289,68.79 98.623,68.996 99.902,65.066 98.568,64.862 						"/>
						<polygon fill="#568FA3" points="99.217,69.089 100.552,69.296 102.215,64.187 100.879,63.982 						"/>
						<polygon fill="#568FA3" points="103.256,62.954 101.16,69.39 102.498,69.598 104.597,63.158 						"/>
					</g>
					<g>
						<path fill="#94C900" d="M128.804,71.381l0.444,0.778c0.397-0.259,0.887-0.184,1.087,0.168l0.887-0.574
							C130.777,70.972,129.688,70.805,128.804,71.381z"/>
						<path fill="#94C900" d="M128.254,70.205l0.445,0.775c1.051-0.677,2.336-0.48,2.864,0.44l0.888-0.572
							C131.678,69.494,129.792,69.21,128.254,70.205z"/>
						<path fill="#94C900" d="M127.701,69.038l0.443,0.777c1.705-1.099,3.786-0.782,4.646,0.713l0.891-0.576
							C132.572,68.031,129.889,67.622,127.701,69.038z"/>
						<path fill="#94C900" d="M127.16,67.847l0.443,0.777c2.354-1.525,5.234-1.088,6.426,0.98l0.892-0.575
							C133.481,66.534,129.999,66.007,127.16,67.847z"/>
						<path fill="#94C900" d="M129.735,72.417c-0.273-0.043-0.571,0.169-0.669,0.469c-0.1,0.305,0.041,0.58,0.313,0.623
							c0.271,0.042,0.571-0.166,0.672-0.471C130.146,72.737,130.006,72.458,129.735,72.417z"/>
					</g>
				</g>
				<g opacity="0.7">
					<g opacity="0.7">
						<path fill="#FFFFFF" d="M127.477,172.117c-0.151-0.029-0.289-0.107-0.394-0.234l-3.648-4.438
							c-0.176-0.213-0.22-0.525-0.122-0.828c0.1-0.307,0.33-0.564,0.614-0.684l5.918-2.518c0.466-0.203,0.929,0.02,1.035,0.488
							c0.109,0.465-0.181,1.004-0.646,1.201l-4.631,1.971l2.859,3.471c0.284,0.35,0.21,0.928-0.172,1.299
							C128.049,172.08,127.742,172.171,127.477,172.117z"/>
					</g>
					<g opacity="0.7">
						<path fill="#FFFFFF" d="M99.125,166.363c-2.105-0.426-3.186-2.707-2.41-5.084c0.775-2.383,3.118-3.975,5.225-3.557
							c2.115,0.418,3.202,2.703,2.422,5.09C103.585,165.199,101.233,166.792,99.125,166.363z M101.357,159.509
							c-1.238-0.248-2.612,0.686-3.07,2.084c-0.455,1.396,0.182,2.738,1.418,2.988c1.238,0.248,2.618-0.688,3.074-2.086
							C103.234,161.093,102.598,159.755,101.357,159.509z"/>
					</g>
					<g opacity="0.7">
						<g>
							<path fill="#FFFFFF" d="M79.294,155.109l-6.544-1.305c-0.426-0.082-0.641-0.549-0.484-1.033
								c0.16-0.484,0.632-0.811,1.057-0.727l6.546,1.299c0.431,0.084,0.646,0.549,0.485,1.037
								C80.197,154.867,79.722,155.195,79.294,155.109z"/>
						</g>
						<g>
							<path fill="#FFFFFF" d="M78.188,158.5l-6.539-1.316c-0.426-0.084-0.642-0.547-0.483-1.031
								c0.158-0.486,0.631-0.811,1.056-0.727l6.542,1.311c0.43,0.084,0.646,0.549,0.486,1.039
								C79.092,158.259,78.616,158.583,78.188,158.5z"/>
						</g>
						<g>
							<path fill="#FFFFFF" d="M77.086,161.892l-6.538-1.328c-0.425-0.086-0.639-0.547-0.48-1.033
								c0.157-0.486,0.628-0.811,1.053-0.723l6.539,1.32c0.429,0.086,0.645,0.549,0.486,1.039
								C77.986,161.656,77.514,161.98,77.086,161.892z"/>
						</g>
					</g>
				</g>
				
					<linearGradient id="SVGID_32_" gradientUnits="userSpaceOnUse" x1="92.793" y1="209.5908" x2="42.0264" y2="349.0709" gradientTransform="matrix(0.9507 0.3102 -0.3102 0.9507 108.6638 -191.0172)">
					<stop  offset="0" style="stop-color:#E7FFFF"/>
					<stop  offset="0.0851" style="stop-color:#DEF5F5"/>
					<stop  offset="0.2293" style="stop-color:#C6DADA"/>
					<stop  offset="0.415" style="stop-color:#9FAFAF"/>
					<stop  offset="0.6349" style="stop-color:#687373"/>
					<stop  offset="0.8808" style="stop-color:#242727"/>
					<stop  offset="1" style="stop-color:#000000"/>
				</linearGradient>
				<polygon opacity="0.4" fill="url(#SVGID_32_)" points="155.428,55.479 87.116,45.621 49.537,161.087 58.972,163.025 				"/>
				<g>
					<g>
						<path fill="#FFFFFF" d="M102.691,123.78l-2.687,4.24l-0.478-0.09l0.108-3.586c0-0.032,0.005-0.072,0.008-0.109
							c0.004-0.037,0.009-0.078,0.015-0.124c-0.025,0.041-0.047,0.079-0.067,0.114c-0.021,0.035-0.042,0.07-0.063,0.102l-2.11,3.217
							l-0.478-0.088l0.223-4.68l0.441,0.078c0.048,0.01,0.084,0.03,0.107,0.063c0.024,0.035,0.031,0.07,0.028,0.112l-0.196,3.248
							c-0.003,0.055-0.011,0.118-0.02,0.186c-0.011,0.066-0.021,0.136-0.032,0.211c0.036-0.07,0.071-0.137,0.105-0.197
							c0.036-0.064,0.07-0.123,0.105-0.171l1.935-2.931c0.023-0.033,0.055-0.063,0.097-0.085c0.041-0.024,0.085-0.032,0.132-0.025
							l0.154,0.027c0.047,0.009,0.081,0.029,0.104,0.063c0.019,0.034,0.029,0.07,0.031,0.114l-0.085,3.27
							c-0.003,0.055-0.004,0.12-0.011,0.182c-0.008,0.068-0.015,0.135-0.024,0.205c0.03-0.067,0.063-0.13,0.093-0.192
							c0.032-0.058,0.063-0.115,0.093-0.166l1.831-2.955c0.021-0.034,0.052-0.063,0.094-0.088c0.04-0.021,0.084-0.031,0.131-0.021
							L102.691,123.78z"/>
						<path fill="#FFFFFF" d="M103.815,128.247c-0.088,0.075-0.185,0.134-0.29,0.18c-0.104,0.047-0.21,0.079-0.32,0.101
							c-0.11,0.024-0.22,0.033-0.329,0.034c-0.108,0-0.216-0.008-0.315-0.026c-0.194-0.034-0.359-0.104-0.499-0.208
							c-0.14-0.105-0.243-0.238-0.316-0.404c-0.073-0.162-0.107-0.354-0.104-0.576c0.002-0.222,0.047-0.47,0.137-0.743
							c0.07-0.222,0.166-0.42,0.289-0.599c0.123-0.181,0.262-0.333,0.42-0.449c0.158-0.122,0.33-0.207,0.52-0.256
							c0.188-0.053,0.383-0.059,0.586-0.021c0.167,0.03,0.313,0.091,0.434,0.18c0.123,0.09,0.216,0.203,0.281,0.341
							c0.064,0.142,0.1,0.302,0.102,0.488c0.001,0.187-0.033,0.395-0.106,0.618c-0.028,0.086-0.059,0.143-0.085,0.172
							c-0.023,0.024-0.061,0.031-0.107,0.021l-1.87-0.341c-0.058,0.202-0.089,0.378-0.097,0.536
							c-0.005,0.156,0.018,0.288,0.063,0.401c0.045,0.111,0.113,0.2,0.204,0.27c0.088,0.071,0.202,0.116,0.333,0.142
							c0.124,0.023,0.235,0.025,0.336,0.01c0.1-0.014,0.188-0.034,0.266-0.061c0.076-0.027,0.14-0.051,0.196-0.075
							c0.052-0.026,0.096-0.034,0.126-0.027c0.039,0.008,0.066,0.029,0.077,0.068L103.815,128.247z M103.898,126.695
							c0.043-0.128,0.066-0.251,0.068-0.362c0.003-0.111-0.015-0.215-0.051-0.303c-0.037-0.09-0.092-0.165-0.167-0.223
							c-0.074-0.059-0.166-0.1-0.282-0.119c-0.232-0.043-0.445,0-0.634,0.129c-0.187,0.132-0.343,0.331-0.465,0.599L103.898,126.695
							z"/>
						<path fill="#FFFFFF" d="M108.137,124.636l-1.5,4.605l-0.293-0.055c-0.07-0.013-0.1-0.061-0.095-0.141l0.082-0.392
							c-0.173,0.141-0.352,0.247-0.538,0.315c-0.188,0.073-0.379,0.091-0.583,0.054c-0.16-0.03-0.294-0.092-0.402-0.186
							c-0.109-0.093-0.186-0.217-0.233-0.369c-0.049-0.151-0.063-0.336-0.048-0.543c0.015-0.211,0.064-0.447,0.15-0.71
							c0.076-0.236,0.173-0.445,0.294-0.637c0.123-0.191,0.259-0.353,0.408-0.48c0.152-0.125,0.317-0.222,0.496-0.277
							c0.178-0.057,0.359-0.068,0.551-0.035c0.17,0.032,0.307,0.093,0.408,0.18c0.103,0.088,0.182,0.198,0.238,0.333l0.571-1.751
							L108.137,124.636z M106.93,126.735c-0.047-0.154-0.114-0.27-0.203-0.346c-0.09-0.073-0.201-0.122-0.334-0.147
							c-0.261-0.048-0.493,0.021-0.702,0.206c-0.21,0.184-0.378,0.469-0.505,0.86c-0.067,0.207-0.11,0.386-0.123,0.536
							c-0.019,0.153-0.012,0.282,0.018,0.388c0.029,0.106,0.083,0.19,0.156,0.25c0.076,0.061,0.17,0.101,0.281,0.12
							c0.163,0.031,0.318,0.014,0.466-0.048c0.149-0.061,0.299-0.156,0.447-0.29L106.93,126.735z"/>
						<path fill="#FFFFFF" d="M107.143,130.135c-0.008-0.019-0.015-0.034-0.017-0.047c-0.002-0.014,0.001-0.029,0.009-0.049
							c0.005-0.017,0.012-0.027,0.025-0.041c0.014-0.013,0.026-0.026,0.042-0.036c0.028-0.019,0.061-0.045,0.1-0.076
							c0.042-0.032,0.086-0.071,0.133-0.118c0.045-0.046,0.091-0.097,0.135-0.153c0.047-0.056,0.086-0.118,0.118-0.184
							c-0.006-0.002-0.013,0.001-0.019,0c-0.006-0.002-0.013-0.003-0.02-0.004c-0.095-0.018-0.163-0.067-0.198-0.152
							c-0.037-0.084-0.036-0.183,0-0.292c0.031-0.1,0.09-0.176,0.171-0.233c0.083-0.058,0.175-0.079,0.275-0.061
							c0.053,0.011,0.1,0.031,0.136,0.063c0.035,0.029,0.059,0.068,0.074,0.114c0.017,0.047,0.021,0.097,0.021,0.15
							c-0.002,0.058-0.015,0.116-0.034,0.179c-0.031,0.095-0.074,0.188-0.13,0.287c-0.057,0.095-0.124,0.191-0.201,0.281
							c-0.078,0.093-0.165,0.177-0.259,0.258c-0.096,0.084-0.197,0.155-0.308,0.219L107.143,130.135z"/>
						<path fill="#FFFFFF" d="M111.262,130.091l1.135-3.486c0.029-0.093,0.066-0.186,0.102-0.277l-0.933,0.557
							c-0.035,0.018-0.063,0.027-0.089,0.027c-0.025,0.003-0.048-0.001-0.064-0.01c-0.021-0.007-0.037-0.021-0.052-0.034
							c-0.014-0.019-0.021-0.032-0.025-0.05l-0.077-0.268l1.564-0.939l0.404,0.073l-1.465,4.499L111.262,130.091z"/>
						<path fill="#FFFFFF" d="M117.429,126.456l-0.083,0.252c-0.022,0.071-0.047,0.127-0.077,0.172
							c-0.029,0.045-0.054,0.08-0.077,0.109l-2.886,3.45c-0.043,0.05-0.092,0.092-0.146,0.122c-0.056,0.031-0.118,0.04-0.189,0.027
							l-0.356-0.065l2.89-3.4c0.04-0.046,0.083-0.092,0.122-0.13c0.041-0.039,0.083-0.074,0.126-0.111l-2.09-0.381
							c-0.033-0.007-0.059-0.023-0.07-0.057c-0.016-0.033-0.019-0.066-0.005-0.103l0.123-0.38L117.429,126.456z"/>
						<path fill="#FFFFFF" d="M119.981,127.445l-0.514,1.577l1.655,0.301l-0.162,0.495l-1.654-0.303l-0.632,1.939l-0.543-0.101
							l1.468-4.504l2.479,0.45l-0.16,0.497L119.981,127.445z"/>
						<path fill="#FFFFFF" d="M123.404,131.848c-0.089,0.075-0.187,0.134-0.294,0.181c-0.107,0.046-0.214,0.078-0.327,0.101
							c-0.112,0.024-0.224,0.033-0.336,0.034c-0.11-0.001-0.217-0.008-0.322-0.028c-0.197-0.036-0.365-0.105-0.506-0.211
							c-0.144-0.104-0.252-0.242-0.325-0.409c-0.074-0.163-0.11-0.357-0.109-0.583c0.003-0.224,0.047-0.474,0.138-0.749
							c0.071-0.224,0.172-0.422,0.294-0.604c0.124-0.184,0.267-0.336,0.426-0.455c0.163-0.121,0.337-0.207,0.527-0.259
							c0.195-0.051,0.391-0.056,0.599-0.019c0.171,0.031,0.318,0.093,0.444,0.185c0.121,0.089,0.22,0.203,0.286,0.342
							c0.067,0.144,0.1,0.306,0.104,0.495c0.002,0.188-0.033,0.396-0.107,0.621c-0.028,0.089-0.057,0.147-0.081,0.175
							c-0.028,0.026-0.064,0.032-0.11,0.024l-1.908-0.35c-0.061,0.204-0.091,0.382-0.099,0.541
							c-0.003,0.156,0.018,0.291,0.063,0.405c0.048,0.113,0.119,0.204,0.212,0.272c0.091,0.074,0.204,0.12,0.341,0.146
							c0.123,0.022,0.238,0.026,0.341,0.011c0.1-0.016,0.188-0.035,0.27-0.061c0.075-0.027,0.144-0.055,0.198-0.078
							c0.055-0.025,0.099-0.032,0.131-0.025c0.04,0.007,0.068,0.03,0.078,0.068L123.404,131.848z M123.486,130.278
							c0.042-0.128,0.063-0.252,0.065-0.365c0.004-0.113-0.014-0.218-0.05-0.308c-0.037-0.09-0.094-0.164-0.171-0.224
							c-0.075-0.061-0.171-0.101-0.288-0.121c-0.237-0.043-0.455,0-0.644,0.13c-0.192,0.133-0.351,0.334-0.474,0.604
							L123.486,130.278z"/>
						<path fill="#FFFFFF" d="M125.313,129.779c0.174-0.134,0.348-0.233,0.528-0.298c0.185-0.064,0.374-0.08,0.57-0.042
							c0.168,0.029,0.308,0.093,0.419,0.188c0.112,0.096,0.191,0.221,0.244,0.372c0.049,0.154,0.066,0.332,0.055,0.534
							c-0.014,0.203-0.059,0.424-0.137,0.666c-0.085,0.259-0.193,0.49-0.317,0.692c-0.127,0.202-0.267,0.367-0.421,0.497
							c-0.156,0.133-0.322,0.225-0.504,0.281c-0.179,0.055-0.364,0.064-0.552,0.031c-0.191-0.036-0.335-0.105-0.438-0.206
							c-0.105-0.104-0.18-0.238-0.231-0.399l-0.116,0.285c-0.043,0.076-0.101,0.11-0.169,0.097l-0.327-0.06l1.513-4.643l0.507,0.094
							L125.313,129.779z M124.674,131.741c0.046,0.156,0.115,0.272,0.208,0.351c0.091,0.077,0.202,0.126,0.336,0.149
							c0.27,0.049,0.507-0.017,0.721-0.202c0.209-0.188,0.386-0.489,0.522-0.912c0.13-0.393,0.16-0.689,0.09-0.896
							c-0.065-0.208-0.218-0.333-0.452-0.375c-0.164-0.031-0.319-0.016-0.471,0.049c-0.148,0.059-0.299,0.16-0.452,0.293
							L124.674,131.741z"/>
					</g>
				</g>
				<g>
					<g>
						<path fill="#FFFFFF" d="M106.652,88.364l-8.939,27.45l-1.149-0.204l8.22-25.24l-4.087,3.568l-0.598-0.957l5.437-4.801
							L106.652,88.364z"/>
						<path fill="#FFFFFF" d="M109.106,117.845l-0.579-0.104l-3.958-0.705l-4.519-0.805l0.213-0.652
							c0.4-1.224,0.834-2.325,1.309-3.308c0.471-0.977,0.992-1.881,1.563-2.697c1.272-1.876,2.958-3.479,5.05-4.819
							c3.33-2.134,5.53-4.841,6.6-8.117c0.533-1.635,0.663-2.98,0.389-4.031c-0.272-1.052-0.953-1.666-2.045-1.846
							c-1.14-0.187-2.111,0.098-2.918,0.852c-0.876,0.804-1.62,2.156-2.24,4.06l-0.212,0.653l-1.159-0.194l0.213-0.652
							c0.699-2.151,1.611-3.744,2.742-4.791c1.13-1.047,2.461-1.443,3.988-1.195c1.454,0.241,2.396,1.082,2.821,2.532
							c0.337,1.323,0.202,2.924-0.413,4.81c-1.209,3.714-3.652,6.727-7.32,9.033c-1.701,1.062-3.103,2.326-4.206,3.802
							c-1.106,1.476-2.04,3.307-2.806,5.504l3.362,0.597l3.957,0.704l0.581,0.101L109.106,117.845z"/>
						<path fill="#FFFFFF" d="M118.594,97.235l1.136,0.189l-1.015,3.118l-1.135-0.192L118.594,97.235z M113.906,111.626l1.016-3.118
							l1.134,0.196l-1.016,3.119L113.906,111.626z"/>
						<path fill="#FFFFFF" d="M124.979,120.673l-0.59-0.105l-4.018-0.717l-4.589-0.817l0.214-0.657
							c0.402-1.231,0.842-2.343,1.321-3.33c0.474-0.985,1.003-1.896,1.582-2.719c1.288-1.89,2.995-3.505,5.116-4.853
							c3.374-2.147,5.603-4.874,6.678-8.173c0.538-1.65,0.668-3.006,0.389-4.066c-0.277-1.06-0.973-1.68-2.08-1.861
							c-1.157-0.191-2.146,0.095-2.962,0.853c-0.886,0.81-1.642,2.173-2.266,4.089l-0.216,0.66l-1.175-0.198l0.213-0.657
							c0.707-2.166,1.63-3.771,2.774-4.824c1.148-1.055,2.496-1.454,4.045-1.199c1.479,0.241,2.438,1.091,2.873,2.555
							c0.344,1.333,0.211,2.949-0.409,4.848c-1.22,3.741-3.692,6.776-7.411,9.098c-1.725,1.068-3.144,2.341-4.262,3.828
							c-1.119,1.486-2.063,3.33-2.837,5.544l3.417,0.607l4.018,0.713l0.591,0.104L124.979,120.673z"/>
						<path fill="#FFFFFF" d="M145.459,96.082l0.419-1.288l-9.343-1.531l-5.212,15.992l1.307,0.225
							c0.471-0.99,1.017-1.824,1.659-2.465c0.937-0.949,1.953-1.328,3.045-1.144c1.171,0.2,1.884,0.785,2.145,1.765
							c0.282,1.07,0.091,2.629-0.575,4.676l-0.96,2.942c-0.281,0.859-0.614,1.638-1.004,2.35c-0.388,0.706-0.832,1.308-1.337,1.799
							c-0.966,1.028-1.995,1.449-3.089,1.255c-1.138-0.203-1.83-0.821-2.066-1.857c-0.215-0.755-0.177-1.769,0.098-3.03
							l-1.188-0.208c-0.332,1.507-0.377,2.782-0.118,3.814c0.368,1.436,1.321,2.291,2.856,2.564c1.516,0.27,2.943-0.283,4.285-1.654
							c0.556-0.57,1.072-1.274,1.56-2.113s0.882-1.736,1.198-2.709l0.962-2.945c0.747-2.299,0.946-4.118,0.593-5.464
							c-0.432-1.413-1.408-2.252-2.929-2.509c-1.465-0.248-2.848,0.26-4.148,1.522l3.693-11.327L145.459,96.082z"/>
					</g>
				</g>
				<g>
					<path fill="#47484B" d="M96.645,144.21c0.316-0.97-0.121-1.885-0.974-2.048c-0.854-0.163-1.801,0.485-2.115,1.455
						c-0.313,0.964,0.122,1.879,0.974,2.044C95.382,145.826,96.33,145.177,96.645,144.21z"/>
					<path fill="#47484B" d="M101.976,145.234c0.316-0.973-0.125-1.89-0.983-2.053c-0.856-0.165-1.805,0.485-2.122,1.455
						c-0.313,0.968,0.122,1.886,0.979,2.052C100.708,146.854,101.658,146.204,101.976,145.234z"/>
					<path fill="#47484B" d="M107.334,146.265c0.317-0.976-0.127-1.896-0.989-2.06c-0.861-0.164-1.815,0.486-2.134,1.459
						c-0.314,0.972,0.126,1.892,0.989,2.058C106.061,147.888,107.017,147.235,107.334,146.265z"/>
					<path fill="#94C900" d="M112.891,147.331c0.354-1.082-0.141-2.105-1.104-2.288c-0.962-0.186-2.025,0.538-2.377,1.621
						c-0.352,1.079,0.141,2.105,1.102,2.291C111.473,149.14,112.539,148.414,112.891,147.331z"/>
					<path fill="#47484B" d="M118.135,148.341c0.318-0.979-0.13-1.906-1.004-2.072c-0.868-0.167-1.833,0.488-2.15,1.467
						c-0.318,0.974,0.129,1.903,0.999,2.069C116.852,149.974,117.814,149.318,118.135,148.341z"/>
				</g>
			</g>
			<path d="M81.4,194.396c-1.22-0.248-2.062-1.172-1.88-2.061c0.183-0.889,1.317-1.408,2.538-1.158
				c1.218,0.248,2.06,1.17,1.877,2.059C83.756,194.126,82.619,194.646,81.4,194.396z M93.977,195.288
				c0.18-0.891-0.661-1.813-1.881-2.061c-1.219-0.25-2.354,0.268-2.536,1.156c-0.183,0.889,0.661,1.813,1.878,2.061
				C92.658,196.694,93.795,196.177,93.977,195.288z M104.015,197.337c0.181-0.889-0.659-1.813-1.881-2.061
				c-1.218-0.25-2.354,0.27-2.536,1.158c-0.181,0.891,0.66,1.813,1.881,2.061C102.697,198.745,103.833,198.226,104.015,197.337z"/>
			<g>
				<path fill="#292E38" d="M168.93,35.224c-0.487,1.449-3.104,2.323-5.817,1.926l-39.969-5.851c-2.418-0.354-3.579-1.7-2.627-2.985
					l4.034-5.436c0.854-1.154,3.352-1.833,5.604-1.537l37.057,4.863c2.506,0.33,4.202,1.625,3.77,2.914L168.93,35.224z"/>
				<path d="M120.645,29.099l4.053-5.504c0.858-1.167,3.371-1.854,5.638-1.556l37.305,4.933c1.515,0.2,2.73,0.752,3.371,1.443
					c-0.247-1.029-1.751-1.941-3.8-2.211l-37.057-4.863c-2.252-0.296-4.75,0.383-5.604,1.537l-4.034,5.436
					c-0.376,0.509-0.42,1.025-0.185,1.489C120.371,29.569,120.471,29.333,120.645,29.099z"/>
				<polygon fill="#454850" points="137.042,30.38 127.496,29.021 130.813,24.157 140.028,25.401 				"/>
				<polygon fill="#2E2654" points="128.381,28.766 131.223,24.565 139.185,25.645 136.59,29.93 				"/>
				
					<radialGradient id="SVGID_33_" cx="98.5249" cy="217.1055" r="4.9044" gradientTransform="matrix(0.9563 0.2924 -0.1764 0.5769 77.8609 -126.852)" gradientUnits="userSpaceOnUse">
					<stop  offset="0" style="stop-color:#7087A1"/>
					<stop  offset="0.134" style="stop-color:#6C839C"/>
					<stop  offset="0.2955" style="stop-color:#62768D"/>
					<stop  offset="0.4711" style="stop-color:#516275"/>
					<stop  offset="0.6568" style="stop-color:#3A4553"/>
					<stop  offset="0.8485" style="stop-color:#1C2128"/>
					<stop  offset="1" style="stop-color:#000000"/>
				</radialGradient>
				<polygon fill="url(#SVGID_33_)" points="128.381,28.766 131.223,24.565 139.185,25.645 136.59,29.93 				"/>
				<polygon fill="#454850" points="161.508,33.863 142.924,31.218 145.7,26.167 163.602,28.585 				"/>
				<polygon fill="#2E2654" points="143.799,30.952 146.172,26.591 162.775,28.841 160.947,33.384 				"/>
				
					<linearGradient id="SVGID_34_" gradientUnits="userSpaceOnUse" x1="118.0078" y1="172.9956" x2="118.0078" y2="180.563" gradientTransform="matrix(0.9563 0.2924 -0.2924 0.9563 92.1261 -173.663)">
					<stop  offset="0" style="stop-color:#FFFFFF"/>
					<stop  offset="0.12" style="stop-color:#D1D1D1"/>
					<stop  offset="0.3014" style="stop-color:#939393"/>
					<stop  offset="0.4754" style="stop-color:#5E5E5E"/>
					<stop  offset="0.6367" style="stop-color:#353535"/>
					<stop  offset="0.7828" style="stop-color:#181818"/>
					<stop  offset="0.9088" style="stop-color:#060606"/>
					<stop  offset="1" style="stop-color:#000000"/>
				</linearGradient>
				<polygon opacity="0.2" fill="url(#SVGID_34_)" points="143.799,30.952 146.172,26.591 162.775,28.841 160.947,33.384 				"/>
				
					<linearGradient id="SVGID_35_" gradientUnits="userSpaceOnUse" x1="110.3687" y1="169.8682" x2="110.3687" y2="186.1362" gradientTransform="matrix(0.9563 0.2924 -0.2924 0.9563 92.1261 -173.663)">
					<stop  offset="0" style="stop-color:#FFFFFF"/>
					<stop  offset="0.0016" style="stop-color:#FDFDFD"/>
					<stop  offset="0.0479" style="stop-color:#CECECE"/>
					<stop  offset="0.0972" style="stop-color:#A3A3A3"/>
					<stop  offset="0.1522" style="stop-color:#7C7C7C"/>
					<stop  offset="0.2115" style="stop-color:#5A5A5A"/>
					<stop  offset="0.2765" style="stop-color:#3E3E3E"/>
					<stop  offset="0.349" style="stop-color:#272727"/>
					<stop  offset="0.4323" style="stop-color:#151515"/>
					<stop  offset="0.5332" style="stop-color:#090909"/>
					<stop  offset="0.6698" style="stop-color:#020202"/>
					<stop  offset="1" style="stop-color:#000000"/>
				</linearGradient>
				<path opacity="0.5" fill="url(#SVGID_35_)" d="M124.543,30.824c-1.947-0.284-2.902-1.369-2.15-2.404l3.762-5.181
					c0.68-0.936,2.706-1.491,4.533-1.25l35.311,4.663c2.02,0.267,3.378,1.317,3.014,2.357l-2.029,5.765
					c-0.408,1.156-2.519,1.855-4.688,1.539L124.543,30.824z"/>
			</g>
			<g>
				<g>
					
						<linearGradient id="SVGID_36_" gradientUnits="userSpaceOnUse" x1="181.8887" y1="243.1963" x2="181.8887" y2="266.4492" gradientTransform="matrix(0.9563 0.2924 -0.2924 0.9563 92.1261 -173.663)">
						<stop  offset="0" style="stop-color:#8A8A8A"/>
						<stop  offset="0.0271" style="stop-color:#A9A9A9"/>
						<stop  offset="0.0605" style="stop-color:#C8C8C8"/>
						<stop  offset="0.0956" style="stop-color:#E0E0E0"/>
						<stop  offset="0.1324" style="stop-color:#F2F2F2"/>
						<stop  offset="0.1722" style="stop-color:#FCFCFC"/>
						<stop  offset="0.2204" style="stop-color:#FFFFFF"/>
						<stop  offset="0.2445" style="stop-color:#F9F9F9"/>
						<stop  offset="0.2757" style="stop-color:#E9E9E9"/>
						<stop  offset="0.3109" style="stop-color:#CECECE"/>
						<stop  offset="0.3489" style="stop-color:#A9A9A9"/>
						<stop  offset="0.3889" style="stop-color:#7A7A7A"/>
						<stop  offset="0.3978" style="stop-color:#6E6E6E"/>
						<stop  offset="0.409" style="stop-color:#878787"/>
						<stop  offset="0.4284" style="stop-color:#ABABAB"/>
						<stop  offset="0.4478" style="stop-color:#C7C7C7"/>
						<stop  offset="0.4672" style="stop-color:#DCDCDC"/>
						<stop  offset="0.4864" style="stop-color:#E8E8E8"/>
						<stop  offset="0.5054" style="stop-color:#ECECEC"/>
						<stop  offset="0.547" style="stop-color:#DEDEDE"/>
						<stop  offset="0.6264" style="stop-color:#B8B8B8"/>
						<stop  offset="0.7345" style="stop-color:#7B7B7B"/>
						<stop  offset="0.7688" style="stop-color:#666666"/>
						<stop  offset="0.8047" style="stop-color:#848484"/>
						<stop  offset="0.8451" style="stop-color:#9F9F9F"/>
						<stop  offset="0.8811" style="stop-color:#AFAFAF"/>
						<stop  offset="0.9086" style="stop-color:#B5B5B5"/>
						<stop  offset="0.9216" style="stop-color:#9E9E9E"/>
						<stop  offset="0.9418" style="stop-color:#818181"/>
						<stop  offset="0.9618" style="stop-color:#6C6C6C"/>
						<stop  offset="0.9814" style="stop-color:#5F5F5F"/>
						<stop  offset="1" style="stop-color:#5B5B5B"/>
					</linearGradient>
					<path fill="url(#SVGID_36_)" d="M197.027,112.724c-0.736-0.225-3.408-1.042-4.145-1.267c-2.904-0.888-6.781,3.37-8.658,9.51
						c-1.877,6.141-1.045,11.839,1.859,12.727c0.736,0.225,3.408,1.042,4.145,1.267c2.904,0.888,6.782-3.369,8.659-9.51
						C200.766,119.31,199.932,113.611,197.027,112.724z"/>
					
						<image overflow="visible" width="52" height="87" xlink:href="68255A8D.png"  transform="matrix(0.24 0 0 0.24 187.5 113.4355)">
					</image>
				</g>
				<path d="M200.21,94.203c-0.261,0.796-1.104,0.975-1.885,0.397l0,0c-0.779-0.576-1.2-1.688-0.94-2.483l6.093-18.606
					c0.261-0.795,1.104-0.973,1.885-0.396l0,0c0.778,0.576,1.2,1.688,0.938,2.482L200.21,94.203z"/>
				<g>
					
						<ellipse transform="matrix(0.9563 0.2925 -0.2925 0.9563 54.5511 -44.7076)" cx="176.795" cy="160.086" rx="2.508" ry="5.403"/>
					
						<linearGradient id="SVGID_37_" gradientUnits="userSpaceOnUse" x1="177.1797" y1="294.4063" x2="181.0635" y2="294.4063" gradientTransform="matrix(0.9563 0.2924 -0.2924 0.9563 92.1261 -173.663)">
						<stop  offset="0" style="stop-color:#FFFFFF"/>
						<stop  offset="0.0109" style="stop-color:#F6F6F6"/>
						<stop  offset="0.0625" style="stop-color:#D2D2D2"/>
						<stop  offset="0.1205" style="stop-color:#B2B2B2"/>
						<stop  offset="0.1846" style="stop-color:#969696"/>
						<stop  offset="0.257" style="stop-color:#808080"/>
						<stop  offset="0.3416" style="stop-color:#6F6F6F"/>
						<stop  offset="0.4462" style="stop-color:#646464"/>
						<stop  offset="0.5928" style="stop-color:#5D5D5D"/>
						<stop  offset="1" style="stop-color:#5B5B5B"/>
					</linearGradient>
					<path fill="url(#SVGID_37_)" d="M179.193,160.82c-0.779,2.547-2.242,4.359-3.268,4.045c-1.025-0.313-1.226-2.633-0.446-5.18
						c0.778-2.549,2.241-4.359,3.267-4.045C179.772,155.953,179.972,158.273,179.193,160.82z"/>
				</g>
			</g>
		</g>
	</g>
</g>
</svg>
