<?xml version="1.0" encoding="utf-8"?>
<!-- Generator: Adobe Illustrator 16.0.0, SVG Export Plug-In . SVG Version: 6.00 Build 0)  -->
<!DOCTYPE svg PUBLIC "-//W3C//DTD SVG 1.1//EN" "http://www.w3.org/Graphics/SVG/1.1/DTD/svg11.dtd">
<svg version="1.1" id="Calque_1" xmlns="http://www.w3.org/2000/svg" xmlns:xlink="http://www.w3.org/1999/xlink" x="0px" y="0px"
	 width="92px" height="206px" viewBox="0 0 92 206" enable-background="new 0 0 92 206" xml:space="preserve">
<g>
	<g>
		<path fill="#CCC4C7" d="M38.344,106.555c-3.634,7.098-5.097,14.12-3.79,22.022c1.386,8.381,5.673,16.132,7.78,24.347
			c2.389,9.317,1.027,21.048-3.179,29.715c-3.232,6.662-11.304,9.521-17.235,13.179c-2.738,1.689-0.229,6.015,2.523,4.317
			c5.769-3.558,12.41-6.273,16.816-11.612c5.411-6.556,6.598-16.634,7.093-24.799c0.557-9.186-2.73-17.741-5.885-26.193
			c-3.716-9.954-4.821-18.658,0.193-28.453C44.127,106.214,39.813,103.684,38.344,106.555L38.344,106.555z"/>
	</g>
</g>
<g>
	
		<ellipse transform="matrix(0.9949 0.1007 -0.1007 0.9949 6.0589 -4.3306)" fill="#EF498A" stroke="#FFFFFF" stroke-miterlimit="10" cx="45.908" cy="57.826" rx="40.503" ry="46.83"/>
	<g>
		<path fill="#EF498A" d="M34.632,100.686c-0.544,5.373-8.607,7.572-7.836,11.872c1.308,4.958,12.235,4.255,15.34,3.363
			c14.215-3.385,3.839-14.085-5.531-16.844"/>
	</g>
</g>
</svg>
