<?xml version="1.0" encoding="utf-8"?>
<!-- Generator: Adobe Illustrator 16.0.0, SVG Export Plug-In . SVG Version: 6.00 Build 0)  -->
<!DOCTYPE svg PUBLIC "-//W3C//DTD SVG 1.1//EN" "http://www.w3.org/Graphics/SVG/1.1/DTD/svg11.dtd">
<svg version="1.1" id="Calque_1" xmlns="http://www.w3.org/2000/svg" xmlns:xlink="http://www.w3.org/1999/xlink" x="0px" y="0px"
	 width="97.184px" height="103.153px" viewBox="0 0 97.184 103.153" enable-background="new 0 0 97.184 103.153"
	 xml:space="preserve">
<g>
	<g>
		<g>
			<circle fill="#A6DDE9" cx="36.908" cy="65.788" r="34.387"/>
			<path fill="#A6DDE9" d="M62.685,55.893c-4.517,5.039-12.263,5.462-17.303,0.946l0,0c-5.039-4.517-5.463-12.263-0.946-17.302
				l22.159-24.724c4.518-5.039,12.264-5.462,17.303-0.946l0,0c5.039,4.516,5.463,12.263,0.946,17.303L62.685,55.893z"/>
			<path fill="#A6DDE9" d="M93.876,28.94c-1.965,2.048-5.776,1.578-8.514-1.049L69.35,12.523c-2.737-2.626-3.362-6.416-1.397-8.462
				l0,0c1.964-2.049,5.776-1.578,8.514,1.049l16.012,15.367C95.215,23.104,95.841,26.893,93.876,28.94L93.876,28.94z"/>
		</g>
		<g opacity="0.5">
			<path fill="#B0469A" d="M7.424,57.331c-5.474,34.663,40.75,57.13,54.13,21.184c9.732-25.035-14.597-10.271-25.544-10.913
				c-7.906-0.643-10.948-3.852-15.205-10.912c-3.042-4.494,0-8.987-6.083-8.345c-3.041,0.642-5.474,6.419-6.69,8.345"/>
		</g>
		<g opacity="0.5">
			<path fill="#852886" d="M7.707,53.592c-1.029,9.871,14.057,19.125,23.314,20.976c4.8,0.926,9.6,1.234,14.4,0.309
				c6.171-1.234,11.314-4.936,17.143-0.617c7.04-33.622-54.857-14.189-41.486-29.613c-6.171-1.234-11.657,5.552-13.029,10.488"/>
		</g>
	</g>
	<ellipse opacity="0.5" fill="#B0469A" cx="58.494" cy="48.282" rx="5.31" ry="5.392"/>
	<ellipse opacity="0.5" fill="#B0469A" cx="63.124" cy="31.399" rx="3.811" ry="3.87"/>
	<ellipse opacity="0.5" fill="#B0469A" cx="84.068" cy="22.748" rx="3.544" ry="3.598"/>
</g>
</svg>
