<?xml version="1.0" encoding="utf-8"?>
<!-- Generator: Adobe Illustrator 16.0.0, SVG Export Plug-In . SVG Version: 6.00 Build 0)  -->
<!DOCTYPE svg PUBLIC "-//W3C//DTD SVG 1.1//EN" "http://www.w3.org/Graphics/SVG/1.1/DTD/svg11.dtd">
<svg version="1.1" id="Calque_1" xmlns="http://www.w3.org/2000/svg" xmlns:xlink="http://www.w3.org/1999/xlink" x="0px" y="0px"
	 width="619.469px" height="464.977px" viewBox="0 0 619.469 464.977" enable-background="new 0 0 619.469 464.977"
	 xml:space="preserve">
<g>
	<path fill="#666666" d="M606.297,376.288c0,43.184-21.594,78.19-48.23,78.19H67.729c-26.637,0-48.23-35.007-48.23-78.19V89.587
		c0-43.184,21.593-78.191,48.23-78.191h490.338c26.637,0,48.23,35.007,48.23,78.191V376.288z"/>
	<path fill="#D165D1" d="M187.893,188.396c0,6.627-5.373,12-12,12h-122c-6.627,0-12-5.373-12-12v-44c0-6.627,5.373-12,12-12h122
		c6.627,0,12,5.373,12,12V188.396z"/>
	<path fill="#26C6AB" d="M383.893,188.396c0,6.627-5.373,12-12,12h-122c-6.627,0-12-5.373-12-12v-44c0-6.627,5.373-12,12-12h122
		c6.627,0,12,5.373,12,12V188.396z"/>
	<path fill="#26C6AB" d="M383.893,303.396c0,6.627-5.373,12-12,12h-122c-6.627,0-12-5.373-12-12v-44c0-6.627,5.373-12,12-12h122
		c6.627,0,12,5.373,12,12V303.396z"/>
	<path fill="#FFA05F" d="M573.893,188.396c0,6.627-5.373,12-12,12h-122c-6.627,0-12-5.373-12-12v-44c0-6.627,5.373-12,12-12h122
		c6.627,0,12,5.373,12,12V188.396z"/>
	<path fill="#FFA05F" d="M573.893,303.396c0,6.627-5.373,12-12,12h-122c-6.627,0-12-5.373-12-12v-44c0-6.627,5.373-12,12-12h122
		c6.627,0,12,5.373,12,12V303.396z"/>
	<path fill="#FFA05F" d="M573.893,408.396c0,6.627-5.373,12-12,12h-122c-6.627,0-12-5.373-12-12v-44c0-6.627,5.373-12,12-12h122
		c6.627,0,12,5.373,12,12V408.396z"/>
	<g>
		<path fill="#FFFFFF" d="M52.808,38.328h2.169v15.46h-2.169V38.328z M54.275,51.725h3.498c1.141,0,2.025-0.296,2.653-0.888
			c0.627-0.592,0.941-1.426,0.941-2.504v-4.551c0-1.077-0.313-1.912-0.941-2.504s-1.512-0.888-2.653-0.888h-3.498v-2.063h3.434
			c1.24,0,2.3,0.216,3.179,0.649c0.879,0.432,1.549,1.063,2.01,1.893c0.46,0.829,0.691,1.829,0.691,2.998v4.381
			c0,1.169-0.23,2.169-0.691,2.999c-0.461,0.829-1.132,1.46-2.015,1.893c-0.882,0.432-1.944,0.648-3.185,0.648h-3.423V51.725z"/>
		<path fill="#FFFFFF" d="M68.938,53.24c-0.822-0.472-1.458-1.138-1.909-1.999s-0.675-1.859-0.675-2.993v-4.381
			c0-1.134,0.225-2.132,0.675-2.993c0.45-0.861,1.086-1.527,1.909-1.999c0.822-0.472,1.772-0.707,2.85-0.707
			c1.077,0,2.027,0.235,2.85,0.707c0.822,0.471,1.458,1.138,1.908,1.999c0.45,0.861,0.675,1.859,0.675,2.993v4.381
			c0,1.134-0.225,2.132-0.675,2.993s-1.086,1.527-1.908,1.999c-0.823,0.471-1.772,0.707-2.85,0.707
			C70.709,53.947,69.76,53.711,68.938,53.24z M73.472,51.379c0.485-0.287,0.861-0.695,1.127-1.223
			c0.266-0.528,0.399-1.14,0.399-1.834v-4.529c0-0.695-0.133-1.306-0.399-1.834c-0.266-0.528-0.642-0.936-1.127-1.223
			s-1.047-0.431-1.685-0.431c-0.638,0-1.2,0.144-1.686,0.431s-0.861,0.695-1.127,1.223c-0.266,0.528-0.399,1.139-0.399,1.834v4.529
			c0,0.695,0.133,1.306,0.399,1.834c0.266,0.528,0.642,0.936,1.127,1.223s1.047,0.431,1.686,0.431
			C72.425,51.81,72.987,51.667,73.472,51.379z"/>
		<path fill="#FFFFFF" d="M83.76,53.947c0,0-0.406-0.238-1.218-0.712c-0.812-0.475-1.44-1.148-1.887-2.021
			c-0.446-0.872-0.67-1.882-0.67-3.03v-4.242c0-1.148,0.224-2.159,0.67-3.03c0.447-0.872,1.076-1.547,1.887-2.026
			c0.812-0.478,1.753-0.717,2.823-0.717c0.886,0,1.701,0.189,2.445,0.569c0.745,0.379,1.366,0.916,1.866,1.611
			c0.5,0.694,0.838,1.499,1.015,2.414H88.47c-0.135-0.482-0.36-0.913-0.675-1.292c-0.316-0.379-0.686-0.671-1.111-0.877
			c-0.425-0.205-0.865-0.308-1.318-0.308c-0.631,0-1.184,0.152-1.659,0.457c-0.475,0.305-0.844,0.732-1.106,1.281
			s-0.394,1.189-0.394,1.919v4.242c0,0.723,0.131,1.361,0.394,1.914s0.631,0.98,1.106,1.281c0.475,0.301,1.028,0.452,1.659,0.452
			c0.46,0,0.902-0.096,1.324-0.287c0.421-0.191,0.79-0.475,1.106-0.851c0.315-0.375,0.54-0.822,0.675-1.339h2.222
			c-0.177,0.914-0.517,1.719-1.021,2.414s-1.127,1.231-1.872,1.611c-0.744,0.379-1.556,0.569-2.435,0.569
			C84.295,53.947,83.76,53.947,83.76,53.947z"/>
		<path fill="#FFFFFF" d="M95.631,53.272c-0.812-0.45-1.43-1.106-1.855-1.967c-0.425-0.861-0.638-1.898-0.638-3.11v-9.867h2.169
			v9.941c0,1.127,0.284,1.999,0.851,2.616c0.567,0.617,1.368,0.925,2.403,0.925c1.042,0,1.848-0.309,2.419-0.925
			c0.57-0.617,0.856-1.488,0.856-2.616v-9.941h2.169v9.867c0,1.212-0.213,2.249-0.638,3.11c-0.425,0.861-1.045,1.517-1.86,1.967
			c-0.815,0.45-1.797,0.675-2.945,0.675C97.419,53.947,96.443,53.722,95.631,53.272z"/>
		<path fill="#FFFFFF" d="M118.518,38.328h2.031v15.46h-2.116V42.208l0.106,0.681l-3.807,8.75h-1.51l-3.807-8.538l0.106-0.893
			v11.579h-2.116v-15.46h2.031l4.54,10.208L118.518,38.328z"/>
		<path fill="#FFFFFF" d="M124.376,38.328h2.169v15.46h-2.169V38.328z M125.429,38.328h8.878v2.063h-8.878V38.328z M125.429,45.08
			h7.709v2.063h-7.709V45.08z M125.429,51.725h8.878v2.063h-8.878V51.725z"/>
		<path fill="#FFFFFF" d="M137.391,38.328h1.967l7.56,11.951l-0.255,0.276V38.328h2.148v15.449h-1.988l-7.539-11.77l0.255-0.277
			v12.047h-2.147V38.328z"/>
		<path fill="#FFFFFF" d="M151.362,38.328h10.909v2.063h-10.909V38.328z M155.732,39.593h2.169v14.194h-2.169V39.593z"/>
		<path fill="#FFFFFF" d="M234.201,56.722h-2.073l7.177-20.223h2.073L234.201,56.722z"/>
		<path fill="#FFFFFF" d="M242.441,56.722h-2.073l7.177-20.223h2.073L242.441,56.722z"/>
		<path fill="#FFFFFF" d="M256.476,38.328h2.169v15.46h-2.169V38.328z M257.943,51.725h3.498c1.141,0,2.025-0.296,2.653-0.888
			c0.627-0.592,0.941-1.426,0.941-2.504v-4.551c0-1.077-0.313-1.912-0.941-2.504s-1.512-0.888-2.653-0.888h-3.498v-2.063h3.434
			c1.24,0,2.3,0.216,3.179,0.649c0.879,0.432,1.549,1.063,2.01,1.893c0.46,0.829,0.691,1.829,0.691,2.998v4.381
			c0,1.169-0.23,2.169-0.691,2.999c-0.461,0.829-1.132,1.46-2.015,1.893c-0.882,0.432-1.944,0.648-3.185,0.648h-3.423V51.725z"/>
		<path fill="#FFFFFF" d="M272.606,53.24c-0.822-0.472-1.458-1.138-1.909-1.999s-0.675-1.859-0.675-2.993v-4.381
			c0-1.134,0.225-2.132,0.675-2.993c0.45-0.861,1.086-1.527,1.909-1.999c0.822-0.472,1.772-0.707,2.85-0.707
			c1.077,0,2.027,0.235,2.85,0.707c0.822,0.471,1.458,1.138,1.908,1.999c0.45,0.861,0.675,1.859,0.675,2.993v4.381
			c0,1.134-0.225,2.132-0.675,2.993s-1.086,1.527-1.908,1.999c-0.823,0.471-1.772,0.707-2.85,0.707
			C274.378,53.947,273.428,53.711,272.606,53.24z M277.141,51.379c0.485-0.287,0.861-0.695,1.127-1.223
			c0.266-0.528,0.399-1.14,0.399-1.834v-4.529c0-0.695-0.133-1.306-0.399-1.834c-0.266-0.528-0.642-0.936-1.127-1.223
			s-1.047-0.431-1.685-0.431c-0.638,0-1.2,0.144-1.686,0.431s-0.861,0.695-1.127,1.223c-0.266,0.528-0.399,1.139-0.399,1.834v4.529
			c0,0.695,0.133,1.306,0.399,1.834c0.266,0.528,0.642,0.936,1.127,1.223s1.047,0.431,1.686,0.431
			C276.093,51.81,276.655,51.667,277.141,51.379z"/>
		<path fill="#FFFFFF" d="M295.296,38.328h2.031v15.46h-2.116V42.208l0.106,0.681l-3.807,8.75h-1.51l-3.807-8.538l0.106-0.893
			v11.579h-2.116v-15.46h2.031l4.54,10.208L295.296,38.328z"/>
		<path fill="#FFFFFF" d="M313.935,47.217v2.063h-7.145v-2.063H313.935z"/>
		<path fill="#FFFFFF" d="M323.292,38.328h2.169v15.46h-2.169V38.328z M324.759,51.725h3.498c1.142,0,2.026-0.296,2.653-0.888
			c0.627-0.592,0.941-1.426,0.941-2.504v-4.551c0-1.077-0.314-1.912-0.941-2.504s-1.512-0.888-2.653-0.888h-3.498v-2.063h3.434
			c1.24,0,2.3,0.216,3.18,0.649c0.879,0.432,1.548,1.063,2.009,1.893c0.461,0.829,0.691,1.829,0.691,2.998v4.381
			c0,1.169-0.23,2.169-0.691,2.999c-0.461,0.829-1.132,1.46-2.015,1.893c-0.883,0.432-1.944,0.648-3.185,0.648h-3.423V51.725z"/>
		<path fill="#FFFFFF" d="M339.144,53.384c-0.681-0.376-1.199-0.923-1.558-1.643c-0.357-0.719-0.537-1.586-0.537-2.6v-1.797
			c0-1,0.18-1.855,0.537-2.568c0.358-0.712,0.877-1.254,1.558-1.627c0.681-0.372,1.5-0.558,2.456-0.558
			c0.957,0,1.776,0.186,2.456,0.558c0.681,0.373,1.2,0.915,1.559,1.627c0.357,0.712,0.536,1.568,0.536,2.568v1.829
			c0,1.007-0.179,1.866-0.536,2.579c-0.358,0.712-0.878,1.256-1.559,1.632c-0.68,0.375-1.499,0.563-2.456,0.563
			C340.644,53.947,339.825,53.759,339.144,53.384z M343.36,51.172c0.415-0.475,0.622-1.141,0.622-1.999v-1.829
			c0-0.857-0.207-1.521-0.622-1.988c-0.414-0.468-1.001-0.702-1.76-0.702c-0.758,0-1.345,0.234-1.76,0.702
			c-0.414,0.468-0.621,1.131-0.621,1.988v1.829c0,0.858,0.207,1.524,0.621,1.999c0.415,0.475,1.002,0.712,1.76,0.712
			C342.359,51.884,342.946,51.647,343.36,51.172z"/>
		<path fill="#FFFFFF" d="M352.18,53.947c0,0-0.356-0.188-1.068-0.563c-0.713-0.376-1.257-0.921-1.633-1.638
			c-0.375-0.716-0.563-1.581-0.563-2.594v-1.818c0-1,0.188-1.854,0.563-2.563c0.376-0.708,0.92-1.249,1.633-1.622
			c0.712-0.372,1.571-0.558,2.578-0.558c0.574,0,1.114,0.069,1.621,0.208s0.963,0.338,1.367,0.601
			c0.403,0.262,0.74,0.582,1.01,0.957l-1.563,1.403c-0.312-0.354-0.677-0.627-1.095-0.818s-0.854-0.287-1.308-0.287
			c-0.837,0-1.485,0.234-1.946,0.702s-0.69,1.127-0.69,1.978v1.818c0,0.872,0.229,1.545,0.686,2.02
			c0.457,0.475,1.107,0.712,1.951,0.712c0.46,0,0.899-0.103,1.318-0.308c0.418-0.206,0.779-0.496,1.084-0.872l1.563,1.51
			c-0.276,0.369-0.617,0.683-1.021,0.941c-0.404,0.259-0.86,0.456-1.366,0.59c-0.507,0.134-1.044,0.202-1.611,0.202
			C352.683,53.947,352.18,53.947,352.18,53.947z"/>
		<path fill="#FFFFFF" d="M361.984,49.46c0,0.773,0.197,1.37,0.59,1.792c0.394,0.421,0.948,0.632,1.664,0.632
			c0.709,0,1.259-0.188,1.648-0.563c0.39-0.375,0.585-0.911,0.585-1.605l0.148,2.307c-0.227,0.546-0.595,1.003-1.105,1.372
			c-0.511,0.369-1.138,0.553-1.882,0.553c-1.22,0-2.16-0.392-2.823-1.175c-0.663-0.783-0.994-1.887-0.994-3.312v-6.709h2.169V49.46z
			 M366.471,42.751h2.158v11.037h-2.158V42.751z"/>
		<path fill="#FFFFFF" d="M371.925,42.751h2.169v11.037h-2.169V42.751z M378.518,47.1c0-0.78-0.191-1.382-0.574-1.808
			s-0.926-0.638-1.627-0.638c-0.709,0-1.257,0.188-1.643,0.563c-0.387,0.375-0.58,0.904-0.58,1.584l-0.223-2.126
			c0.34-0.666,0.784-1.18,1.334-1.542c0.549-0.362,1.157-0.542,1.823-0.542c0.772,0,1.432,0.176,1.978,0.526
			c0.546,0.351,0.963,0.863,1.25,1.537s0.431,1.485,0.431,2.435v6.699h-2.169V47.1z M385.11,47.1c0-0.78-0.202-1.382-0.606-1.808
			c-0.403-0.425-0.971-0.638-1.701-0.638c-0.673,0-1.194,0.206-1.563,0.617c-0.369,0.411-0.553,0.992-0.553,1.744l-0.437-2.126
			c0.348-0.73,0.807-1.295,1.377-1.696s1.2-0.601,1.888-0.601c0.794,0,1.473,0.176,2.036,0.526c0.563,0.351,0.992,0.863,1.286,1.537
			s0.441,1.485,0.441,2.435v6.699h-2.169V47.1z"/>
		<path fill="#FFFFFF" d="M393.563,53.947c0,0-0.362-0.191-1.085-0.574s-1.274-0.945-1.653-1.686s-0.569-1.635-0.569-2.685v-1.244
			c0-1.091,0.183-2.023,0.548-2.796c0.365-0.772,0.895-1.361,1.59-1.765c0.694-0.404,1.531-0.606,2.509-0.606
			c0.922,0,1.709,0.23,2.36,0.691c0.652,0.46,1.15,1.127,1.494,1.999c0.344,0.872,0.516,1.918,0.516,3.137v0.723h-7.442v-1.744h5.38
			c-0.063-0.9-0.296-1.6-0.696-2.1c-0.4-0.5-0.938-0.75-1.611-0.75c-0.822,0-1.458,0.27-1.908,0.808s-0.675,1.301-0.675,2.286v1.403
			c0,0.915,0.24,1.616,0.723,2.105c0.482,0.489,1.166,0.733,2.052,0.733c0.439,0,0.876-0.088,1.309-0.266
			c0.432-0.177,0.818-0.425,1.158-0.745l1.425,1.425c-0.546,0.525-1.158,0.931-1.839,1.218s-1.365,0.431-2.053,0.431
			C394.073,53.947,393.563,53.947,393.563,53.947z"/>
		<path fill="#FFFFFF" d="M402.25,42.751h2.169v11.037h-2.169V42.751z M408.948,47.1c0-0.78-0.201-1.382-0.605-1.808
			s-0.972-0.638-1.701-0.638c-0.709,0-1.257,0.188-1.643,0.563c-0.387,0.375-0.58,0.904-0.58,1.584l-0.223-2.126
			c0.34-0.666,0.784-1.18,1.334-1.542c0.549-0.362,1.157-0.542,1.823-0.542c1.198,0,2.125,0.392,2.78,1.175
			c0.656,0.784,0.984,1.891,0.984,3.323v6.699h-2.17V47.1z"/>
		<path fill="#FFFFFF" d="M413.563,42.751h4.977v1.957h-4.977V42.751z M415.323,53.102c-0.415-0.492-0.622-1.221-0.622-2.185V39.54
			h2.169v11.398c0,0.27,0.054,0.477,0.159,0.622c0.106,0.146,0.263,0.218,0.469,0.218h1.042v2.063h-1.255
			C416.391,53.841,415.738,53.595,415.323,53.102z"/>
		<path fill="#FFFFFF" d="M429.841,53.24c-0.822-0.472-1.459-1.138-1.908-1.999c-0.45-0.861-0.676-1.859-0.676-2.993v-4.381
			c0-1.134,0.226-2.132,0.676-2.993c0.449-0.861,1.086-1.527,1.908-1.999c0.822-0.472,1.771-0.707,2.85-0.707
			c1.077,0,2.027,0.235,2.85,0.707c0.822,0.471,1.458,1.138,1.908,1.999c0.45,0.861,0.676,1.859,0.676,2.993v4.381
			c0,1.134-0.226,2.132-0.676,2.993s-1.086,1.527-1.908,1.999c-0.822,0.471-1.772,0.707-2.85,0.707
			C431.613,53.947,430.664,53.711,429.841,53.24z M434.376,51.379c0.485-0.287,0.86-0.695,1.127-1.223
			c0.266-0.528,0.398-1.14,0.398-1.834v-4.529c0-0.695-0.133-1.306-0.398-1.834c-0.267-0.528-0.642-0.936-1.127-1.223
			c-0.486-0.287-1.048-0.431-1.686-0.431s-1.2,0.144-1.686,0.431s-0.861,0.695-1.127,1.223c-0.266,0.528-0.398,1.139-0.398,1.834
			v4.529c0,0.695,0.133,1.306,0.398,1.834c0.266,0.528,0.642,0.936,1.127,1.223s1.048,0.431,1.686,0.431
			S433.89,51.667,434.376,51.379z"/>
		<path fill="#FFFFFF" d="M441.42,38.328h2.169v15.46h-2.169V38.328z M444.568,53.453c-0.511-0.33-0.887-0.795-1.127-1.398
			l0.148-2.308c0,0.475,0.085,0.879,0.255,1.212c0.171,0.333,0.417,0.588,0.739,0.766s0.714,0.266,1.175,0.266
			c0.716,0,1.271-0.218,1.664-0.654s0.591-1.051,0.591-1.845V47.1c0-0.808-0.197-1.436-0.591-1.882
			c-0.394-0.447-0.948-0.67-1.664-0.67c-0.461,0-0.853,0.085-1.175,0.255c-0.322,0.17-0.568,0.42-0.739,0.75
			c-0.17,0.33-0.255,0.725-0.255,1.186l-0.223-2.126c0.333-0.645,0.769-1.143,1.308-1.494c0.538-0.351,1.138-0.526,1.797-0.526
			c0.779,0,1.447,0.176,2.004,0.526c0.557,0.351,0.98,0.863,1.271,1.537c0.291,0.673,0.437,1.485,0.437,2.435v2.403
			c0,0.936-0.149,1.737-0.447,2.403c-0.298,0.667-0.733,1.175-1.308,1.526c-0.574,0.351-1.262,0.526-2.063,0.526
			C445.677,53.947,445.078,53.782,444.568,53.453z"/>
		<path fill="#FFFFFF" d="M451.777,56.212h1.212c0.198,0,0.353-0.073,0.463-0.218c0.109-0.145,0.164-0.353,0.164-0.622V42.751h2.169
			v12.6c0,0.929-0.225,1.648-0.675,2.158c-0.45,0.511-1.086,0.766-1.908,0.766h-1.425V56.212z M453.595,38.328h2.211v2.169h-2.211
			V38.328z"/>
		<path fill="#FFFFFF" d="M462.09,53.947c0,0-0.362-0.191-1.085-0.574s-1.274-0.945-1.653-1.686s-0.569-1.635-0.569-2.685v-1.244
			c0-1.091,0.183-2.023,0.548-2.796c0.365-0.772,0.895-1.361,1.59-1.765c0.694-0.404,1.531-0.606,2.509-0.606
			c0.922,0,1.709,0.23,2.36,0.691c0.652,0.46,1.15,1.127,1.494,1.999c0.344,0.872,0.516,1.918,0.516,3.137v0.723h-7.442v-1.744h5.38
			c-0.063-0.9-0.296-1.6-0.696-2.1c-0.4-0.5-0.938-0.75-1.611-0.75c-0.822,0-1.458,0.27-1.908,0.808s-0.675,1.301-0.675,2.286v1.403
			c0,0.915,0.24,1.616,0.723,2.105c0.482,0.489,1.166,0.733,2.052,0.733c0.439,0,0.876-0.088,1.309-0.266
			c0.432-0.177,0.818-0.425,1.158-0.745l1.425,1.425c-0.546,0.525-1.158,0.931-1.839,1.218s-1.365,0.431-2.053,0.431
			C462.6,53.947,462.09,53.947,462.09,53.947z"/>
		<path fill="#FFFFFF" d="M473.722,53.947c0,0-0.356-0.188-1.068-0.563c-0.713-0.376-1.257-0.921-1.633-1.638
			c-0.375-0.716-0.563-1.581-0.563-2.594v-1.818c0-1,0.188-1.854,0.563-2.563c0.376-0.708,0.92-1.249,1.633-1.622
			c0.712-0.372,1.571-0.558,2.578-0.558c0.574,0,1.114,0.069,1.621,0.208s0.963,0.338,1.367,0.601
			c0.403,0.262,0.74,0.582,1.01,0.957l-1.563,1.403c-0.312-0.354-0.677-0.627-1.095-0.818s-0.854-0.287-1.308-0.287
			c-0.837,0-1.485,0.234-1.946,0.702s-0.69,1.127-0.69,1.978v1.818c0,0.872,0.229,1.545,0.686,2.02
			c0.457,0.475,1.107,0.712,1.951,0.712c0.46,0,0.899-0.103,1.318-0.308c0.418-0.206,0.779-0.496,1.084-0.872l1.563,1.51
			c-0.276,0.369-0.617,0.683-1.021,0.941c-0.404,0.259-0.86,0.456-1.366,0.59c-0.507,0.134-1.044,0.202-1.611,0.202
			C474.225,53.947,473.722,53.947,473.722,53.947z"/>
		<path fill="#FFFFFF" d="M480.772,42.751h4.977v1.957h-4.977V42.751z M482.532,53.102c-0.415-0.492-0.622-1.221-0.622-2.185V39.54
			h2.169v11.398c0,0.27,0.054,0.477,0.159,0.622c0.106,0.146,0.263,0.218,0.469,0.218h1.042v2.063h-1.255
			C483.6,53.841,482.947,53.595,482.532,53.102z"/>
		<path fill="#FFFFFF" d="M505.897,38.328h2.03v15.46h-2.116V42.208l0.106,0.681l-3.806,8.75h-1.511l-3.806-8.538l0.105-0.893
			v11.579h-2.115v-15.46h2.03l4.54,10.208L505.897,38.328z"/>
		<path fill="#FFFFFF" d="M513.318,53.384c-0.681-0.376-1.199-0.923-1.558-1.643c-0.357-0.719-0.537-1.586-0.537-2.6v-1.797
			c0-1,0.18-1.855,0.537-2.568c0.358-0.712,0.877-1.254,1.558-1.627c0.681-0.372,1.5-0.558,2.456-0.558
			c0.957,0,1.776,0.186,2.456,0.558c0.681,0.373,1.2,0.915,1.559,1.627c0.357,0.712,0.536,1.568,0.536,2.568v1.829
			c0,1.007-0.179,1.866-0.536,2.579c-0.358,0.712-0.878,1.256-1.559,1.632c-0.68,0.375-1.499,0.563-2.456,0.563
			C514.818,53.947,513.999,53.759,513.318,53.384z M517.534,51.172c0.415-0.475,0.622-1.141,0.622-1.999v-1.829
			c0-0.857-0.207-1.521-0.622-1.988c-0.414-0.468-1.001-0.702-1.76-0.702c-0.758,0-1.345,0.234-1.76,0.702
			c-0.414,0.468-0.621,1.131-0.621,1.988v1.829c0,0.858,0.207,1.524,0.621,1.999c0.415,0.475,1.002,0.712,1.76,0.712
			C516.533,51.884,517.12,51.647,517.534,51.172z"/>
		<path fill="#FFFFFF" d="M524.838,53.453c-0.57-0.351-1.004-0.863-1.302-1.537c-0.298-0.673-0.447-1.481-0.447-2.424v-2.435
			c0-0.95,0.146-1.761,0.437-2.435c0.29-0.673,0.714-1.186,1.271-1.536c0.557-0.351,1.225-0.526,2.004-0.526
			c0.652,0,1.25,0.17,1.792,0.51s0.979,0.819,1.313,1.436l-0.224,2.254c0-0.468-0.085-0.868-0.255-1.201
			c-0.171-0.333-0.417-0.586-0.739-0.76c-0.323-0.174-0.714-0.261-1.175-0.261c-0.716,0-1.271,0.223-1.664,0.67
			s-0.59,1.074-0.59,1.882v2.403c0,0.801,0.196,1.419,0.59,1.855c0.394,0.436,0.948,0.654,1.664,0.654
			c0.461,0,0.852-0.09,1.175-0.271c0.322-0.181,0.568-0.441,0.739-0.781c0.17-0.34,0.255-0.748,0.255-1.223l0.148,2.329
			c-0.22,0.546-0.579,1.003-1.079,1.372c-0.5,0.368-1.114,0.553-1.845,0.553C526.099,53.979,525.41,53.804,524.838,53.453z
			 M529.682,38.328h2.169v15.46h-2.169V38.328z"/>
		<path fill="#FFFFFF" d="M538.135,53.947c0,0-0.362-0.191-1.085-0.574s-1.274-0.945-1.653-1.686s-0.569-1.635-0.569-2.685v-1.244
			c0-1.091,0.183-2.023,0.548-2.796c0.365-0.772,0.895-1.361,1.59-1.765c0.694-0.404,1.531-0.606,2.509-0.606
			c0.922,0,1.709,0.23,2.36,0.691c0.652,0.46,1.15,1.127,1.494,1.999c0.344,0.872,0.516,1.918,0.516,3.137v0.723h-7.442v-1.744h5.38
			c-0.063-0.9-0.296-1.6-0.696-2.1c-0.4-0.5-0.938-0.75-1.611-0.75c-0.822,0-1.458,0.27-1.908,0.808s-0.675,1.301-0.675,2.286v1.403
			c0,0.915,0.24,1.616,0.723,2.105c0.482,0.489,1.166,0.733,2.052,0.733c0.439,0,0.876-0.088,1.309-0.266
			c0.432-0.177,0.818-0.425,1.158-0.745l1.425,1.425c-0.546,0.525-1.158,0.931-1.839,1.218s-1.365,0.431-2.053,0.431
			C538.645,53.947,538.135,53.947,538.135,53.947z"/>
		<path fill="#FFFFFF" d="M548.991,50.938c0,0.27,0.059,0.477,0.176,0.622c0.117,0.146,0.281,0.218,0.494,0.218h1.021v2.063h-1.275
			c-0.822,0-1.459-0.255-1.909-0.766s-0.675-1.229-0.675-2.158V38.328h2.169V50.938z"/>
	</g>
	<g>
		<path fill="#FFFFFF" d="M90.396,155.81H86.86l6.5-3.974v2.264L90.396,155.81z M93.36,159.793l-6.5-3.983h3.537l2.963,1.7V159.793z
			"/>
		<path fill="#FFFFFF" d="M96.177,148.153h1.982v14.127h-1.982V148.153z M102.298,156.169c0-0.712-0.185-1.263-0.554-1.651
			c-0.369-0.389-0.887-0.583-1.554-0.583c-0.648,0-1.148,0.168-1.501,0.505c-0.353,0.337-0.529,0.813-0.529,1.428l-0.204-1.943
			c0.311-0.596,0.717-1.058,1.219-1.385c0.502-0.327,1.058-0.491,1.667-0.491c1.094,0,1.941,0.358,2.541,1.074
			c0.599,0.716,0.899,1.728,0.899,3.036v6.121h-1.982V156.169z"/>
		<path fill="#FFFFFF" d="M106.515,152.195h4.547v1.788h-4.547V152.195z M108.123,161.654c-0.379-0.45-0.568-1.116-0.568-1.997
			v-10.396h1.982v10.415c0,0.247,0.049,0.436,0.146,0.568c0.097,0.133,0.239,0.199,0.427,0.199h0.952v1.885h-1.146
			C109.1,162.329,108.502,162.104,108.123,161.654z"/>
		<path fill="#FFFFFF" d="M113.782,152.195h1.982v10.085h-1.982V152.195z M119.806,156.169c0-0.712-0.175-1.263-0.524-1.651
			c-0.35-0.389-0.845-0.583-1.486-0.583c-0.648,0-1.148,0.171-1.501,0.515c-0.353,0.344-0.529,0.826-0.529,1.448l-0.204-1.943
			c0.311-0.608,0.717-1.078,1.219-1.409c0.502-0.33,1.058-0.496,1.667-0.496c0.706,0,1.308,0.161,1.807,0.481
			c0.499,0.321,0.879,0.789,1.142,1.404c0.262,0.615,0.394,1.357,0.394,2.225v6.121h-1.982V156.169z M125.83,156.169
			c0-0.712-0.185-1.263-0.554-1.651c-0.369-0.389-0.888-0.583-1.555-0.583c-0.615,0-1.091,0.188-1.428,0.563
			s-0.505,0.907-0.505,1.593l-0.398-1.943c0.317-0.667,0.737-1.184,1.258-1.549c0.521-0.366,1.096-0.549,1.724-0.549
			c0.726,0,1.346,0.161,1.861,0.481c0.515,0.321,0.907,0.789,1.176,1.404c0.269,0.615,0.403,1.357,0.403,2.225v6.121h-1.982V156.169
			z"/>
		<path fill="#FFFFFF" d="M132.806,159.676c0,0.247,0.053,0.436,0.16,0.568c0.107,0.133,0.257,0.199,0.452,0.199h0.933v1.885h-1.166
			c-0.751,0-1.333-0.233-1.744-0.699s-0.617-1.124-0.617-1.972v-11.504h1.982V159.676z"/>
		<path fill="#FFFFFF" d="M136.391,151.836l6.5,3.974h-3.536l-2.963-1.71V151.836z M139.354,155.81h3.536l-6.5,3.983v-2.283
			L139.354,155.81z"/>
		<path fill="#FFFFFF" d="M53.617,182.136c-0.573-1.551-0.86-3.263-0.86-5.135c0-1.872,0.287-3.583,0.86-5.135
			s1.436-2.952,2.589-4.202l1.36,1.234c-0.978,1.088-1.71,2.306-2.196,3.653s-0.729,2.831-0.729,4.45c0,1.62,0.243,3.103,0.729,4.45
			c0.486,1.348,1.218,2.568,2.196,3.663l-1.36,1.224C55.053,185.088,54.19,183.687,53.617,182.136z"/>
		<path fill="#FFFFFF" d="M59.315,173.212h1.982v10.085h-1.982V173.212z M64.202,175.116c-0.266-0.11-0.573-0.165-0.923-0.165
			c-0.628,0-1.116,0.173-1.462,0.52c-0.346,0.347-0.52,0.828-0.52,1.443l-0.204-1.943c0.311-0.602,0.712-1.07,1.205-1.404
			c0.492-0.333,1.037-0.5,1.632-0.5c0.46,0,0.876,0.067,1.249,0.199c0.373,0.133,0.698,0.329,0.977,0.588l-1.292,1.749
			C64.688,175.388,64.468,175.227,64.202,175.116z"/>
		<path fill="#FFFFFF" d="M69.235,182.928c-0.622-0.343-1.097-0.844-1.423-1.501c-0.327-0.658-0.491-1.449-0.491-2.375v-1.642
			c0-0.914,0.164-1.695,0.491-2.346c0.327-0.651,0.801-1.146,1.423-1.487c0.622-0.34,1.37-0.51,2.244-0.51s1.623,0.17,2.244,0.51
			c0.622,0.34,1.097,0.835,1.424,1.487c0.327,0.651,0.49,1.433,0.49,2.346v1.671c0,0.92-0.164,1.705-0.49,2.356
			c-0.327,0.651-0.802,1.148-1.424,1.491c-0.622,0.343-1.37,0.515-2.244,0.515S69.857,183.271,69.235,182.928z M73.087,180.907
			c0.379-0.434,0.568-1.042,0.568-1.827v-1.671c0-0.784-0.189-1.39-0.568-1.817c-0.379-0.428-0.915-0.641-1.608-0.641
			c-0.693,0-1.229,0.213-1.608,0.641c-0.379,0.427-0.568,1.033-0.568,1.817v1.671c0,0.784,0.189,1.393,0.568,1.827
			c0.379,0.434,0.915,0.651,1.608,0.651C72.172,181.558,72.708,181.341,73.087,180.907z"/>
		<path fill="#FFFFFF" d="M80.078,182.928c-0.622-0.343-1.097-0.844-1.423-1.501c-0.327-0.658-0.491-1.449-0.491-2.375v-1.642
			c0-0.914,0.164-1.695,0.491-2.346c0.327-0.651,0.801-1.146,1.423-1.487c0.622-0.34,1.37-0.51,2.244-0.51s1.623,0.17,2.244,0.51
			c0.622,0.34,1.097,0.835,1.424,1.487c0.327,0.651,0.49,1.433,0.49,2.346v1.671c0,0.92-0.164,1.705-0.49,2.356
			c-0.327,0.651-0.802,1.148-1.424,1.491c-0.622,0.343-1.37,0.515-2.244,0.515S80.7,183.271,80.078,182.928z M83.93,180.907
			c0.379-0.434,0.568-1.042,0.568-1.827v-1.671c0-0.784-0.189-1.39-0.568-1.817c-0.379-0.428-0.915-0.641-1.608-0.641
			c-0.693,0-1.229,0.213-1.608,0.641c-0.379,0.427-0.568,1.033-0.568,1.817v1.671c0,0.784,0.189,1.393,0.568,1.827
			c0.379,0.434,0.915,0.651,1.608,0.651C83.015,181.558,83.551,181.341,83.93,180.907z"/>
		<path fill="#FFFFFF" d="M88.521,173.212h4.547V175h-4.547V173.212z M90.129,182.67c-0.379-0.45-0.568-1.116-0.568-1.997v-10.396
			h1.982v10.415c0,0.247,0.049,0.436,0.146,0.568c0.097,0.133,0.239,0.199,0.427,0.199h0.952v1.885h-1.146
			C91.105,183.345,90.508,183.121,90.129,182.67z"/>
		<path fill="#FFFFFF" d="M103.862,183.442c0,0-0.331-0.175-0.991-0.524s-1.164-0.863-1.511-1.54s-0.52-1.495-0.52-2.453v-1.137
			c0-0.998,0.167-1.849,0.5-2.555c0.334-0.706,0.818-1.244,1.453-1.613s1.399-0.554,2.293-0.554c0.842,0,1.561,0.211,2.157,0.632
			c0.596,0.421,1.051,1.03,1.365,1.827c0.314,0.796,0.471,1.752,0.471,2.866v0.661h-6.801v-1.594h4.916
			c-0.058-0.822-0.271-1.462-0.636-1.918c-0.366-0.457-0.857-0.685-1.472-0.685c-0.751,0-1.333,0.246-1.744,0.738
			c-0.411,0.492-0.617,1.188-0.617,2.089v1.283c0,0.835,0.22,1.477,0.661,1.923c0.44,0.447,1.065,0.67,1.875,0.67
			c0.402,0,0.8-0.081,1.195-0.243c0.395-0.162,0.748-0.389,1.059-0.68l1.302,1.302c-0.499,0.479-1.059,0.85-1.681,1.113
			c-0.622,0.262-1.247,0.393-1.875,0.393C104.329,183.442,103.862,183.442,103.862,183.442z"/>
		<path fill="#FFFFFF" d="M113.782,180.693c0,0.247,0.053,0.436,0.16,0.568c0.107,0.133,0.257,0.199,0.452,0.199h0.933v1.885h-1.166
			c-0.751,0-1.333-0.233-1.744-0.699s-0.617-1.124-0.617-1.972V169.17h1.982V180.693z"/>
		<path fill="#FFFFFF" d="M120.292,183.442c0,0-0.331-0.175-0.991-0.524s-1.164-0.863-1.511-1.54s-0.52-1.495-0.52-2.453v-1.137
			c0-0.998,0.167-1.849,0.5-2.555c0.334-0.706,0.818-1.244,1.453-1.613s1.399-0.554,2.293-0.554c0.842,0,1.561,0.211,2.157,0.632
			c0.596,0.421,1.051,1.03,1.365,1.827c0.314,0.796,0.471,1.752,0.471,2.866v0.661h-6.801v-1.594h4.916
			c-0.058-0.822-0.271-1.462-0.636-1.918c-0.366-0.457-0.857-0.685-1.472-0.685c-0.751,0-1.333,0.246-1.744,0.738
			c-0.411,0.492-0.617,1.188-0.617,2.089v1.283c0,0.835,0.22,1.477,0.661,1.923c0.44,0.447,1.065,0.67,1.875,0.67
			c0.402,0,0.8-0.081,1.195-0.243c0.395-0.162,0.748-0.389,1.059-0.68l1.302,1.302c-0.499,0.479-1.059,0.85-1.681,1.113
			c-0.622,0.262-1.247,0.393-1.875,0.393C120.758,183.442,120.292,183.442,120.292,183.442z"/>
		<path fill="#FFFFFF" d="M128.229,173.212h1.982v10.085h-1.982V173.212z M134.253,177.186c0-0.712-0.175-1.263-0.524-1.651
			c-0.35-0.389-0.845-0.583-1.486-0.583c-0.648,0-1.148,0.171-1.501,0.515c-0.353,0.344-0.529,0.826-0.529,1.448l-0.204-1.943
			c0.311-0.608,0.717-1.078,1.219-1.409c0.502-0.33,1.058-0.496,1.667-0.496c0.706,0,1.308,0.161,1.807,0.481
			c0.499,0.321,0.879,0.789,1.142,1.404c0.262,0.615,0.394,1.357,0.394,2.225v6.121h-1.982V177.186z M140.277,177.186
			c0-0.712-0.185-1.263-0.554-1.651c-0.369-0.389-0.888-0.583-1.555-0.583c-0.615,0-1.091,0.188-1.428,0.563
			s-0.505,0.907-0.505,1.593l-0.398-1.943c0.317-0.667,0.737-1.184,1.258-1.549c0.521-0.366,1.096-0.549,1.724-0.549
			c0.726,0,1.346,0.161,1.861,0.481c0.515,0.321,0.907,0.789,1.176,1.404c0.269,0.615,0.403,1.357,0.403,2.225v6.121h-1.982V177.186
			z"/>
		<path fill="#FFFFFF" d="M148.001,183.442c0,0-0.331-0.175-0.991-0.524s-1.164-0.863-1.511-1.54s-0.52-1.495-0.52-2.453v-1.137
			c0-0.998,0.167-1.849,0.5-2.555c0.334-0.706,0.818-1.244,1.453-1.613s1.399-0.554,2.293-0.554c0.842,0,1.561,0.211,2.157,0.632
			c0.596,0.421,1.051,1.03,1.365,1.827c0.314,0.796,0.471,1.752,0.471,2.866v0.661h-6.801v-1.594h4.916
			c-0.058-0.822-0.271-1.462-0.636-1.918c-0.366-0.457-0.857-0.685-1.472-0.685c-0.751,0-1.333,0.246-1.744,0.738
			c-0.411,0.492-0.617,1.188-0.617,2.089v1.283c0,0.835,0.22,1.477,0.661,1.923c0.44,0.447,1.065,0.67,1.875,0.67
			c0.402,0,0.8-0.081,1.195-0.243c0.395-0.162,0.748-0.389,1.059-0.68l1.302,1.302c-0.499,0.479-1.059,0.85-1.681,1.113
			c-0.622,0.262-1.247,0.393-1.875,0.393C148.467,183.442,148.001,183.442,148.001,183.442z"/>
		<path fill="#FFFFFF" d="M155.939,173.212h1.982v10.085h-1.982V173.212z M162.06,177.186c0-0.712-0.185-1.263-0.554-1.651
			c-0.369-0.389-0.887-0.583-1.554-0.583c-0.648,0-1.148,0.171-1.501,0.515c-0.353,0.344-0.529,0.826-0.529,1.448l-0.204-1.943
			c0.311-0.608,0.717-1.078,1.219-1.409c0.502-0.33,1.058-0.496,1.667-0.496c1.094,0,1.941,0.358,2.541,1.074
			c0.599,0.716,0.899,1.728,0.899,3.036v6.121h-1.982V177.186z"/>
		<path fill="#FFFFFF" d="M166.276,173.212h4.547V175h-4.547V173.212z M167.884,182.67c-0.379-0.45-0.568-1.116-0.568-1.997v-10.396
			h1.982v10.415c0,0.247,0.049,0.436,0.146,0.568c0.097,0.133,0.239,0.199,0.427,0.199h0.952v1.885h-1.146
			C168.861,183.345,168.263,183.121,167.884,182.67z"/>
		<path fill="#FFFFFF" d="M172.184,185.114c0.978-1.095,1.71-2.315,2.196-3.663c0.486-1.347,0.729-2.83,0.729-4.45
			c0-1.619-0.243-3.103-0.729-4.45s-1.218-2.565-2.196-3.653l1.36-1.234c1.153,1.25,2.016,2.651,2.589,4.202s0.86,3.263,0.86,5.135
			c0,1.872-0.287,3.583-0.86,5.135s-1.436,2.952-2.589,4.202L172.184,185.114z"/>
	</g>
	<g>
		<path fill="#FFFFFF" d="M281.074,155.81h-3.537l6.5-3.974v2.264L281.074,155.81z M284.038,159.793l-6.5-3.983h3.537l2.963,1.7
			V159.793z"/>
		<path fill="#FFFFFF" d="M286.855,148.153h1.982v14.127h-1.982V148.153z M292.976,156.169c0-0.712-0.185-1.263-0.554-1.651
			c-0.369-0.389-0.887-0.583-1.554-0.583c-0.648,0-1.148,0.168-1.501,0.505c-0.353,0.337-0.529,0.813-0.529,1.428l-0.204-1.943
			c0.311-0.596,0.717-1.058,1.219-1.385c0.502-0.327,1.058-0.491,1.667-0.491c1.094,0,1.941,0.358,2.541,1.074
			c0.599,0.716,0.899,1.728,0.899,3.036v6.121h-1.982V156.169z"/>
		<path fill="#FFFFFF" d="M300.7,162.426c0,0-0.331-0.175-0.991-0.524s-1.164-0.863-1.511-1.54s-0.52-1.495-0.52-2.453v-1.137
			c0-0.998,0.167-1.849,0.5-2.555c0.334-0.706,0.818-1.244,1.453-1.613s1.399-0.554,2.293-0.554c0.842,0,1.561,0.211,2.157,0.632
			c0.596,0.421,1.051,1.03,1.365,1.827c0.314,0.796,0.471,1.752,0.471,2.866v0.661h-6.801v-1.594h4.916
			c-0.058-0.822-0.271-1.462-0.636-1.918c-0.366-0.457-0.857-0.685-1.472-0.685c-0.751,0-1.333,0.246-1.744,0.738
			c-0.411,0.492-0.617,1.188-0.617,2.089v1.283c0,0.835,0.22,1.477,0.661,1.923c0.44,0.447,1.065,0.67,1.875,0.67
			c0.402,0,0.8-0.081,1.195-0.243c0.395-0.162,0.748-0.389,1.059-0.68l1.302,1.302c-0.499,0.479-1.059,0.85-1.681,1.113
			c-0.622,0.262-1.247,0.393-1.875,0.393C301.167,162.426,300.7,162.426,300.7,162.426z"/>
		<path fill="#FFFFFF" d="M309.075,161.654c-0.615-0.515-0.923-1.297-0.923-2.347c0-0.997,0.282-1.746,0.845-2.244
			c0.563-0.499,1.415-0.748,2.555-0.748h2.866l0.136,1.593h-2.993c-0.518,0-0.905,0.115-1.161,0.345
			c-0.256,0.23-0.384,0.582-0.384,1.054c0,0.512,0.17,0.891,0.51,1.137c0.34,0.247,0.856,0.369,1.55,0.369
			c0.758,0,1.323-0.081,1.695-0.243c0.372-0.162,0.559-0.415,0.559-0.758l0.204,1.418c-0.175,0.272-0.391,0.496-0.646,0.67
			s-0.552,0.306-0.889,0.394c-0.337,0.087-0.716,0.131-1.137,0.131C310.62,162.426,309.69,162.168,309.075,161.654z
			 M314.331,155.887c0-0.661-0.177-1.174-0.53-1.54c-0.353-0.366-0.853-0.549-1.501-0.549c-0.401,0-0.795,0.062-1.18,0.185
			c-0.386,0.123-0.728,0.295-1.025,0.515l-1.447-0.991c0.382-0.46,0.885-0.817,1.511-1.074c0.625-0.255,1.319-0.384,2.084-0.384
			c0.835,0,1.551,0.147,2.147,0.442c0.596,0.295,1.049,0.722,1.36,1.282c0.311,0.561,0.466,1.236,0.466,2.026v6.48h-1.885V155.887z"
			/>
		<path fill="#FFFFFF" d="M320.535,161.974c-0.521-0.32-0.918-0.789-1.19-1.404c-0.272-0.615-0.408-1.354-0.408-2.215v-2.225
			c0-0.868,0.132-1.61,0.398-2.225c0.265-0.615,0.652-1.083,1.161-1.404c0.509-0.321,1.119-0.481,1.832-0.481
			c0.596,0,1.142,0.155,1.637,0.466s0.896,0.748,1.2,1.312l-0.204,2.06c0-0.427-0.078-0.793-0.233-1.098
			c-0.155-0.304-0.381-0.536-0.675-0.695c-0.295-0.159-0.653-0.238-1.074-0.238c-0.654,0-1.161,0.204-1.521,0.612
			c-0.359,0.408-0.539,0.981-0.539,1.72v2.196c0,0.732,0.18,1.297,0.539,1.695c0.359,0.398,0.866,0.598,1.521,0.598
			c0.421,0,0.779-0.083,1.074-0.248c0.294-0.166,0.52-0.403,0.675-0.714c0.155-0.311,0.233-0.683,0.233-1.117l0.136,2.128
			c-0.201,0.499-0.529,0.917-0.986,1.253c-0.457,0.337-1.019,0.505-1.686,0.505C321.686,162.455,321.056,162.295,320.535,161.974z
			 M324.96,148.153h1.982v14.127h-1.982V148.153z"/>
		<path fill="#FFFFFF" d="M329.76,151.836l6.5,3.974h-3.536l-2.963-1.71V151.836z M332.723,155.81h3.536l-6.5,3.983v-2.283
			L332.723,155.81z"/>
		<path fill="#FFFFFF" d="M266.549,182.136c-0.573-1.551-0.86-3.263-0.86-5.135c0-1.872,0.287-3.583,0.86-5.135
			s1.436-2.952,2.589-4.202l1.36,1.234c-0.978,1.088-1.71,2.306-2.196,3.653s-0.729,2.831-0.729,4.45c0,1.62,0.243,3.103,0.729,4.45
			c0.486,1.348,1.218,2.568,2.196,3.663l-1.36,1.224C267.985,185.088,267.122,183.687,266.549,182.136z"/>
		<path fill="#FFFFFF" d="M274.977,183.442c0,0-0.331-0.175-0.991-0.524s-1.164-0.863-1.511-1.54s-0.52-1.495-0.52-2.453v-1.137
			c0-0.998,0.167-1.849,0.5-2.555c0.334-0.706,0.818-1.244,1.453-1.613s1.399-0.554,2.293-0.554c0.842,0,1.561,0.211,2.157,0.632
			c0.596,0.421,1.051,1.03,1.365,1.827c0.314,0.796,0.471,1.752,0.471,2.866v0.661h-6.801v-1.594h4.916
			c-0.058-0.822-0.271-1.462-0.636-1.918c-0.366-0.457-0.857-0.685-1.472-0.685c-0.751,0-1.333,0.246-1.744,0.738
			c-0.411,0.492-0.617,1.188-0.617,2.089v1.283c0,0.835,0.22,1.477,0.661,1.923c0.44,0.447,1.065,0.67,1.875,0.67
			c0.402,0,0.8-0.081,1.195-0.243c0.395-0.162,0.748-0.389,1.059-0.68l1.302,1.302c-0.499,0.479-1.059,0.85-1.681,1.113
			c-0.622,0.262-1.247,0.393-1.875,0.393C275.443,183.442,274.977,183.442,274.977,183.442z"/>
		<path fill="#FFFFFF" d="M284.897,180.693c0,0.247,0.053,0.436,0.16,0.568c0.107,0.133,0.257,0.199,0.452,0.199h0.933v1.885h-1.166
			c-0.751,0-1.333-0.233-1.744-0.699s-0.617-1.124-0.617-1.972V169.17h1.982V180.693z"/>
		<path fill="#FFFFFF" d="M291.406,183.442c0,0-0.331-0.175-0.991-0.524s-1.164-0.863-1.511-1.54s-0.52-1.495-0.52-2.453v-1.137
			c0-0.998,0.167-1.849,0.5-2.555c0.334-0.706,0.818-1.244,1.453-1.613s1.399-0.554,2.293-0.554c0.842,0,1.561,0.211,2.157,0.632
			c0.596,0.421,1.051,1.03,1.365,1.827c0.314,0.796,0.471,1.752,0.471,2.866v0.661h-6.801v-1.594h4.916
			c-0.058-0.822-0.271-1.462-0.636-1.918c-0.366-0.457-0.857-0.685-1.472-0.685c-0.751,0-1.333,0.246-1.744,0.738
			c-0.411,0.492-0.617,1.188-0.617,2.089v1.283c0,0.835,0.22,1.477,0.661,1.923c0.44,0.447,1.065,0.67,1.875,0.67
			c0.402,0,0.8-0.081,1.195-0.243c0.395-0.162,0.748-0.389,1.059-0.68l1.302,1.302c-0.499,0.479-1.059,0.85-1.681,1.113
			c-0.622,0.262-1.247,0.393-1.875,0.393C291.873,183.442,291.406,183.442,291.406,183.442z"/>
		<path fill="#FFFFFF" d="M299.344,173.212h1.982v10.085h-1.982V173.212z M305.368,177.186c0-0.712-0.175-1.263-0.524-1.651
			c-0.35-0.389-0.845-0.583-1.486-0.583c-0.648,0-1.148,0.171-1.501,0.515c-0.353,0.344-0.529,0.826-0.529,1.448l-0.204-1.943
			c0.311-0.608,0.717-1.078,1.219-1.409c0.502-0.33,1.058-0.496,1.667-0.496c0.706,0,1.308,0.161,1.807,0.481
			c0.499,0.321,0.879,0.789,1.142,1.404c0.262,0.615,0.394,1.357,0.394,2.225v6.121h-1.982V177.186z M311.392,177.186
			c0-0.712-0.185-1.263-0.554-1.651c-0.369-0.389-0.888-0.583-1.555-0.583c-0.615,0-1.091,0.188-1.428,0.563
			s-0.505,0.907-0.505,1.593l-0.398-1.943c0.317-0.667,0.737-1.184,1.258-1.549c0.521-0.366,1.096-0.549,1.724-0.549
			c0.726,0,1.346,0.161,1.861,0.481c0.515,0.321,0.907,0.789,1.176,1.404c0.269,0.615,0.403,1.357,0.403,2.225v6.121h-1.982V177.186
			z"/>
		<path fill="#FFFFFF" d="M319.116,183.442c0,0-0.331-0.175-0.991-0.524s-1.164-0.863-1.511-1.54s-0.52-1.495-0.52-2.453v-1.137
			c0-0.998,0.167-1.849,0.5-2.555c0.334-0.706,0.818-1.244,1.453-1.613s1.399-0.554,2.293-0.554c0.842,0,1.561,0.211,2.157,0.632
			c0.596,0.421,1.051,1.03,1.365,1.827c0.314,0.796,0.471,1.752,0.471,2.866v0.661h-6.801v-1.594h4.916
			c-0.058-0.822-0.271-1.462-0.636-1.918c-0.366-0.457-0.857-0.685-1.472-0.685c-0.751,0-1.333,0.246-1.744,0.738
			c-0.411,0.492-0.617,1.188-0.617,2.089v1.283c0,0.835,0.22,1.477,0.661,1.923c0.44,0.447,1.065,0.67,1.875,0.67
			c0.402,0,0.8-0.081,1.195-0.243c0.395-0.162,0.748-0.389,1.059-0.68l1.302,1.302c-0.499,0.479-1.059,0.85-1.681,1.113
			c-0.622,0.262-1.247,0.393-1.875,0.393C319.582,183.442,319.116,183.442,319.116,183.442z"/>
		<path fill="#FFFFFF" d="M327.054,173.212h1.982v10.085h-1.982V173.212z M333.174,177.186c0-0.712-0.185-1.263-0.554-1.651
			c-0.369-0.389-0.887-0.583-1.554-0.583c-0.648,0-1.148,0.171-1.501,0.515c-0.353,0.344-0.529,0.826-0.529,1.448l-0.204-1.943
			c0.311-0.608,0.717-1.078,1.219-1.409c0.502-0.33,1.058-0.496,1.667-0.496c1.094,0,1.941,0.358,2.541,1.074
			c0.599,0.716,0.898,1.728,0.898,3.036v6.121h-1.982V177.186z"/>
		<path fill="#FFFFFF" d="M337.391,173.212h4.547V175h-4.547V173.212z M338.999,182.67c-0.379-0.45-0.568-1.116-0.568-1.997v-10.396
			h1.982v10.415c0,0.247,0.049,0.436,0.146,0.568c0.097,0.133,0.238,0.199,0.427,0.199h0.952v1.885h-1.146
			C339.975,183.345,339.377,183.121,338.999,182.67z"/>
		<path fill="#FFFFFF" d="M343.298,185.114c0.978-1.095,1.71-2.315,2.196-3.663c0.485-1.347,0.729-2.83,0.729-4.45
			c0-1.619-0.243-3.103-0.729-4.45c-0.486-1.347-1.219-2.565-2.196-3.653l1.36-1.234c1.152,1.25,2.016,2.651,2.589,4.202
			s0.86,3.263,0.86,5.135c0,1.872-0.287,3.583-0.86,5.135s-1.437,2.952-2.589,4.202L343.298,185.114z"/>
	</g>
	<g>
		<path fill="#FFFFFF" d="M281.623,268.925h-3.537l6.5-3.974v2.264L281.623,268.925z M284.586,272.908l-6.5-3.983h3.537l2.963,1.7
			V272.908z"/>
		<path fill="#FFFFFF" d="M287.404,261.269h1.982v14.127h-1.982V261.269z M290.279,275.089c-0.466-0.301-0.81-0.727-1.03-1.277
			l0.136-2.108c0,0.434,0.078,0.803,0.233,1.107c0.156,0.305,0.381,0.538,0.675,0.7c0.295,0.162,0.653,0.243,1.074,0.243
			c0.654,0,1.161-0.199,1.521-0.597c0.359-0.398,0.539-0.96,0.539-1.686v-2.186c0-0.738-0.18-1.312-0.539-1.72
			c-0.359-0.408-0.866-0.612-1.521-0.612c-0.421,0-0.779,0.078-1.074,0.233c-0.294,0.156-0.52,0.384-0.675,0.685
			c-0.155,0.301-0.233,0.663-0.233,1.083l-0.204-1.943c0.304-0.589,0.703-1.044,1.195-1.365c0.492-0.32,1.04-0.481,1.642-0.481
			c0.712,0,1.323,0.161,1.832,0.481c0.508,0.321,0.896,0.789,1.161,1.404s0.398,1.357,0.398,2.225v2.196
			c0,0.855-0.136,1.587-0.408,2.196s-0.67,1.074-1.195,1.395c-0.524,0.32-1.153,0.48-1.885,0.48
			C291.293,275.541,290.746,275.391,290.279,275.089z"/>
		<path fill="#FFFFFF" d="M299.85,275.026c-0.622-0.343-1.097-0.844-1.423-1.501c-0.327-0.658-0.491-1.449-0.491-2.375v-1.642
			c0-0.914,0.164-1.695,0.491-2.346c0.327-0.651,0.801-1.146,1.423-1.487c0.622-0.34,1.37-0.51,2.244-0.51s1.623,0.17,2.244,0.51
			c0.622,0.34,1.097,0.835,1.424,1.487c0.327,0.651,0.49,1.433,0.49,2.346v1.671c0,0.92-0.164,1.705-0.49,2.356
			c-0.327,0.651-0.802,1.148-1.424,1.491c-0.622,0.343-1.37,0.514-2.244,0.514S300.472,275.37,299.85,275.026z M303.702,273.005
			c0.379-0.434,0.568-1.042,0.568-1.827v-1.671c0-0.784-0.189-1.39-0.568-1.817c-0.379-0.428-0.915-0.641-1.608-0.641
			c-0.693,0-1.229,0.213-1.608,0.641c-0.379,0.427-0.568,1.033-0.568,1.817v1.671c0,0.784,0.189,1.393,0.568,1.827
			c0.379,0.434,0.915,0.651,1.608,0.651C302.787,273.656,303.323,273.439,303.702,273.005z"/>
		<path fill="#FFFFFF" d="M310.377,275.089c-0.521-0.32-0.918-0.789-1.19-1.404c-0.272-0.615-0.408-1.354-0.408-2.215v-2.225
			c0-0.868,0.132-1.61,0.398-2.225c0.265-0.615,0.652-1.083,1.161-1.404c0.509-0.321,1.119-0.481,1.832-0.481
			c0.596,0,1.142,0.155,1.637,0.466s0.896,0.748,1.2,1.312l-0.204,2.06c0-0.427-0.078-0.793-0.233-1.098
			c-0.155-0.304-0.381-0.536-0.675-0.695c-0.295-0.159-0.653-0.238-1.074-0.238c-0.654,0-1.161,0.204-1.521,0.612
			c-0.359,0.408-0.539,0.981-0.539,1.72v2.196c0,0.732,0.18,1.297,0.539,1.695c0.359,0.398,0.866,0.598,1.521,0.598
			c0.421,0,0.779-0.083,1.074-0.248c0.294-0.166,0.52-0.403,0.675-0.714c0.155-0.311,0.233-0.683,0.233-1.117l0.136,2.128
			c-0.201,0.499-0.529,0.917-0.986,1.253c-0.457,0.337-1.019,0.505-1.686,0.505C311.528,275.57,310.898,275.41,310.377,275.089z
			 M314.802,261.269h1.982v14.127h-1.982V261.269z"/>
		<path fill="#FFFFFF" d="M318.728,265.311h2.021l3.099,8.764l-1.098,2.147L318.728,265.311z M327.656,265.311l-4.294,12.446
			c-0.155,0.46-0.359,0.824-0.612,1.093c-0.253,0.27-0.563,0.462-0.933,0.578c-0.369,0.117-0.822,0.176-1.36,0.176h-0.398v-1.904
			h0.398c0.369,0,0.662-0.075,0.879-0.225c0.217-0.148,0.407-0.404,0.569-0.768l3.73-11.396H327.656z"/>
		<path fill="#FFFFFF" d="M329.211,264.951l6.5,3.974h-3.536l-2.963-1.71V264.951z M332.174,268.925h3.536l-6.5,3.983v-2.283
			L332.174,268.925z"/>
		<path fill="#FFFFFF" d="M266.549,295.251c-0.573-1.552-0.86-3.264-0.86-5.135c0-1.872,0.287-3.584,0.86-5.135
			c0.573-1.552,1.436-2.952,2.589-4.203l1.36,1.234c-0.978,1.088-1.71,2.307-2.196,3.653s-0.729,2.831-0.729,4.45
			s0.243,3.102,0.729,4.449s1.218,2.568,2.196,3.663l-1.36,1.224C267.985,298.203,267.122,296.802,266.549,295.251z"/>
		<path fill="#FFFFFF" d="M274.977,296.558c0,0-0.331-0.176-0.991-0.525s-1.164-0.863-1.511-1.539
			c-0.347-0.678-0.52-1.495-0.52-2.453v-1.137c0-0.998,0.167-1.85,0.5-2.556c0.334-0.706,0.818-1.243,1.453-1.612
			s1.399-0.555,2.293-0.555c0.842,0,1.561,0.211,2.157,0.632c0.596,0.421,1.051,1.03,1.365,1.827
			c0.314,0.796,0.471,1.752,0.471,2.865v0.661h-6.801v-1.594h4.916c-0.058-0.822-0.271-1.462-0.636-1.919
			c-0.366-0.457-0.857-0.685-1.472-0.685c-0.751,0-1.333,0.246-1.744,0.738c-0.411,0.492-0.617,1.188-0.617,2.089v1.283
			c0,0.835,0.22,1.477,0.661,1.923c0.44,0.447,1.065,0.671,1.875,0.671c0.402,0,0.8-0.081,1.195-0.243
			c0.395-0.162,0.748-0.389,1.059-0.681l1.302,1.303c-0.499,0.479-1.059,0.85-1.681,1.112c-0.622,0.263-1.247,0.394-1.875,0.394
			C275.443,296.558,274.977,296.558,274.977,296.558z"/>
		<path fill="#FFFFFF" d="M284.897,293.808c0,0.246,0.053,0.436,0.16,0.568s0.257,0.199,0.452,0.199h0.933v1.885h-1.166
			c-0.751,0-1.333-0.232-1.744-0.699s-0.617-1.123-0.617-1.973v-11.504h1.982V293.808z"/>
		<path fill="#FFFFFF" d="M291.406,296.558c0,0-0.331-0.176-0.991-0.525s-1.164-0.863-1.511-1.539
			c-0.347-0.678-0.52-1.495-0.52-2.453v-1.137c0-0.998,0.167-1.85,0.5-2.556c0.334-0.706,0.818-1.243,1.453-1.612
			s1.399-0.555,2.293-0.555c0.842,0,1.561,0.211,2.157,0.632c0.596,0.421,1.051,1.03,1.365,1.827
			c0.314,0.796,0.471,1.752,0.471,2.865v0.661h-6.801v-1.594h4.916c-0.058-0.822-0.271-1.462-0.636-1.919
			c-0.366-0.457-0.857-0.685-1.472-0.685c-0.751,0-1.333,0.246-1.744,0.738c-0.411,0.492-0.617,1.188-0.617,2.089v1.283
			c0,0.835,0.22,1.477,0.661,1.923c0.44,0.447,1.065,0.671,1.875,0.671c0.402,0,0.8-0.081,1.195-0.243
			c0.395-0.162,0.748-0.389,1.059-0.681l1.302,1.303c-0.499,0.479-1.059,0.85-1.681,1.112c-0.622,0.263-1.247,0.394-1.875,0.394
			C291.873,296.558,291.406,296.558,291.406,296.558z"/>
		<path fill="#FFFFFF" d="M299.344,286.328h1.982v10.084h-1.982V286.328z M305.368,290.3c0-0.712-0.175-1.263-0.524-1.65
			c-0.35-0.389-0.845-0.584-1.486-0.584c-0.648,0-1.148,0.172-1.501,0.516s-0.529,0.826-0.529,1.447l-0.204-1.943
			c0.311-0.608,0.717-1.078,1.219-1.408s1.058-0.496,1.667-0.496c0.706,0,1.308,0.16,1.807,0.48
			c0.499,0.321,0.879,0.789,1.142,1.404c0.262,0.615,0.394,1.357,0.394,2.225v6.121h-1.982V290.3z M311.392,290.3
			c0-0.712-0.185-1.263-0.554-1.65c-0.369-0.389-0.888-0.584-1.555-0.584c-0.615,0-1.091,0.188-1.428,0.564
			c-0.337,0.375-0.505,0.906-0.505,1.593l-0.398-1.943c0.317-0.667,0.737-1.184,1.258-1.55c0.521-0.365,1.096-0.549,1.724-0.549
			c0.726,0,1.346,0.16,1.861,0.48c0.515,0.321,0.907,0.789,1.176,1.404c0.269,0.615,0.403,1.357,0.403,2.225v6.121h-1.982V290.3z"/>
		<path fill="#FFFFFF" d="M319.116,296.558c0,0-0.331-0.176-0.991-0.525s-1.164-0.863-1.511-1.539
			c-0.347-0.678-0.52-1.495-0.52-2.453v-1.137c0-0.998,0.167-1.85,0.5-2.556c0.334-0.706,0.818-1.243,1.453-1.612
			s1.399-0.555,2.293-0.555c0.842,0,1.561,0.211,2.157,0.632c0.596,0.421,1.051,1.03,1.365,1.827
			c0.314,0.796,0.471,1.752,0.471,2.865v0.661h-6.801v-1.594h4.916c-0.058-0.822-0.271-1.462-0.636-1.919
			c-0.366-0.457-0.857-0.685-1.472-0.685c-0.751,0-1.333,0.246-1.744,0.738c-0.411,0.492-0.617,1.188-0.617,2.089v1.283
			c0,0.835,0.22,1.477,0.661,1.923c0.44,0.447,1.065,0.671,1.875,0.671c0.402,0,0.8-0.081,1.195-0.243
			c0.395-0.162,0.748-0.389,1.059-0.681l1.302,1.303c-0.499,0.479-1.059,0.85-1.681,1.112c-0.622,0.263-1.247,0.394-1.875,0.394
			C319.582,296.558,319.116,296.558,319.116,296.558z"/>
		<path fill="#FFFFFF" d="M327.054,286.328h1.982v10.084h-1.982V286.328z M333.174,290.3c0-0.712-0.185-1.263-0.554-1.65
			c-0.369-0.389-0.887-0.584-1.554-0.584c-0.648,0-1.148,0.172-1.501,0.516s-0.529,0.826-0.529,1.447l-0.204-1.943
			c0.311-0.608,0.717-1.078,1.219-1.408s1.058-0.496,1.667-0.496c1.094,0,1.941,0.358,2.541,1.074
			c0.599,0.715,0.898,1.728,0.898,3.035v6.121h-1.982V290.3z"/>
		<path fill="#FFFFFF" d="M337.391,286.328h4.547v1.787h-4.547V286.328z M338.999,295.786c-0.379-0.45-0.568-1.116-0.568-1.997
			v-10.396h1.982v10.415c0,0.246,0.049,0.436,0.146,0.568c0.097,0.133,0.238,0.199,0.427,0.199h0.952v1.885h-1.146
			C339.975,296.46,339.377,296.236,338.999,295.786z"/>
		<path fill="#FFFFFF" d="M343.298,298.229c0.978-1.095,1.71-2.315,2.196-3.663c0.485-1.348,0.729-2.83,0.729-4.449
			s-0.243-3.104-0.729-4.45c-0.486-1.347-1.219-2.565-2.196-3.653l1.36-1.234c1.152,1.251,2.016,2.651,2.589,4.203
			c0.573,1.551,0.86,3.263,0.86,5.135c0,1.871-0.287,3.583-0.86,5.135c-0.573,1.551-1.437,2.951-2.589,4.201L343.298,298.229z"/>
	</g>
	<g>
		<path fill="#FFFFFF" d="M479.513,155.81h-3.536l6.5-3.974v2.264L479.513,155.81z M482.477,159.793l-6.5-3.983h3.536l2.964,1.7
			V159.793z"/>
		<path fill="#FFFFFF" d="M484.516,152.195h4.547v1.788h-4.547V152.195z M486.125,161.654c-0.379-0.45-0.568-1.116-0.568-1.997
			v-10.396h1.981v10.415c0,0.247,0.049,0.436,0.146,0.568c0.098,0.133,0.239,0.199,0.428,0.199h0.951v1.885h-1.146
			C487.101,162.329,486.503,162.104,486.125,161.654z"/>
		<path fill="#FFFFFF" d="M491.784,148.153h1.982v1.982h-1.982V148.153z M491.784,152.195h1.982v10.085h-1.982V152.195z"/>
		<path fill="#FFFFFF" d="M496,152.195h4.547v1.788H496V152.195z M497.609,161.654c-0.379-0.45-0.568-1.116-0.568-1.997v-10.396
			h1.981v10.415c0,0.247,0.049,0.436,0.146,0.568c0.098,0.133,0.239,0.199,0.428,0.199h0.951v1.885h-1.146
			C498.585,162.329,497.988,162.104,497.609,161.654z"/>
		<path fill="#FFFFFF" d="M505.25,159.676c0,0.247,0.053,0.436,0.16,0.568c0.106,0.133,0.257,0.199,0.451,0.199h0.934v1.885h-1.166
			c-0.752,0-1.334-0.233-1.744-0.699c-0.412-0.466-0.617-1.124-0.617-1.972v-11.504h1.982V159.676z"/>
		<path fill="#FFFFFF" d="M511.76,162.426c0,0-0.331-0.175-0.992-0.524c-0.66-0.35-1.164-0.863-1.51-1.54
			c-0.348-0.677-0.52-1.495-0.52-2.453v-1.137c0-0.998,0.166-1.849,0.5-2.555s0.817-1.244,1.452-1.613s1.399-0.554,2.293-0.554
			c0.842,0,1.562,0.211,2.157,0.632s1.051,1.03,1.365,1.827c0.313,0.796,0.471,1.752,0.471,2.866v0.661h-6.801v-1.594h4.916
			c-0.059-0.822-0.271-1.462-0.637-1.918c-0.365-0.457-0.856-0.685-1.472-0.685c-0.751,0-1.333,0.246-1.744,0.738
			s-0.616,1.188-0.616,2.089v1.283c0,0.835,0.22,1.477,0.66,1.923c0.44,0.447,1.065,0.67,1.875,0.67c0.402,0,0.8-0.081,1.195-0.243
			c0.395-0.162,0.748-0.389,1.059-0.68l1.303,1.302c-0.5,0.479-1.06,0.85-1.682,1.113c-0.621,0.262-1.246,0.393-1.875,0.393
			C512.226,162.426,511.76,162.426,511.76,162.426z"/>
		<path fill="#FFFFFF" d="M519.309,151.836l6.5,3.974h-3.537l-2.963-1.71V151.836z M522.272,155.81h3.537l-6.5,3.983v-2.283
			L522.272,155.81z"/>
		<path fill="#FFFFFF" d="M460.543,182.136c-0.574-1.551-0.86-3.263-0.86-5.135c0-1.872,0.286-3.583,0.86-5.135
			c0.572-1.551,1.436-2.952,2.588-4.202l1.361,1.234c-0.979,1.088-1.711,2.306-2.196,3.653s-0.729,2.831-0.729,4.45
			c0,1.62,0.243,3.103,0.729,4.45c0.485,1.348,1.218,2.568,2.196,3.663l-1.361,1.224
			C461.979,185.088,461.116,183.687,460.543,182.136z"/>
		<path fill="#FFFFFF" d="M468.971,183.442c0,0-0.33-0.175-0.991-0.524s-1.164-0.863-1.511-1.54s-0.52-1.495-0.52-2.453v-1.137
			c0-0.998,0.166-1.849,0.5-2.555s0.818-1.244,1.453-1.613s1.398-0.554,2.293-0.554c0.842,0,1.561,0.211,2.156,0.632
			s1.051,1.03,1.365,1.827c0.314,0.796,0.471,1.752,0.471,2.866v0.661h-6.801v-1.594h4.916c-0.058-0.822-0.27-1.462-0.636-1.918
			c-0.366-0.457-0.856-0.685-1.472-0.685c-0.752,0-1.333,0.246-1.744,0.738c-0.412,0.492-0.617,1.188-0.617,2.089v1.283
			c0,0.835,0.221,1.477,0.66,1.923c0.441,0.447,1.066,0.67,1.875,0.67c0.402,0,0.801-0.081,1.195-0.243
			c0.396-0.162,0.748-0.389,1.06-0.68l1.302,1.302c-0.499,0.479-1.059,0.85-1.681,1.113c-0.622,0.262-1.247,0.393-1.876,0.393
			C469.438,183.442,468.971,183.442,468.971,183.442z"/>
		<path fill="#FFFFFF" d="M478.891,180.693c0,0.247,0.053,0.436,0.16,0.568c0.107,0.133,0.258,0.199,0.451,0.199h0.934v1.885h-1.166
			c-0.752,0-1.333-0.233-1.744-0.699s-0.617-1.124-0.617-1.972V169.17h1.982V180.693z"/>
		<path fill="#FFFFFF" d="M485.401,183.442c0,0-0.331-0.175-0.992-0.524c-0.66-0.35-1.164-0.863-1.51-1.54
			c-0.348-0.677-0.52-1.495-0.52-2.453v-1.137c0-0.998,0.166-1.849,0.5-2.555s0.817-1.244,1.452-1.613s1.399-0.554,2.293-0.554
			c0.842,0,1.562,0.211,2.157,0.632s1.051,1.03,1.365,1.827c0.313,0.796,0.471,1.752,0.471,2.866v0.661h-6.801v-1.594h4.916
			c-0.059-0.822-0.271-1.462-0.637-1.918c-0.365-0.457-0.856-0.685-1.472-0.685c-0.751,0-1.333,0.246-1.744,0.738
			s-0.616,1.188-0.616,2.089v1.283c0,0.835,0.22,1.477,0.66,1.923c0.44,0.447,1.065,0.67,1.875,0.67c0.402,0,0.8-0.081,1.195-0.243
			c0.395-0.162,0.748-0.389,1.059-0.68l1.303,1.302c-0.5,0.479-1.06,0.85-1.682,1.113c-0.621,0.262-1.246,0.393-1.875,0.393
			C485.867,183.442,485.401,183.442,485.401,183.442z"/>
		<path fill="#FFFFFF" d="M493.338,173.212h1.982v10.085h-1.982V173.212z M499.362,177.186c0-0.712-0.175-1.263-0.524-1.651
			c-0.35-0.389-0.845-0.583-1.486-0.583c-0.647,0-1.148,0.171-1.501,0.515c-0.354,0.344-0.529,0.826-0.529,1.448l-0.205-1.943
			c0.312-0.608,0.718-1.078,1.22-1.409c0.502-0.33,1.058-0.496,1.667-0.496c0.705,0,1.308,0.161,1.807,0.481
			c0.498,0.321,0.879,0.789,1.142,1.404s0.394,1.357,0.394,2.225v6.121h-1.982V177.186z M505.385,177.186
			c0-0.712-0.184-1.263-0.553-1.651c-0.369-0.389-0.889-0.583-1.555-0.583c-0.615,0-1.092,0.188-1.429,0.563
			s-0.505,0.907-0.505,1.593l-0.398-1.943c0.317-0.667,0.736-1.184,1.258-1.549c0.521-0.366,1.097-0.549,1.725-0.549
			c0.726,0,1.346,0.161,1.861,0.481c0.514,0.321,0.906,0.789,1.176,1.404c0.268,0.615,0.402,1.357,0.402,2.225v6.121h-1.982V177.186
			z"/>
		<path fill="#FFFFFF" d="M513.11,183.442c0,0-0.33-0.175-0.991-0.524s-1.164-0.863-1.511-1.54s-0.52-1.495-0.52-2.453v-1.137
			c0-0.998,0.166-1.849,0.5-2.555s0.818-1.244,1.453-1.613s1.398-0.554,2.293-0.554c0.842,0,1.561,0.211,2.156,0.632
			s1.051,1.03,1.365,1.827c0.314,0.796,0.471,1.752,0.471,2.866v0.661h-6.801v-1.594h4.916c-0.058-0.822-0.27-1.462-0.636-1.918
			c-0.366-0.457-0.856-0.685-1.472-0.685c-0.752,0-1.333,0.246-1.744,0.738c-0.412,0.492-0.617,1.188-0.617,2.089v1.283
			c0,0.835,0.221,1.477,0.66,1.923c0.441,0.447,1.066,0.67,1.875,0.67c0.402,0,0.801-0.081,1.195-0.243
			c0.396-0.162,0.748-0.389,1.06-0.68l1.302,1.302c-0.499,0.479-1.059,0.85-1.681,1.113c-0.622,0.262-1.247,0.393-1.876,0.393
			C513.577,183.442,513.11,183.442,513.11,183.442z"/>
		<path fill="#FFFFFF" d="M521.047,173.212h1.982v10.085h-1.982V173.212z M527.168,177.186c0-0.712-0.185-1.263-0.554-1.651
			c-0.369-0.389-0.888-0.583-1.554-0.583c-0.648,0-1.148,0.171-1.502,0.515c-0.354,0.344-0.529,0.826-0.529,1.448l-0.204-1.943
			c0.312-0.608,0.718-1.078,1.22-1.409c0.502-0.33,1.057-0.496,1.666-0.496c1.094,0,1.941,0.358,2.541,1.074
			c0.599,0.716,0.898,1.728,0.898,3.036v6.121h-1.982V177.186z"/>
		<path fill="#FFFFFF" d="M531.385,173.212h4.547V175h-4.547V173.212z M532.993,182.67c-0.379-0.45-0.568-1.116-0.568-1.997v-10.396
			h1.982v10.415c0,0.247,0.049,0.436,0.146,0.568c0.097,0.133,0.238,0.199,0.427,0.199h0.952v1.885h-1.146
			C533.969,183.345,533.372,183.121,532.993,182.67z"/>
		<path fill="#FFFFFF" d="M537.292,185.114c0.978-1.095,1.71-2.315,2.196-3.663c0.485-1.347,0.729-2.83,0.729-4.45
			c0-1.619-0.243-3.103-0.729-4.45c-0.486-1.347-1.219-2.565-2.196-3.653l1.36-1.234c1.152,1.25,2.016,2.651,2.589,4.202
			s0.86,3.263,0.86,5.135c0,1.872-0.287,3.583-0.86,5.135s-1.437,2.952-2.589,4.202L537.292,185.114z"/>
	</g>
	<g>
		<path fill="#FFFFFF" d="M487.752,268.925h-3.537l6.5-3.974v2.264L487.752,268.925z M490.715,272.908l-6.5-3.983h3.537l2.963,1.7
			V272.908z"/>
		<path fill="#FFFFFF" d="M493.533,261.269h1.981v14.127h-1.981V261.269z M499.653,269.284c0-0.712-0.184-1.263-0.553-1.651
			c-0.369-0.389-0.888-0.583-1.555-0.583c-0.648,0-1.148,0.168-1.502,0.505c-0.353,0.337-0.529,0.813-0.529,1.428l-0.203-1.943
			c0.311-0.596,0.717-1.058,1.219-1.385c0.502-0.327,1.058-0.491,1.666-0.491c1.095,0,1.941,0.358,2.541,1.074
			c0.6,0.716,0.898,1.728,0.898,3.036v6.121h-1.982V269.284z"/>
		<path fill="#FFFFFF" d="M507.961,275.396h-1.982v-11.97l-2.012,1.234v-2.05l2.012-1.341h1.982V275.396z"/>
		<path fill="#FFFFFF" d="M511.07,264.951l6.499,3.974h-3.535l-2.964-1.71V264.951z M514.034,268.925h3.535l-6.499,3.983v-2.283
			L514.034,268.925z"/>
		<path fill="#FFFFFF" d="M460.543,295.251c-0.574-1.552-0.86-3.264-0.86-5.135c0-1.872,0.286-3.584,0.86-5.135
			c0.572-1.552,1.436-2.952,2.588-4.203l1.361,1.234c-0.979,1.088-1.711,2.307-2.196,3.653s-0.729,2.831-0.729,4.45
			s0.243,3.102,0.729,4.449s1.218,2.568,2.196,3.663l-1.361,1.224C461.979,298.203,461.116,296.802,460.543,295.251z"/>
		<path fill="#FFFFFF" d="M468.971,296.558c0,0-0.33-0.176-0.991-0.525s-1.164-0.863-1.511-1.539
			c-0.347-0.678-0.52-1.495-0.52-2.453v-1.137c0-0.998,0.166-1.85,0.5-2.556s0.818-1.243,1.453-1.612s1.398-0.555,2.293-0.555
			c0.842,0,1.561,0.211,2.156,0.632s1.051,1.03,1.365,1.827c0.314,0.796,0.471,1.752,0.471,2.865v0.661h-6.801v-1.594h4.916
			c-0.058-0.822-0.27-1.462-0.636-1.919s-0.856-0.685-1.472-0.685c-0.752,0-1.333,0.246-1.744,0.738
			c-0.412,0.492-0.617,1.188-0.617,2.089v1.283c0,0.835,0.221,1.477,0.66,1.923c0.441,0.447,1.066,0.671,1.875,0.671
			c0.402,0,0.801-0.081,1.195-0.243c0.396-0.162,0.748-0.389,1.06-0.681l1.302,1.303c-0.499,0.479-1.059,0.85-1.681,1.112
			s-1.247,0.394-1.876,0.394C469.438,296.558,468.971,296.558,468.971,296.558z"/>
		<path fill="#FFFFFF" d="M478.891,293.808c0,0.246,0.053,0.436,0.16,0.568s0.258,0.199,0.451,0.199h0.934v1.885h-1.166
			c-0.752,0-1.333-0.232-1.744-0.699s-0.617-1.123-0.617-1.973v-11.504h1.982V293.808z"/>
		<path fill="#FFFFFF" d="M485.401,296.558c0,0-0.331-0.176-0.992-0.525c-0.66-0.35-1.164-0.863-1.51-1.539
			c-0.348-0.678-0.52-1.495-0.52-2.453v-1.137c0-0.998,0.166-1.85,0.5-2.556s0.817-1.243,1.452-1.612s1.399-0.555,2.293-0.555
			c0.842,0,1.562,0.211,2.157,0.632s1.051,1.03,1.365,1.827c0.313,0.796,0.471,1.752,0.471,2.865v0.661h-6.801v-1.594h4.916
			c-0.059-0.822-0.271-1.462-0.637-1.919c-0.365-0.457-0.856-0.685-1.472-0.685c-0.751,0-1.333,0.246-1.744,0.738
			s-0.616,1.188-0.616,2.089v1.283c0,0.835,0.22,1.477,0.66,1.923c0.44,0.447,1.065,0.671,1.875,0.671
			c0.402,0,0.8-0.081,1.195-0.243c0.395-0.162,0.748-0.389,1.059-0.681l1.303,1.303c-0.5,0.479-1.06,0.85-1.682,1.112
			c-0.621,0.263-1.246,0.394-1.875,0.394C485.867,296.558,485.401,296.558,485.401,296.558z"/>
		<path fill="#FFFFFF" d="M493.338,286.328h1.982v10.084h-1.982V286.328z M499.362,290.3c0-0.712-0.175-1.263-0.524-1.65
			c-0.35-0.389-0.845-0.584-1.486-0.584c-0.647,0-1.148,0.172-1.501,0.516c-0.354,0.344-0.529,0.826-0.529,1.447l-0.205-1.943
			c0.312-0.608,0.718-1.078,1.22-1.408s1.058-0.496,1.667-0.496c0.705,0,1.308,0.16,1.807,0.48c0.498,0.321,0.879,0.789,1.142,1.404
			s0.394,1.357,0.394,2.225v6.121h-1.982V290.3z M505.385,290.3c0-0.712-0.184-1.263-0.553-1.65
			c-0.369-0.389-0.889-0.584-1.555-0.584c-0.615,0-1.092,0.188-1.429,0.564c-0.337,0.375-0.505,0.906-0.505,1.593l-0.398-1.943
			c0.317-0.667,0.736-1.184,1.258-1.55c0.521-0.365,1.097-0.549,1.725-0.549c0.726,0,1.346,0.16,1.861,0.48
			c0.514,0.321,0.906,0.789,1.176,1.404c0.268,0.615,0.402,1.357,0.402,2.225v6.121h-1.982V290.3z"/>
		<path fill="#FFFFFF" d="M513.11,296.558c0,0-0.33-0.176-0.991-0.525s-1.164-0.863-1.511-1.539c-0.347-0.678-0.52-1.495-0.52-2.453
			v-1.137c0-0.998,0.166-1.85,0.5-2.556s0.818-1.243,1.453-1.612s1.398-0.555,2.293-0.555c0.842,0,1.561,0.211,2.156,0.632
			s1.051,1.03,1.365,1.827c0.314,0.796,0.471,1.752,0.471,2.865v0.661h-6.801v-1.594h4.916c-0.058-0.822-0.27-1.462-0.636-1.919
			s-0.856-0.685-1.472-0.685c-0.752,0-1.333,0.246-1.744,0.738c-0.412,0.492-0.617,1.188-0.617,2.089v1.283
			c0,0.835,0.221,1.477,0.66,1.923c0.441,0.447,1.066,0.671,1.875,0.671c0.402,0,0.801-0.081,1.195-0.243
			c0.396-0.162,0.748-0.389,1.06-0.681l1.302,1.303c-0.499,0.479-1.059,0.85-1.681,1.112s-1.247,0.394-1.876,0.394
			C513.577,296.558,513.11,296.558,513.11,296.558z"/>
		<path fill="#FFFFFF" d="M521.047,286.328h1.982v10.084h-1.982V286.328z M527.168,290.3c0-0.712-0.185-1.263-0.554-1.65
			c-0.369-0.389-0.888-0.584-1.554-0.584c-0.648,0-1.148,0.172-1.502,0.516s-0.529,0.826-0.529,1.447l-0.204-1.943
			c0.312-0.608,0.718-1.078,1.22-1.408s1.057-0.496,1.666-0.496c1.094,0,1.941,0.358,2.541,1.074
			c0.599,0.715,0.898,1.728,0.898,3.035v6.121h-1.982V290.3z"/>
		<path fill="#FFFFFF" d="M531.385,286.328h4.547v1.787h-4.547V286.328z M532.993,295.786c-0.379-0.45-0.568-1.116-0.568-1.997
			v-10.396h1.982v10.415c0,0.246,0.049,0.436,0.146,0.568c0.097,0.133,0.238,0.199,0.427,0.199h0.952v1.885h-1.146
			C533.969,296.46,533.372,296.236,532.993,295.786z"/>
		<path fill="#FFFFFF" d="M537.292,298.229c0.978-1.095,1.71-2.315,2.196-3.663c0.485-1.348,0.729-2.83,0.729-4.449
			s-0.243-3.104-0.729-4.45c-0.486-1.347-1.219-2.565-2.196-3.653l1.36-1.234c1.152,1.251,2.016,2.651,2.589,4.203
			c0.573,1.551,0.86,3.263,0.86,5.135c0,1.871-0.287,3.583-0.86,5.135c-0.573,1.551-1.437,2.951-2.589,4.201L537.292,298.229z"/>
	</g>
	<g>
		<path fill="#FFFFFF" d="M491.304,374.421h-3.536l6.5-3.973v2.264L491.304,374.421z M494.268,378.406l-6.5-3.984h3.536l2.964,1.701
			V378.406z"/>
		<path fill="#FFFFFF" d="M497.084,370.808h1.982v14.185h-1.982V370.808z M499.96,380.586c-0.466-0.302-0.81-0.728-1.03-1.277
			l0.137-2.108c0,0.434,0.078,0.803,0.232,1.107c0.156,0.305,0.381,0.537,0.676,0.699s0.652,0.243,1.074,0.243
			c0.654,0,1.16-0.199,1.52-0.597c0.359-0.398,0.539-0.961,0.539-1.687v-2.187c0-0.738-0.18-1.311-0.539-1.719
			s-0.865-0.612-1.52-0.612c-0.422,0-0.779,0.077-1.074,0.233c-0.295,0.155-0.52,0.383-0.676,0.685
			c-0.154,0.302-0.232,0.663-0.232,1.083l-0.204-1.943c0.304-0.589,0.702-1.044,1.194-1.365c0.492-0.32,1.041-0.48,1.643-0.48
			c0.713,0,1.322,0.16,1.832,0.48c0.508,0.321,0.895,0.789,1.16,1.404s0.398,1.357,0.398,2.225v2.196
			c0,0.854-0.136,1.587-0.408,2.196c-0.271,0.608-0.67,1.073-1.195,1.395c-0.523,0.32-1.152,0.48-1.885,0.48
			C500.974,381.039,500.427,380.888,499.96,380.586z"/>
		<path fill="#FFFFFF" d="M507.52,370.449l6.5,3.973h-3.537l-2.963-1.709V370.449z M510.483,374.421h3.537l-6.5,3.984v-2.283
			L510.483,374.421z"/>
		<path fill="#FFFFFF" d="M460.543,400.748c-0.572-1.551-0.859-3.262-0.859-5.135c0-1.871,0.287-3.583,0.859-5.135
			c0.574-1.551,1.437-2.951,2.59-4.201l1.359,1.233c-0.978,1.089-1.709,2.306-2.195,3.653s-0.729,2.83-0.729,4.449
			c0,1.62,0.242,3.104,0.729,4.45c0.486,1.348,1.218,2.568,2.195,3.663l-1.359,1.225
			C461.98,403.701,461.118,402.299,460.543,400.748z"/>
		<path fill="#FFFFFF" d="M468.972,402.054c0,0-0.331-0.174-0.991-0.523s-1.164-0.863-1.511-1.541
			c-0.347-0.676-0.52-1.494-0.52-2.453V396.4c0-0.997,0.167-1.849,0.5-2.555c0.334-0.706,0.817-1.244,1.452-1.613
			s1.4-0.554,2.293-0.554c0.842,0,1.562,0.211,2.157,0.632c0.597,0.421,1.052,1.029,1.365,1.826s0.472,1.752,0.472,2.867v0.66
			h-6.801v-1.594h4.916c-0.059-0.822-0.271-1.462-0.637-1.918c-0.366-0.457-0.857-0.686-1.473-0.686
			c-0.751,0-1.332,0.246-1.744,0.738c-0.41,0.492-0.616,1.188-0.616,2.089v1.282c0,0.836,0.22,1.477,0.661,1.924
			c0.439,0.447,1.064,0.67,1.875,0.67c0.401,0,0.799-0.08,1.195-0.242c0.395-0.162,0.748-0.389,1.059-0.68l1.302,1.301
			c-0.499,0.48-1.06,0.851-1.681,1.113c-0.622,0.262-1.247,0.393-1.875,0.393C469.438,402.054,468.972,402.054,468.972,402.054z"/>
		<path fill="#FFFFFF" d="M478.892,399.305c0,0.247,0.054,0.437,0.16,0.568c0.106,0.133,0.257,0.199,0.452,0.199h0.933v1.885h-1.166
			c-0.751,0-1.333-0.233-1.744-0.699s-0.616-1.124-0.616-1.972v-11.504h1.981V399.305z"/>
		<path fill="#FFFFFF" d="M485.401,402.054c0,0-0.33-0.174-0.99-0.523c-0.661-0.35-1.164-0.863-1.512-1.541
			c-0.346-0.676-0.52-1.494-0.52-2.453V396.4c0-0.997,0.167-1.849,0.5-2.555c0.334-0.706,0.818-1.244,1.453-1.613
			s1.399-0.554,2.293-0.554c0.842,0,1.561,0.211,2.156,0.632c0.597,0.421,1.052,1.029,1.365,1.826
			c0.314,0.797,0.472,1.752,0.472,2.867v0.66h-6.801v-1.594h4.916c-0.058-0.822-0.271-1.462-0.636-1.918
			c-0.367-0.457-0.857-0.686-1.473-0.686c-0.752,0-1.332,0.246-1.744,0.738c-0.411,0.492-0.617,1.188-0.617,2.089v1.282
			c0,0.836,0.221,1.477,0.661,1.924s1.065,0.67,1.875,0.67c0.401,0,0.8-0.08,1.195-0.242s0.748-0.389,1.06-0.68l1.301,1.301
			c-0.498,0.48-1.059,0.851-1.68,1.113c-0.623,0.262-1.248,0.393-1.876,0.393C485.868,402.054,485.401,402.054,485.401,402.054z"/>
		<path fill="#FFFFFF" d="M493.339,391.824h1.981v10.086h-1.981V391.824z M499.363,395.798c0-0.713-0.175-1.264-0.524-1.652
			s-0.846-0.582-1.486-0.582c-0.648,0-1.148,0.171-1.502,0.514c-0.353,0.344-0.529,0.826-0.529,1.448l-0.203-1.943
			c0.311-0.608,0.717-1.078,1.219-1.409c0.502-0.33,1.058-0.495,1.666-0.495c0.706,0,1.309,0.161,1.808,0.481
			s0.879,0.789,1.142,1.404c0.262,0.615,0.394,1.356,0.394,2.225v6.121h-1.982V395.798z M505.387,395.798
			c0-0.713-0.186-1.264-0.555-1.652s-0.887-0.582-1.555-0.582c-0.615,0-1.091,0.188-1.428,0.563
			c-0.337,0.376-0.505,0.907-0.505,1.594l-0.398-1.943c0.317-0.667,0.737-1.184,1.259-1.549c0.521-0.367,1.096-0.55,1.724-0.55
			c0.726,0,1.346,0.161,1.86,0.481c0.516,0.32,0.907,0.789,1.176,1.404c0.27,0.615,0.403,1.356,0.403,2.225v6.121h-1.981V395.798z"
			/>
		<path fill="#FFFFFF" d="M513.111,402.054c0,0-0.331-0.174-0.991-0.523s-1.164-0.863-1.511-1.541
			c-0.347-0.676-0.52-1.494-0.52-2.453V396.4c0-0.997,0.167-1.849,0.5-2.555c0.334-0.706,0.817-1.244,1.452-1.613
			s1.4-0.554,2.293-0.554c0.842,0,1.562,0.211,2.157,0.632c0.597,0.421,1.052,1.029,1.365,1.826s0.472,1.752,0.472,2.867v0.66
			h-6.801v-1.594h4.916c-0.059-0.822-0.271-1.462-0.637-1.918c-0.366-0.457-0.857-0.686-1.473-0.686
			c-0.751,0-1.332,0.246-1.744,0.738c-0.41,0.492-0.616,1.188-0.616,2.089v1.282c0,0.836,0.22,1.477,0.661,1.924
			c0.439,0.447,1.064,0.67,1.875,0.67c0.401,0,0.799-0.08,1.195-0.242c0.395-0.162,0.748-0.389,1.059-0.68l1.302,1.301
			c-0.499,0.48-1.06,0.851-1.681,1.113c-0.622,0.262-1.247,0.393-1.875,0.393C513.577,402.054,513.111,402.054,513.111,402.054z"/>
		<path fill="#FFFFFF" d="M521.049,391.824h1.981v10.086h-1.981V391.824z M527.169,395.798c0-0.713-0.185-1.264-0.554-1.652
			s-0.887-0.582-1.555-0.582c-0.647,0-1.148,0.171-1.501,0.514c-0.353,0.344-0.529,0.826-0.529,1.448l-0.204-1.943
			c0.311-0.608,0.717-1.078,1.219-1.409c0.502-0.33,1.059-0.495,1.667-0.495c1.095,0,1.941,0.358,2.54,1.073
			c0.6,0.717,0.899,1.729,0.899,3.037v6.121h-1.982V395.798z"/>
		<path fill="#FFFFFF" d="M531.386,391.824h4.547v1.788h-4.547V391.824z M532.995,401.283c-0.379-0.45-0.568-1.115-0.568-1.996
			V388.89h1.981v10.415c0,0.247,0.049,0.437,0.146,0.568c0.098,0.133,0.24,0.199,0.428,0.199h0.952v1.885h-1.146
			C533.971,401.958,533.374,401.733,532.995,401.283z"/>
		<path fill="#FFFFFF" d="M537.293,403.726c0.979-1.095,1.71-2.315,2.195-3.663c0.486-1.347,0.729-2.83,0.729-4.45
			c0-1.619-0.242-3.102-0.729-4.449c-0.485-1.348-1.217-2.564-2.195-3.653l1.36-1.233c1.153,1.25,2.016,2.65,2.589,4.201
			c0.573,1.552,0.859,3.264,0.859,5.135c0,1.873-0.286,3.584-0.859,5.135c-0.573,1.552-1.436,2.953-2.589,4.203L537.293,403.726z"/>
	</g>
	<rect x="187.893" y="161.28" fill="#FFFFFF" width="50" height="11.711"/>
	<rect x="383.893" y="160.54" fill="#FFFFFF" width="44" height="11.711"/>
	<rect x="114.893" y="277.136" fill="#FFFFFF" width="123" height="11.711"/>
	<rect x="114.893" y="200.396" fill="#FFFFFF" width="11.711" height="88.451"/>
	<rect x="383.893" y="276.396" fill="#FFFFFF" width="44" height="11.711"/>
	<rect x="304.893" y="384.911" fill="#FFFFFF" width="123" height="11.711"/>
	<rect x="304.893" y="315.396" fill="#FFFFFF" width="11.711" height="81.226"/>
</g>
</svg>
