<?xml version="1.0" encoding="utf-8"?>
<!-- Generator: Adobe Illustrator 25.0.0, SVG Export Plug-In . SVG Version: 6.00 Build 0)  -->
<svg version="1.1" id="Calque_1" xmlns="http://www.w3.org/2000/svg" xmlns:xlink="http://www.w3.org/1999/xlink" x="0px" y="0px"
	 viewBox="0 0 475.4 629" style="enable-background:new 0 0 475.4 629;" xml:space="preserve">
<style type="text/css">
	.st0{opacity:0.24;}
	.st1{fill:#B59459;}
	.st2{fill:#FFE7B3;}
	.st3{fill:#825911;}
	.st4{fill:#C10000;stroke:#3D3D3D;stroke-width:2;stroke-miterlimit:10;}
	.st5{fill:#A8A8A8;stroke:#3D3D3D;stroke-width:2;stroke-miterlimit:10;}
	.st6{fill:#7BE6FF;stroke:#3D3D3D;stroke-width:2;stroke-miterlimit:10;}
	.st7{fill:#D3B466;stroke:#3D3D3D;stroke-width:2;stroke-miterlimit:10;}
	.st8{fill:#E2E2E2;}
	.st9{fill:none;stroke:#3D3D3D;stroke-width:2;stroke-miterlimit:10;}
	.st10{fill:#3D3D3D;}
	.st11{fill:#DDC700;}
	.st12{fill:#8C7B00;}
</style>
<g>
	<g class="st0">
		
			<image style="overflow:visible;" width="432" height="619" xlink:href="4AE7FBB0.png"  transform="matrix(1 0 0 1 42.2558 -13.6393)">
		</image>
	</g>
	<g>
		<ellipse class="st1" cx="232.8" cy="304.9" rx="196.8" ry="255.3"/>
		<ellipse class="st2" cx="232.8" cy="304.9" rx="139.7" ry="181.3"/>
		<g>
			<g>
				<path class="st3" d="M208,112.9c-14,0-25.5-2.4-34.9-7.4c-6.5-3.4-12.1-8.3-16.3-14.1c-4.6-6.4-7.2-13.6-7.4-20.9
					C149.1,61,152.9,51,159.8,43c5.6-6.5,13.3-11.8,22.8-15.6c0.6-0.2,1.1-0.5,1.7-0.7c3-1.2,5.9-2.3,7.1-3.9
					c0.1-0.2,0.1-0.6,0.1-0.8c0.1,0.4,0.7,1.2,1.8,1.5l4.5-15.4c4.3,1.2,7.5,4.5,9,8.9c1.7,5.2,0.6,11.2-2.7,15.5
					c-3.9,5-9.4,7.2-13.8,9c-0.5,0.2-1,0.4-1.5,0.6c-7.1,2.9-12.8,6.7-16.8,11.3c-4.3,4.9-6.7,11-6.5,16.5
					c0.3,8.2,6.2,16.6,15.2,21.3c7.8,4.1,17.9,5.9,30.9,5.5l0.5,16C210.6,112.9,209.3,112.9,208,112.9z"/>
				<path class="st3" d="M80.7,290.2c-12.3-7.5-20.9-22-24.3-40.6c-1.3-7.4-1.8-14.7-2.3-21.9c-0.5-6.9-0.9-13.5-2.1-20
					c-0.6-3.3-1.5-7.4-3.6-9.6c-0.9-0.9-2.2-1.3-2.8-1.2c-0.4,0.2-0.7,0.4-1.1,0.7l-8.9-13.3c0.7-0.5,1.4-1,2.2-1.4
					c5-3.8,6.3-11.9,7.5-23.5c0.3-2.5,0.5-5.1,0.9-7.6c2.1-15,8.8-29.2,19.3-41C76,98.8,89.3,90.4,103.9,86.5
					c14.6-3.9,30.3-3.4,45.3,1.6c15.1,5,28,13.9,37.3,25.8l-12.6,9.9c-15.2-19.2-42.3-28.2-65.9-21.8c-23.7,6.4-42.6,27.8-46,52
					c-0.3,2.2-0.6,4.6-0.8,7c-0.8,7.4-1.7,15.8-4.9,23.1c1.3,0.9,2.6,1.9,3.6,3c5.1,5.3,6.9,12.3,7.8,17.9
					c1.3,7.3,1.8,14.6,2.3,21.6c0.5,7,1,13.7,2.1,20.2c1.5,8.2,5.6,22.9,16.9,29.8L80.7,290.2z"/>
				<path class="st3" d="M123.3,469.9c-2,0-4-0.1-6.1-0.5c-12.9-2.2-24.5-12.2-32.6-28.2c-2.1-4.1-3.8-8.3-5.6-12.3
					c-1.9-4.5-3.7-8.8-5.9-12.8c0.4,6.3,0.5,12.6-0.1,19c-0.4,4.2-1.1,9.1-3.6,13.5c-3.3,5.9-9.2,9.9-16.4,11.1
					c-8.2,1.4-17.1-0.9-23.3-6.2c-9.1-7.8-13.6-20.8-12.3-35.7c1.2-13.3,7.8-29.3,23.1-34.6c3.5-1.2,7.2-1.7,11-1.5
					c-0.1-0.3-0.1-0.6-0.2-0.9c-0.4-1.8-0.8-3.6-1.1-5.4c-4.9,0.9-9.8,1.1-14.5,0.4c-13.2-2-24.4-10.7-28.5-22.4
					c-2.6-7.6-2.3-16.2,1.1-24.7c3.3-8.5,8.8-15.4,12.8-19.6c8.3-8.8,18.7-15.6,29.3-19.2c12.6-4.3,24.9-3.8,35.4,1.3l-7,14.4
					c-15.2-7.4-34.5,2.3-46,14.5c-3.5,3.7-14.4,16.5-10.4,28.1c2.1,6,8.4,10.7,15.7,11.8c2.9,0.4,6,0.3,9.2-0.3
					c-0.8-4.8-1.5-9.7-1.9-14.6c-0.6-6.9-0.8-14.9,2.5-22.4c4.2-9.5,13.6-15.4,22.8-14.3c8.9,1,16.5,8.4,18.9,18.3
					c4,16.9-7.3,32.8-20.4,41.1c-1.2,0.8-2.4,1.5-3.7,2.1c0.5,2.6,1.1,5.1,1.6,7.6c0.7,3.3,1.4,6.7,2.1,10.1
					c4.8,3,9.2,7.1,12.7,11.9c5.4,7.3,8.8,15.3,12.1,23.1c1.7,4,3.3,7.8,5.1,11.4c3.3,6.6,10.4,17.9,21,19.7
					c5.5,0.9,11.9-0.8,18-2.4l4.2,15.4C136.7,468.1,130.1,469.9,123.3,469.9z M50,397.7c-1.4,0-2.8,0.2-4.2,0.7
					c-7.5,2.6-11.6,12.4-12.4,20.9c-0.8,9.5,1.7,17.8,6.8,22.1c2.6,2.2,6.5,3.2,10.1,2.6c1.4-0.3,4-1,5.3-3.3c1-1.8,1.4-4.5,1.6-7.1
					c1-11.7-0.2-23.3-2.4-35.2C53.3,397.9,51.6,397.7,50,397.7z M68.4,324.2c-2.1,0-4.8,2.2-6,4.9c-1.8,4.1-1.6,9.4-1.2,14.5
					c0.3,3.1,0.7,6.2,1.1,9.4c7.2-5.3,13.5-14.2,11.5-22.6c-0.8-3.2-3-5.9-5.2-6.1C68.6,324.2,68.5,324.2,68.4,324.2z"/>
				<path class="st3" d="M43.5,263.6c-0.5,0-1.1,0-1.6,0c-9.7-0.3-17-2.6-22.6-7.2c-5.1-4.2-8.1-9.8-10.5-15.2
					c-1.9-4.3-3.7-9-3.9-14.3c-0.4-9,4.1-18.4,12.7-26.2c21.7-20,57.3-21.9,81-4.1l-9.6,12.8c-17.4-13-44.5-11.6-60.5,3.1
					c-2.9,2.7-7.8,8.1-7.6,13.8c0.1,2.4,1.1,5.1,2.6,8.4c1.6,3.6,3.5,7.3,6,9.4c2.7,2.2,6.9,3.4,12.9,3.6c14.2,0.4,36-7.3,47.9-21
					l12.1,10.5C87.1,254.7,61.5,263.6,43.5,263.6z"/>
				<path class="st3" d="M101.4,188.3c-5.5,0-11.2-0.8-16.8-2.3c-14.3-4-26.2-12.6-33.7-24.2c-6.9-10.7-10.5-24.1-10.4-38.6
					c0.1-8.9,1.4-16.4,4.3-23.1c4.8-11.5,14.9-20.8,27.7-25.5c13.3-4.9,27.6-4.2,39.2,1.7c11.8,6,20.4,16.8,24.7,29.3
					c5.4,0.8,11.1,2.6,16.3,6.3c9.6,6.9,13.9,18.2,17,26.4l-15,5.6c-3.1-8.2-6.1-15.3-11.3-19c-1.2-0.8-2.5-1.5-4-2.1
					c0.1,7.1-1.2,14.2-4,20.8c-1.9,4.4-4.1,7.9-6.7,10.7c-7.5,7.8-18.1,9.7-25.4,10.4c-3.6,0.4-7.4,0.5-11.3-0.9
					c-6.1-2.1-11-7.6-13-14.6c-3.6-12.2,2-26.6,13.6-35c6.9-5,15.8-8,26.3-9c-3.3-6.2-8.2-11.5-14.4-14.6c-7.7-3.9-17.4-4.3-26.5-1
					c-8.6,3.2-15.3,9.2-18.4,16.6c-2,4.7-3,10.3-3,17c-0.1,11.4,2.6,21.8,7.8,29.9c11.1,17.3,36.1,24.3,54.6,15.3l7,14.4
					C118.5,186.4,110.1,188.3,101.4,188.3z M123.4,120.9c-9.1,0.4-16.3,2.5-21.4,6.2c-5.2,3.8-9.5,11-7.6,17.5c0.6,2,1.8,3.6,2.9,4
					c1.1,0.4,3.4,0.2,4.5,0.1c7.6-0.8,12.6-2.5,15.5-5.6c1.3-1.3,2.5-3.3,3.5-5.8C123,132.1,123.8,126.5,123.4,120.9z"/>
				<path class="st3" d="M187,624.5l-3-3.7c-3.6-4.4-4.9-10.3-3.6-16.4c1-4.9,3.6-9.7,7.3-13.4c0.7-0.7,1.5-1.4,2.3-2.1
					c-3.2-4.4-7.9-8.1-12.7-11.9c-3.5-2.8-7.1-5.7-10.5-9c-11.5-11.4-17.9-26.6-17.6-41.7c0.2-13.7,6.4-26.9,16.1-35.5
					c-4.9-4.9-14.1-6.6-21.3-4.6c-9.6,2.7-18,9.9-25.5,17.1c0.7,0.3,1.3,0.6,2,0.9c5.1,2.2,10.8,4.7,15.6,9.1
					c5,4.7,7.9,11.7,7.7,18.3c-0.2,5.4-2.5,10.1-6.4,13.2c-4.1,3.3-9.5,4.7-16.2,4.1c-10.1-0.8-20-6.4-25.8-14.4
					c-4.5-6.3-6.1-13.7-4.3-20.6c0.7-2.7,1.8-5.2,3.2-7.5c-12-11.3-19.3-27.7-19.1-44.3c0.3-22.1,14-43.3,34-52.7l6.8,14.5
					c-14.4,6.8-24.6,22.6-24.8,38.5c-0.2,11.8,5.1,23.7,13.6,32c9.1-9,20.4-19.5,34.9-23.5c8.2-2.3,17.4-1.8,25.4,1.3
					c9.1,3.5,15.6,10.1,18.4,18.4l0.8,2.5c0.5-6.7,4.1-12,9.7-14.9c4.5-2.2,9.5-2.5,14.3-0.8c10.8,3.8,17.2,15.8,18.8,19.3
					c1.7,3.7,3.3,7.3,4.6,10.9c3.5,0.5,7.7,1.6,11.1,4.8c4.6,4.3,5.4,10.4,5.8,13.6c2.2,16,3.1,32.3,2.7,48.5
					c-0.3,11,0,23.1,6.8,27.2l-8.2,13.7c-15.3-9.2-14.9-29.3-14.6-41.3c0.1-3.9,0.1-7.7,0-11.6c-3.7,11.8-10.6,22-19.8,28.8
					c-2.1,1.6-4.3,2.9-6.4,4.2c0.6,5.4-0.1,11-2.2,15.7c-3,6.8-8.4,11.3-15.3,12.6L187,624.5z M184.3,497.3l-4.4,2.6
					c-8.8,5.2-14.6,15.6-14.8,26.7c-0.2,10.6,4.7,21.8,12.9,30.1c2.7,2.7,5.9,5.2,9.2,7.9c5.7,4.6,11.6,9.2,16.1,15.6
					c1-0.6,1.9-1.2,2.8-1.9c9.6-7.1,15.8-19.8,16.4-34.1c0.3-6.9-0.6-14.1-2.7-21.8c-7.6-0.6-15.9-1.4-23.5-5.9
					C189.8,512.7,185.1,505.1,184.3,497.3z M107.3,515.8c-0.3,0.7-0.6,1.4-0.8,2.1c-0.6,2.4,0,4.9,1.8,7.4c3,4.2,8.7,7.4,14.1,7.8
					c2.8,0.2,4.3-0.2,4.9-0.6c0.3-0.2,0.4-0.7,0.5-1.4c0.1-2-1-4.5-2.6-6c-2.7-2.6-6.8-4.3-11-6.1c-2.2-0.9-4.4-1.9-6.6-3
					C107.5,515.9,107.4,515.8,107.3,515.8z M202,492.2c-0.4,0-0.6,0.1-1,0.2c-0.2,0.1-0.8,0.4-0.9,2.1c-0.1,3.1,1.9,6.9,4.4,8.3
					c2.6,1.6,5.8,2.4,9.2,2.9c-0.3-0.8-0.7-1.6-1.1-2.3c-2.5-5.3-6.5-9.9-9.6-11C202.6,492.2,202.3,492.2,202,492.2z"/>
			</g>
			<g>
				<path class="st3" d="M262.9,112.9c-1.3,0-2.6,0-3.9-0.1l0.5-16c13,0.4,23.1-1.4,30.9-5.5c8.9-4.7,14.9-13.1,15.2-21.3
					c0.2-5.6-2.2-11.6-6.5-16.5c-4-4.6-9.6-8.4-16.8-11.3c-0.5-0.2-1-0.4-1.5-0.6c-4.4-1.8-10-4-13.8-9c-3.3-4.2-4.3-10.3-2.7-15.5
					c1.4-4.4,4.7-7.7,9-8.9l4.5,15.4c1.1-0.3,1.7-1.1,1.8-1.5c0,0.2,0,0.6,0.1,0.8c1.2,1.5,4.1,2.7,7.1,3.9c0.6,0.2,1.1,0.4,1.7,0.7
					c9.5,3.9,17.1,9.1,22.8,15.6c6.9,8,10.7,18,10.4,27.6c-0.2,7.3-2.8,14.5-7.4,20.9c-4.2,5.8-9.8,10.7-16.3,14.1
					C288.3,110.5,276.9,112.9,262.9,112.9z"/>
				<path class="st3" d="M390.1,290.2l-8.3-13.6c11.3-6.9,15.4-21.6,16.9-29.8c1.2-6.5,1.6-13.1,2.1-20.2c0.5-7,1-14.3,2.3-21.6
					c1-5.5,2.7-12.6,7.8-17.9c1.1-1.1,2.3-2.1,3.6-3c-3.2-7.3-4.1-15.7-4.9-23.1c-0.3-2.5-0.5-4.8-0.8-7c-3.4-24.3-22.4-45.6-46-52
					c-23.7-6.4-50.8,2.6-65.9,21.8l-12.6-9.9c9.4-11.9,22.3-20.8,37.3-25.8c15.1-5,30.7-5.5,45.3-1.6c14.6,3.9,27.9,12.3,38.4,24.2
					c10.5,11.9,17.2,26.1,19.3,41c0.4,2.5,0.6,5.1,0.9,7.6c1.2,11.6,2.5,19.7,7.5,23.5c0.7,0.4,1.5,0.9,2.2,1.4l-8.9,13.3
					c-0.4-0.2-0.7-0.4-1.1-0.7c-0.6,0-1.9,0.3-2.8,1.2c-2.1,2.2-3,6.3-3.6,9.6c-1.1,6.5-1.6,13-2.1,20c-0.5,7.1-1,14.5-2.3,21.9
					C411,268.2,402.4,282.6,390.1,290.2z"/>
				<path class="st3" d="M347.6,469.9c-6.9,0-13.4-1.8-18.8-3.2l4.2-15.4c6.1,1.7,12.5,3.4,18,2.4c10.5-1.8,17.7-13.1,21-19.7
					c1.8-3.6,3.4-7.4,5.1-11.4c3.3-7.8,6.7-15.8,12.1-23.1c3.5-4.7,7.9-8.8,12.7-11.9c0.7-3.4,1.4-6.7,2.1-10.1
					c0.5-2.5,1.1-5.1,1.6-7.6c-1.2-0.7-2.5-1.4-3.7-2.1c-13-8.3-24.4-24.2-20.4-41.1c2.4-9.9,9.9-17.3,18.9-18.3
					c9.2-1.1,18.6,4.8,22.8,14.3c3.3,7.5,3.1,15.5,2.5,22.4c-0.4,4.9-1.1,9.8-1.9,14.6c3.1,0.6,6.2,0.7,9.2,0.3
					c7.3-1.1,13.6-5.8,15.7-11.8c4-11.6-6.9-24.5-10.4-28.1c-11.5-12.2-30.8-21.9-46-14.5l-7-14.4c10.5-5.1,22.7-5.6,35.4-1.3
					c10.6,3.6,21,10.4,29.3,19.2c4,4.3,9.5,11.1,12.8,19.6c3.3,8.6,3.7,17.1,1.1,24.7c-4.1,11.6-15.2,20.4-28.5,22.4
					c-4.7,0.7-9.6,0.6-14.5-0.4c-0.4,1.8-0.8,3.6-1.1,5.4c-0.1,0.3-0.1,0.6-0.2,0.9c3.8-0.2,7.4,0.3,11,1.5
					c15.2,5.3,21.9,21.4,23.1,34.6c1.3,14.9-3.2,27.9-12.3,35.7c-6.1,5.2-15,7.6-23.3,6.2c-7.3-1.3-13.1-5.2-16.4-11.1
					c-2.5-4.5-3.3-9.4-3.6-13.5c-0.6-6.4-0.5-12.7-0.1-19c-2.1,4-4,8.3-5.9,12.8c-1.7,4.1-3.5,8.2-5.6,12.3
					c-8.1,16-19.6,26-32.6,28.2C351.6,469.7,349.6,469.9,347.6,469.9z M416,398.4c-2.1,11.9-3.4,23.5-2.4,35.2
					c0.2,2.6,0.6,5.3,1.6,7.1c1.3,2.2,3.8,3,5.3,3.3c3.6,0.6,7.5-0.4,10.1-2.6c5.1-4.3,7.6-12.6,6.8-22.1
					c-0.7-8.5-4.9-18.3-12.4-20.9C422.1,397.3,419,397.5,416,398.4z M402.5,324.2c-0.1,0-0.2,0-0.3,0c-2.1,0.2-4.4,2.9-5.2,6.1
					c-2,8.5,4.3,17.3,11.5,22.6c0.5-3.1,0.9-6.3,1.1-9.4c0.5-5.1,0.6-10.4-1.2-14.5C407.2,326.4,404.6,324.2,402.5,324.2z"/>
				<path class="st3" d="M427.4,263.6c-18.1,0-43.6-8.9-58.9-26.5l12.1-10.5c11.6,13.3,32.5,21,46.8,21c0.4,0,0.8,0,1.1,0
					c6-0.2,10.2-1.4,12.9-3.6c2.6-2.1,4.4-5.8,6-9.4c1.5-3.3,2.5-6,2.6-8.4c0.2-5.7-4.6-11.1-7.6-13.8c-16-14.7-43.1-16.1-60.5-3.1
					l-9.6-12.8c23.7-17.7,59.2-15.9,81,4.1c8.6,7.9,13.1,17.2,12.7,26.2c-0.2,5.3-2,10-3.9,14.3c-2.4,5.4-5.4,11-10.5,15.2
					c-5.5,4.5-12.9,6.9-22.6,7.2C428.5,263.6,427.9,263.6,427.4,263.6z"/>
				<path class="st3" d="M369.4,188.3c-8.6,0-17-1.9-24.6-5.6l7-14.4c18.5,9,43.5,2,54.6-15.3c5.2-8.1,7.9-18.4,7.8-29.9
					c0-6.7-1-12.3-3-17c-3.1-7.4-9.8-13.5-18.4-16.6c-9.1-3.3-18.7-3-26.5,1c-6.2,3.1-11.1,8.4-14.4,14.6c10.6,1,19.4,4,26.3,9
					c11.5,8.4,17.1,22.7,13.6,35c-2,7-6.9,12.5-13,14.6c-3.9,1.4-7.8,1.2-11.3,0.9c-7.3-0.7-17.9-2.6-25.4-10.4
					c-2.7-2.8-4.9-6.3-6.7-10.7c-2.8-6.7-4.1-13.8-4-20.8c-1.5,0.6-2.8,1.3-4,2.1c-5.2,3.7-8.2,10.8-11.3,19l-15-5.6
					c3.1-8.3,7.4-19.6,17-26.4c5.2-3.7,10.9-5.5,16.3-6.3c4.3-12.4,12.9-23.3,24.7-29.3c11.7-5.9,26-6.6,39.2-1.7
					c12.8,4.7,22.9,14,27.7,25.5c2.8,6.7,4.2,14.2,4.3,23.1c0.1,14.6-3.5,27.9-10.4,38.6c-7.5,11.6-19.4,20.2-33.7,24.2
					C380.6,187.5,375,188.3,369.4,188.3z M347.5,120.9c-0.4,5.6,0.4,11.2,2.6,16.4c1.1,2.6,2.2,4.5,3.5,5.8c2.9,3,7.8,4.8,15.5,5.6
					c1.1,0.1,3.4,0.3,4.5-0.1c1.1-0.4,2.3-2,2.9-4c1.9-6.5-2.4-13.8-7.6-17.5C363.7,123.4,356.5,121.3,347.5,120.9z"/>
				<path class="st3" d="M283.8,624.5l-4.7-0.9c-6.8-1.3-12.3-5.8-15.3-12.6c-2.1-4.8-2.8-10.3-2.2-15.7c-2.1-1.3-4.3-2.6-6.4-4.2
					c-9.2-6.8-16.1-17-19.8-28.8c-0.1,3.9,0,7.7,0,11.6c0.3,12,0.8,32.1-14.6,41.3l-8.2-13.7c6.8-4.1,7.1-16.2,6.8-27.2
					c-0.4-16.1,0.5-32.5,2.7-48.5c0.4-3.2,1.3-9.3,5.8-13.6c3.4-3.2,7.6-4.3,11.1-4.8c1.3-3.5,2.9-7.2,4.6-10.9
					c1.7-3.6,8-15.5,18.8-19.3c4.9-1.7,9.8-1.4,14.3,0.8c5.7,2.8,9.2,8.2,9.7,14.9l0.8-2.5c2.8-8.3,9.3-14.8,18.4-18.4
					c7.9-3.1,17.2-3.5,25.4-1.3c14.6,4.1,25.8,14.6,34.9,23.5c8.5-8.3,13.8-20.2,13.6-32c-0.2-15.9-10.5-31.7-24.8-38.5l6.8-14.5
					c20,9.4,33.7,30.6,34,52.7c0.3,16.6-7.1,33-19.1,44.3c1.4,2.2,2.5,4.7,3.2,7.5c1.8,7,0.2,14.3-4.3,20.6
					c-5.8,8.1-15.7,13.6-25.8,14.4c-6.7,0.5-12.2-0.8-16.2-4.1c-3.9-3.2-6.2-7.9-6.4-13.2c-0.2-6.6,2.7-13.7,7.7-18.3
					c4.8-4.5,10.5-7,15.6-9.1c0.7-0.3,1.4-0.6,2-0.9c-7.5-7.2-15.9-14.4-25.5-17.1c-7.2-2-16.4-0.3-21.3,4.6
					c9.8,8.6,15.9,21.8,16.1,35.5c0.3,15-6.2,30.2-17.6,41.7c-3.4,3.4-7,6.2-10.5,9c-4.9,3.9-9.5,7.6-12.7,11.9
					c0.8,0.7,1.5,1.3,2.3,2.1c3.7,3.7,6.3,8.4,7.3,13.4c1.3,6.2,0,12-3.6,16.4L283.8,624.5z M251.1,522.4c-2.1,7.7-3,14.9-2.7,21.8
					c0.6,14.2,6.7,27,16.4,34.1c0.9,0.6,1.8,1.3,2.8,1.9c4.5-6.4,10.4-11.1,16.1-15.6c3.3-2.6,6.4-5.1,9.2-7.9
					c8.3-8.3,13.1-19.5,12.9-30.1c-0.2-11.1-6-21.5-14.8-26.7l-4.4-2.6c-0.8,7.8-5.5,15.4-12,19.3C267,521,258.6,521.9,251.1,522.4z
					 M363.5,515.8c-0.1,0-0.1,0.1-0.2,0.1c-2.2,1.1-4.5,2.1-6.6,3c-4.3,1.8-8.3,3.6-11,6.1c-1.6,1.5-2.7,4-2.6,6
					c0,0.7,0.2,1.1,0.5,1.4c0.6,0.5,2.2,0.9,4.9,0.6c5.4-0.4,11.1-3.6,14.1-7.8c1.8-2.5,2.4-5,1.8-7.4
					C364.1,517.1,363.9,516.5,363.5,515.8z M268.8,492.2c-0.3,0-0.6,0.1-1,0.2c-3.1,1.1-7.2,5.7-9.6,11c-0.4,0.8-0.7,1.6-1.1,2.3
					c3.4-0.5,6.6-1.3,9.2-2.9c2.5-1.5,4.5-5.3,4.4-8.3c-0.1-1.6-0.6-1.9-0.9-2.1C269.5,492.3,269.2,492.2,268.8,492.2z"/>
			</g>
			<path class="st3" d="M234.6,117.8l-5.9-5.8c-7-6.9-13.5-14.4-19.4-22.2c-5.8-7.8-11.7-17.3-11.1-28.5v0
				c0.4-9.5,6.1-20.2,14.3-27.3c6.8-5.8,14.6-8.6,22-7.8c19.2,2.1,30.7,18.9,30,44c-0.1,4-0.2,8.5-1.8,13.1
				c-2.2,6.6-6.8,11.4-10.4,15.4L234.6,117.8z M214.2,62c-0.3,6.2,3.9,12.7,8,18.2c3.7,5,7.8,9.9,12,14.5l6.5-6.9
				c2.9-3.1,5.9-6.3,7-9.6c0.8-2.3,0.9-5.3,0.9-8.4c0.2-7.8-0.9-26.1-15.7-27.7c-3-0.3-6.5,1.1-9.9,4C218,50.4,214.4,56.9,214.2,62
				L214.2,62z"/>
		</g>
		<g>
			<path class="st4" d="M95.5,364.6c-6.4,6.9-13,16.4-9.1,25c1.8,4.1,5.7,6.9,9.4,9.5c25.7,17.9,51.8,35.7,80.8,47.5
				c29,11.8,61.5,17.3,91.9,9.5c10.4-2.7,20.3-6.8,29.9-11.7c25.1-12.9,47.4-31.1,65.1-53.1c2.7-3.4,5.5-7.5,4.5-11.7
				c-0.7-3-3.2-5.2-5.6-7.2c-52.4-43.1-121-65.9-188.8-62.9C142.9,310.7,115.2,343.5,95.5,364.6z"/>
			<path class="st5" d="M160,131.3c0.2-1.6,0.3-3.1,1-4.5c1.3-2.7,4.4-4.4,7.5-4.7s6.1,0.5,9,1.5c8.3,3,15.7,8.2,21.3,14.8
				c1,1.2,2,2.7,1.4,4.1c-0.4,1-1.3,1.6-2.2,2.1c-5.3,3.2-10.7,6.2-16.3,8.9c-4.1,2-13.1,8-17.7,7.8
				C156,160.9,159.4,137.9,160,131.3z"/>
			<path class="st5" d="M167.3,154.7c16.4-14.6,41.2-20.2,61.7-12.3c20.5,7.9,34.9,29.7,32,51.1c-0.5,3.5-1.4,6.9-1.5,10.4
				c-0.6,12.2,7.2,23.3,16.3,31.7c9.1,8.3,19.8,15.1,27.5,24.7c12.2,14.9,15.9,35.4,13.4,54.4c-1,7.8-3,15.6-6.3,22.8
				c-9.9,21.6-31.3,37-54.6,43.2s-48.3,4-71.3-2.9c-8.5-2.5-16.9-5.7-24.1-10.8c-17.3-12.4-24.6-34.8-24.4-55.9
				c0.2-21.1,6.8-41.6,12.4-62c4.7-17.4,9.3-36.1,7.4-54.2c-0.8-7.5-4-12.5-1.7-20.3C156.1,166.9,161.3,160,167.3,154.7z"/>
			<path class="st5" d="M231.9,143.7c0.4-1.1,1.1-2.2,2.1-3.2c8.5-8,23.5-9.2,34.4-10.6c0.8-0.1,1.6-0.2,2.2,0.2
				c1.4,0.7,1.4,2.7,1.1,4.3c-2.2,12.3-4.7,25.3-13.4,34.4c-2.4,2.5-6.2,4.8-9.3,3.2"/>
			<path class="st5" d="M180.3,322c8.9,18.3,9.8,39.8,2.4,59.3c-8.7,4-15.4,11.6-17.6,20c-6,0.2-11.8-3.5-13.4-8.6
				c-1.6-5.1,1-11.2,6.2-14.2c-3.2,3.2-4.8,7.4-4.5,11.5c0.3,3.8,1.3,9-2.7,10.4c-1.8,0.6-3.8,0-5.4-0.8c-6.2-3.2-9.5-10.2-7.8-16.6
				c1.7-6.4,8.2-11.7,15.5-12.7c-5.6,0.5-10.2,4.9-12,9.7c-1.9,4.8-1.6,9.9-1.1,14.8c-2.8,1.6-6.7,0.9-8.9-1.1c-2.3-2-3.2-5-3.4-7.9
				c-0.6-8.5,4.4-17.4,12.6-22.3c-7.4-11-10.3-24.4-8-37.3c0.9-5,2.3-7.5,4.3-8.6"/>
			<path class="st5" d="M246.3,328.7c9,18.3,9.8,39.8,2.2,59.3c-9,4.1-15.8,11.7-18.1,20.1c-6.2,0.2-12.1-3.4-13.8-8.5
				c-1.6-5.1,1.1-11.2,6.4-14.2c-3.3,3.2-5,7.5-4.7,11.6c0.3,3.8,1.3,9-2.9,10.4c-1.9,0.6-3.9,0.1-5.6-0.8c-6.4-3.2-9.7-10.2-8-16.6
				s8.5-11.8,16-12.8c-5.8,0.6-10.5,5-12.4,9.7c-1.9,4.8-1.7,9.9-1.2,14.8c-2.9,1.6-6.9,0.9-9.2-1.1s-3.2-5-3.4-7.8
				c-0.6-8.5,4.6-17.5,13-22.4c-7.6-10.9-10.5-24.4-8.1-37.3c0.8-4.2,2-6.7,3.6-8"/>
			<path class="st5" d="M309.1,320.5c9,18.3,9.8,39.8,2.2,59.3c-9,4.1-15.8,11.7-18.1,20.1c-6.2,0.2-12.1-3.4-13.8-8.5
				c-1.6-5.1,1.1-11.2,6.4-14.2c-3.3,3.2-5,7.5-4.7,11.6c0.3,3.8,1.3,9-2.9,10.4c-1.9,0.6-3.9,0.1-5.6-0.8c-6.4-3.2-9.7-10.2-8-16.6
				c1.7-6.4,8.5-11.8,16-12.8c-5.8,0.6-10.5,5-12.4,9.7s-1.7,9.9-1.2,14.8c-2.9,1.6-6.9,0.9-9.2-1.1c-2.3-2-3.2-5-3.4-7.8
				c-0.6-8.5,4.6-17.5,13-22.4c-7.6-10.9-10.5-24.4-8.1-37.3c0.8-4.2,2-6.7,3.6-8"/>
			<path class="st5" d="M287.3,245.6c12.9-9.1,29.2-13.4,44.9-11.8c7.6,0.8,15,2.9,21.6,6.5c5.9,3.2,11,7.6,15.7,12.2
				c7.4,7.2,14.2,15.2,19.3,24.1c11,19.2,14,43,6.6,63.9c-2.5,7.2-6.2,13.9-10.5,20.3c-10.1,15-24,28-40.7,35.4
				c-16.8,7.4-36.5,8.9-53.5,2.3c-10.4-4.1-19.4-11-28.2-17.8c-4.1-3.1-8.1-6.3-11.4-10.2c-4.5-5.4-7.2-12-10.5-18.2
				c-8.8-16.3-22.4-30.1-38.8-39.3c11.2-9.5,26-13.7,40.3-17.7c13.3-3.7,26.8-7.4,40.6-7.9c13.8-0.5,28.2,2.5,38.8,11
				c-0.4-2.7-2.3-4.5-4.9-5.7"/>
			<path class="st6" d="M239,212.9c8.2-1.4,17.1-4,21.3-11.1c5.9,9,10.5,18.9,13.5,29.2c-22.6,13.2-49,19.9-75.2,19.2
				c-16.3-0.5-32.9-4-46.1-13.5c-1.8-1.3-3.5-2.7-4.3-4.7c-0.7-1.7-0.6-3.6-0.5-5.4c0.5-6.4-0.3-17,6.8-19
				c6.1-1.7,19.3,4.6,25.7,5.6C199.6,216.3,219.6,216.2,239,212.9z"/>
			<ellipse class="st7" cx="161.6" cy="243.9" rx="14.3" ry="17.8"/>
			<path class="st8" d="M233.6,151.3c5-4,11.4-6.3,17.8-6.3c1,0,2,0.1,2.8,0.6c1.4,0.9,1.7,2.9,1.7,4.6c-0.1,5.5-2.7,11-6.8,14.7
				c-0.6,0.5-1.2,1-1.9,1.1c-1,0.2-2-0.4-2.8-1c-4.7-3.4-8.3-8.1-10.3-13.5"/>
			<path class="st8" d="M267.9,333.8c1.3,14.8,1.8,31.9-8.3,43.4c9.4,7.8,18,13.8,28.3,19.2c1.8,0.9,7.3,3.2,9.3,2.9
				c2.5-0.3,3.8-4.6,5.4-6.4c18-19.7,25.6-46.5,23.4-72.4c-0.4-4.8-0.5-14.9-3.4-18.7c-3.5-4.7-5.6-5.8-9.1-7.5
				c-8.5-4.1-30.7-10.1-40-3.6C262.7,298.4,267,323.3,267.9,333.8z"/>
			<path class="st8" d="M353.4,309.4c3.8,2.2,7.6,4.4,10.7,7.4c4.1,3.9,7,8.9,9.8,13.9c3.5,6.5,7,13.4,7,20.9c0,2.9,2.9,6.5,4,9.2
				c3.9-7.1,6.2-12.8,8.8-20.6c0.9-2.5,2.7-6.5,3.2-9.1c0.6-2.8,1-8.1,1.2-10.9c1.1-14.8-4.1-28.3-9.8-41.9
				c-0.7-1.6-1.4-3.2-2.7-4.2c-1.2-0.9-2.6-1.2-4.1-1.5c-12.2-2.1-24.7-0.5-36.5,3.2c-3.4,1.1-6.8,2.4-9.6,4.7
				c-2,1.6-3.6,3.7-5.2,5.7c-2.1,2.6-4.1,5.3-6.2,7.9c-1.9,2.4-3.3,5,0.5,5.2c3.5,0.2,6.7,0.5,10.1,1.4
				C341.4,302.7,347.5,306,353.4,309.4z"/>
			<path class="st9" d="M287.2,246c17.5,10,29.3,29.3,30.1,49.5"/>
			
				<ellipse transform="matrix(9.521019e-02 -0.9955 0.9955 9.521019e-02 -6.6978 318.2783)" class="st10" cx="171.7" cy="162.8" rx="1" ry="2.2"/>
			
				<ellipse transform="matrix(9.521019e-02 -0.9955 0.9955 9.521019e-02 4.5028 333.2479)" class="st10" cx="185.6" cy="164.1" rx="1" ry="2.2"/>
			
				<ellipse transform="matrix(9.521019e-02 -0.9955 0.9955 9.521019e-02 -20.5052 324.6321)" class="st10" cx="168.3" cy="173.6" rx="1.3" ry="2.4"/>
			<path class="st9" d="M174.6,174.3c2.3-0.4,4.7,0.4,7,1.2c3.2,1.1,6.4,2.2,9.7,3.3"/>
			<path class="st9" d="M172.7,176.1c3.7,2.2,7.2,4.8,10.3,7.8"/>
			<path class="st9" d="M162.9,170.2c-5.9-1.4-12-2.1-18-2"/>
			<path class="st9" d="M160.5,173.5c-5.3,0.9-10.6,1.9-15.9,2.8"/>
			<path class="st9" d="M162.6,184.4c1.9-0.6,4-0.1,5.5,1.1"/>
		</g>
		<path class="st11" d="M304.3,573.5H169.5c-6.6,0-12-5.4-12-12v-33.1c0-6.6,5.4-12,12-12h134.8c6.6,0,12,5.4,12,12v33.1
			C316.3,568.1,310.9,573.5,304.3,573.5z"/>
		<g>
			<path class="st12" d="M165.4,537.1h7.8v0.1l-2.9,0.4c-0.1,0.4-0.1,1.1-0.2,2.1c-0.1,1-0.1,1.8-0.1,2.5c0,0.6,0,1.3,0.1,2.2
				c1,0.2,2.6,0.3,4.7,0.3c1,0,2,0,2.9-0.1c0.9,0,1.7-0.1,2.5-0.2c0.1-0.7,0.1-1.5,0.1-2.5c0-0.6,0-1.2,0-1.7c0-0.6-0.1-1-0.1-1.4
				c0-0.4-0.1-0.8-0.2-1.3l-2.9-0.4v-0.1h7.8v0.1l-2.2,0.4c-0.1,0.5-0.2,1.4-0.3,2.7c-0.1,1.3-0.1,2.5-0.1,3.7v3.6
				c0,2.2,0.1,3.8,0.3,4.9l2.2,0.4v0.1h-7.9v-0.1l2.8-0.4c0.2-1.2,0.3-2.6,0.4-4c0-0.4,0-0.8,0-1.4c0-0.5,0-1.1-0.1-1.7h-10.2
				c0,0.5,0,1.4,0,2.5c0,0.7,0,1.5,0.1,2.4c0,0.9,0.1,1.6,0.2,2.1l2.8,0.4v0.1h-7.9v-0.1l2.2-0.4c0.1-0.3,0.1-0.8,0.2-1.5
				c0.1-0.7,0.1-1.6,0.1-2.5c0-0.9,0.1-1.7,0.1-2.3v-4c0-0.1,0-0.5,0-1.1c0-0.6-0.1-1.3-0.1-1.9c-0.1-0.6-0.1-1.1-0.2-1.4l-2.2-0.4
				V537.1z M168.2,537.5v15h0.7v-15H168.2z M180.7,537.5v15h0.8v-15H180.7z"/>
			<path class="st12" d="M188,548.3v-6c0-1.3-0.1-2.9-0.3-4.7l-2.3-0.4v-0.1h7.9v0.1l-2.8,0.4c-0.1,0.5-0.1,1.1-0.2,1.8
				c0,0.7-0.1,1.5-0.1,2.3c0,0.8,0,1.4,0,1.9v4.4c0,1.1,0.2,1.9,0.6,2.6c0.4,0.6,1,1.1,1.7,1.4c0.7,0.3,1.5,0.4,2.3,0.4
				c1.4,0,2.6-0.4,3.4-1.1c0.8-0.7,1.2-1.9,1.2-3.6V543c0-0.8,0-1.8-0.1-2.9c-0.1-1.1-0.1-2-0.2-2.6l-2.8-0.4v-0.1h7.8v0.1l-2.2,0.4
				c-0.1,0.5-0.2,1.2-0.2,2.3c-0.1,1.1-0.1,2-0.1,2.7v5.2c0,0.8-0.1,1.5-0.3,2.1c-0.2,0.6-0.5,1.1-0.9,1.5c-0.3,0.3-0.6,0.5-0.9,0.7
				c-0.3,0.2-0.7,0.4-1.2,0.5c-0.5,0.1-1,0.2-1.6,0.3c-0.6,0.1-1.3,0.1-2.1,0.1c-1.4,0-2.5-0.2-3.5-0.5c-1-0.3-1.8-0.8-2.4-1.5
				C188.3,550.4,188,549.4,188,548.3z M194.2,552.7v-0.1c-1-0.1-1.9-0.3-2.7-0.6c-0.8-0.3-1.4-0.9-1.8-1.6c-0.4-0.7-0.6-1.5-0.6-2.5
				v-10.4h-0.8v10.8c0,1.3,0.5,2.4,1.4,3.2C190.7,552.2,192.2,552.7,194.2,552.7z M195.6,552.6v0.1c0.8-0.1,1.6-0.2,2.2-0.4
				c0.6-0.2,1.1-0.5,1.5-0.9c0.4-0.4,0.7-0.9,0.9-1.5c0.2-0.6,0.3-1.3,0.3-2.1v-10.3h-0.8v10.2c0,1.4-0.3,2.6-1,3.4
				S197.1,552.4,195.6,552.6z"/>
			<path class="st12" d="M204.5,552.8l2.7-0.4c0.1-0.6,0.2-1.6,0.3-3c0.1-1.4,0.1-2.6,0.1-3.4v-3.5c0-1,0-1.9-0.1-2.8
				c-0.1-0.9-0.1-1.6-0.2-2.1l-2.8-0.4v-0.1h8c1.2,0,2.1,0.2,2.7,0.6c0.7,0.4,1.2,0.8,1.4,1.4c0.3,0.6,0.4,1.1,0.4,1.7
				c0,1.1-0.4,2-1.1,2.6c-0.7,0.6-1.6,1-2.7,1.1v0c1.1,0.1,2,0.3,2.8,0.7c0.8,0.4,1.3,0.9,1.7,1.5c0.4,0.6,0.6,1.3,0.6,2
				c0,0.6-0.1,1.2-0.4,1.9c-0.3,0.6-0.8,1.2-1.6,1.6c-0.8,0.5-1.8,0.7-3.2,0.7h-8.7V552.8z M207.9,537.5v15h0.8v-15H207.9z
				 M211.3,544.9c-0.7,0-1.2,0.1-1.5,0.2c-0.1,0.5-0.1,1.4-0.1,2.6c0,1.4,0,2.8,0.2,4.1c0.4,0.2,0.8,0.4,1.1,0.5
				c0.3,0.1,0.7,0.1,1.2,0.1c0.8,0,1.4-0.1,2-0.4c0.6-0.3,1-0.7,1.3-1.2c0.3-0.5,0.5-1.2,0.5-1.9c0-0.8-0.2-1.4-0.5-2
				c-0.4-0.6-0.9-1-1.6-1.4C213.2,545,212.3,544.9,211.3,544.9z M211.3,537.7c-0.6,0-1,0-1.3,0.1c-0.2,1.2-0.3,2.5-0.3,4.1
				c0,1.2,0,1.9,0.1,2.2c0.3,0.1,0.7,0.2,1.3,0.2c0.7,0,1.4-0.1,1.9-0.4c0.6-0.3,1-0.7,1.3-1.2s0.5-1.1,0.5-1.9
				c0-0.6-0.1-1.1-0.4-1.6s-0.6-0.9-1.2-1.1C212.8,537.8,212.1,537.7,211.3,537.7z M211.6,537.3L211.6,537.3c0.8,0.1,1.5,0.3,2,0.6
				c0.6,0.3,1,0.7,1.2,1.2c0.3,0.5,0.4,1.1,0.4,1.8c0,0.6-0.1,1.2-0.4,1.7c-0.2,0.5-0.5,0.9-0.9,1.1c-0.4,0.3-0.8,0.5-1.2,0.6v0.1
				c1-0.1,1.8-0.5,2.3-1.2c0.6-0.7,0.8-1.4,0.8-2.3c0-0.6-0.1-1.1-0.3-1.5c-0.2-0.4-0.4-0.8-0.8-1.1c-0.3-0.3-0.7-0.5-1.2-0.7
				c-0.4-0.2-0.9-0.2-1.5-0.2C212.1,537.3,211.9,537.3,211.6,537.3z M212.8,544.7L212.8,544.7c0.6,0.2,1.2,0.4,1.8,0.8
				c0.6,0.3,1,0.8,1.3,1.3c0.3,0.6,0.5,1.2,0.5,2c0,0.6-0.1,1.2-0.4,1.8c-0.3,0.6-0.7,1-1.3,1.4c-0.6,0.4-1.4,0.5-2.3,0.5v0.1
				c0.1,0,0.3,0.1,0.6,0.1c0.9,0,1.7-0.2,2.3-0.5c0.6-0.4,1.1-0.8,1.5-1.4c0.3-0.6,0.5-1.2,0.5-1.9c0-0.8-0.2-1.5-0.5-2.1
				s-0.8-1.1-1.5-1.5C214.5,544.9,213.7,544.7,212.8,544.7z"/>
			<path class="st12" d="M219.2,537.2v-0.1h11.5l0.3,3.4h-0.2l-0.8-2.6c-0.6,0-1.3-0.1-2.1-0.1c-1.4,0-2.5,0.1-3.4,0.3
				c-0.1,1.2-0.2,2.5-0.2,4c0,0.9,0,1.7,0.1,2.3c1.1,0.1,1.9,0.1,2.2,0.1c0.8,0,1.7,0,2.5-0.1l0.5-1.8h0.2v4.6h-0.2l-0.5-1.9
				c-0.6-0.1-1.3-0.1-2.1-0.1c-0.9,0-1.8,0-2.6,0.1c-0.1,0.8-0.1,1.7-0.1,2.4c0,1,0,1.9,0.1,2.5c0,0.7,0.1,1.2,0.1,1.7
				c0.9,0.3,2,0.4,3.5,0.4c0.8,0,1.5,0,2.1-0.1l0.9-2.6h0.2l-0.2,3.4h-11.6v-0.1l2.6-0.4c0.1-0.3,0.1-0.7,0.2-1.3s0.1-1.3,0.1-2
				c0-0.8,0.1-1.4,0.1-1.9c0-0.5,0-1,0-1.3v-2.7c0-0.3,0-0.8,0-1.5c0-0.6-0.1-1.3-0.1-2c0-0.7-0.1-1.4-0.2-2.1L219.2,537.2z
				 M222.5,537.5v15h0.7v-15H222.5z"/>
			<path class="st12" d="M235,546.4v-3.3c0-0.9,0-1.8-0.1-2.9c-0.1-1.1-0.1-2-0.2-2.6l-2.6-0.4v-0.1h7.1c1.3,0,2.4,0.3,3.2,0.8
				c0.8,0.5,1.4,1.1,1.7,1.8c0.3,0.7,0.5,1.3,0.5,1.8c0,0.7-0.2,1.3-0.5,1.8c-0.3,0.5-0.7,1-1.2,1.3c-0.5,0.3-1,0.5-1.5,0.6v0
				c0.5,0.2,0.9,0.5,1.2,0.8c0.3,0.3,0.5,0.6,0.9,1.1c0.3,0.5,0.8,1.1,1.3,1.9c0.5,0.8,1,1.4,1.3,1.9c0.3,0.4,0.6,0.8,0.9,1.1
				c0.6,0.6,1.2,0.9,1.8,0.9v0.1h-1.9c-1.1,0-1.9-0.3-2.5-0.9c-0.2-0.2-0.5-0.5-0.7-0.9c-0.2-0.3-0.6-0.9-1.1-1.6
				c-0.5-0.8-1-1.4-1.3-1.9c-0.4-0.5-0.6-0.8-0.8-1.1c-0.3-0.3-0.6-0.5-0.8-0.6c-0.3-0.1-0.6-0.2-1.1-0.2c-0.5,0-0.8,0-1.1,0.1
				c0,0.4-0.1,0.8-0.1,1.3v2c0,0.8,0.1,2,0.3,3.3l2.7,0.4v0.1h-8v-0.1l2.5-0.4c0.1-0.7,0.2-1.7,0.3-3.1C234.9,548,235,547,235,546.4
				z M235.2,537.5v15h0.8v-15H235.2z M237.1,541.5v1.8c0,0.6,0,1.2,0.1,1.7c0.3,0,0.7,0.1,1.2,0.1c0.9,0,1.7-0.2,2.2-0.5
				c0.6-0.3,1-0.7,1.2-1.2c0.2-0.5,0.4-1.1,0.4-1.7c0-0.6-0.1-1.1-0.4-1.7c-0.2-0.5-0.5-0.9-0.9-1.3s-0.8-0.6-1.2-0.8
				c-0.5-0.2-0.9-0.3-1.3-0.3c-0.4,0-0.7,0-1,0.1c-0.1,0.4-0.1,1-0.2,1.8C237.2,540.3,237.1,541,237.1,541.5z M238.2,537.3v0.1
				c1,0,1.8,0.3,2.5,0.7c0.7,0.5,1.1,1,1.5,1.7s0.5,1.3,0.5,2c0,1.4-0.6,2.5-1.9,3.1l0.1,0c0.7-0.2,1.3-0.6,1.8-1.2
				c0.5-0.6,0.7-1.3,0.7-2.2c0-0.7-0.1-1.3-0.4-1.8c-0.3-0.5-0.6-1-1.1-1.3c-0.4-0.4-0.9-0.6-1.5-0.8c-0.5-0.2-1.1-0.3-1.7-0.3
				H238.2z M241,546.9l2.3,3.4c0.6,0.8,1.1,1.4,1.5,1.7c0.4,0.3,1,0.5,1.6,0.5v-0.1c-0.6-0.2-1.3-0.9-2.2-2.2l-1.9-2.7
				c-0.4-0.6-0.8-1-1.1-1.3c-0.4-0.3-0.8-0.5-1.3-0.6l0,0.1C240.3,545.9,240.7,546.3,241,546.9z"/>
			<path class="st12" d="M250.2,537.1h9.4c0.6,0,1.1,0,1.6,0c0.5,0,1.1-0.1,1.8-0.2l0.2,3.5h-0.1l-0.8-2.5c-0.7-0.1-1.3-0.2-2.1-0.2
				c-0.6,0-1.2,0-1.7,0.1c-0.5,0.1-1,0.2-1.6,0.3c-0.1,0.7-0.1,1.3-0.1,1.9c0,0.6-0.1,1.2-0.1,1.7c0,0.5,0,0.9,0,1.1v3.6
				c0,0.9,0,2,0.1,3.2c0.1,1.2,0.1,2.1,0.2,2.8l2.7,0.4v0.1h-8.1v-0.1l2.6-0.4c0.2-1.6,0.3-3.5,0.3-5.8v-3.9c0-0.8,0-1.6-0.1-2.4
				c0-0.8-0.1-1.5-0.2-2.2c-0.4-0.1-0.9-0.2-1.5-0.3c-0.6-0.1-1.1-0.1-1.6-0.1c-0.8,0-1.6,0.1-2.3,0.2l-0.8,2.6H248l0.2-3.5
				c0.2,0,0.5,0,0.9,0.1C249.6,537.1,249.9,537.1,250.2,537.1z M254.9,537.5v15h0.7v-15H254.9z"/>
			<path class="st12" d="M276.4,536.9h1.1c-0.1,0.5-0.2,1.6-0.2,3.1c0,1.5-0.1,3.1-0.1,4.8v2.9c0,1.6,0.1,3.1,0.3,4.7l2.2,0.4v0.1
				h-7.9v-0.1l2.8-0.4c0.1-0.8,0.2-2,0.3-3.4c0.1-1.5,0.1-2.6,0.1-3.5v-2.7c0-0.5,0-1.2-0.1-2.1c0-0.9-0.1-1.6-0.2-2.2l-2.7,0.4
				v-0.1L276.4,536.9z M275.4,552.4h0.7v-14.9l-0.7,0.3V552.4z"/>
			<path class="st12" d="M280.1,537.2v-0.1h11.5l0.3,3.4h-0.2l-0.8-2.6c-0.6,0-1.3-0.1-2.1-0.1c-1.4,0-2.5,0.1-3.4,0.3
				c-0.1,1.2-0.2,2.5-0.2,4c0,0.9,0,1.7,0.1,2.3c1.1,0.1,1.9,0.1,2.2,0.1c0.8,0,1.7,0,2.5-0.1l0.5-1.8h0.2v4.6h-0.2l-0.5-1.9
				c-0.6-0.1-1.3-0.1-2.1-0.1c-0.9,0-1.8,0-2.6,0.1c-0.1,0.8-0.1,1.7-0.1,2.4c0,1,0,1.9,0.1,2.5c0,0.7,0.1,1.2,0.1,1.7
				c0.9,0.3,2,0.4,3.5,0.4c0.8,0,1.5,0,2.1-0.1l0.9-2.6h0.2l-0.2,3.4h-11.6v-0.1l2.6-0.4c0.1-0.3,0.1-0.7,0.2-1.3
				c0-0.6,0.1-1.3,0.1-2c0-0.8,0.1-1.4,0.1-1.9c0-0.5,0-1,0-1.3v-2.7c0-0.3,0-0.8,0-1.5c0-0.6-0.1-1.3-0.1-2c0-0.7-0.1-1.4-0.2-2.1
				L280.1,537.2z M283.4,537.5v15h0.7v-15H283.4z"/>
			<path class="st12" d="M295.9,546.4v-3.3c0-0.9,0-1.8-0.1-2.9c-0.1-1.1-0.1-2-0.2-2.6l-2.6-0.4v-0.1h7.1c1.3,0,2.4,0.3,3.2,0.8
				c0.8,0.5,1.4,1.1,1.7,1.8c0.3,0.7,0.5,1.3,0.5,1.8c0,0.7-0.2,1.3-0.5,1.8c-0.3,0.5-0.7,1-1.2,1.3c-0.5,0.3-1,0.5-1.5,0.6v0
				c0.5,0.2,0.9,0.5,1.2,0.8c0.3,0.3,0.5,0.6,0.9,1.1c0.3,0.5,0.8,1.1,1.3,1.9c0.5,0.8,1,1.4,1.3,1.9c0.3,0.4,0.6,0.8,0.9,1.1
				c0.6,0.6,1.2,0.9,1.8,0.9v0.1h-1.9c-1.1,0-1.9-0.3-2.5-0.9c-0.2-0.2-0.5-0.5-0.7-0.9c-0.2-0.3-0.6-0.9-1.1-1.6
				c-0.5-0.8-1-1.4-1.3-1.9c-0.4-0.5-0.6-0.8-0.8-1.1c-0.3-0.3-0.6-0.5-0.8-0.6c-0.3-0.1-0.6-0.2-1.1-0.2c-0.5,0-0.8,0-1.1,0.1
				c0,0.4-0.1,0.8-0.1,1.3v2c0,0.8,0.1,2,0.3,3.3l2.7,0.4v0.1h-8v-0.1l2.5-0.4c0.1-0.7,0.2-1.7,0.3-3.1
				C295.9,548,295.9,547,295.9,546.4z M296.2,537.5v15h0.8v-15H296.2z M298.1,541.5v1.8c0,0.6,0,1.2,0.1,1.7c0.3,0,0.7,0.1,1.2,0.1
				c0.9,0,1.7-0.2,2.2-0.5c0.6-0.3,1-0.7,1.2-1.2c0.2-0.5,0.4-1.1,0.4-1.7c0-0.6-0.1-1.1-0.4-1.7c-0.2-0.5-0.5-0.9-0.9-1.3
				s-0.8-0.6-1.2-0.8c-0.5-0.2-0.9-0.3-1.3-0.3c-0.4,0-0.7,0-1,0.1c-0.1,0.4-0.1,1-0.2,1.8C298.1,540.3,298.1,541,298.1,541.5z
				 M299.2,537.3v0.1c1,0,1.8,0.3,2.5,0.7c0.7,0.5,1.1,1,1.5,1.7s0.5,1.3,0.5,2c0,1.4-0.6,2.5-1.9,3.1l0.1,0
				c0.7-0.2,1.3-0.6,1.8-1.2c0.5-0.6,0.7-1.3,0.7-2.2c0-0.7-0.1-1.3-0.4-1.8c-0.3-0.5-0.6-1-1.1-1.3c-0.4-0.4-0.9-0.6-1.5-0.8
				c-0.5-0.2-1.1-0.3-1.7-0.3H299.2z M302,546.9l2.3,3.4c0.6,0.8,1.1,1.4,1.5,1.7c0.4,0.3,1,0.5,1.6,0.5v-0.1
				c-0.6-0.2-1.3-0.9-2.2-2.2l-1.9-2.7c-0.4-0.6-0.8-1-1.1-1.3c-0.4-0.3-0.8-0.5-1.3-0.6l0,0.1C301.2,545.9,301.6,546.3,302,546.9z"
				/>
		</g>
	</g>
</g>
</svg>
