<?xml version="1.0" encoding="utf-8"?>
<!-- Generator: Adobe Illustrator 25.0.0, SVG Export Plug-In . SVG Version: 6.00 Build 0)  -->
<svg version="1.1" id="Calque_1" xmlns="http://www.w3.org/2000/svg" xmlns:xlink="http://www.w3.org/1999/xlink" x="0px" y="0px"
	 viewBox="0 0 475.4 629" style="enable-background:new 0 0 475.4 629;" xml:space="preserve">
<style type="text/css">
	.st0{opacity:0.24;}
	.st1{fill:#B59459;}
	.st2{fill:#FFE7B3;}
	.st3{fill:#825911;}
	.st4{fill:#DDC700;}
	.st5{fill:#8C7B00;}
	.st6{fill:#A8A8A8;stroke:#3D3D3D;stroke-width:2;stroke-miterlimit:10;}
	.st7{fill:#7BE6FF;stroke:#3D3D3D;stroke-width:2;stroke-miterlimit:10;}
	.st8{fill:#D3B466;stroke:#3D3D3D;stroke-width:2;stroke-miterlimit:10;}
	.st9{fill:#E2E2E2;}
	.st10{fill:none;stroke:#3D3D3D;stroke-width:2;stroke-miterlimit:10;}
	.st11{fill:#3D3D3D;}
	.st12{fill:#FFFFFF;}
	.st13{fill:#FFFFFF;stroke:#3D3D3D;stroke-width:2;stroke-miterlimit:10;}
	.st14{fill:#FF92D8;stroke:#3D3D3D;stroke-width:2;stroke-miterlimit:10;}
</style>
<g>
	<g class="st0">
		
			<image style="overflow:visible;" width="432" height="619" xlink:href="D6922FCC.png"  transform="matrix(1 0 0 1 43.2956 -13.4211)">
		</image>
	</g>
	<g>
		<ellipse class="st1" cx="233.8" cy="305.9" rx="196.4" ry="254.8"/>
		<ellipse class="st2" cx="233.8" cy="305.9" rx="139.5" ry="180.9"/>
		<g>
			<g>
				<path class="st3" d="M209,114.3c-14,0-25.4-2.4-34.8-7.4c-6.5-3.4-12.1-8.3-16.3-14.1c-4.6-6.4-7.2-13.6-7.4-20.8
					c-0.3-9.5,3.5-19.6,10.4-27.5c5.6-6.5,13.3-11.7,22.7-15.6c0.6-0.2,1.1-0.5,1.7-0.7c3-1.2,5.9-2.3,7.1-3.9
					c0.1-0.2,0.1-0.6,0.1-0.8c0.1,0.4,0.7,1.2,1.8,1.5l4.5-15.3c4.3,1.2,7.5,4.5,9,8.9c1.7,5.1,0.6,11.2-2.7,15.4
					c-3.9,5-9.4,7.2-13.8,8.9c-0.5,0.2-1,0.4-1.5,0.6c-7.1,2.9-12.8,6.7-16.7,11.3c-4.3,4.9-6.6,10.9-6.5,16.5
					c0.3,8.2,6.2,16.6,15.1,21.3c7.8,4.1,17.8,5.9,30.8,5.5l0.5,16C211.6,114.3,210.3,114.3,209,114.3z"/>
				<path class="st3" d="M82,291.2c-12.3-7.5-20.9-21.9-24.2-40.6c-1.3-7.3-1.8-14.7-2.3-21.8c-0.5-6.9-0.9-13.5-2.1-19.9
					c-0.6-3.3-1.5-7.4-3.6-9.6c-0.9-0.9-2.2-1.3-2.8-1.2c-0.4,0.2-0.7,0.4-1.1,0.6L37,185.5c0.7-0.5,1.4-1,2.2-1.4
					c5-3.8,6.2-11.9,7.5-23.5c0.3-2.5,0.5-5.1,0.9-7.6c2.1-14.9,8.8-29.1,19.3-41c10.5-11.9,23.7-20.2,38.3-24.1
					c14.6-3.9,30.2-3.4,45.2,1.6c15,5,27.9,13.9,37.3,25.7l-12.5,9.9C160,106,132.9,97,109.3,103.4c-23.6,6.4-42.5,27.7-45.9,51.9
					c-0.3,2.2-0.6,4.6-0.8,7c-0.8,7.4-1.7,15.8-4.9,23c1.3,0.9,2.6,1.9,3.6,3c5.1,5.3,6.8,12.3,7.8,17.8c1.3,7.3,1.8,14.5,2.3,21.6
					c0.5,7,1,13.6,2.1,20.1c1.5,8.2,5.6,22.9,16.8,29.8L82,291.2z"/>
				<path class="st3" d="M124.5,470.6c-2,0-4-0.1-6-0.5c-12.9-2.2-24.4-12.2-32.5-28.2c-2.1-4.1-3.8-8.3-5.6-12.3
					c-1.9-4.5-3.7-8.8-5.8-12.8c0.4,6.3,0.5,12.6-0.1,19c-0.4,4.2-1.1,9-3.6,13.5c-3.3,5.9-9.1,9.8-16.4,11.1
					c-8.2,1.4-17.1-0.9-23.2-6.1c-9.1-7.8-13.6-20.8-12.3-35.6c1.2-13.2,7.8-29.3,23-34.6c3.5-1.2,7.2-1.7,10.9-1.5
					c-0.1-0.3-0.1-0.6-0.2-0.9c-0.4-1.8-0.8-3.6-1.1-5.4c-4.9,0.9-9.8,1.1-14.5,0.4c-13.2-2-24.4-10.7-28.4-22.3
					c-2.6-7.6-2.3-16.1,1.1-24.7c3.3-8.5,8.8-15.3,12.8-19.6c8.3-8.8,18.6-15.6,29.2-19.1c12.6-4.3,24.8-3.8,35.3,1.3l-7,14.4
					c-15.2-7.4-34.4,2.3-45.9,14.5c-3.5,3.7-14.4,16.5-10.4,28.1c2.1,6,8.4,10.7,15.7,11.8c2.9,0.4,6,0.3,9.1-0.3
					c-0.8-4.8-1.5-9.7-1.9-14.6c-0.6-6.9-0.8-14.9,2.5-22.3c4.2-9.5,13.6-15.4,22.8-14.3c8.9,1,16.5,8.4,18.8,18.3
					c4,16.9-7.3,32.8-20.3,41c-1.2,0.8-2.4,1.5-3.7,2.1c0.5,2.6,1.1,5.1,1.6,7.6c0.7,3.3,1.4,6.7,2.1,10c4.8,3,9.2,7.1,12.7,11.8
					c5.4,7.3,8.8,15.3,12.1,23.1c1.7,4,3.3,7.7,5.1,11.4c3.3,6.6,10.4,17.8,20.9,19.6c5.5,0.9,11.9-0.8,18-2.4l4.2,15.4
					C137.8,468.8,131.3,470.6,124.5,470.6z M51.3,398.5c-1.4,0-2.8,0.2-4.2,0.7c-7.5,2.6-11.6,12.4-12.3,20.9
					c-0.8,9.5,1.7,17.8,6.8,22.1c2.5,2.2,6.5,3.2,10.1,2.6c1.4-0.2,4-1,5.3-3.2c1-1.8,1.4-4.5,1.6-7.1c1-11.6-0.2-23.2-2.4-35.1
					C54.6,398.8,52.9,398.5,51.3,398.5z M69.7,325.2c-2.1,0-4.8,2.2-6,4.9c-1.8,4.1-1.6,9.4-1.2,14.4c0.3,3.1,0.7,6.2,1.1,9.4
					c7.2-5.3,13.5-14.1,11.5-22.6c-0.8-3.2-3-5.9-5.1-6.1C69.9,325.2,69.8,325.2,69.7,325.2z"/>
				<path class="st3" d="M44.8,264.7c-0.5,0-1.1,0-1.6,0c-9.6-0.3-17-2.6-22.5-7.2c-5.1-4.2-8.1-9.8-10.5-15.2
					c-1.9-4.3-3.7-9-3.9-14.2c-0.4-9,4.1-18.3,12.7-26.2c21.7-20,57.2-21.8,80.8-4.1l-9.6,12.8c-17.4-13-44.5-11.6-60.4,3.1
					c-2.9,2.7-7.8,8.1-7.5,13.8c0.1,2.4,1.1,5.1,2.6,8.4c1.6,3.6,3.5,7.3,6,9.4c2.7,2.2,6.9,3.4,12.9,3.6c14.2,0.4,36-7.3,47.8-21
					l12.1,10.5C88.3,255.8,62.8,264.7,44.8,264.7z"/>
				<path class="st3" d="M102.6,189.5c-5.5,0-11.2-0.8-16.7-2.3c-14.2-4-26.2-12.6-33.6-24.2c-6.9-10.7-10.5-24-10.4-38.6
					c0.1-8.8,1.4-16.4,4.2-23C51,90,61,80.7,73.8,76c13.2-4.8,27.5-4.2,39.2,1.7c11.8,6,20.3,16.8,24.6,29.2
					c5.3,0.8,11.1,2.6,16.3,6.3c9.6,6.8,13.9,18.1,17,26.4l-14.9,5.6c-3.1-8.2-6.1-15.3-11.3-19c-1.2-0.8-2.5-1.5-3.9-2.1
					c0.1,7.1-1.1,14.1-4,20.8c-1.9,4.4-4.1,7.9-6.7,10.6c-7.4,7.8-18,9.6-25.3,10.4c-3.6,0.4-7.4,0.5-11.3-0.9
					c-6.1-2.1-11-7.6-13-14.6c-3.5-12.2,2-26.6,13.5-34.9c6.9-5,15.7-8,26.3-9c-3.3-6.2-8.2-11.5-14.4-14.6C98,88,88.3,87.7,79.3,91
					c-8.6,3.1-15.3,9.2-18.4,16.6c-2,4.7-3,10.2-3,17c-0.1,11.4,2.6,21.7,7.8,29.8c11.1,17.3,36,24.2,54.5,15.2l7,14.3
					C119.7,187.7,111.3,189.5,102.6,189.5z M124.5,122.3c-9,0.4-16.2,2.5-21.4,6.2c-5.2,3.8-9.5,11-7.6,17.5c0.6,1.9,1.8,3.6,2.9,4
					c1.1,0.4,3.4,0.2,4.5,0.1c7.6-0.8,12.5-2.5,15.4-5.5c1.3-1.3,2.4-3.2,3.5-5.8C124.1,133.5,124.9,127.9,124.5,122.3z"/>
				<path class="st3" d="M188.1,625l-3-3.7c-3.6-4.4-4.9-10.2-3.6-16.4c1-4.9,3.6-9.7,7.3-13.3c0.7-0.7,1.5-1.4,2.3-2.1
					c-3.2-4.4-7.8-8.1-12.7-11.9c-3.5-2.8-7.1-5.7-10.5-9c-11.5-11.4-17.9-26.6-17.6-41.6c0.2-13.7,6.4-26.8,16.1-35.4
					c-4.9-4.9-14.1-6.6-21.3-4.6c-9.6,2.7-18,9.9-25.4,17.1c0.7,0.3,1.3,0.6,2,0.9c5.1,2.2,10.8,4.6,15.6,9.1
					c5,4.7,7.9,11.7,7.7,18.3c-0.2,5.4-2.5,10.1-6.4,13.2c-4.1,3.3-9.5,4.7-16.2,4.1c-10.1-0.8-20-6.3-25.8-14.4
					c-4.5-6.3-6.1-13.6-4.3-20.6c0.7-2.7,1.8-5.2,3.2-7.5c-12-11.3-19.3-27.6-19-44.2c0.3-22.1,14-43.2,34-52.6l6.8,14.5
					c-14.4,6.8-24.6,22.6-24.8,38.4c-0.2,11.7,5.1,23.6,13.6,31.9c9.1-9,20.3-19.4,34.8-23.5c8.2-2.3,17.4-1.8,25.3,1.3
					c9.1,3.5,15.6,10,18.4,18.3l0.8,2.5c0.5-6.7,4-12,9.7-14.8c4.5-2.2,9.4-2.5,14.3-0.8c10.8,3.8,17.1,15.7,18.8,19.3
					c1.7,3.7,3.3,7.3,4.6,10.8c3.5,0.5,7.7,1.6,11.1,4.8c4.6,4.3,5.4,10.4,5.8,13.6c2.2,16,3.1,32.3,2.7,48.4
					c-0.3,11,0,23.1,6.8,27.1l-8.2,13.7c-15.3-9.2-14.8-29.2-14.5-41.2c0.1-3.9,0.1-7.7,0-11.6c-3.7,11.8-10.6,22-19.8,28.7
					c-2.1,1.6-4.3,2.9-6.4,4.2c0.6,5.4-0.1,10.9-2.2,15.7c-3,6.8-8.4,11.3-15.2,12.6L188.1,625z M185.4,497.9l-4.4,2.6
					c-8.8,5.2-14.5,15.6-14.7,26.7c-0.2,10.5,4.7,21.8,12.9,30c2.7,2.7,5.9,5.2,9.2,7.9c5.7,4.5,11.6,9.2,16.1,15.6
					c1-0.6,1.9-1.2,2.7-1.9c9.6-7.1,15.7-19.8,16.3-34c0.3-6.9-0.6-14.1-2.7-21.7c-7.5-0.6-15.9-1.4-23.4-5.8
					C190.8,513.3,186.2,505.7,185.4,497.9z M108.5,516.4c-0.3,0.7-0.6,1.4-0.8,2c-0.6,2.4,0,4.9,1.8,7.4c3,4.2,8.7,7.4,14.1,7.8
					c2.7,0.2,4.3-0.2,4.9-0.6c0.3-0.2,0.4-0.7,0.5-1.4c0.1-2-1-4.5-2.6-6c-2.7-2.6-6.8-4.3-11-6.1c-2.2-0.9-4.4-1.9-6.6-3
					C108.7,516.5,108.6,516.5,108.5,516.4z M203,492.8c-0.4,0-0.6,0.1-1,0.2c-0.2,0.1-0.8,0.4-0.9,2.1c-0.1,3,1.9,6.9,4.3,8.3
					c2.6,1.6,5.8,2.4,9.2,2.9c-0.3-0.8-0.7-1.6-1.1-2.3c-2.5-5.3-6.5-9.9-9.6-11C203.6,492.9,203.3,492.8,203,492.8z"/>
			</g>
			<g>
				<path class="st3" d="M263.8,114.3c-1.3,0-2.6,0-3.9-0.1l0.5-16c13,0.4,23-1.4,30.8-5.5c8.9-4.7,14.9-13.1,15.1-21.3
					c0.2-5.6-2.2-11.6-6.5-16.5c-4-4.6-9.6-8.4-16.7-11.3c-0.5-0.2-1-0.4-1.5-0.6c-4.4-1.8-9.9-4-13.8-8.9
					c-3.3-4.2-4.3-10.3-2.7-15.4c1.4-4.4,4.7-7.7,9-8.9l4.5,15.3c1.1-0.3,1.7-1.1,1.8-1.5c0,0.2,0,0.6,0.1,0.8
					c1.2,1.5,4.1,2.7,7.1,3.9c0.6,0.2,1.1,0.4,1.7,0.7c9.5,3.9,17.1,9.1,22.7,15.6c6.9,7.9,10.7,18,10.4,27.5
					c-0.2,7.2-2.8,14.4-7.4,20.8c-4.2,5.8-9.8,10.6-16.3,14.1C289.2,111.9,277.8,114.3,263.8,114.3z"/>
				<path class="st3" d="M390.8,291.2l-8.3-13.6c11.2-6.9,15.4-21.6,16.8-29.8c1.2-6.5,1.6-13.1,2.1-20.1c0.5-7,1-14.3,2.3-21.6
					c1-5.5,2.7-12.5,7.8-17.8c1.1-1.1,2.3-2.1,3.6-3c-3.2-7.3-4.1-15.7-4.9-23c-0.3-2.5-0.5-4.8-0.8-7
					c-3.4-24.2-22.3-45.6-45.9-51.9c-23.6-6.4-50.7,2.6-65.8,21.8l-12.5-9.9c9.3-11.9,22.2-20.8,37.3-25.7c15-5,30.7-5.5,45.2-1.6
					s27.8,12.3,38.3,24.1c10.5,11.9,17.2,26,19.3,41c0.4,2.5,0.6,5.1,0.9,7.6c1.2,11.6,2.5,19.7,7.5,23.5c0.7,0.4,1.5,0.9,2.2,1.4
					l-8.8,13.2c-0.4-0.2-0.7-0.4-1.1-0.6c-0.6,0-1.9,0.3-2.8,1.2c-2.1,2.2-3,6.3-3.6,9.6c-1.1,6.4-1.6,13-2.1,19.9
					c-0.5,7.1-1,14.5-2.3,21.8C411.7,269.3,403.1,283.7,390.8,291.2z"/>
				<path class="st3" d="M348.3,470.6c-6.8,0-13.3-1.8-18.8-3.2l4.2-15.4c6.1,1.7,12.4,3.4,18,2.4c10.5-1.8,17.6-13.1,20.9-19.6
					c1.8-3.6,3.4-7.4,5.1-11.4c3.3-7.8,6.7-15.8,12.1-23.1c3.5-4.7,7.9-8.8,12.7-11.8c0.7-3.4,1.4-6.7,2.1-10
					c0.5-2.5,1.1-5.1,1.6-7.6c-1.2-0.7-2.4-1.4-3.6-2.1c-13-8.3-24.3-24.1-20.3-41c2.3-9.9,9.9-17.2,18.8-18.3
					c9.2-1.1,18.6,4.8,22.8,14.3c3.3,7.4,3.1,15.5,2.5,22.3c-0.4,4.9-1.1,9.8-1.9,14.6c3.1,0.6,6.2,0.7,9.1,0.3
					c7.3-1.1,13.6-5.8,15.7-11.8c4-11.6-6.9-24.4-10.4-28.1c-11.5-12.1-30.7-21.9-45.9-14.5l-7-14.4c10.5-5.1,22.7-5.6,35.3-1.3
					c10.6,3.6,20.9,10.4,29.2,19.1c4,4.3,9.5,11.1,12.8,19.6c3.3,8.6,3.7,17.1,1.1,24.7c-4,11.6-15.2,20.4-28.4,22.3
					c-4.7,0.7-9.6,0.6-14.5-0.4c-0.4,1.8-0.8,3.6-1.1,5.4c-0.1,0.3-0.1,0.6-0.2,0.9c3.7-0.2,7.4,0.3,10.9,1.5
					c15.2,5.3,21.9,21.3,23,34.6c1.3,14.8-3.2,27.8-12.3,35.6c-6.1,5.2-15,7.6-23.2,6.1c-7.2-1.3-13.1-5.2-16.4-11.1
					c-2.5-4.5-3.3-9.3-3.6-13.5c-0.6-6.4-0.5-12.7-0.1-19c-2.1,4-4,8.3-5.8,12.8c-1.7,4-3.5,8.2-5.6,12.3c-8.1,16-19.6,26-32.5,28.2
					C352.3,470.4,350.3,470.6,348.3,470.6z M416.6,399.3c-2.1,11.9-3.4,23.4-2.4,35.1c0.2,2.6,0.6,5.2,1.6,7.1
					c1.3,2.2,3.8,3,5.3,3.2c3.6,0.6,7.5-0.4,10.1-2.6c5.1-4.3,7.6-12.6,6.8-22.1c-0.7-8.5-4.8-18.3-12.3-20.9
					C422.8,398.2,419.7,398.4,416.6,399.3z M403.1,325.2c-0.1,0-0.2,0-0.3,0c-2.1,0.2-4.4,2.9-5.1,6.1c-2,8.5,4.3,17.3,11.5,22.6
					c0.5-3.1,0.9-6.3,1.1-9.4c0.5-5.1,0.6-10.3-1.2-14.4C407.9,327.4,405.2,325.2,403.1,325.2z"/>
				<path class="st3" d="M428,264.7c-18.1,0-43.5-8.9-58.8-26.5l12.1-10.5c11.5,13.3,32.5,21,46.7,21c0.4,0,0.8,0,1.1,0
					c6-0.2,10.2-1.3,12.9-3.6c2.6-2.1,4.4-5.7,6-9.4c1.5-3.3,2.5-6,2.6-8.4c0.2-5.7-4.6-11.1-7.5-13.8c-15.9-14.7-43-16.1-60.4-3.1
					l-9.6-12.8c23.6-17.7,59.1-15.9,80.8,4.1c8.5,7.9,13,17.2,12.7,26.2c-0.2,5.3-2,9.9-3.9,14.2c-2.4,5.4-5.4,11-10.5,15.2
					c-5.5,4.5-12.9,6.9-22.5,7.2C429.1,264.7,428.5,264.7,428,264.7z"/>
				<path class="st3" d="M370.1,189.5c-8.6,0-17-1.9-24.6-5.6l7-14.3c18.4,9,43.4,2,54.5-15.2c5.2-8.1,7.9-18.4,7.8-29.8
					c0-6.7-1-12.3-3-17c-3.1-7.4-9.8-13.4-18.4-16.6c-9.1-3.3-18.7-3-26.4,1c-6.2,3.1-11.1,8.4-14.4,14.6c10.5,0.9,19.4,4,26.3,9
					c11.5,8.3,17.1,22.7,13.5,34.9c-2,7-6.9,12.5-13,14.6c-3.9,1.4-7.8,1.2-11.3,0.9c-7.3-0.7-17.9-2.6-25.3-10.4
					c-2.7-2.8-4.9-6.2-6.7-10.6c-2.8-6.6-4.1-13.7-4-20.8c-1.5,0.6-2.8,1.3-3.9,2.1c-5.2,3.7-8.2,10.8-11.3,19l-14.9-5.6
					c3.1-8.2,7.4-19.5,17-26.4c5.2-3.7,10.9-5.4,16.3-6.3c4.3-12.4,12.9-23.2,24.6-29.2c11.7-5.9,25.9-6.6,39.2-1.7
					c12.7,4.7,22.8,13.9,27.6,25.4c2.8,6.7,4.2,14.2,4.2,23c0.1,14.5-3.5,27.9-10.4,38.6c-7.5,11.6-19.4,20.2-33.6,24.2
					C381.3,188.8,375.7,189.5,370.1,189.5z M348.2,122.3c-0.4,5.6,0.4,11.2,2.6,16.4c1.1,2.6,2.2,4.5,3.5,5.8
					c2.9,3,7.8,4.8,15.4,5.5c1.1,0.1,3.4,0.3,4.5-0.1c1.1-0.4,2.3-2,2.9-4c1.9-6.5-2.4-13.8-7.6-17.5
					C364.5,124.7,357.3,122.7,348.2,122.3z"/>
				<path class="st3" d="M284.7,625l-4.7-0.9c-6.8-1.3-12.2-5.8-15.2-12.6c-2.1-4.8-2.8-10.3-2.2-15.7c-2.1-1.3-4.3-2.6-6.4-4.2
					c-9.2-6.8-16.1-16.9-19.8-28.7c-0.1,3.9,0,7.7,0,11.6c0.3,12,0.8,32-14.5,41.2l-8.2-13.7c6.8-4.1,7.1-16.1,6.8-27.1
					c-0.4-16.1,0.5-32.4,2.7-48.4c0.4-3.2,1.3-9.3,5.8-13.6c3.4-3.2,7.6-4.3,11.1-4.8c1.3-3.5,2.9-7.2,4.6-10.8
					c1.7-3.6,8-15.5,18.8-19.3c4.9-1.7,9.8-1.4,14.3,0.8c5.7,2.8,9.2,8.2,9.7,14.8l0.8-2.5c2.8-8.3,9.3-14.8,18.4-18.3
					c7.9-3.1,17.1-3.5,25.3-1.3c14.5,4,25.7,14.5,34.8,23.5c8.5-8.3,13.8-20.2,13.6-31.9c-0.2-15.9-10.4-31.7-24.8-38.4l6.8-14.5
					c20,9.4,33.6,30.5,34,52.6c0.3,16.6-7,32.9-19,44.2c1.4,2.2,2.5,4.7,3.2,7.5c1.7,7,0.2,14.3-4.3,20.6
					c-5.8,8.1-15.7,13.6-25.8,14.4c-6.7,0.5-12.1-0.8-16.2-4.1c-3.9-3.2-6.2-7.9-6.4-13.2c-0.2-6.6,2.7-13.6,7.7-18.3
					c4.8-4.5,10.5-6.9,15.6-9.1c0.7-0.3,1.4-0.6,2-0.9c-7.5-7.2-15.8-14.4-25.4-17.1c-7.2-2-16.3-0.3-21.3,4.6
					c9.7,8.6,15.9,21.8,16.1,35.4c0.3,15-6.2,30.2-17.6,41.6c-3.4,3.3-7,6.2-10.5,9c-4.9,3.9-9.5,7.6-12.7,11.9
					c0.8,0.7,1.5,1.3,2.3,2.1c3.7,3.7,6.2,8.4,7.3,13.3c1.3,6.1,0,12-3.6,16.4L284.7,625z M252,523c-2.1,7.7-3,14.9-2.7,21.7
					c0.6,14.2,6.7,26.9,16.3,34c0.9,0.6,1.8,1.3,2.7,1.9c4.5-6.4,10.4-11.1,16.1-15.6c3.3-2.6,6.4-5.1,9.2-7.9
					c8.3-8.2,13.1-19.5,12.9-30c-0.2-11-6-21.5-14.7-26.7l-4.4-2.6c-0.8,7.8-5.5,15.4-12,19.3C267.9,521.7,259.5,522.5,252,523z
					 M364.2,516.4c-0.1,0-0.1,0.1-0.2,0.1c-2.2,1.1-4.5,2.1-6.6,3c-4.2,1.8-8.3,3.5-11,6.1c-1.6,1.5-2.7,4-2.6,6
					c0,0.7,0.2,1.1,0.5,1.4c0.6,0.5,2.1,0.9,4.9,0.6c5.4-0.4,11-3.6,14.1-7.8c1.8-2.5,2.4-5,1.8-7.4
					C364.8,517.8,364.6,517.1,364.2,516.4z M269.7,492.8c-0.3,0-0.6,0.1-1,0.2c-3.1,1.1-7.1,5.7-9.6,11c-0.4,0.8-0.7,1.6-1.1,2.3
					c3.4-0.5,6.6-1.3,9.2-2.9c2.5-1.5,4.5-5.3,4.3-8.3c-0.1-1.6-0.6-1.9-0.9-2.1C270.4,492.9,270.1,492.8,269.7,492.8z"/>
			</g>
			<path class="st3" d="M235.5,119.1l-5.8-5.7c-7-6.9-13.5-14.3-19.3-22.2c-5.8-7.8-11.6-17.2-11.1-28.5v0
				c0.4-9.5,6.1-20.1,14.3-27.2c6.8-5.8,14.6-8.6,22-7.8c19.1,2.1,30.6,18.9,30,44c-0.1,4-0.2,8.5-1.8,13.1
				c-2.2,6.5-6.8,11.4-10.4,15.3L235.5,119.1z M215.2,63.5c-0.3,6.2,3.9,12.7,8,18.2c3.7,5,7.8,9.8,12,14.4l6.4-6.9
				c2.9-3.1,5.9-6.3,7-9.6c0.8-2.3,0.9-5.2,0.9-8.4c0.2-7.8-0.9-26.1-15.7-27.7c-3-0.3-6.5,1.1-9.9,4
				C219,51.9,215.4,58.4,215.2,63.5L215.2,63.5z"/>
		</g>
		<path class="st4" d="M305.1,574H170.6c-6.6,0-12-5.4-12-12v-32.9c0-6.6,5.4-12,12-12h134.5c6.6,0,12,5.4,12,12V562
			C317.1,568.6,311.7,574,305.1,574z"/>
		<g>
			<path class="st5" d="M166.5,537.7h7.8v0.1l-2.9,0.4c-0.1,0.4-0.1,1.1-0.2,2.1c-0.1,1-0.1,1.8-0.1,2.5c0,0.6,0,1.3,0.1,2.2
				c1,0.2,2.6,0.3,4.7,0.3c1,0,2,0,2.9-0.1c0.9,0,1.7-0.1,2.5-0.2c0.1-0.7,0.1-1.5,0.1-2.5c0-0.6,0-1.2,0-1.7c0-0.6-0.1-1-0.1-1.4
				c0-0.4-0.1-0.8-0.2-1.3l-2.9-0.4v-0.1h7.8v0.1l-2.2,0.4c-0.1,0.5-0.2,1.4-0.3,2.7c-0.1,1.3-0.1,2.5-0.1,3.7v3.6
				c0,2.2,0.1,3.8,0.3,4.9l2.2,0.4v0.1h-7.9v-0.1l2.8-0.4c0.2-1.2,0.3-2.6,0.4-4c0-0.4,0-0.8,0-1.4c0-0.5,0-1.1-0.1-1.7h-10.2
				c0,0.5,0,1.4,0,2.5c0,0.7,0,1.5,0.1,2.4c0,0.9,0.1,1.6,0.2,2.1l2.8,0.4v0.1h-7.9v-0.1l2.2-0.4c0.1-0.3,0.1-0.8,0.2-1.5
				c0.1-0.7,0.1-1.6,0.1-2.5c0-0.9,0.1-1.7,0.1-2.3v-4c0-0.1,0-0.5,0-1.1c0-0.6-0.1-1.3-0.1-1.9c-0.1-0.6-0.1-1.1-0.2-1.4l-2.2-0.4
				V537.7z M169.3,538.1V553h0.7v-14.9H169.3z M181.8,538.1V553h0.8v-14.9H181.8z"/>
			<path class="st5" d="M189.1,548.9v-6c0-1.3-0.1-2.9-0.3-4.7l-2.3-0.4v-0.1h7.9v0.1l-2.8,0.4c-0.1,0.5-0.1,1.1-0.2,1.8
				c0,0.7-0.1,1.5-0.1,2.3c0,0.8,0,1.4,0,1.9v4.4c0,1.1,0.2,1.9,0.6,2.5c0.4,0.6,1,1.1,1.7,1.4c0.7,0.3,1.5,0.4,2.3,0.4
				c1.4,0,2.6-0.4,3.4-1.1c0.8-0.7,1.2-1.9,1.2-3.6v-4.6c0-0.8,0-1.8-0.1-2.9c-0.1-1.1-0.1-2-0.2-2.5l-2.8-0.4v-0.1h7.8v0.1
				l-2.2,0.4c-0.1,0.5-0.2,1.2-0.2,2.3c-0.1,1.1-0.1,2-0.1,2.7v5.2c0,0.8-0.1,1.5-0.3,2.1c-0.2,0.6-0.5,1.1-0.9,1.5
				c-0.3,0.3-0.6,0.5-0.9,0.7c-0.3,0.2-0.7,0.4-1.2,0.5c-0.5,0.1-1,0.2-1.6,0.3c-0.6,0.1-1.3,0.1-2.1,0.1c-1.3,0-2.5-0.2-3.5-0.5
				c-1-0.3-1.8-0.8-2.4-1.5C189.4,550.9,189.1,550,189.1,548.9z M195.2,553.3v-0.1c-1-0.1-1.9-0.3-2.7-0.6c-0.8-0.3-1.3-0.9-1.8-1.6
				c-0.4-0.7-0.6-1.5-0.6-2.5v-10.4h-0.8v10.8c0,1.3,0.5,2.4,1.4,3.2C191.7,552.8,193.2,553.2,195.2,553.3z M196.6,553.2v0.1
				c0.8-0.1,1.6-0.2,2.2-0.4c0.6-0.2,1.1-0.5,1.5-0.9c0.4-0.4,0.7-0.9,0.9-1.5c0.2-0.6,0.3-1.3,0.3-2.1v-10.2h-0.8v10.2
				c0,1.4-0.3,2.6-1,3.4S198.1,553,196.6,553.2z"/>
			<path class="st5" d="M205.5,553.3l2.7-0.4c0.1-0.6,0.2-1.6,0.3-3c0.1-1.4,0.1-2.5,0.1-3.3v-3.5c0-1,0-1.9-0.1-2.8
				c-0.1-0.9-0.1-1.6-0.2-2.1l-2.8-0.4v-0.1h8c1.1,0,2.1,0.2,2.7,0.6c0.7,0.4,1.1,0.8,1.4,1.4c0.3,0.6,0.4,1.1,0.4,1.7
				c0,1.1-0.4,2-1.1,2.6c-0.7,0.6-1.6,1-2.7,1.1v0c1.1,0.1,2,0.3,2.8,0.7c0.8,0.4,1.3,0.9,1.7,1.5c0.4,0.6,0.6,1.3,0.6,2
				c0,0.6-0.1,1.2-0.4,1.9c-0.3,0.6-0.8,1.2-1.6,1.6c-0.8,0.5-1.8,0.7-3.2,0.7h-8.7V553.3z M208.9,538.1V553h0.8v-14.9H208.9z
				 M212.3,545.5c-0.7,0-1.2,0.1-1.5,0.2c-0.1,0.5-0.1,1.4-0.1,2.6c0,1.4,0,2.8,0.2,4c0.4,0.2,0.8,0.4,1.1,0.5
				c0.3,0.1,0.7,0.1,1.2,0.1c0.8,0,1.4-0.1,2-0.4c0.6-0.3,1-0.7,1.3-1.2c0.3-0.5,0.5-1.2,0.5-1.9s-0.2-1.4-0.5-2
				c-0.4-0.6-0.9-1-1.6-1.4C214.2,545.6,213.3,545.5,212.3,545.5z M212.3,538.3c-0.6,0-1,0-1.2,0.1c-0.2,1.1-0.3,2.5-0.3,4.1
				c0,1.1,0,1.9,0.1,2.2c0.3,0.1,0.7,0.2,1.3,0.2c0.7,0,1.4-0.1,1.9-0.4s1-0.6,1.3-1.2c0.3-0.5,0.5-1.1,0.5-1.9
				c0-0.6-0.1-1.1-0.4-1.6c-0.2-0.5-0.6-0.9-1.2-1.1C213.8,538.4,213.1,538.3,212.3,538.3z M212.6,537.9L212.6,537.9
				c0.8,0.1,1.4,0.3,2,0.6c0.5,0.3,1,0.7,1.2,1.2c0.3,0.5,0.4,1.1,0.4,1.8c0,0.6-0.1,1.2-0.4,1.7c-0.2,0.5-0.5,0.9-0.9,1.1
				c-0.4,0.3-0.8,0.5-1.2,0.6v0.1c1-0.1,1.8-0.5,2.3-1.2c0.6-0.7,0.8-1.4,0.8-2.3c0-0.6-0.1-1.1-0.3-1.5c-0.2-0.4-0.4-0.8-0.8-1.1
				c-0.3-0.3-0.7-0.5-1.2-0.7c-0.4-0.2-0.9-0.2-1.5-0.2C213.1,537.9,212.9,537.9,212.6,537.9z M213.8,545.3L213.8,545.3
				c0.6,0.2,1.2,0.4,1.8,0.8c0.6,0.3,1,0.8,1.3,1.3c0.3,0.6,0.5,1.2,0.5,2c0,0.6-0.1,1.2-0.4,1.8s-0.7,1-1.3,1.4
				c-0.6,0.4-1.4,0.5-2.3,0.5v0.1c0.1,0,0.3,0.1,0.6,0.1c0.9,0,1.7-0.2,2.3-0.5c0.6-0.4,1.1-0.8,1.4-1.4c0.3-0.6,0.5-1.2,0.5-1.9
				c0-0.8-0.2-1.5-0.5-2.1s-0.8-1.1-1.5-1.4C215.5,545.5,214.7,545.3,213.8,545.3z"/>
			<path class="st5" d="M220.2,537.8v-0.1h11.5l0.3,3.3h-0.2l-0.8-2.6c-0.6,0-1.3-0.1-2.1-0.1c-1.4,0-2.5,0.1-3.3,0.3
				c-0.1,1.2-0.2,2.5-0.2,4c0,0.9,0,1.7,0.1,2.3c1.1,0.1,1.9,0.1,2.2,0.1c0.8,0,1.6,0,2.5-0.1l0.5-1.8h0.2v4.6h-0.2l-0.5-1.9
				c-0.6-0.1-1.3-0.1-2.1-0.1c-0.9,0-1.8,0-2.6,0.1c-0.1,0.8-0.1,1.6-0.1,2.4c0,1,0,1.9,0.1,2.5c0,0.7,0.1,1.2,0.1,1.7
				c0.9,0.3,2,0.4,3.4,0.4c0.8,0,1.5,0,2.1-0.1l0.9-2.6h0.2l-0.2,3.4h-11.6v-0.1l2.6-0.4c0.1-0.3,0.1-0.7,0.2-1.3s0.1-1.3,0.1-2
				c0-0.8,0.1-1.4,0.1-1.9c0-0.5,0-0.9,0-1.3v-2.7c0-0.3,0-0.8,0-1.5c0-0.6-0.1-1.3-0.1-2c0-0.7-0.1-1.4-0.2-2L220.2,537.8z
				 M223.5,538.1V553h0.7v-14.9H223.5z"/>
			<path class="st5" d="M235.9,547v-3.3c0-0.9,0-1.8-0.1-2.9c-0.1-1.1-0.1-2-0.2-2.6l-2.6-0.4v-0.1h7.1c1.3,0,2.4,0.3,3.2,0.8
				c0.8,0.5,1.4,1.1,1.7,1.8c0.3,0.7,0.5,1.3,0.5,1.8c0,0.7-0.2,1.3-0.5,1.8c-0.3,0.5-0.7,1-1.2,1.3c-0.5,0.3-1,0.5-1.5,0.6v0
				c0.5,0.2,0.9,0.5,1.2,0.8c0.3,0.3,0.5,0.6,0.9,1.1c0.3,0.5,0.8,1.1,1.3,1.9c0.5,0.8,1,1.4,1.3,1.9c0.3,0.4,0.6,0.8,0.9,1.1
				c0.6,0.6,1.2,0.9,1.8,0.9v0.1h-1.9c-1,0-1.9-0.3-2.5-0.9c-0.2-0.2-0.5-0.5-0.7-0.9c-0.2-0.3-0.6-0.9-1.1-1.6
				c-0.5-0.8-1-1.4-1.3-1.9c-0.4-0.5-0.6-0.8-0.8-1.1c-0.3-0.3-0.6-0.5-0.8-0.6c-0.3-0.1-0.6-0.2-1.1-0.2c-0.5,0-0.8,0-1.1,0.1
				c0,0.4-0.1,0.8-0.1,1.3v2c0,0.8,0.1,1.9,0.3,3.3l2.7,0.4v0.1h-8v-0.1l2.5-0.4c0.1-0.7,0.2-1.7,0.3-3.1
				C235.9,548.6,235.9,547.6,235.9,547z M236.2,538.1V553h0.8v-14.9H236.2z M238.1,542.1v1.8c0,0.6,0,1.2,0.1,1.7
				c0.3,0,0.7,0.1,1.2,0.1c0.9,0,1.7-0.2,2.2-0.5c0.6-0.3,1-0.7,1.2-1.2c0.2-0.5,0.4-1.1,0.4-1.7c0-0.6-0.1-1.1-0.4-1.6
				c-0.2-0.5-0.5-0.9-0.9-1.3s-0.8-0.6-1.2-0.8c-0.5-0.2-0.9-0.3-1.3-0.3c-0.4,0-0.7,0-1,0.1c-0.1,0.4-0.1,1-0.2,1.8
				C238.1,540.9,238.1,541.6,238.1,542.1z M239.2,537.9v0.1c1,0,1.8,0.3,2.5,0.7c0.7,0.5,1.1,1,1.4,1.7c0.3,0.7,0.5,1.3,0.5,2
				c0,1.4-0.6,2.5-1.9,3.1l0.1,0c0.7-0.2,1.3-0.6,1.8-1.2c0.5-0.6,0.7-1.3,0.7-2.2c0-0.7-0.1-1.3-0.4-1.8c-0.3-0.5-0.6-1-1.1-1.3
				c-0.4-0.4-0.9-0.6-1.5-0.8c-0.5-0.2-1.1-0.3-1.6-0.3H239.2z M242,547.4l2.3,3.4c0.6,0.8,1.1,1.4,1.5,1.7c0.4,0.3,1,0.5,1.6,0.5
				V553c-0.6-0.2-1.3-0.9-2.2-2.2l-1.9-2.7c-0.4-0.6-0.8-1-1.1-1.3c-0.4-0.3-0.8-0.5-1.3-0.6l0,0.1
				C241.2,546.5,241.6,546.9,242,547.4z"/>
			<path class="st5" d="M251.1,537.7h9.3c0.6,0,1.1,0,1.6,0c0.5,0,1.1-0.1,1.8-0.2l0.2,3.5H264l-0.8-2.5c-0.7-0.1-1.3-0.2-2-0.2
				c-0.6,0-1.2,0-1.7,0.1c-0.5,0.1-1,0.2-1.6,0.3c-0.1,0.7-0.1,1.3-0.1,1.9c0,0.6-0.1,1.2-0.1,1.7c0,0.5,0,0.9,0,1.1v3.6
				c0,0.9,0,2,0.1,3.2c0.1,1.2,0.1,2.1,0.2,2.8l2.7,0.4v0.1h-8.1v-0.1l2.6-0.4c0.2-1.6,0.3-3.5,0.3-5.8v-3.9c0-0.8,0-1.6-0.1-2.4
				c0-0.8-0.1-1.5-0.2-2.2c-0.4-0.1-0.9-0.2-1.5-0.3c-0.6-0.1-1.1-0.1-1.6-0.1c-0.8,0-1.6,0.1-2.3,0.2l-0.8,2.6H249l0.2-3.5
				c0.2,0,0.5,0,0.9,0.1C250.5,537.7,250.9,537.7,251.1,537.7z M255.8,538.1V553h0.7v-14.9H255.8z"/>
			<path class="st5" d="M277.3,537.5h1.1c-0.1,0.5-0.2,1.6-0.2,3.1c0,1.5-0.1,3.1-0.1,4.7v2.9c0,1.6,0.1,3.1,0.3,4.7l2.2,0.4v0.1
				h-7.9v-0.1l2.8-0.4c0.1-0.8,0.2-2,0.3-3.4c0.1-1.5,0.1-2.6,0.1-3.5v-2.6c0-0.5,0-1.2-0.1-2.1c0-0.9-0.1-1.6-0.2-2.1l-2.7,0.4
				v-0.1L277.3,537.5z M276.3,553h0.7v-14.9l-0.7,0.3V553z"/>
			<path class="st5" d="M281,537.8v-0.1h11.5l0.3,3.3h-0.2l-0.8-2.6c-0.6,0-1.3-0.1-2.1-0.1c-1.4,0-2.5,0.1-3.3,0.3
				c-0.1,1.2-0.2,2.5-0.2,4c0,0.9,0,1.7,0.1,2.3c1.1,0.1,1.9,0.1,2.2,0.1c0.8,0,1.6,0,2.5-0.1l0.5-1.8h0.2v4.6h-0.2l-0.5-1.9
				c-0.6-0.1-1.3-0.1-2.1-0.1c-0.9,0-1.8,0-2.6,0.1c-0.1,0.8-0.1,1.6-0.1,2.4c0,1,0,1.9,0.1,2.5c0,0.7,0.1,1.2,0.1,1.7
				c0.9,0.3,2,0.4,3.4,0.4c0.8,0,1.5,0,2.1-0.1l0.9-2.6h0.2l-0.2,3.4h-11.6v-0.1l2.6-0.4c0.1-0.3,0.1-0.7,0.2-1.3s0.1-1.3,0.1-2
				c0-0.8,0.1-1.4,0.1-1.9c0-0.5,0-0.9,0-1.3v-2.7c0-0.3,0-0.8,0-1.5c0-0.6-0.1-1.3-0.1-2c0-0.7-0.1-1.4-0.2-2L281,537.8z
				 M284.3,538.1V553h0.7v-14.9H284.3z"/>
			<path class="st5" d="M296.8,547v-3.3c0-0.9,0-1.8-0.1-2.9c-0.1-1.1-0.1-2-0.2-2.6l-2.6-0.4v-0.1h7.1c1.3,0,2.4,0.3,3.2,0.8
				c0.8,0.5,1.4,1.1,1.7,1.8c0.3,0.7,0.5,1.3,0.5,1.8c0,0.7-0.2,1.3-0.5,1.8c-0.3,0.5-0.7,1-1.2,1.3c-0.5,0.3-1,0.5-1.5,0.6v0
				c0.5,0.2,0.9,0.5,1.2,0.8c0.3,0.3,0.5,0.6,0.9,1.1c0.3,0.5,0.8,1.1,1.3,1.9c0.5,0.8,1,1.4,1.3,1.9c0.3,0.4,0.6,0.8,0.9,1.1
				c0.6,0.6,1.2,0.9,1.8,0.9v0.1h-1.9c-1,0-1.9-0.3-2.5-0.9c-0.2-0.2-0.5-0.5-0.7-0.9c-0.2-0.3-0.6-0.9-1.1-1.6s-1-1.4-1.3-1.9
				c-0.4-0.5-0.6-0.8-0.8-1.1c-0.3-0.3-0.6-0.5-0.8-0.6c-0.3-0.1-0.6-0.2-1.1-0.2c-0.5,0-0.8,0-1.1,0.1c0,0.4-0.1,0.8-0.1,1.3v2
				c0,0.8,0.1,1.9,0.3,3.3l2.7,0.4v0.1h-8v-0.1l2.5-0.4c0.1-0.7,0.2-1.7,0.3-3.1S296.8,547.6,296.8,547z M297,538.1V553h0.8v-14.9
				H297z M298.9,542.1v1.8c0,0.6,0,1.2,0.1,1.7c0.3,0,0.7,0.1,1.2,0.1c0.9,0,1.7-0.2,2.2-0.5s1-0.7,1.2-1.2c0.2-0.5,0.4-1.1,0.4-1.7
				c0-0.6-0.1-1.1-0.4-1.6c-0.2-0.5-0.5-0.9-0.9-1.3s-0.8-0.6-1.2-0.8c-0.5-0.2-0.9-0.3-1.3-0.3c-0.4,0-0.7,0-1,0.1
				c-0.1,0.4-0.1,1-0.2,1.8C298.9,540.9,298.9,541.6,298.9,542.1z M300,537.9v0.1c1,0,1.8,0.3,2.5,0.7c0.7,0.5,1.1,1,1.4,1.7
				c0.3,0.7,0.5,1.3,0.5,2c0,1.4-0.6,2.5-1.9,3.1l0.1,0c0.7-0.2,1.3-0.6,1.8-1.2c0.5-0.6,0.7-1.3,0.7-2.2c0-0.7-0.1-1.3-0.4-1.8
				c-0.3-0.5-0.6-1-1.1-1.3c-0.4-0.4-0.9-0.6-1.5-0.8c-0.5-0.2-1.1-0.3-1.6-0.3H300z M302.8,547.4l2.3,3.4c0.6,0.8,1.1,1.4,1.5,1.7
				c0.4,0.3,1,0.5,1.6,0.5V553c-0.6-0.2-1.3-0.9-2.2-2.2l-1.9-2.7c-0.4-0.6-0.8-1-1.1-1.3c-0.4-0.3-0.8-0.5-1.3-0.6l0,0.1
				C302.1,546.5,302.4,546.9,302.8,547.4z"/>
		</g>
		<g>
			<path class="st6" d="M203.7,332.1c9,18.2,9.8,39.7,2.2,59.2c-8.9,4.1-15.8,11.7-18.1,20.1c-6.2,0.2-12.1-3.4-13.7-8.5
				c-1.6-5.1,1.1-11.2,6.4-14.2c-3.3,3.2-5,7.4-4.7,11.5c0.3,3.8,1.3,9-2.9,10.4c-1.9,0.6-3.9,0.1-5.6-0.8
				c-6.3-3.2-9.7-10.2-7.9-16.6c1.7-6.4,8.4-11.8,15.9-12.8c-5.7,0.6-10.4,4.9-12.4,9.7c-1.9,4.8-1.7,9.9-1.2,14.8
				c-2.9,1.6-6.8,0.9-9.1-1.1c-2.3-2-3.2-4.9-3.4-7.8c-0.6-8.5,4.6-17.4,13-22.4c-7.6-10.9-10.5-24.3-8.1-37.3c0.8-4.2,2-6.7,3.6-8"
				/>
			<path class="st6" d="M119.5,297.2c-2.6-4-4.4-8.4-6.5-12.6c-4.4-8.8-10.5-16.9-17.9-23.5c-2.7-2.4-5.6-4.8-7.4-7.9
				c-1.8-3.2-2.1-7.5,0.4-10.2c2.5-2.7,7.1-2.7,10.4-0.9s5.6,4.9,7.8,8c-1.1-3.2-5.1-4.9-5.3-8.3c-0.1-1.3,0.5-2.6,1.2-3.8
				c2.7-4.5,6.9-8,11.8-9.9c-1.6-2.5-3.2-5.7-2-8.4c1.5-3.2,6.1-3.6,9.4-2.3c7.1,2.9,10.8,10.6,13.1,17.9c0.8,2.6,1.6,5.3,3.2,7.5
				c1.7,2.4,4.3,4,6.8,5.4c6.7,3.8,13.7,7.2,19.7,11.9s11.1,11.3,12.1,19c1.3,9.7-4.2,19.1-10.5,26.6c-5.6,6.8-12.5,19.6-22.7,14
				C134.5,315.1,124.9,305.5,119.5,297.2z"/>
			<path d="M239.8,166.1c-1,1.2-1.7,2.3-2.7,3.3c-0.9,0.8-2,0.7-3,0.1c-2.1-1.2-4.1-2.6-6.2-3.6c-5.9-2.7-11.8-5.5-17.9-7.6
				c-4.4-1.5-9.2-3-14-1.9c-3.6,0.8-7.1,1.9-10.6,3.1c-12.8,4.6-25.5,9.3-38.3,14.1c-1.1,0.4-2,0.6-3.1,0.3c-1.8-0.4-3.6-0.6-5.4-1
				c-0.4-0.1-0.7-0.3-1-0.5c0-0.1,0-0.3,0-0.4c0.7-0.3,1.4-0.7,2.1-0.9c17.6-6.5,35-13.4,53-18.9c4.6-1.4,9.3-2.6,13.9-3.8
				c0.9-0.2,1.4-0.1,1.5,0.9c0,0,0,0.1,0,0.1c0.3,1,0.3,2.3,1,2.8c0.6,0.4,1.9-0.1,2.8-0.1c0.4,0,0.8,0.5,1.2,0.7
				c0.1,0.1,0.1,0.2,0.1,0.4c0.1,2.8,2,3.4,4.2,4.2c7.1,2.5,14.2,5.4,21.2,8.1C239,165.5,239.3,165.8,239.8,166.1z"/>
			<path class="st6" d="M173.2,158c0.2-1.5,0.3-3.1,1-4.5c1.3-2.7,4.4-4.3,7.4-4.7c3.1-0.3,6.1,0.5,9,1.5c8.3,3,15.7,8.1,21.2,14.8
				c1,1.2,2,2.7,1.4,4.1c-0.4,1-1.3,1.6-2.2,2.1c-5.3,3.2-10.7,6.2-16.3,8.9c-4.1,2-13,8-17.6,7.8
				C169.2,187.5,172.5,164.6,173.2,158z"/>
			<path class="st6" d="M180.4,181.4c16.4-14.5,41.1-20.1,61.6-12.3c20.5,7.8,34.9,29.6,32,51c-0.5,3.5-1.4,6.9-1.5,10.4
				c-0.6,12.2,7.2,23.3,16.3,31.6c9.1,8.3,19.7,15.1,27.5,24.6c12.2,14.9,15.8,35.3,13.3,54.3c-1,7.8-3,15.6-6.3,22.8
				c-9.9,21.6-31.3,37-54.5,43.2c-23.3,6.2-48.2,4-71.2-2.8c-8.5-2.5-16.9-5.7-24-10.8c-17.3-12.4-24.6-34.7-24.3-55.8
				c0.2-21.1,6.8-41.5,12.3-61.9c4.7-17.4,9.3-36,7.4-54.1c-0.8-7.5-4-12.5-1.7-20.3C169.3,193.5,174.4,186.7,180.4,181.4z"/>
			<path class="st6" d="M244.9,170.4c0.4-1.1,1.1-2.2,2.1-3.2c8.5-7.9,23.4-9.2,34.3-10.6c0.7-0.1,1.6-0.2,2.2,0.1
				c1.4,0.7,1.4,2.7,1.1,4.3c-2.2,12.2-4.7,25.2-13.4,34.4c-2.4,2.5-6.2,4.8-9.2,3.2"/>
			<path class="st6" d="M259.3,355c9,18.2,9.8,39.7,2.2,59.2c-8.9,4.1-15.8,11.7-18.1,20.1c-6.2,0.2-12.1-3.4-13.7-8.5
				s1.1-11.2,6.4-14.2c-3.3,3.2-5,7.4-4.7,11.5c0.3,3.8,1.3,9-2.9,10.4c-1.9,0.6-3.9,0.1-5.6-0.8c-6.3-3.2-9.7-10.2-7.9-16.6
				c1.7-6.4,8.4-11.8,15.9-12.8c-5.7,0.6-10.4,4.9-12.4,9.7c-1.9,4.8-1.7,9.9-1.2,14.8c-2.9,1.6-6.8,0.9-9.1-1.1s-3.2-4.9-3.4-7.8
				c-0.6-8.5,4.6-17.4,13-22.4c-7.6-10.9-10.5-24.3-8.1-37.3c0.8-4.2,2-6.7,3.6-8"/>
			<path class="st6" d="M322,346.9c9,18.2,9.8,39.7,2.2,59.2c-8.9,4.1-15.8,11.7-18.1,20.1c-6.2,0.2-12.1-3.4-13.7-8.5
				c-1.6-5.1,1.1-11.2,6.4-14.2c-3.3,3.2-5,7.4-4.7,11.5c0.3,3.8,1.3,9-2.9,10.4c-1.9,0.6-3.9,0.1-5.6-0.8
				c-6.3-3.2-9.7-10.2-7.9-16.6c1.7-6.4,8.4-11.8,15.9-12.8c-5.7,0.6-10.4,4.9-12.4,9.7c-1.9,4.8-1.7,9.9-1.2,14.8
				c-2.9,1.6-6.8,0.9-9.1-1.1s-3.2-4.9-3.4-7.8c-0.6-8.5,4.6-17.4,13-22.4c-7.6-10.9-10.5-24.3-8.1-37.3c0.8-4.2,2-6.7,3.6-8"/>
			<path class="st6" d="M300.2,272c12.8-9.1,29.1-13.4,44.8-11.8c7.5,0.8,15,2.9,21.6,6.5c5.8,3.2,10.9,7.6,15.7,12.2
				c7.4,7.2,14.1,15.2,19.3,24.1c11,19.1,14,42.9,6.6,63.8c-2.5,7.2-6.2,13.9-10.5,20.2c-10.1,15-23.9,27.9-40.7,35.3
				c-16.7,7.4-36.4,8.9-53.4,2.3c-10.4-4.1-19.4-10.9-28.2-17.7c-4-3.1-8.1-6.3-11.4-10.2c-4.5-5.4-7.2-12-10.5-18.2
				c-8.8-16.3-22.4-30.1-38.7-39.3c11.2-9.5,26-13.7,40.2-17.6c13.3-3.7,26.7-7.3,40.5-7.8c13.8-0.5,28.1,2.5,38.8,11
				c-0.4-2.7-2.3-4.5-4.8-5.7"/>
			<path class="st7" d="M252,239.4c8.1-1.4,17.1-4,21.2-11.1c5.9,9,10.5,18.9,13.5,29.2c-22.6,13.2-48.9,19.9-75,19.1
				c-16.2-0.5-32.9-4-46-13.4c-1.8-1.3-3.5-2.7-4.3-4.7c-0.7-1.7-0.6-3.6-0.5-5.4c0.5-6.4-0.3-16.9,6.8-18.9
				c6.1-1.7,19.3,4.6,25.7,5.6C212.7,242.8,232.6,242.8,252,239.4z"/>
			<ellipse class="st8" cx="174.8" cy="270.4" rx="14.3" ry="17.8"/>
			<path class="st9" d="M246.6,177.9c5-4,11.3-6.3,17.7-6.2c1,0,2,0.1,2.8,0.6c1.4,0.9,1.7,2.9,1.7,4.6c-0.1,5.5-2.6,10.9-6.8,14.6
				c-0.6,0.5-1.2,1-1.9,1.1c-1,0.2-2-0.4-2.8-1c-4.7-3.4-8.3-8.1-10.3-13.5"/>
			<path class="st9" d="M280.9,360.1c1.3,14.8,1.8,31.9-8.2,43.3c9.4,7.8,18,13.8,28.2,19.2c1.8,0.9,7.3,3.2,9.3,2.9
				c2.5-0.3,3.8-4.6,5.4-6.4c18-19.7,25.5-46.4,23.4-72.2c-0.4-4.8-0.5-14.9-3.3-18.7c-3.5-4.7-5.6-5.8-9.1-7.5
				c-8.5-4.1-30.6-10.1-39.9-3.6C275.7,324.8,280,349.6,280.9,360.1z"/>
			<path class="st9" d="M366.2,335.7c3.8,2.2,7.5,4.4,10.7,7.4c4.1,3.9,7,8.9,9.7,13.9c3.5,6.5,6.9,13.4,7,20.9c0,2.9,2.9,6.5,4,9.1
				c3.9-7.1,6.2-12.8,8.8-20.5c0.8-2.5,2.7-6.5,3.2-9.1c0.6-2.8,1-8.1,1.2-10.9c1.1-14.8-4-28.3-9.7-41.9c-0.7-1.6-1.4-3.2-2.7-4.2
				c-1.2-0.9-2.6-1.2-4.1-1.4c-12.1-2.1-24.7-0.5-36.5,3.2c-3.4,1.1-6.8,2.4-9.6,4.7c-2,1.6-3.6,3.7-5.2,5.7c-2,2.6-4.1,5.3-6.1,7.9
				c-1.9,2.4-3.2,5,0.5,5.2c3.4,0.2,6.7,0.5,10.1,1.4C354.2,329.1,360.3,332.3,366.2,335.7z"/>
			<path class="st10" d="M300.2,272.4c17.5,10,29.2,29.3,30.1,49.4"/>
			
				<ellipse transform="matrix(9.521019e-02 -0.9955 0.9955 9.521019e-02 -10.1213 370.4175)" class="st11" cx="198.7" cy="190.8" rx="1" ry="2.2"/>
			
				<ellipse transform="matrix(9.521019e-02 -0.9955 0.9955 9.521019e-02 -35.0823 361.818)" class="st11" cx="181.5" cy="200.2" rx="1.3" ry="2.4"/>
			<path class="st10" d="M187.7,200.9c2.3-0.4,4.7,0.4,6.9,1.2c3.2,1.1,6.4,2.2,9.6,3.3"/>
			<path class="st10" d="M185.9,202.7c3.7,2.2,7.2,4.8,10.3,7.8"/>
			<path class="st10" d="M176.1,196.8c-5.9-1.4-11.9-2.1-18-2"/>
			<path class="st10" d="M173.7,200.1c-5.3,0.9-10.6,1.9-15.9,2.8"/>
			<path d="M177,185c0.2,1.4,0.3,2.6,0.5,3.8c0.1,1.1,0.2,2.1,0.4,3.2c0.2,2.1-0.7,2.9-2.8,2.4c-0.1,0-0.3,0-0.6,0
				c0.1,0.8,0.1,1.5,0.2,2.2c0.2,1.9-0.6,2.6-2.5,2.3c-0.2,0-0.3,0-0.6,0c0.1,0.8,0.1,1.5,0.1,2.1c0.1,1.5-0.6,2.2-2.1,1.9
				c-4.2-0.8-8.3-1.6-12.5-2.4c-2.2-0.4-4.5-0.9-6.7-1.3c-0.9-0.1-1.3-0.5-1.3-1.4c0-0.1-0.1-0.3-0.1-0.4c-0.1-2.2-0.8-3.9-3.1-4.9
				c-0.7-0.3-1.1-1.7-1.2-2.6c-0.2-1.2-0.7-1.8-1.9-1.8c-1.2,0-1.8-0.7-1.9-1.9c0-0.3-0.1-0.6-0.1-0.9c0.1-1.7-0.6-2.8-2.5-3.2
				c-0.4-0.1-1.1-0.5-1.2-0.9c-0.6-2.3-1.2-4.6-1.7-6.9c-0.2-1.1,0.1-1.6,1.3-1.3c7.4,1.4,14.9,2.7,22.4,4c8.6,1.5,17.1,3,25.7,4.6
				c13.3,2.4,26.7,4.9,40,7.3c0.5,0.1,1,0.2,1.6,0.3c2.5,0.4,2.7,0.7,2.9,3.3c0.1,0.7,0.2,1.4,0.3,2.2c0.1,0,0.3,0,0.4,0
				c-0.1-1-0.3-2-0.4-2.9c-0.2-1.9-0.2-1.8,1.6-2.2c2.2-0.4,4.4-1,6.6-1.8c-0.4,0-0.8,0-1.2,0c0-0.1-0.1-0.1-0.1-0.2
				c0.4-0.1,0.8-0.3,1.2-0.4c1.1-0.3,2.2-0.3,3.2-0.8c11.6-5.8,23.3-11.5,34.8-17.5c5.2-2.7,10-6.1,15.2-9.3
				c0.2,0.9,0.5,1.9,0.6,2.9c0.2,1.4,0.2,1.4,1.7,1.1c0.1,0.5,0.1,1,0.2,1.4c0.3,1.3,0.7,2.6,1.1,3.9c0.2,0.6,0.3,1.2,0.3,1.8
				c0,1.5-0.3,3,0.4,4.4c0.5,1-0.5,2.7-1.5,3.1c-0.3,0.1-1.1-0.2-1.1-0.5c-0.1-0.9-0.1-1.8-0.1-2.6c0-0.7,0.2-1.3,0.1-2
				c-0.2-2.9-1.8-4.5-4.7-4.2c-1.4,0.1-2.8,0.6-4,1.2c-6.2,3.2-12.2,6.6-18.4,9.8c-8.5,4.4-17,8.7-25.5,12.9
				c-2.3,1.1-4.9,1.6-7.4,2.3c-0.7,0.2-1.5,0.2-2.3,0.3c0.1,0.7,0.1,1.3,0.2,1.8c0.3,1.8-0.2,2.4-2,2.4c-0.5,0-1-0.1-1.8-0.2
				c0,0.8,0,1.5,0.1,2.2c0.1,1.9-0.5,2.5-2.4,2.3c-0.4,0-0.8-0.1-1.3-0.1c0,1.1,0,2,0,2.9c0,1.7-0.5,2.2-2.2,2
				c-0.4-0.1-0.8-0.1-1.3-0.2c0,1,0.1,1.9,0.1,2.8c0,1.4-0.3,1.7-1.8,1.4c-2.2-0.3-4.4-0.8-6.6-1.1c-5-0.9-9.9-1.8-14.9-2.7
				c-1.2-0.2-2-0.7-2-2.1c0-0.3-0.1-0.6-0.1-0.9c-0.3-2.5-0.3-2.5-2.8-3.2c-0.5-0.2-1.1-0.8-1.3-1.4c-0.3-0.6-0.4-1.4-0.3-2.1
				c0.1-1.6-0.7-2.3-2.2-2.3c-1.3,0-1.8-0.7-1.9-2c-0.2-2.5-0.5-5-0.9-7.4c-0.1-0.4-0.3-1-0.6-1C182,185.9,179.7,185.5,177,185z
				 M189,187.3c0.2,1.6,0.5,2.9,0.5,4.2c0,1.3,0.6,1.8,1.9,2c2.3,0.3,2.3,0.4,2.5,2.6c0.3,3.1,0.3,3.2,3.4,3.8
				c0.8,0.2,1,0.5,1.1,1.3c0.1,1.2,0.2,2.3,0.3,3.5c0,0.4,0.3,0.9,0.5,1c1.2,0.3,2.5,0.6,4,0.9c-0.2-1.3-0.3-2.3-0.4-3.2
				c-0.4-3,0.3-2.6-2.8-3.1c-1.1-0.2-1.7-0.6-1.6-1.8c0-0.3,0-0.5-0.1-0.8c-0.3-3.1-0.3-3.1-3.2-3.8c-0.8-0.2-1.2-0.6-1.2-1.4
				c0-1.1-0.2-2.2-0.4-3.3c-0.1-0.3-0.3-0.9-0.5-0.9C191.7,187.8,190.5,187.6,189,187.3z M152,187.8c-0.4-3.1,0-2.6-2.8-3.2
				c0,0-0.1,0-0.1,0c-0.7-0.1-1.1-0.5-1.1-1.2c-0.1-1.1-0.2-2.1-0.4-3.2c-0.1-0.4-0.4-1-0.7-1.1c-3-1.2-3.5-0.8-3.1,2.3
				c0,0.1,0,0.3,0,0.4c0.3,2.5-0.2,2.3,2.6,2.8c0.9,0.2,1.4,0.5,1.4,1.5c0,1,0.1,2.1,0.4,3c0.1,0.4,0.6,1,0.9,1
				c2.5,0,3.2,1.5,3.1,3.7c0,0.3,0.1,0.6,0.1,0.9c0.1,1,3.1,2.3,3.9,1.7c0.2-0.2,0.3-0.6,0.2-0.9c-0.1-0.9-0.3-1.9-0.3-2.8
				c0-1.4-0.6-2.1-2-2.1c-1.6,0-2.2-0.8-2.1-2.3C152.1,188.1,152,188,152,187.8z"/>
			<path class="st12" d="M189,187.3c1.6,0.3,2.8,0.5,4,0.8c0.3,0.1,0.5,0.6,0.5,0.9c0.2,1.1,0.3,2.2,0.4,3.3c0,0.9,0.4,1.2,1.2,1.4
				c2.9,0.7,2.9,0.7,3.2,3.8c0,0.3,0.1,0.5,0.1,0.8c-0.1,1.2,0.5,1.6,1.6,1.8c3.1,0.6,2.5,0.2,2.8,3.1c0.1,1,0.2,1.9,0.4,3.2
				c-1.6-0.3-2.8-0.6-4-0.9c-0.3-0.1-0.5-0.6-0.5-1c-0.2-1.1-0.3-2.3-0.3-3.5c0-0.7-0.3-1.1-1.1-1.3c-3-0.7-3-0.7-3.4-3.8
				c-0.2-2.2-0.2-2.3-2.5-2.6c-1.3-0.2-1.9-0.7-1.9-2C189.4,190.1,189.2,188.9,189,187.3z"/>
			<path class="st12" d="M152,187.8c0,0.2,0.1,0.4,0.1,0.5c-0.1,1.5,0.5,2.3,2.1,2.3c1.3,0,2,0.7,2,2.1c0,0.9,0.2,1.9,0.3,2.8
				c0,0.3,0,0.8-0.2,0.9c-0.8,0.6-3.7-0.7-3.9-1.7c0-0.3-0.1-0.6-0.1-0.9c0.1-2.2-0.5-3.7-3.1-3.7c-0.3,0-0.8-0.6-0.9-1
				c-0.2-1-0.4-2-0.4-3c0-1-0.5-1.4-1.4-1.5c-2.8-0.5-2.3-0.3-2.6-2.8c0-0.1,0-0.3,0-0.4c-0.4-3.1,0.1-3.5,3.1-2.3
				c0.3,0.1,0.6,0.7,0.7,1.1c0.2,1,0.3,2.1,0.4,3.2c0.1,0.8,0.4,1.1,1.1,1.2c0,0,0.1,0,0.1,0C152,185.1,151.6,184.6,152,187.8z"/>
			<path class="st10" d="M109.1,252.9c2,3.6,5.9,6.2,10.1,6.5c2.1,0.2,4.6-0.6,5.1-2.6c0.2-0.7,0-1.5-0.1-2.2
				c-1.4-6-4.7-11.5-9.3-15.6"/>
			<path class="st10" d="M124.4,253.5c1.3,0.4,2.7-0.2,3.7-1.1c1-0.9,1.5-2.2,1.9-3.5c1.2-4.3,0.6-9.2-1.8-13
				c-2.4-3.8-6.4-6.6-10.9-7.4"/>
			<path class="st13" d="M88.4,246.1c1.1-0.7,2.2-1.4,3.3-2.1c-2.3-2.2-3.6-5.4-3.4-8.6c-2.6,2.8-2.7,7.5-0.2,10.4"/>
			<path class="st14" d="M176.4,208.4c-3.7,0.3-7.9,0.8-10.7,3.2c-2.2,1.8-3,4.4-3.5,6.9c-0.3,1.6-0.5,3.2,0.2,4.6s2.5,2.4,4.3,1.9
				c1.6-0.4,2.8-1.8,3.5-3.1c0.7-1.3,1.1-2.7,2-4c1.5-2.1,4.6-3.5,7.4-3.3"/>
		</g>
	</g>
</g>
</svg>
