<?xml version="1.0" encoding="utf-8"?>
<!-- Generator: Adobe Illustrator 25.0.0, SVG Export Plug-In . SVG Version: 6.00 Build 0)  -->
<svg version="1.1" id="Calque_1" xmlns="http://www.w3.org/2000/svg" xmlns:xlink="http://www.w3.org/1999/xlink" x="0px" y="0px"
	 viewBox="0 0 475.4 629" style="enable-background:new 0 0 475.4 629;" xml:space="preserve">
<style type="text/css">
	.st0{opacity:0.24;}
	.st1{fill:#B59459;}
	.st2{fill:#FFE7B3;}
	.st3{fill:#825911;}
	.st4{fill:#FEE6FF;stroke:#3D3D3D;stroke-width:2;stroke-miterlimit:10;}
	.st5{fill:#FCD2B4;stroke:#3D3D3D;stroke-width:2;stroke-miterlimit:10;}
	.st6{fill:#3D3D3D;}
	.st7{fill:#FF78E6;}
	.st8{fill:#E5BFE8;stroke:#3D3D3D;stroke-width:2;stroke-miterlimit:10;}
	.st9{fill:#FF2296;}
	.st10{fill:#FFFFFF;stroke:#3D3D3D;stroke-width:2;stroke-miterlimit:10;}
	.st11{fill:#FCD2B4;}
	.st12{fill:#FFBBE8;stroke:#3D3D3D;stroke-width:2;stroke-miterlimit:10;}
	.st13{fill:#DDC700;}
	.st14{fill:#8C7B00;}
</style>
<g>
	<g class="st0">
		<image style="overflow:visible;" width="432" height="619" xlink:href="542195EE.png"  transform="matrix(1 0 0 1 59 -13)">
		</image>
	</g>
	<g>
		<g>
			<ellipse class="st1" cx="232.1" cy="303.2" rx="194.1" ry="251.8"/>
			<ellipse class="st2" cx="232.1" cy="303.2" rx="137.8" ry="178.8"/>
			<g>
				<g>
					<path class="st3" d="M207.6,113.9c-13.8,0-25.1-2.4-34.4-7.3c-6.4-3.4-12-8.2-16.1-13.9c-4.5-6.3-7.1-13.4-7.3-20.6
						c-0.3-9.4,3.4-19.3,10.2-27.2c5.6-6.4,13.1-11.6,22.5-15.4c0.5-0.2,1.1-0.4,1.7-0.7c3-1.2,5.8-2.3,7-3.8
						c0.1-0.2,0.1-0.6,0.1-0.8c0.1,0.4,0.7,1.2,1.7,1.5l4.4-15.2c4.2,1.2,7.4,4.4,8.9,8.8c1.7,5.1,0.6,11.1-2.6,15.3
						c-3.8,4.9-9.3,7.1-13.6,8.8c-0.5,0.2-1,0.4-1.5,0.6c-7,2.9-12.6,6.6-16.5,11.2c-4.2,4.9-6.6,10.8-6.4,16.3
						c0.3,8.1,6.1,16.4,15,21c7.7,4.1,17.6,5.8,30.4,5.4l0.5,15.8C210.2,113.8,208.9,113.9,207.6,113.9z"/>
					<path class="st3" d="M82.1,288.7C70,281.2,61.5,267,58.2,248.6c-1.3-7.3-1.8-14.5-2.3-21.6c-0.5-6.8-0.9-13.3-2.1-19.7
						c-0.6-3.3-1.5-7.3-3.6-9.4c-0.9-0.9-2.2-1.3-2.8-1.2c-0.4,0.2-0.7,0.4-1.1,0.6l-8.7-13.1c0.7-0.5,1.4-1,2.1-1.4
						c5-3.7,6.2-11.7,7.4-23.2c0.3-2.5,0.5-5,0.9-7.5c2.1-14.8,8.7-28.8,19-40.5c10.4-11.7,23.5-20,37.9-23.8
						c14.4-3.9,29.9-3.3,44.7,1.6c14.8,4.9,27.6,13.7,36.8,25.4l-12.4,9.8c-15-19-41.7-27.8-65-21.5c-23.3,6.3-42,27.4-45.4,51.3
						c-0.3,2.2-0.6,4.5-0.8,6.9c-0.8,7.3-1.7,15.6-4.8,22.8c1.3,0.8,2.5,1.8,3.6,2.9c5,5.2,6.8,12.2,7.7,17.6
						c1.3,7.2,1.8,14.4,2.3,21.3c0.5,6.9,0.9,13.5,2.1,19.9c1.4,8.1,5.5,22.6,16.6,29.4L82.1,288.7z"/>
					<path class="st3" d="M124.1,465.9c-2,0-4-0.1-6-0.5c-12.8-2.2-24.2-12.1-32.1-27.8c-2-4-3.8-8.2-5.5-12.2
						c-1.9-4.4-3.7-8.7-5.8-12.6c0.4,6.2,0.5,12.5-0.1,18.8c-0.4,4.1-1.1,8.9-3.6,13.4c-3.3,5.8-9,9.7-16.2,11
						c-8.1,1.4-16.9-0.9-23-6.1c-9-7.7-13.4-20.5-12.2-35.2c1.1-13.1,7.7-28.9,22.7-34.2c3.5-1.2,7.1-1.7,10.8-1.5
						c-0.1-0.3-0.1-0.6-0.2-0.9c-0.4-1.8-0.7-3.6-1.1-5.3c-4.8,0.9-9.7,1.1-14.3,0.4c-13.1-1.9-24.1-10.6-28.1-22.1
						c-2.6-7.5-2.2-15.9,1-24.4c3.3-8.4,8.7-15.2,12.6-19.4c8.2-8.7,18.4-15.4,28.8-18.9c12.5-4.2,24.5-3.8,34.9,1.3l-6.9,14.2
						c-15-7.3-34,2.3-45.3,14.3c-3.4,3.6-14.2,16.3-10.3,27.7c2.1,5.9,8.3,10.6,15.5,11.7c2.9,0.4,5.9,0.3,9-0.3
						c-0.8-4.8-1.5-9.6-1.9-14.4c-0.6-6.8-0.8-14.7,2.4-22.1c4.2-9.4,13.4-15.2,22.5-14.1c8.8,1,16.3,8.3,18.6,18.1
						c4,16.7-7.2,32.4-20.1,40.5c-1.2,0.8-2.4,1.5-3.6,2.1c0.5,2.5,1,5,1.6,7.5c0.7,3.3,1.4,6.6,2,9.9c4.7,3,9.1,7,12.5,11.7
						c5.3,7.2,8.7,15.1,11.9,22.8c1.7,3.9,3.2,7.7,5,11.2c3.3,6.5,10.3,17.6,20.7,19.4c5.5,0.9,11.7-0.8,17.8-2.4l4.1,15.2
						C137.3,464.2,130.8,465.9,124.1,465.9z M51.8,394.7c-1.4,0-2.8,0.2-4.1,0.7c-7.4,2.6-11.5,12.2-12.2,20.6
						c-0.8,9.4,1.7,17.5,6.7,21.8c2.5,2.2,6.4,3.1,10,2.5c1.4-0.2,3.9-1,5.2-3.2c1-1.8,1.4-4.4,1.6-7c1-11.5-0.2-22.9-2.3-34.7
						C55,395,53.4,394.7,51.8,394.7z M69.9,322.2c-2.1,0-4.7,2.1-5.9,4.9c-1.8,4-1.6,9.2-1.2,14.3c0.3,3.1,0.7,6.2,1.1,9.2
						c7.1-5.2,13.3-14,11.4-22.3c-0.7-3.1-3-5.8-5.1-6C70.2,322.2,70.1,322.2,69.9,322.2z"/>
					<path class="st3" d="M45.3,262.5c-0.5,0-1.1,0-1.6,0c-9.5-0.3-16.8-2.6-22.3-7.1c-5.1-4.2-8-9.7-10.4-15
						c-1.9-4.2-3.7-8.9-3.9-14.1c-0.4-8.9,4.1-18.1,12.5-25.9c21.4-19.8,56.5-21.6,79.8-4.1l-9.5,12.6C73,196.1,46.2,197.4,30.5,212
						c-2.9,2.7-7.7,8-7.5,13.6c0.1,2.4,1.1,5,2.5,8.3c1.6,3.6,3.4,7.2,6,9.3c2.7,2.2,6.8,3.3,12.8,3.5c14,0.4,35.5-7.2,47.2-20.7
						l11.9,10.3C88.4,253.7,63.2,262.5,45.3,262.5z"/>
					<path class="st3" d="M102.5,188.2c-5.5,0-11-0.8-16.5-2.3c-14.1-3.9-25.9-12.4-33.2-23.9c-6.8-10.6-10.3-23.8-10.2-38.1
						c0.1-8.7,1.4-16.2,4.2-22.8C51.5,89.8,61.4,80.6,74,76c13.1-4.8,27.2-4.2,38.7,1.7c11.6,5.9,20.1,16.6,24.3,28.9
						c5.3,0.8,11,2.6,16.1,6.2c9.5,6.8,13.7,17.9,16.8,26.1l-14.8,5.6c-3.1-8.1-6-15.1-11.2-18.8c-1.1-0.8-2.4-1.5-3.9-2.1
						c0.1,7-1.1,14-3.9,20.5c-1.8,4.3-4,7.8-6.6,10.5c-7.4,7.7-17.8,9.5-25,10.3c-3.5,0.4-7.3,0.5-11.2-0.8
						c-6-2.1-10.8-7.5-12.8-14.4c-3.5-12.1,2-26.2,13.4-34.5c6.8-5,15.6-7.9,26-8.9c-3.2-6.2-8.1-11.3-14.2-14.4
						c-7.6-3.9-17.1-4.2-26.1-0.9c-8.5,3.1-15.1,9.1-18.2,16.4c-2,4.6-2.9,10.1-3,16.8c-0.1,11.3,2.6,21.5,7.7,29.5
						c11,17.1,35.6,24,53.8,15l6.9,14.2C119.3,186.3,111,188.2,102.5,188.2z M124.2,121.7c-8.9,0.4-16,2.4-21.1,6.1
						c-5.1,3.7-9.3,10.9-7.5,17.3c0.6,1.9,1.7,3.5,2.9,3.9c1.1,0.4,3.3,0.2,4.4,0.1c7.5-0.8,12.4-2.5,15.2-5.5
						c1.3-1.3,2.4-3.2,3.5-5.7C123.8,132.8,124.5,127.2,124.2,121.7z"/>
					<path class="st3" d="M186.9,618.4l-3-3.7c-3.5-4.4-4.8-10.1-3.5-16.2c1-4.9,3.6-9.6,7.2-13.2c0.7-0.7,1.5-1.4,2.2-2.1
						c-3.2-4.3-7.8-8-12.5-11.8c-3.5-2.8-7-5.6-10.4-8.9c-11.3-11.3-17.7-26.3-17.4-41.1c0.2-13.5,6.3-26.5,15.9-35
						c-4.9-4.8-13.9-6.5-21-4.5c-9.5,2.6-17.8,9.7-25.1,16.9c0.7,0.3,1.3,0.6,2,0.9c5,2.2,10.7,4.6,15.4,9
						c4.9,4.6,7.8,11.5,7.6,18.1c-0.2,5.3-2.4,9.9-6.3,13.1c-4,3.2-9.4,4.6-16,4.1c-10-0.8-19.7-6.3-25.5-14.2
						c-4.5-6.2-6-13.5-4.3-20.4c0.7-2.7,1.8-5.2,3.1-7.4c-11.9-11.2-19.1-27.3-18.8-43.7c0.3-21.8,13.8-42.7,33.6-52l6.7,14.3
						c-14.2,6.7-24.3,22.3-24.5,38c-0.2,11.6,5,23.3,13.4,31.5c9-8.8,20.1-19.2,34.4-23.2c8.1-2.2,17.2-1.8,25,1.2
						c9,3.5,15.4,9.9,18.2,18.1l0.8,2.4c0.5-6.6,4-11.9,9.6-14.7c4.4-2.2,9.3-2.5,14.1-0.8c10.7,3.7,16.9,15.5,18.6,19.1
						c1.7,3.6,3.2,7.2,4.5,10.7c3.5,0.5,7.6,1.6,11,4.8c4.5,4.3,5.3,10.2,5.7,13.4c2.1,15.8,3,31.9,2.6,47.8
						c-0.3,10.9,0,22.8,6.7,26.8l-8.1,13.5c-15.1-9.1-14.7-28.9-14.4-40.7c0.1-3.8,0.1-7.6,0-11.5c-3.7,11.6-10.5,21.7-19.5,28.4
						c-2.1,1.5-4.2,2.9-6.3,4.1c0.6,5.3-0.1,10.8-2.2,15.5c-3,6.7-8.3,11.1-15.1,12.4L186.9,618.4z M184.3,492.9l-4.4,2.6
						c-8.7,5.1-14.4,15.4-14.6,26.3c-0.2,10.4,4.6,21.5,12.8,29.6c2.7,2.7,5.8,5.2,9.1,7.8c5.6,4.5,11.4,9.1,15.9,15.4
						c0.9-0.6,1.9-1.2,2.7-1.8c9.5-7,15.5-19.6,16.1-33.6c0.3-6.8-0.6-13.9-2.6-21.5c-7.5-0.5-15.7-1.4-23.1-5.8
						C189.7,508.1,185.1,500.6,184.3,492.9z M108.3,511.2c-0.3,0.7-0.6,1.3-0.8,2c-0.6,2.4,0,4.8,1.8,7.3c3,4.2,8.6,7.3,13.9,7.7
						c2.7,0.2,4.3-0.2,4.8-0.6c0.3-0.2,0.4-0.7,0.5-1.4c0.1-2-1-4.5-2.6-6c-2.7-2.5-6.7-4.2-10.9-6c-2.1-0.9-4.3-1.9-6.5-3
						C108.5,511.3,108.4,511.2,108.3,511.2z M201.7,487.9c-0.4,0-0.6,0.1-0.9,0.2c-0.2,0.1-0.8,0.4-0.9,2c-0.1,3,1.8,6.8,4.3,8.2
						c2.6,1.5,5.7,2.4,9.1,2.9c-0.3-0.8-0.7-1.5-1.1-2.3c-2.5-5.2-6.5-9.8-9.5-10.9C202.3,487.9,202,487.9,201.7,487.9z"/>
				</g>
				<g>
					<path class="st3" d="M261.8,113.9c-1.3,0-2.6,0-3.9-0.1l0.5-15.8c12.8,0.4,22.8-1.4,30.4-5.4c8.8-4.7,14.7-12.9,15-21
						c0.2-5.5-2.1-11.4-6.4-16.3c-3.9-4.5-9.5-8.3-16.5-11.2c-0.5-0.2-1-0.4-1.5-0.6c-4.4-1.7-9.8-3.9-13.6-8.8
						c-3.2-4.2-4.3-10.2-2.6-15.3c1.4-4.4,4.7-7.6,8.9-8.8l4.4,15.2c1-0.3,1.7-1.1,1.7-1.5c0,0.2,0,0.6,0.1,0.8c1.2,1.5,4,2.6,7,3.8
						c0.6,0.2,1.1,0.4,1.7,0.7c9.3,3.8,16.9,9,22.5,15.4c6.8,7.8,10.6,17.7,10.2,27.2c-0.2,7.2-2.8,14.3-7.3,20.6
						c-4.1,5.7-9.7,10.5-16.1,13.9C286.9,111.5,275.6,113.9,261.8,113.9z"/>
					<path class="st3" d="M387.2,288.7l-8.2-13.5c11.1-6.8,15.2-21.3,16.6-29.4c1.1-6.4,1.6-13,2.1-19.9c0.5-7,1-14.1,2.3-21.3
						c1-5.5,2.7-12.4,7.7-17.6c1.1-1.1,2.3-2.1,3.6-2.9c-3.2-7.2-4-15.5-4.8-22.8c-0.3-2.4-0.5-4.7-0.8-6.9
						c-3.4-23.9-22.1-45-45.4-51.3c-23.3-6.3-50.1,2.6-65,21.5l-12.4-9.8c9.2-11.7,22-20.5,36.8-25.4c14.8-4.9,30.3-5.5,44.7-1.6
						c14.4,3.9,27.5,12.1,37.9,23.8c10.4,11.7,16.9,25.7,19,40.5c0.4,2.5,0.6,5,0.9,7.5c1.2,11.5,2.4,19.5,7.4,23.2
						c0.7,0.4,1.4,0.9,2.1,1.4l-8.7,13.1c-0.4-0.2-0.7-0.4-1.1-0.6c-0.6,0-1.9,0.3-2.8,1.2c-2.1,2.2-3,6.2-3.6,9.4
						c-1.1,6.4-1.6,12.8-2.1,19.7c-0.5,7-1,14.3-2.3,21.6C407.9,267,399.4,281.2,387.2,288.7z"/>
					<path class="st3" d="M345.3,465.9c-6.8,0-13.2-1.7-18.6-3.2l4.1-15.2c6,1.6,12.3,3.3,17.8,2.4c10.4-1.8,17.4-12.9,20.7-19.4
						c1.8-3.6,3.4-7.3,5-11.2c3.3-7.7,6.6-15.6,11.9-22.8c3.4-4.7,7.8-8.7,12.5-11.7c0.7-3.3,1.4-6.6,2-9.9c0.5-2.5,1-5,1.6-7.5
						c-1.2-0.7-2.4-1.4-3.6-2.1c-12.9-8.2-24.1-23.9-20.1-40.6c2.3-9.8,9.8-17,18.6-18.1c9.1-1.1,18.4,4.8,22.5,14.2
						c3.3,7.4,3.1,15.3,2.4,22.1c-0.4,4.8-1.1,9.7-1.9,14.4c3.1,0.6,6.1,0.7,9,0.3c7.2-1.1,13.4-5.7,15.5-11.7
						c4-11.4-6.8-24.1-10.3-27.7c-11.3-12-30.3-21.6-45.3-14.3l-6.9-14.2c10.4-5,22.4-5.5,34.9-1.3c10.4,3.5,20.7,10.3,28.8,18.9
						c4,4.2,9.4,11,12.6,19.4c3.3,8.5,3.7,16.9,1,24.4c-4,11.5-15,20.2-28.1,22.1c-4.6,0.7-9.5,0.5-14.3-0.4
						c-0.4,1.8-0.7,3.6-1.1,5.3c-0.1,0.3-0.1,0.6-0.2,0.9c3.7-0.2,7.3,0.3,10.8,1.5c15,5.2,21.6,21.1,22.7,34.2
						c1.3,14.7-3.2,27.5-12.2,35.2c-6,5.2-14.8,7.5-23,6.1c-7.2-1.3-12.9-5.2-16.2-11c-2.5-4.4-3.2-9.2-3.6-13.4
						c-0.6-6.3-0.5-12.6-0.1-18.8c-2.1,4-3.9,8.2-5.8,12.6c-1.7,4-3.4,8.1-5.5,12.2c-8,15.8-19.4,25.7-32.1,27.8
						C349.2,465.7,347.2,465.9,345.3,465.9z M412.8,395.4c-2.1,11.7-3.4,23.2-2.3,34.7c0.2,2.6,0.6,5.2,1.6,7c1.3,2.2,3.8,3,5.2,3.2
						c3.5,0.6,7.4-0.4,10-2.5c5-4.3,7.5-12.4,6.7-21.8c-0.7-8.4-4.8-18-12.2-20.6C418.8,394.4,415.8,394.5,412.8,395.4z
						 M399.4,322.2c-0.1,0-0.2,0-0.3,0c-2.1,0.2-4.3,2.9-5.1,6c-2,8.4,4.2,17.1,11.4,22.3c0.5-3.1,0.8-6.2,1.1-9.2
						c0.5-5,0.6-10.2-1.2-14.3C404.1,324.4,401.5,322.2,399.4,322.2z"/>
					<path class="st3" d="M424,262.5c-17.8,0-43-8.8-58.1-26.2l11.9-10.3c11.4,13.1,32.1,20.7,46.1,20.7c0.4,0,0.8,0,1.1,0
						c5.9-0.2,10.1-1.3,12.8-3.5c2.5-2.1,4.4-5.7,6-9.3c1.4-3.2,2.4-5.9,2.5-8.3c0.2-5.7-4.6-11-7.5-13.6
						c-15.8-14.5-42.5-15.9-59.7-3.1l-9.5-12.6c23.3-17.5,58.4-15.7,79.8,4.1c8.4,7.8,12.9,17,12.5,25.9c-0.2,5.2-2,9.8-3.9,14.1
						c-2.4,5.3-5.3,10.9-10.4,15c-5.5,4.5-12.8,6.8-22.3,7.1C425.1,262.5,424.5,262.5,424,262.5z"/>
					<path class="st3" d="M366.8,188.2c-8.5,0-16.8-1.8-24.3-5.5l6.9-14.2c18.2,8.9,42.9,2,53.8-15c5.1-8,7.8-18.2,7.7-29.5
						c0-6.6-1-12.1-3-16.8c-3.1-7.3-9.7-13.3-18.2-16.4c-9-3.3-18.5-2.9-26.1,0.9c-6.1,3.1-11,8.3-14.2,14.4
						c10.4,0.9,19.1,3.9,26,8.9c11.4,8.2,16.9,22.4,13.4,34.5c-2,6.9-6.8,12.3-12.8,14.4c-3.9,1.3-7.7,1.2-11.2,0.8
						c-7.2-0.7-17.7-2.6-25-10.3c-2.6-2.7-4.8-6.2-6.6-10.5c-2.8-6.6-4-13.6-3.9-20.5c-1.5,0.6-2.8,1.2-3.9,2.1
						c-5.2,3.7-8.1,10.7-11.2,18.8l-14.8-5.6c3.1-8.1,7.3-19.3,16.8-26.1c5.1-3.6,10.8-5.4,16.1-6.2c4.2-12.3,12.7-22.9,24.3-28.9
						c11.5-5.9,25.6-6.5,38.7-1.7c12.6,4.6,22.5,13.8,27.3,25.1c2.8,6.6,4.1,14,4.2,22.8c0.1,14.4-3.4,27.5-10.2,38.1
						c-7.4,11.5-19.2,20-33.2,23.9C377.9,187.4,372.3,188.2,366.8,188.2z M345.2,121.7c-0.4,5.5,0.4,11.1,2.6,16.2
						c1.1,2.5,2.2,4.4,3.5,5.7c2.9,3,7.7,4.7,15.2,5.5c1.1,0.1,3.3,0.3,4.4-0.1c1.1-0.4,2.3-2,2.9-3.9c1.9-6.5-2.3-13.6-7.5-17.3
						C361.2,124.2,354.1,122.1,345.2,121.7z"/>
					<path class="st3" d="M282.4,618.4l-4.6-0.9c-6.7-1.3-12.1-5.7-15.1-12.4c-2.1-4.7-2.8-10.2-2.2-15.5c-2.1-1.3-4.2-2.6-6.3-4.1
						c-9.1-6.7-15.9-16.7-19.5-28.4c-0.1,3.8,0,7.6,0,11.5c0.3,11.8,0.8,31.7-14.4,40.7l-8.1-13.5c6.7-4,7-15.9,6.7-26.8
						c-0.4-15.9,0.5-32,2.6-47.8c0.4-3.2,1.2-9.2,5.7-13.4c3.3-3.2,7.5-4.3,11-4.8c1.3-3.5,2.8-7.1,4.5-10.7
						c1.7-3.5,7.9-15.3,18.6-19.1c4.8-1.7,9.7-1.4,14.1,0.8c5.6,2.8,9.1,8.1,9.6,14.7l0.8-2.4c2.7-8.2,9.2-14.6,18.2-18.1
						c7.8-3,16.9-3.5,25-1.2c14.4,4,25.4,14.4,34.4,23.2c8.4-8.2,13.6-19.9,13.4-31.5c-0.2-15.7-10.3-31.3-24.5-38l6.7-14.3
						c19.7,9.3,33.2,30.2,33.6,52c0.2,16.4-7,32.5-18.8,43.7c1.3,2.2,2.5,4.7,3.1,7.4c1.7,6.9,0.2,14.1-4.3,20.4
						c-5.7,8-15.5,13.4-25.5,14.2c-6.6,0.5-12-0.8-16-4.1c-3.9-3.1-6.1-7.8-6.3-13.1c-0.2-6.5,2.7-13.5,7.6-18.1
						c4.7-4.4,10.4-6.9,15.4-9c0.7-0.3,1.3-0.6,2-0.9c-7.4-7.1-15.6-14.2-25.1-16.9c-7.1-2-16.1-0.3-21,4.5
						c9.6,8.5,15.7,21.5,15.9,35c0.3,14.8-6.1,29.8-17.4,41.1c-3.3,3.3-6.9,6.2-10.4,8.9c-4.8,3.8-9.4,7.5-12.5,11.8
						c0.8,0.6,1.5,1.3,2.2,2.1c3.6,3.6,6.2,8.3,7.2,13.2c1.3,6.1,0,11.8-3.5,16.2L282.4,618.4z M250.1,517.7
						c-2.1,7.6-2.9,14.7-2.6,21.5c0.6,14,6.6,26.6,16.1,33.6c0.9,0.6,1.8,1.2,2.7,1.8c4.5-6.3,10.3-10.9,15.9-15.4
						c3.3-2.6,6.4-5.1,9.1-7.8c8.2-8.2,12.9-19.2,12.8-29.6c-0.2-10.9-5.9-21.3-14.6-26.3l-4.4-2.6c-0.8,7.7-5.4,15.2-11.9,19
						C265.8,516.4,257.5,517.2,250.1,517.7z M361,511.2c-0.1,0-0.1,0.1-0.2,0.1c-2.2,1.1-4.4,2.1-6.5,3c-4.2,1.8-8.2,3.5-10.9,6
						c-1.6,1.5-2.7,4-2.6,6c0,0.7,0.2,1.1,0.5,1.4c0.6,0.5,2.1,0.9,4.8,0.6c5.3-0.4,10.9-3.5,13.9-7.7c1.8-2.5,2.4-4.9,1.8-7.3
						C361.6,512.5,361.4,511.8,361,511.2z M267.6,487.9c-0.3,0-0.6,0.1-1,0.2c-3.1,1.1-7.1,5.6-9.5,10.9c-0.4,0.8-0.7,1.5-1.1,2.3
						c3.4-0.5,6.5-1.3,9.1-2.9c2.4-1.5,4.4-5.2,4.3-8.2c-0.1-1.6-0.6-1.9-0.9-2C268.3,488,268,487.9,267.6,487.9z"/>
				</g>
				<path class="st3" d="M233.8,118.6l-5.8-5.7c-6.9-6.8-13.3-14.2-19.1-21.9c-5.7-7.7-11.5-17-11-28.1v0c0.4-9.3,6-19.9,14.1-26.9
					c6.7-5.7,14.4-8.5,21.7-7.7c18.9,2,30.2,18.7,29.6,43.4c-0.1,3.9-0.2,8.4-1.8,12.9c-2.2,6.5-6.7,11.3-10.3,15.2L233.8,118.6z
					 M213.7,63.6c-0.3,6.1,3.8,12.5,7.9,18c3.7,4.9,7.7,9.7,11.9,14.3l6.4-6.8c2.8-3,5.8-6.2,6.9-9.5c0.8-2.3,0.8-5.2,0.9-8.3
					c0.2-7.7-0.9-25.8-15.5-27.3c-3-0.3-6.4,1.1-9.8,4C217.5,52.2,214,58.6,213.7,63.6L213.7,63.6z"/>
			</g>
			<g>
				<path class="st4" d="M142.9,225.2c0.4-2.2,0.9-4.4,0.5-6.6c-0.5-2.7-2.4-4.9-4-7.2c-6.1-8.8-7.9-20.3-4.8-30.5
					s11-18.8,20.9-22.8c2.2-0.9,4.7-1.6,6.4-3.3c1.4-1.4,2.1-3.3,2.8-5.2c3.2-9.2,5.7-19,11.9-26.5c4.9-6,11.9-10,16.3-16.4
					c6.9-9.8,6-24.4-2.2-33.2c-1.6-1.7-3.5-3.4-4-5.7c-0.9-3.8,2.8-7.5,6.6-8.1c3.9-0.6,7.7,0.8,11.3,2.2c-3.2,3.7,0.5,9.9,5.3,11.1
					c4.8,1.2,9.7-0.7,14.4-2c18.3-5,40.6,0.7,49.8,17.2c3.7,6.6,5.3,14.7,10.9,19.8c5,4.6,12.1,5.7,18.6,7.9
					c20.8,7.2,34.9,26.8,43.3,47.1c8.8,21.3,12.2,47.3-1.2,66c-2.8,3.9-6.4,7.8-6.3,12.6c0.1,2.2,0.9,4.3,1.6,6.3
					c3.8,11.4,2.1,24.7-5.1,34.3c-7.2,9.6-19.9,15.1-31.7,13c-12.7-2.3-22.4-12.2-33.7-18.5c-16.1-8.9-35.4-10-53.8-9.4
					c-16.2,0.6-40,6.4-55.2-1.5C148.5,259.5,140.6,239.2,142.9,225.2z"/>
				<path class="st5" d="M190.7,418.1c-7.8,25.5-5.7,53.4-1.8,80.1c0.4,2.7,0.3,6.1-0.9,8.1c-0.8,1.3-2.7,0.9-3-0.7
					c-1-4.8-2-9.6-3-14.4c0-0.1-0.2-0.1-0.2,0l2.2,15.5c0.1,1-0.9,1.7-1.7,1.1c-4.9-3.9-7.2-9.9-6.9-17l2.3,16.7
					c0.1,0.7-0.6,1.3-1.2,1c-4-2.1-5.9-7.6-6.8-12.4c-9-44.5,3.6-99,24.3-137.6c0-0.1,0.1-0.1,0.1,0c9.5,9.6,17.2,11.5,11.3,25.6
					C200.6,395.5,194.4,406,190.7,418.1z"/>
				<path class="st5" d="M239.4,347.3c0.9-6.5-1-13.5,1.3-19.6c3.4-8.8,13.8-12.1,21.8-17c19.1-11.5,27.9-36.6,23-58.4
					c-4.9-21.8-21.9-39.7-42.3-48.8c-19-8.5-34.9-7.8-51.1,5.3c-13.3,10.8-22.4,26.9-24.1,44.1c-2.3,23.8,9.8,48.3,30.1,60.9
					c9.9,6.2,22.9,11.6,24.3,23.2c0.8,7.3-2.7,17.1,3.7,20.6"/>
				<path class="st5" d="M239.4,347.3"/>
				<path class="st5" d="M226.2,357.6"/>
				<path class="st5" d="M259.4,382.5c7.6,18.7,15.2,37.4,22.8,56.1c3.6,8.8,7.2,17.7,8.6,27c1.5,9.9,0.6,20-1,29.8
					c-0.3,1.5-0.6,3.2-1.6,4.3c-1.4,1.6-3.7,1.9-5.8,2.2c-24.4,3.1-50.8,5.9-72.1-6.2c-2.4-1.3-4.7-2.9-6.1-5.3
					c-1.9-3.3-1.5-7.4-1.2-11.2c2.5-30.3-7.1-60.6-5.6-91c0.8-17,6.1-35.1,18.9-46.1c1.6-1.3,5.7-0.5,6.1,1.5"/>
				<path class="st5" d="M240.5,343.3c1.3-0.9,3.5-0.7,5.3-0.3c14.3,2.5,27.8,12.7,37,24.9"/>
				
					<ellipse transform="matrix(3.362863e-02 -0.9994 0.9994 3.362863e-02 -62.8371 447.8823)" class="st6" cx="200.2" cy="256.4" rx="2.9" ry="0.8"/>
				
					<ellipse transform="matrix(3.362863e-02 -0.9994 0.9994 3.362863e-02 -42.5227 470.3574)" class="st6" cx="222" cy="257.2" rx="2.9" ry="0.8"/>
				<circle class="st7" cx="242.5" cy="267.3" r="4.8"/>
				<circle class="st7" cx="182.3" cy="265.3" r="4.8"/>
				<path class="st4" d="M190.1,224.7c-6.2,5.1-13.5,8.7-19.4,14.1c-5.9,5.4-10.4,13.5-8.4,21.3c1.1,4.4,4.1,8,5.9,12.1
					c3.1,7.1,2.3,15.7-2,22.2c-2.9,4.3-7.7,7.8-12.9,7.4c-5.2-0.4-9.9-5.8-8.1-10.7c1.2-3.4,4.9-5.4,8.5-6c4-0.7,8.4-0.2,11.6,2.4
					c3.2,2.5,4.8,7.3,2.9,10.9c-1.2,2.3-3.4,3.8-5.3,5.6c-4.1,4-6.5,10.1-5.4,15.7c1.1,5.7,6,10.6,11.8,11
					c5.8,0.4,11.6-4.6,11.5-10.3c-3,2.8-8.1,3-11.4,0.5c-3.3-2.5-4.3-7.5-2.3-11.1c1.1-2,2.9-3.5,4.2-5.3c4.7-6.5,2.1-16.2-3.8-21.6
					c-5.4-5-13.8-7-20.5-3.9c-6.7,3.1-10.5,11.9-7.2,18.4c3.2,6.4,11.8,8.7,18.5,6.3c6.7-2.4,11.6-8.3,14.6-14.8
					c4.6-10.1,4.5-23.6-4.1-30.6c-5-4.1-12.1-5.4-16.5-10.1c-5.1-5.5-5-14.4-1.6-21.2c3.4-6.7,9.4-11.7,15.4-16.2
					c7.3-5.4,20.1-13.8,29.3-7.7C205.1,209.3,196.5,219.5,190.1,224.7z"/>
				<path class="st4" d="M262.1,237c6.2,5.1,13.5,8.7,19.4,14.1c5.9,5.4,10.4,13.5,8.4,21.3c-1.1,4.4-4.1,8-5.9,12.1
					c-3.1,7.1-2.3,15.7,2,22.2c2.9,4.3,7.7,7.8,12.9,7.4c5.2-0.4,9.9-5.8,8.1-10.7c-1.2-3.4-4.9-5.4-8.5-6c-4-0.7-8.4-0.2-11.6,2.4
					c-3.2,2.5-4.8,7.3-2.9,10.9c1.2,2.3,3.4,3.8,5.3,5.6c4.1,4,6.5,10.1,5.4,15.7s-6,10.6-11.8,11c-5.8,0.4-11.6-4.6-11.5-10.3
					c3,2.8,8.1,3,11.4,0.5c3.3-2.5,4.3-7.5,2.3-11.1c-1.1-2-2.9-3.5-4.2-5.3c-4.7-6.5-2.1-16.2,3.8-21.6c5.4-5,13.8-7,20.5-3.9
					c6.7,3.1,10.5,11.9,7.2,18.4c-3.2,6.4-11.8,8.7-18.5,6.3c-6.7-2.4-11.6-8.3-14.6-14.8c-4.6-10.1-4.5-23.6,4.1-30.6
					c5-4.1,12.1-5.4,16.5-10.1c5.1-5.5,5-14.4,1.6-21.2c-3.4-6.7-9.4-11.7-15.4-16.2c-7.3-5.4-20.1-13.8-29.3-7.7
					C247.1,221.6,255.7,231.8,262.1,237z"/>
				<path class="st8" d="M171.2,166.9c7.5-13.9,20.8-24.5,35.9-28.6c4.9-1.3,10-2.1,14.2-4.8c3.7-2.5,6.4-6.3,9.3-9.6
					c7.7-8.8,18.7-15,30.3-15.2s23.5,6.3,28.2,17c3.6,8.3,3.4,19.1,10.7,24.4c5.3,3.8,12.4,3.1,18.8,4.2
					c14.5,2.5,26.3,16.4,26.4,31.3c0,3.4-0.4,7,1.1,10.1c1,2.1,2.8,3.6,4.3,5.4c7.1,8.1,7.8,21.1,1.7,29.9
					c-2.6,3.8-8.1,6.8-11.6,3.9c-2.4-2-2.4-5.7-2.3-8.9c0.5-13.2-2.1-28.8-13.8-34.6c-11.7-5.8-28.3,0.5-37.1-9.1
					c-2.4-2.6-3.8-6-6.1-8.7c-5.5-6.3-16.3-6.8-22.3-1c-2.7,2.6-4.4,6.1-6.3,9.3c-8.2,13.7-22.1,23.8-37.6,27.2
					c-6.8,1.5-14.2,1.8-20.2,5.5c-2.6,1.5-4.8,3.7-7.6,4.9c-9.4,4.3-19-3.9-21.7-12.3C161.4,194.4,165.2,178,171.2,166.9z"/>
				<path class="st8" d="M182.6,200.5c2.3,8.1,10.6,13.2,18.8,14.8c8.3,1.6,16.7,0.3,25.1-0.2c8.4-0.5,17.3-0.2,24.5,4.2
					c6,3.6,10.2,9.9,11.4,16.8c0.8,4.6-0.3,10-4.3,12.2c-4,2.2-10.4-2.2-8.3-6.3c-3.9,0.6-5,6.2-3.2,9.7c2.9,5.5,10,7.9,16.1,6.5
					s11-5.9,14.4-11.1c5-7.8,7-17.7,4.7-26.7c-2.3-9-9.1-16.9-17.9-19.9c-1.8-0.6-3.8-1.1-5.3-2.3c-1.1-0.9-1.9-2.1-2.7-3.3
					c-5.1-7.1-12.8-12.6-21.4-13.4c-8.6-0.8-18,3.9-21.1,12.1c-0.7,1.8-1.1,3.8-2.4,5.2c-1.3,1.4-3.9,1.9-5,0.3
					c-3.3-3.6-3.8-9.4-1.1-13.5c2.7-4.1,8.2-6,12.8-4.4c2.2,0.8,4.6,2.3,6.8,1.4c2.4-1,2.8-4.6,1.4-6.8c-1.5-2.2-4.1-3.3-6.6-4.1
					C199.7,165.3,175.5,175.7,182.6,200.5z"/>
				<path class="st9" d="M291.4,129.2c-4.6-4.2-10.7-6.7-16.9-7c0,6.8,0.9,13.6,2.8,20.2c0.5,1.8,1.2,3.7,3.4,4.4
					c2.1,0.6,4.4-0.2,5.9-1.8c3-3.4,2.7-7.9,3.6-12c1.6-7.8,7.8-14.6,15.4-16.9c3.3,8.3,5.2,17.2,5.4,26.2c-2.7,1.4-5.7-1-7.8-3.2
					c-3.8-4.1-7.6-8.1-11.5-12.2"/>
				<path class="st9" d="M161.2,153.5c0.7-6.2-0.8-12.6-4.3-17.8c-5.5,4-10.5,8.8-14.7,14.1c-1.2,1.5-2.3,3.1-1.5,5.3
					c0.7,2.1,2.7,3.5,5,3.7c4.5,0.4,8-2.4,11.8-4.2c7.3-3.3,16.4-2.3,22.8,2.5c-4.8,7.6-10.9,14.4-18,19.8c-2.7-1.3-2.6-5.2-2-8.2
					c1-5.5,2.1-11,3.1-16.5"/>
				<path class="st9" d="M245.9,185.5c-4.6-4.2-10.7-6.7-16.9-7c0,6.8,0.9,13.6,2.8,20.2c0.5,1.8,1.2,3.7,3.4,4.4
					c2.1,0.6,4.4-0.2,5.9-1.8c3-3.4,2.7-7.9,3.6-12c1.6-7.8,7.8-14.6,15.4-16.9c3.3,8.3,5.2,17.2,5.4,26.2c-2.7,1.4-5.7-1-7.8-3.2
					c-3.8-4.1-7.6-8.1-11.5-12.2"/>
				<path class="st9" d="M204.7,78.7c-4.6-4.2-10.7-6.7-16.9-7c0,6.8,0.9,13.6,2.8,20.2c0.5,1.8,1.2,3.7,3.4,4.4
					c2.1,0.6,4.4-0.2,5.9-1.8c3-3.4,2.7-7.9,3.6-12c1.6-7.8,7.8-14.6,15.4-16.9c3.3,8.3,5.2,17.2,5.4,26.2c-2.7,1.4-5.7-1-7.8-3.2
					c-3.8-4.1-7.6-8.1-11.5-12.2"/>
				<path class="st10" d="M193,409.5c0.8,3.4,2.4,6.4,3.6,9.7c1.8,4.8,2.6,9.8,3.4,14.8c0.6,3.6,1.2,7.4,0.1,11
					c-2.5,8.6-13.9,13.2-14.9,22.2c-0.3,3.1,0.7,6.2,0,9.2c-0.8,3.5-3.8,6-6.1,8.7c-7.7,8.8-10.5,21.5-7.1,32.6
					c21.2,7.4,44.5,4,66.9,5.4c9.9,0.6,19.8,2.1,29.7,1.5c12.5-0.8,24.4-5.1,36.1-9.3c0.3-5.7-5-10.2-5.8-15.9
					c-0.5-3.7,1-7.3,2.2-10.9c2.3-6.9,3.6-14.1,3.8-21.4c0-1.7,0-3.4-0.5-5.1c-0.6-2.1-1.8-3.9-3.1-5.7c-9.3-13.6-18.7-27.2-28-40.8
					c-1-1.5-2.1-3.1-2.7-4.8c-0.7-2-0.7-4.2-1.1-6.3c-0.9-4.2-3.4-7.8-4.7-11.9c-1.8-5.6-1-11.7-1.9-17.5
					c-0.9-5.8-4.5-12.1-10.5-12.9c-5.1-0.7-9.8,3-12.9,7.1c-3.1,4.1-5.5,8.8-9.6,11.9c-4.1,3.1-10.9,3.6-13.9-0.5
					c-1.7-2.4-1.8-5.8-3.9-7.7c-1.4-1.2-3.3-1.7-5.1-2c-3.4-0.6-8.9-2.7-9.8,1.4c-0.8,3.8,0.1,8.1-0.7,12.1
					C194.8,392.5,191,401,193,409.5z"/>
				<path class="st10" d="M205.5,345.7c-2.4-0.3-4.8-1-7.3-1c-3,0-5.9,0.9-8.7,1.7c-2.9,0.9-6.4,2.6-6.2,5.7
					c0.1,0.7,0.3,1.6-0.2,2.1c-0.3,0.3-0.8,0.4-1.3,0.5c-4.3,0.6-8.8,0.5-13.1,1.3c-4.3,0.8-8.6,2.7-11.2,6.3s-2.5,9.1,0.8,11.9
					c0.8,0.6,1.7,1.1,2.7,1.2c2.5,0.2,4.5-2.1,6.7-3.3c0.8-0.5,1.8-0.8,2.7-0.5c2,0.6,2.4,3.5,4.2,4.6c1.8,1.1,4.1-0.3,5.5-1.9
					s2.4-3.6,4.3-4.5c-0.3,2.8-0.4,6,1.6,7.9c1.5,1.5,3.9,1.8,5.9,1.2c2-0.6,3.7-2.1,5-3.7c1.8-2.3,3.1-5.1,3.1-8
					c1,2.5,3.8,3.7,6.5,4.2c3.8,0.6,8.2-0.1,10.3-3.3c1-1.6,1.2-3.5,1.5-5.3c0.4-3.4,3.7-14,1.5-16.9c-1.4-1.8-4-0.4-6-0.2
					C211,346.1,208.4,345.7,205.5,345.7z"/>
				<path class="st5" d="M286.3,416.4c9,22.6,9.9,48.4,9.3,73.4c-0.1,2.5,0.3,5.6,1.6,7.3c0.8,1.1,2.3,0.5,2.5-1
					c0.4-4.5,0.7-9,1.1-13.6c0-0.1,0.2-0.1,0.2,0l-0.3,14.5c0,1,0.9,1.4,1.5,0.8c3.7-4.1,5.1-10,4.1-16.4l-0.3,15.6
					c0,0.7,0.6,1.1,1.1,0.7c3.1-2.4,4.1-7.6,4.5-12.2c3.1-41.9-12.6-90.6-33.6-123.7c0,0-0.1,0-0.1,0c-6.9,9.9-13.2,12.6-6.9,24.8
					C275.9,396.8,282,405.8,286.3,416.4z"/>
				<path class="st11" d="M228.6,359.3c1.6,4.4,6.3,7.6,11,7.2c1.7-0.1,3.3-0.7,4.9-1.3c2.6-0.9,5.2-1.9,7.2-3.7
					c2.9-2.7,5.6-9.3,3.3-13.1c-1.7-2.8-8.9-4.3-12-5.1C234.1,340.9,225.4,350.6,228.6,359.3z"/>
				<path class="st10" d="M262.6,378.8c-1.8-2.3-3.1-5.1-3.1-8c-1,2.5-3.8,3.7-6.5,4.2c-3.8,0.6-8.2-0.1-10.3-3.3
					c-1-1.6-1.2-3.5-1.5-5.3c-0.4-3.4-3.7-14-1.5-16.9c1.4-1.8,4-0.4,6-0.2c2.9,0.3,5.5-0.1,8.4-0.1c2.4-0.3,4.8-1,7.3-1
					c3,0,5.9,0.9,8.7,1.7c2.9,0.9,6.4,2.6,6.2,5.7c-0.1,0.7-0.3,1.6,0.2,2.1c0.3,0.3,0.8,0.4,1.3,0.5c4.3,0.6,8.8,0.5,13.1,1.3
					c4.3,0.8,8.6,2.7,11.2,6.3s2.5,9.1-0.8,11.9c-0.8,0.6-1.7,1.1-2.7,1.2c-2.5,0.2-4.5-2.1-6.7-3.3c-0.8-0.5-1.8-0.8-2.7-0.5
					c-2,0.6-2.4,3.5-4.2,4.6c-1.8,1.1-4.1-0.3-5.5-1.9c-1.4-1.6-2.4-3.6-4.3-4.5c0.3,2.8,0.4,6-1.6,7.9c-1.5,1.5-3.9,1.8-5.9,1.2
					C265.6,381.9,264,380.4,262.6,378.8"/>
				<path class="st12" d="M203.3,424.8c4,0.2,7.9-1.5,11.4-3.6c3.5-2.1,6.7-4.5,10.4-6.1c4.3-1.8,9.2-2.3,13.8-1.4
					c2.4,0.5,4.7,1.3,7.1,1.1c4.3-0.5,7.7-4.3,12-4.4c2.1,0,4.1,0.8,6.1,1.1c2.1,0.2,4.6-0.4,5.3-2.4c0.3-0.7,0.3-1.5,0.7-2.1
					c1.3-1.9,4.2,0.1,5.6,2c1.5,2.2,3,4.4,4.5,6.6c2.6,3.7,5.2,8.6,2.9,12.5c-1.8,3-5.7,3.9-9.2,4.8c-8.7,2.4-16.5,7.3-24.6,11.3
					c-8.1,4-17.2,7.1-26.1,5.5c-7.1-1.3-13.4-5.5-20.5-6.3c-1.6-0.2-3.3-0.2-4.8-0.8c-4.3-1.7-5.5-7.3-5.3-11.9
					c0.2-3.3,0.4-7.9,2.4-10.6C197.2,422.6,199.8,424.6,203.3,424.8z"/>
				<path class="st9" d="M229.6,437.8c-6.6-8.5-16.3-14.5-26.8-16.7c-1.9,11.6-2.3,23.5-0.9,35.2c0.4,3.2,0.9,6.7,4.6,8.4
					c3.5,1.7,7.6,1,10.6-1.5c6-4.9,6.9-12.7,9.5-19.5c5-12.9,17.4-22.7,31.1-24.6c3.4,15.2,4,30.9,1.9,46.3c-5,1.6-9.5-3.3-12.4-7.7
					c-5.4-8-10.8-16-16.1-24.1"/>
			</g>
			<path class="st13" d="M302.4,568.1H169.8c-6.6,0-12-5.4-12-12v-32.3c0-6.6,5.4-12,12-12h132.6c6.6,0,12,5.4,12,12v32.3
				C314.4,562.7,309,568.1,302.4,568.1z"/>
			<g>
				<path class="st14" d="M168,535.3h3.8c0.3,0.7,0.6,1.3,0.8,1.7c0.2,0.4,0.5,1,0.8,1.6l2.5,4.6c0.6,1.1,1.1,1.9,1.5,2.5
					c0.3-0.6,0.9-1.6,1.6-3l2.3-4.3c0.7-1.2,1.1-2.3,1.5-3.2h3.8v0.1l-2.4,0.3c0,0.5-0.1,1-0.1,1.6c0,0.5,0.1,1.7,0.2,3.3
					c0.1,1.7,0.2,3.3,0.4,4.7c0.1,1.5,0.3,2.3,0.4,2.6l1.6,0.3v0.1h-6.1v-0.1l2.1-0.3c0-0.4,0.1-1.1,0.1-1.8c0-0.4,0-1,0-1.6
					c0-0.7-0.1-1.5-0.1-2.3c-0.1-0.9-0.1-1.7-0.2-2.4c-0.1-0.7-0.2-1.2-0.2-1.5c-0.3,0.4-0.6,1-0.9,1.5l-3.5,6.5
					c-0.5,1.1-0.9,1.8-1.1,2.3h-0.1c-0.1-0.3-0.3-0.7-0.6-1.3c-0.3-0.6-0.5-1.1-0.7-1.4l-2.9-5.4c-0.5-0.9-0.9-1.6-1.2-2.2
					c0,0.2-0.1,0.8-0.2,1.6c-0.1,0.8-0.2,1.8-0.2,2.7c-0.1,1-0.1,1.8-0.2,2.5c0,0.7-0.1,1.2-0.1,1.6c0,0.3,0,0.7,0,1.2l1.7,0.3v0.1
					H168v-0.1l1.7-0.3c0.1-0.2,0.2-1.1,0.3-2.5c0.1-1.4,0.3-2.8,0.4-4.3c0.1-1.5,0.2-2.5,0.2-3.2c0-0.2,0-0.6,0-1.1
					c-0.2-0.4-0.5-0.7-1-1.1L168,535.3L168,535.3z M170.2,535.6l6.4,11.9l0.3-0.6l-6.1-11.2H170.2z M183.2,536.2l-0.5,1l0.8,10.7
					h0.6L183.2,536.2L183.2,536.2z"/>
				<path class="st14" d="M194.7,535.1l3.8,9.2c0.5,1.2,1.1,2.4,1.7,3.6l1.5,0.3v0.1h-6.3v-0.1l2.4-0.3c-0.1-0.6-0.3-1.2-0.5-1.9
					c-0.2-0.7-0.5-1.3-0.8-1.8H191c-0.2,0.6-0.4,1.1-0.6,1.5c-0.1,0.4-0.3,0.8-0.4,1.2c-0.1,0.4-0.2,0.8-0.3,1l2.3,0.3v0.1h-5v-0.1
					l1.6-0.3c0.4-0.7,0.8-1.4,1.1-2.3l4.1-10.5H194.7z M193.7,537.6c-0.2,0.3-0.4,0.8-0.6,1.4c-0.3,0.6-0.5,1.2-0.7,1.7
					c-0.2,0.5-0.4,1.1-0.7,1.7c-0.2,0.6-0.4,1-0.5,1.2c0.3,0,0.8,0.1,1.2,0.1c0.5,0,0.9,0,1.3,0c1,0,1.9,0,2.5-0.1
					c-0.2-0.7-0.6-1.6-1.1-2.9C194.7,539.5,194.2,538.5,193.7,537.6z M193.9,536.9l4.6,11h0.6l-4.9-11.8L193.9,536.9z"/>
				<path class="st14" d="M204.4,543v-2.7c0-0.7,0-1.5-0.1-2.4c0-0.9-0.1-1.6-0.2-2.1l-2.1-0.3v-0.1h5.8c1.1,0,2,0.2,2.7,0.7
					c0.7,0.4,1.1,0.9,1.4,1.5c0.3,0.6,0.4,1.1,0.4,1.5c0,0.6-0.1,1.1-0.4,1.5c-0.3,0.4-0.6,0.8-1,1.1c-0.4,0.3-0.8,0.4-1.3,0.5v0
					c0.4,0.2,0.7,0.4,1,0.6c0.2,0.2,0.4,0.5,0.7,0.9c0.3,0.4,0.6,0.9,1.1,1.5s0.8,1.2,1.1,1.5c0.3,0.4,0.5,0.7,0.7,0.9
					c0.5,0.5,1,0.7,1.5,0.7v0.1h-1.5c-0.9,0-1.6-0.3-2.1-0.8c-0.2-0.2-0.4-0.4-0.6-0.7c-0.2-0.3-0.5-0.7-0.9-1.4
					c-0.4-0.6-0.8-1.1-1.1-1.6c-0.3-0.4-0.5-0.7-0.7-0.9c-0.3-0.3-0.5-0.4-0.7-0.5c-0.2-0.1-0.5-0.1-0.9-0.1c-0.4,0-0.7,0-0.9,0.1
					c0,0.3-0.1,0.7-0.1,1.1v1.6c0,0.7,0.1,1.6,0.2,2.7l2.2,0.3v0.1h-6.6v-0.1l2.1-0.3c0.1-0.6,0.2-1.4,0.2-2.5
					C204.4,544.3,204.4,543.5,204.4,543z M204.7,535.6v12.3h0.6v-12.3H204.7z M206.2,538.9v1.5c0,0.5,0,1,0.1,1.4
					c0.2,0,0.6,0.1,1,0.1c0.8,0,1.4-0.1,1.8-0.4c0.5-0.3,0.8-0.6,1-1c0.2-0.4,0.3-0.9,0.3-1.4c0-0.5-0.1-0.9-0.3-1.4
					c-0.2-0.4-0.4-0.8-0.7-1.1c-0.3-0.3-0.6-0.5-1-0.7c-0.4-0.2-0.7-0.2-1.1-0.2c-0.3,0-0.6,0-0.8,0.1c-0.1,0.3-0.1,0.8-0.1,1.5
					C206.2,538,206.2,538.5,206.2,538.9z M207.1,535.5L207.1,535.5c0.8,0.1,1.5,0.3,2,0.7c0.5,0.4,0.9,0.8,1.2,1.4
					c0.2,0.5,0.4,1.1,0.4,1.6c0,1.2-0.5,2-1.5,2.6l0.1,0c0.6-0.2,1.1-0.5,1.5-1c0.4-0.5,0.6-1.1,0.6-1.8c0-0.5-0.1-1-0.3-1.5
					c-0.2-0.4-0.5-0.8-0.9-1.1c-0.4-0.3-0.8-0.5-1.2-0.7c-0.4-0.2-0.9-0.2-1.4-0.2H207.1z M209.4,543.3l1.9,2.8
					c0.5,0.7,0.9,1.1,1.2,1.4c0.4,0.3,0.8,0.4,1.3,0.4v-0.1c-0.5-0.1-1.1-0.7-1.8-1.8l-1.5-2.2c-0.3-0.5-0.6-0.9-0.9-1.1
					c-0.3-0.2-0.6-0.4-1.1-0.5l0,0.1C208.8,542.5,209.1,542.9,209.4,543.3z"/>
				<path class="st14" d="M222.7,548.3H216v-0.1l2.2-0.3c0.1-0.7,0.2-1.6,0.2-2.7c0.1-1,0.1-2.1,0.1-3.1v-1.5c0-2-0.1-3.7-0.3-4.9
					l-2.2-0.3v-0.1h6.7v0.1l-2.2,0.3c-0.1,0.6-0.1,1.1-0.1,1.6c0,0.5-0.1,1-0.1,1.7c0,0.7,0,1.3,0,1.9v2c0,0.4,0,1,0,1.8
					c0,0.8,0.1,1.5,0.1,2.1c0,0.6,0.1,1,0.1,1.3L222.7,548.3L222.7,548.3z M218.7,535.6v12.3h0.6v-12.3H218.7z"/>
				<path class="st14" d="M222.9,535.4L222.9,535.4l9.5-0.1l0.2,2.8h-0.1l-0.6-2.2c-0.5,0-1.1-0.1-1.7-0.1c-1.1,0-2.1,0.1-2.8,0.2
					c-0.1,1-0.2,2.1-0.2,3.3c0,0.8,0,1.4,0.1,1.9c0.9,0.1,1.5,0.1,1.8,0.1c0.7,0,1.4,0,2.1-0.1l0.4-1.5h0.2v3.8h-0.2l-0.4-1.6
					c-0.5-0.1-1.1-0.1-1.7-0.1c-0.8,0-1.5,0-2.1,0.1c-0.1,0.7-0.1,1.4-0.1,2c0,0.8,0,1.5,0,2.1c0,0.5,0.1,1,0.1,1.4
					c0.7,0.2,1.7,0.3,2.8,0.3c0.7,0,1.2,0,1.7-0.1l0.7-2.1h0.1l-0.2,2.8h-9.6v-0.1l2.1-0.3c0-0.2,0.1-0.6,0.1-1.1
					c0-0.5,0.1-1.1,0.1-1.7c0-0.6,0.1-1.1,0.1-1.6c0-0.4,0-0.8,0-1.1v-2.2c0-0.3,0-0.7,0-1.2c0-0.5,0-1.1-0.1-1.6
					c0-0.6-0.1-1.1-0.2-1.7L222.9,535.4z M225.6,535.6v12.3h0.6v-12.3H225.6z"/>
				<path class="st14" d="M242.5,540.9l-0.5,1.3h-6.5c-0.4,0-0.8,0.1-1.2,0.3l0.6-1.2h6.3C241.8,541.3,242.2,541.2,242.5,540.9z"/>
				<path class="st14" d="M251.3,535.1l3.8,9.2c0.5,1.2,1.1,2.4,1.7,3.6l1.5,0.3v0.1h-6.3v-0.1l2.4-0.3c-0.1-0.6-0.3-1.2-0.5-1.9
					c-0.2-0.7-0.5-1.3-0.8-1.8h-5.6c-0.2,0.6-0.4,1.1-0.6,1.5c-0.1,0.4-0.3,0.8-0.4,1.2c-0.1,0.4-0.2,0.8-0.3,1l2.3,0.3v0.1h-5v-0.1
					l1.6-0.3c0.4-0.7,0.8-1.4,1.1-2.3l4.1-10.5H251.3z M250.4,537.6c-0.2,0.3-0.4,0.8-0.6,1.4c-0.3,0.6-0.5,1.2-0.7,1.7
					c-0.2,0.5-0.4,1.1-0.7,1.7c-0.2,0.6-0.4,1-0.5,1.2c0.3,0,0.8,0.1,1.2,0.1c0.5,0,0.9,0,1.3,0c1,0,1.9,0,2.5-0.1
					c-0.2-0.7-0.6-1.6-1.1-2.9C251.3,539.5,250.8,538.5,250.4,537.6z M250.5,536.9l4.6,11h0.6l-4.9-11.8L250.5,536.9z"/>
				<path class="st14" d="M258.6,535.4L258.6,535.4l4.5-0.1c0.3,0.4,0.7,0.9,1.1,1.5c0.5,0.6,0.9,1.1,1.3,1.5l4,4.4
					c0.5,0.6,0.9,1,1.2,1.3c0.3,0.3,0.7,0.7,1.1,1.1c0-0.4,0.1-0.8,0.1-1.1c0-0.4,0-0.7,0-1v-3.8c0-1.4-0.1-2.5-0.2-3.4l-2.2-0.3
					v-0.1h5.3v0.1l-2.2,0.3c-0.1,0.8-0.2,1.9-0.2,3.2v9.7h-0.1c-0.9-1.1-1.8-2.2-2.7-3.2l-5.4-6.1c-0.8-0.9-1.5-1.5-2.1-2.1
					c-0.1,0.8-0.1,1.6-0.1,2.3v5.6c0,0.8,0.1,1.6,0.2,2.7l2.3,0.3v0.1h-5.4v-0.1l2.2-0.3c0.1-0.4,0.1-1,0.2-1.8c0-0.8,0-1.5,0-2.1
					v-4.4c0-0.5,0-1,0-1.5c0-0.5-0.1-1-0.1-1.5l-1.2-0.9L258.6,535.4z M261.2,535.6l10.7,11.9v-0.8l-10-11.1H261.2z"/>
				<path class="st14" d="M277,535.3h7.7c0.5,0,0.9,0,1.3,0s0.9-0.1,1.5-0.1l0.2,2.9h-0.1l-0.7-2.1c-0.5-0.1-1.1-0.1-1.7-0.1
					c-0.5,0-1,0-1.4,0.1c-0.4,0.1-0.9,0.1-1.3,0.3c0,0.6-0.1,1.1-0.1,1.6c0,0.5,0,1-0.1,1.4c0,0.4,0,0.7,0,0.9v2.9
					c0,0.8,0,1.6,0.1,2.6c0.1,1,0.1,1.7,0.2,2.3l2.2,0.3v0.1h-6.7v-0.1l2.2-0.3c0.2-1.3,0.3-2.9,0.3-4.7v-3.2c0-0.7,0-1.3,0-2
					c0-0.6-0.1-1.3-0.2-1.8c-0.3-0.1-0.7-0.2-1.2-0.2c-0.5-0.1-0.9-0.1-1.3-0.1c-0.6,0-1.3,0.1-1.9,0.2l-0.6,2.1h-0.1l0.2-2.9
					c0.2,0,0.4,0,0.8,0.1C276.5,535.3,276.8,535.3,277,535.3z M280.8,535.6v12.3h0.6v-12.3H280.8z"/>
				<path class="st14" d="M295.8,535.1c1.3,0,2.4,0.2,3.3,0.6c0.9,0.4,1.7,1,2.3,1.7c0.6,0.7,1,1.4,1.3,2.2s0.4,1.5,0.4,2.2
					c0,0.8-0.2,1.6-0.5,2.4c-0.3,0.8-0.8,1.5-1.4,2.1c-0.6,0.6-1.4,1.2-2.3,1.5c-0.9,0.4-1.9,0.6-3,0.6c-1.6,0-2.9-0.3-4-1
					c-1.1-0.7-1.9-1.5-2.5-2.6c-0.5-1-0.8-2-0.8-3c0-0.9,0.2-1.7,0.5-2.5c0.3-0.8,0.8-1.5,1.5-2.2c0.6-0.6,1.4-1.1,2.3-1.5
					C293.8,535.3,294.8,535.1,295.8,535.1z M295.4,535.4L295.4,535.4c-0.8-0.1-1.6,0.1-2.4,0.4c-0.8,0.3-1.5,0.8-2.1,1.4
					c-0.6,0.6-1.1,1.3-1.4,2s-0.5,1.6-0.5,2.4c0,1,0.3,2,0.8,3c0.6,1,1.3,1.8,2.3,2.4c1,0.6,2.1,0.9,3.3,1V548
					c-1.1-0.1-2.2-0.5-3-1.1c-0.9-0.6-1.6-1.4-2-2.3c-0.5-0.9-0.7-1.9-0.7-2.8c0-0.8,0.1-1.6,0.4-2.3c0.3-0.7,0.7-1.4,1.2-2
					c0.5-0.6,1.1-1.1,1.8-1.4C293.8,535.7,294.6,535.5,295.4,535.4z M295.9,535.7c-0.9,0-1.8,0.2-2.5,0.7s-1.4,1.2-1.9,2.1
					c-0.5,0.9-0.7,2-0.7,3.2c0,1.3,0.2,2.4,0.7,3.4c0.5,0.9,1.1,1.6,1.9,2s1.6,0.7,2.4,0.7c0.7,0,1.3-0.1,1.9-0.4
					c0.6-0.3,1.2-0.6,1.6-1.1s0.9-1.1,1.1-1.8c0.3-0.7,0.4-1.5,0.4-2.4c0-1.2-0.1-2.2-0.4-2.9c-0.3-0.7-0.7-1.4-1.3-1.9
					c-0.5-0.5-1-0.8-1.6-1C297.1,535.8,296.5,535.7,295.9,535.7z M296.3,535.3L296.3,535.3c0.6,0.1,1.2,0.3,1.7,0.5s1.1,0.6,1.6,1.1
					c0.5,0.5,0.9,1.1,1.2,1.9c0.3,0.8,0.5,1.8,0.5,2.9c0,0.8-0.1,1.5-0.3,2.2c-0.2,0.7-0.5,1.3-0.9,1.9c-0.4,0.6-0.9,1.1-1.6,1.4
					c-0.6,0.4-1.4,0.6-2.3,0.7v0.1c0.8,0,1.5-0.2,2.2-0.5c0.7-0.3,1.3-0.7,1.8-1.2c0.5-0.5,0.9-1.2,1.3-2c0.3-0.8,0.5-1.7,0.5-2.6
					c0-1-0.2-2-0.5-2.8c-0.3-0.8-0.8-1.5-1.3-2c-0.6-0.5-1.2-0.9-1.8-1.2C297.7,535.5,297,535.4,296.3,535.3z"/>
			</g>
		</g>
		<path class="st9" d="M231.9,455.1L231.9,455.1c-4.1,0-7.5-3.4-7.5-7.5v-15.9c0-4.1,3.4-7.5,7.5-7.5h0c4.1,0,7.5,3.4,7.5,7.5v15.9
			C239.4,451.8,236,455.1,231.9,455.1z"/>
	</g>
</g>
</svg>
