<?xml version="1.0" encoding="utf-8"?>
<!-- Generator: Adobe Illustrator 25.0.0, SVG Export Plug-In . SVG Version: 6.00 Build 0)  -->
<svg version="1.1" id="Calque_1" xmlns="http://www.w3.org/2000/svg" xmlns:xlink="http://www.w3.org/1999/xlink" x="0px" y="0px"
	 viewBox="0 0 122.6 62.6" style="enable-background:new 0 0 122.6 62.6;" xml:space="preserve">
<style type="text/css">
	.st0{fill:#353535;}
</style>
<g>
	<path class="st0" d="M39.7,11.2C31.9,14.2,26.4,22,25,30.2c-0.5,3-0.5,6.2-1.5,9.1c-1,2.9-3.2,5.7-6.2,6.2
		c-3.8,0.6-7.3-2.8-8.2-6.5c-0.9-3.7,0.3-7.6,1.7-11.2c-7.7,5.4-8.8,18.1-2,24.7s19.5,5.2,24.6-2.7c1.8-2.8,2.8-6.1,4.7-8.8
		c1.9-2.7,5.6-4.8,8.6-3.4c2,0.9,3.1,2.9,4.9,4.1c3.1,2.1,7.7,1.1,10.2-1.7c2.6-2.8,3.4-6.8,3-10.5C63.7,16.7,53.3,6.1,39.7,11.2z"
		/>
	<path class="st0" d="M81.7,11.2c7.9,2.9,13.3,10.7,14.7,19c0.5,3,0.5,6.2,1.5,9.1c1,2.9,3.2,5.7,6.2,6.2c3.8,0.6,7.3-2.8,8.2-6.5
		s-0.3-7.6-1.7-11.2c7.7,5.4,8.8,18.1,2,24.7S93.1,57.9,88,50c-1.8-2.8-2.8-6.1-4.7-8.8s-5.6-4.8-8.6-3.4c-2,0.9-3.1,2.9-4.9,4.1
		c-3.1,2.1-7.7,1.1-10.2-1.7c-2.6-2.8-3.4-6.8-3-10.5C57.7,16.7,68.1,6.1,81.7,11.2z"/>
</g>
</svg>
