<?xml version="1.0" encoding="utf-8"?>
<!-- Generator: Adobe Illustrator 16.0.0, SVG Export Plug-In . SVG Version: 6.00 Build 0)  -->
<!DOCTYPE svg PUBLIC "-//W3C//DTD SVG 1.1//EN" "http://www.w3.org/Graphics/SVG/1.1/DTD/svg11.dtd">
<svg version="1.1" id="Calque_1" xmlns="http://www.w3.org/2000/svg" xmlns:xlink="http://www.w3.org/1999/xlink" x="0px" y="0px"
	 width="139px" height="185px" viewBox="0 0 139 185" enable-background="new 0 0 139 185" xml:space="preserve">
<g>
	<path fill-rule="evenodd" clip-rule="evenodd" fill="#846474" d="M90.154,54.111c1.512,0.001,3.041-0.197,4.512,0.349
		c1.941-0.075,2.878,1.384,3.928,2.627c0.472,0.559,0.748,1.264,1.063,1.932c0.645,1.638,0.871,3.334,0.685,5.082
		c-0.062,0.568-0.214,1.17-0.853,1.292c-0.621,0.118-0.764-0.509-0.988-0.917c-0.355-0.648-0.675-1.318-1.09-1.932
		c-0.42-0.746-1.023-1.333-1.653-1.898c-2.446-2.195-5.401-2.952-8.592-3.05c-0.355-0.071-0.711-0.143-1.066-0.214
		c0.401-0.469,0.175-1.198,0.75-1.629C87.854,54.997,89.021,54.596,90.154,54.111z"/>
	<path fill-rule="evenodd" clip-rule="evenodd" fill="#846474" d="M69.949,159.692c-0.25,0-0.499,0-0.75,0
		c-0.839-0.406-1.434-1.063-1.905-1.849c-1.288-1.929-1.104-4.214-1.543-6.35c-0.081-0.396,0.156-0.872-0.291-1.162
		c-0.936,0.595-0.936,1.863-1.82,2.48c-0.628,0.391-0.994,0.126-1.223-0.483c-0.259-0.868-0.708-1.683-0.771-2.605
		c-0.071-1.021-0.675-0.768-1.273-0.545c-1.19,0.313-2.375,0.704-3.599,0.148c-0.284-0.13-0.622-0.275-0.672-0.581
		c-0.075-0.45,0.34-0.606,0.675-0.732c0.749-0.282,1.469-0.622,2.181-0.98c0.903-0.447,1.58-1.127,2.054-2.014
		c1.375-2.146,1.275-4.65,1.695-7.025c0.153-0.866,0.333-1.712,0.681-2.521c1.28-2.968,2.945-3.562,5.878-2.1
		c0.17,0.085,0.357,0.089,0.541,0.026c0.642-0.327,1.168-0.871,1.912-1.001c2.26,0.072,3.389,1.49,4.076,3.432
		c0.624,1.764,0.675,3.635,1.021,5.449c0.255,1.337,0.448,2.686,1.286,3.82c0.984,1.338,2.171,2.383,3.844,2.799
		c0.435,0.106,1.138,0.144,1.052,0.806c-0.07,0.548-0.702,0.642-1.172,0.776c-0.81,0.233-1.637,0.143-2.389-0.159
		c-1.273-0.511-1.994-0.249-2.19,1.193c-0.065,0.482-0.319,0.941-0.462,1.421c-0.274,0.59-0.466,1.311-1.389,0.92
		c-0.895-0.661-1.059-1.919-2.167-2.643c-0.363,1.014-0.128,1.979-0.185,2.914c-0.133,1.312-0.296,2.615-0.848,3.834
		C71.56,157.962,70.884,158.934,69.949,159.692z"/>
	<path fill-rule="evenodd" clip-rule="evenodd" fill="#846474" d="M69.2,29.277c0.125,0,0.25,0,0.375,0
		c1.082,0.633,1.354,1.809,1.889,2.81c1.551,4.104,1.861,8.321,1.05,12.479c2.029-1.446,4.231-1.802,6.618-1.394
		c1.308,0.471,2.218,1.353,2.73,2.644c0.238,2.316,0.093,2.496-2.031,2.002c-1.428-0.331-2.804-0.287-4.181,0.164
		c-0.733,0.27-1.448,0.58-2.082,1.048c-1.002,0.892-2.051,1.739-2.66,2.98c-0.511,0.625-0.351,1.883-1.654,1.761
		c-1-1.521-1.768-3.218-3.27-4.364c-1.008-0.851-2.117-1.489-3.455-1.654c-1.608-0.53-3.202,0.408-4.809,0.049
		c-0.972-1.699-0.583-3.133,1.098-4.121c0.932-0.548,1.944-0.698,2.998-0.669c1.261-0.022,2.421,0.383,3.564,0.866
		c0.729,0.311,1.081,0.075,0.944-0.726c-0.156-0.914-0.261-1.83-0.25-2.762c-0.007-0.589-0.027-1.176,0.002-1.763
		c0.258-1.286,0.375-2.59,0.505-3.893C67.247,32.818,67.79,30.838,69.2,29.277z"/>
	<path fill-rule="evenodd" clip-rule="evenodd" fill="#846474" d="M64.755,129.346c-1.575,1.949-3.373,3.677-5.277,5.298
		c-0.25,0.522-0.568,1-0.96,1.43c-0.132,0.115-0.282,0.193-0.447,0.249c-2.127,0.823-4.081,2.104-6.396,2.438
		c-4.501,0.569-8.093-0.832-10.478-4.839c-0.255-0.429-0.503-0.863-0.637-1.347c-0.284-1.016,0.021-1.601,1.165-1.491
		c1.3,0.126,2.584,0.355,3.892,0.45c5.488,0.393,10.625-0.606,15.252-3.712c0.656-0.442,1.357-0.819,2.002-1.28
		c0.471-0.33,0.864-0.745,1.271-1.146c0.177-0.174,0.37-0.33,0.569-0.477c0.728-0.376,0.987-1.448,2.024-1.364
		c0.271,0.106,0.429,0.314,0.518,0.585c0.174,1.072-0.326,1.979-0.71,2.914C66.03,127.882,65.787,128.923,64.755,129.346z"/>
	<path fill-rule="evenodd" clip-rule="evenodd" fill="#846474" d="M59.823,142.806c-1.323,1.581-2.582,3.236-4.538,4.122
		c-0.606,0.152-1.212,0.303-1.818,0.454c-1.524,0.908-3.045,0.318-4.568-0.006c-1.602-0.649-3.362-1.023-4.505-2.503
		c-0.077-0.182-0.08-0.368-0.016-0.553c0.13-0.133,0.286-0.225,0.464-0.276c1.024,0.044,2.058,0.221,3.056-0.188
		c0.488-0.103,0.938-0.303,1.376-0.538c0.934-0.378,1.681-1.042,2.479-1.628c1.533-1.186,2.774-2.675,4.167-4.005
		c0.717-0.684,1.412-1.394,2.434-1.612l-0.036,0.034c0.332-0.619,0.828-1.016,1.527-1.141c0.422-0.035,0.698-0.562,1.323-0.302
		c-1.451,3.527-3.437,6.688-6.365,9.433c2.834-0.581,5.556-4.271,7.454-9.355c0.635,1.1-0.381,2.062-0.229,3.108
		c-0.16,0.558,0.143,1.297-0.631,1.616C60.874,140.581,60.349,141.692,59.823,142.806z"/>
	<path fill-rule="evenodd" clip-rule="evenodd" fill="#846474" d="M79.738,134.868c-1.636-1.594-3.273-3.189-4.91-4.784
		c-1.071-0.366-1.31-1.409-1.82-2.233c-0.685-1.562-1.707-3.008-1.662-4.82c0.118-0.144,0.27-0.231,0.454-0.263
		c0.482,0.009,0.813,0.294,1.067,0.651c1.208,1.698,2.974,2.771,4.537,4.07c1.736,1.157,3.569,2.116,5.576,2.72
		c3.614,1.078,7.265,1.808,11.063,1.252c0.194-0.01,0.39-0.01,0.585-0.007c0.941,0.032,1.838-0.267,2.763-0.366
		c1.181-0.125,1.497,0.388,1.06,1.415c-0.688,1.613-1.607,3.073-2.978,4.213c-0.395,0.263-0.774,0.549-1.177,0.805
		c-1.104,0.607-2.248,1.104-3.512,1.272c-3.304,0.274-6.373-0.415-9.167-2.227C80.932,136.064,80.164,135.656,79.738,134.868z"/>
	<path fill-rule="evenodd" clip-rule="evenodd" fill="#846474" d="M84.18,147.025l-0.161-0.086l-0.182,0.002
		c-2.698-0.809-4.355-2.657-5.259-5.26c-0.724-1.956-1.662-3.843-1.913-5.95c-0.179-0.378-0.311-0.733,0.34-0.723
		c1.231,3.852,3.172,7.17,6.954,9.121c-2.596-2.81-4.73-5.896-6.063-9.515c0.798-0.193,1.188,0.48,1.784,0.586
		c0.772,0.048,1.096,0.785,1.694,1.099c1.995,1.28,3.496,3.1,5.179,4.721c0.293,0.299,0.586,0.599,0.923,0.852
		c0.93,0.724,1.904,1.371,3.017,1.787c1.095,0.419,2.314,0.354,3.379,0.887c0.151,0.144,0.214,0.315,0.19,0.521
		c-0.325,0.825-1.074,1.163-1.773,1.563c-1.887,0.843-3.848,1.325-5.931,1.195C85.554,147.776,84.739,147.748,84.18,147.025z"/>
	<path fill-rule="evenodd" clip-rule="evenodd" fill="#846474" d="M63.195,52.16c1.377,1.331,2.426,2.899,3.337,4.57
		c0.359,1.8,0.904,3.571,0.76,5.441c-0.457,0.459,0.319,1.405-0.653,1.662c-0.851-0.981-0.948-2.268-1.333-3.427
		c-0.867-2.614-2.253-4.834-4.389-6.461c2.344,2.409,4.112,5.246,4.872,8.643c0.218,0.973,0.18,1.979,0.041,2.972
		c-0.044,0.314-0.146,0.682-0.451,0.766c-0.459,0.125-0.642-0.301-0.779-0.632c-0.427-1.035-0.833-2.079-1.346-3.076
		c-0.511-1.179-1.253-2.201-2.116-3.145c-0.548-0.836-1.202-1.578-2.006-2.181c-1.167-1.004-2.374-1.946-3.792-2.577
		c-1.842-0.838-3.742-1.477-5.762-1.711c-0.58-0.069-1.193-0.065-1.504-0.705c0.426-1.757,2.108-1.82,3.346-2.487
		c0.88-0.643,1.914,0.2,2.812-0.29c2.623-0.164,5.103,0.388,7.472,1.491C62.2,51.396,62.697,51.779,63.195,52.16z"/>
	<path fill-rule="evenodd" clip-rule="evenodd" fill="#846474" d="M72.243,57.481c0.875-2.055,2.063-3.897,3.697-5.437
		c0.664-0.449,1.328-0.901,1.992-1.351c2.241-0.91,4.563-1.344,6.987-1.172c1.296,0.165,2.654,0.025,3.825,0.793
		c0.802,0.615,2.102,0.623,2.348,1.917c-0.187,0.579-0.688,0.696-1.184,0.719c-2.412,0.112-4.587,0.97-6.69,2.066
		c-0.467,0.209-0.945,0.4-1.369,0.696c-0.393,0.283-0.759,0.604-1.169,0.862c-0.337,0.22-0.638,0.483-0.915,0.774
		c-1.393,1.365-2.688,2.804-3.53,4.592c-0.641,1.141-1.173,2.331-1.695,3.527c-0.202,0.462-0.513,1.038-1.036,0.916
		c-0.666-0.154-0.593-0.86-0.55-1.417c0.341-4.477,2.177-8.227,5.475-11.248c0.037-0.108,0.297-0.043,0.218-0.267
		c-0.062,0.09-0.141,0.161-0.246,0.222c-2.582,1.938-3.961,4.646-4.967,7.604c-0.236,0.692-0.311,1.447-0.747,2.07
		c-0.464,0.296-0.648-0.06-0.854-0.365C71.73,61.131,71.878,59.298,72.243,57.481z"/>
	<path fill-rule="evenodd" clip-rule="evenodd" fill="#846474" d="M24.223,79.4c0.777-0.331,1.554-0.661,2.331-0.992
		c1.835-0.77,2.953,0.269,3.966,1.571c0.179,0.459,0.339,0.919-0.214,1.253c-0.11,0.054-0.226,0.106-0.349,0.124
		c-1.097,0.157-2.513,0.112-2.512,1.619c0,1.532,1.263,1.967,2.625,2.016c0.764,0.031,1.515-0.021,2.246-0.271
		c1.95-0.368,3.909-0.632,5.899-0.498c0.306,0.005,0.612-0.007,0.918,0.008c0.497,0.026,0.995,0.054,1.481,0.182
		c1.67,0.514,3.21,1.293,4.643,2.294c2.854,3.079,3.379,6.688,2.413,10.637c-0.355,0.427-0.693,0.183-1.032-0.026
		c-1.248-1.667-2.704-3.022-4.906-3.264c-2.94-0.599-5.842,0.275-8.766,0.213c-1.77,0.016-3.539,0.016-5.213-0.692
		c-1.387-0.626-2.681-1.393-3.702-2.554c-0.757-0.89-1.549-1.761-1.647-3.011c-0.227-1.019-0.473-2.032-0.677-3.055
		C21.241,82.516,22.5,80.851,24.223,79.4z"/>
	<path fill-rule="evenodd" clip-rule="evenodd" fill="#846474" d="M31.31,128.125c-2.693,0.177-4.889-0.556-5.992-3.283
		c-0.124-1.797-0.204-3.588,0.677-5.255c0.809-1.244,1.844-2.256,3.097-3.048c2.257-1.817,4.774-1.388,7.235-0.695
		c1.808,0.511,3.355,1.605,4.798,2.811c1.108,0.795,1.999,1.858,3.174,2.573c1.376,1.001,2.684,2.121,4.392,2.559
		c2.211,0.844,4.522,0.42,6.788,0.545c0.576,0.009,1.15,0,1.705-0.193c2.708-0.491,5.191-1.616,7.685-2.721
		c0.553-0.244,1.208-0.896,1.665,0.156c-1.214,1.213-2.429,2.427-3.644,3.64c-0.525,0.358-1.05,0.715-1.574,1.072
		c-6.466,4.065-13.233,5.388-20.491,2.254c-0.495-0.124-1.035-0.106-1.456-0.461c-1.937-0.954-3.407-2.554-5.185-3.728
		c-0.817-0.481-1.709-0.636-2.634-0.523c-1.074,0.128-1.712,0.623-1.318,1.831C30.386,126.571,31.433,127.094,31.31,128.125z"/>
	<path fill-rule="evenodd" clip-rule="evenodd" fill="#846474" d="M85.688,129.774c-2.789-0.602-5.235-2.07-7.853-3.107
		c-1.924-1.809-4.049-3.414-5.63-5.57l-0.005-0.002c0.693-0.512,1.288-0.047,1.864,0.232c1.375,0.664,2.796,1.21,4.23,1.727
		c1.708,0.671,3.455,1.174,5.301,1.273c2.271-0.082,4.581,0.271,6.77-0.638c1.69-0.43,3.062-1.436,4.412-2.472
		c1.29-1.013,2.542-2.075,3.853-3.063c0.57-0.459,1.167-0.883,1.764-1.307c3.618-2.025,7.221-2.211,10.801,0.093
		c0.902,0.777,1.672,1.671,2.3,2.687c0.841,1.386,0.874,2.91,0.765,4.461c-0.832,3.383-3.273,5.032-6.369,4.309
		c-0.563-0.592-0.111-1.061,0.184-1.549c0.191-0.315,0.4-0.624,0.52-0.977c0.482-1.442,0.14-1.945-1.344-2.064
		c-1.105-0.09-2.074,0.191-2.911,0.923c-0.895,0.655-1.792,1.302-2.599,2.07c-0.49,0.468-1.033,0.9-1.799,0.736
		C95.477,130.115,90.719,130.821,85.688,129.774z"/>
	<path fill-rule="evenodd" clip-rule="evenodd" fill="#846474" d="M69.915,74.299c0.038,0.229,0.076,0.456,0.113,0.684
		c0.965,0.721,1.021,1.97,1.669,2.874c0.533,1.072,1.326,1.967,2.017,2.93c1.083,1.527,2.029,3.126,2.658,4.903
		c0.103,0.29,0.021,1.02,0.759,0.65c0.359-0.616,0.144-1.189-0.107-1.761c-0.509-1.587-0.875-3.216-1.499-4.765
		c-0.542-1.557-1.024-3.131-1.313-4.757c-0.117-0.658-0.31-1.323,0.156-1.936c-0.116-3.564,0.538-6.951,2.343-10.069
		c1.812-2.31,4.322-3.331,7.103-3.853c0.876,0.001,1.752,0.001,2.629,0.001c0.679-0.316,1.279,0.036,1.899,0.225
		c3.183,0.42,5.036,2.458,6.321,5.189c1.256,4.142,0.172,7.846-3.01,10.307c-0.534,0.222-1.077,0.543-1.566-0.084
		c0.051-1.604,0.446-3.244-0.502-4.74c-0.24-0.346-0.555-0.603-0.932-0.786c-0.992-0.606-2.081-0.657-3.193-0.562
		c-0.874,0.098-1.617,0.471-2.255,1.064c-1.542,1.739-1.246,3.781-0.958,5.819c0.491,1.841,1.382,3.498,2.338,5.127
		c0.704,1.685,1.782,3.167,2.601,4.792c1.096,2.489,2.207,4.972,2.645,7.689c0.192,1.14,0.138,2.287,0.132,3.434
		c0.004,1.254,0.027,2.511-0.342,3.731c-0.422,1.2-0.484,2.494-0.937,3.688c-0.409,1.129-0.871,2.235-1.459,3.285
		c-1.495,2.22-2.867,4.542-5.09,6.16c-1.417,1.161-3.024,2.006-4.666,2.796c-1.302,0.791-2.799,0.272-4.167,0.625
		c-2.907-0.123-5.814,0.188-8.726-0.283c-3.099-0.502-5.638-2.029-8.067-3.855c-0.406-0.15-0.813-0.299-1.117-0.63
		c-1.503-1.371-2.476-3.132-3.53-4.832c-0.776-1.265-1.26-2.654-1.755-4.041c-0.208-0.87-0.44-1.733-0.631-2.609
		c-0.488-2.119-0.195-4.271-0.287-6.408c-0.025-0.621,0.022-1.236,0.151-1.846c0.71-2.663,1.605-5.259,2.996-7.656
		c0.533-0.92,0.99-1.88,1.456-2.836c0.49-1.008,1.203-1.89,1.646-2.924c0.246-0.463,0.481-0.93,0.672-1.419
		c0.508-1.391,1.072-2.756,1.005-4.293c-0.071-1.639-0.615-3.005-1.979-3.982c-1.805-0.974-3.532-0.877-5.176,0.367
		c-1.022,1.034-1.339,2.289-1.214,3.703c0.052,0.589,0.308,1.216-0.213,1.742c-0.95,0.439-1.589,0.004-2.117-0.747
		c-2.168-2.626-2.919-5.617-2.298-8.961c1.186-3.321,3.504-5.425,6.881-6.395c1.458-0.273,2.923-0.698,4.337,0.165
		c1.829,0.369,3.562,0.995,5.177,1.937c0.515,0.507,1.032,1.013,1.547,1.519c3.397,5.582,3.275,11.332,0.826,17.193
		c0.496,0.834-0.026,1.55-0.25,2.31c-0.434,1.472-1.145,2.921-0.415,4.756c1.028-2.458,1.558-4.989,3.634-6.627
		c0.652-0.134,0.926-0.614,1.096-1.193c0.651-1.536,1.005-3.217,2.171-4.505c0.037-0.228,0.074-0.455,0.111-0.683
		C69.683,73.642,69.752,74.057,69.915,74.299z"/>
	<path fill-rule="evenodd" clip-rule="evenodd" fill="#846474" d="M44.458,54.706c0.753-0.258,1.507-0.517,2.26-0.773
		c1.67-0.021,3.359-0.095,4.902,0.686c0.58,0.291,1.32,0.475,1.5,1.272c-0.148,0.129-0.32,0.193-0.516,0.191
		c-2.276-0.705-4.554-0.918-6.833,0.149c2.11-0.98,4.231-0.917,6.362-0.243c0.5,0.242,1.086,0.361,1.354,0.938
		c0.112,0.142,0.223,0.283,0.335,0.426c-0.46,0.547-1.107,0.533-1.718,0.502c-3.522-0.185-6.428,1.045-8.716,3.729
		c-0.333,0.333-0.646,0.683-0.885,1.094c-0.332,0.524-0.623,1.068-0.895,1.625c-0.26,0.531-0.413,1.392-1.139,1.246
		c-0.703-0.141-0.542-0.992-0.625-1.586c-0.033-1.609-0.048-3.22,0.47-4.775c0.184-0.549,0.465-1.052,0.739-1.559
		C42.053,56.499,42.74,55.001,44.458,54.706z"/>
	<path fill-rule="evenodd" clip-rule="evenodd" fill="#846474" d="M59.943,120.011c0.742,0,1.484,0,2.428,0
		c-0.961,0.534-1.773,0.986-2.585,1.438c-1.906,1.602-4.24,1.533-6.484,1.472c-1.914-0.053-3.794-0.577-5.559-1.395
		c-0.996-0.455-1.963-0.975-2.94-1.474c-0.514-0.293-0.983-0.66-1.51-0.936c-0.297-0.155-0.595-0.312-0.882-0.485
		c-0.622-0.461-1.323-0.783-1.995-1.159c-1.574-0.995-3.149-1.958-4.979-2.454c-2.703-0.735-5.266-0.468-7.729,0.846
		c-0.602,0.729-0.787,0.021-1.01-0.325c-0.485-0.755-0.922-1.54-1.379-2.313c0.031-0.329,0.076-0.662-0.29-0.854
		c-0.676-3.728,0.275-6.872,3.314-9.271c1.532-1.78,3.564-2.02,5.725-1.872c2.307,0.513,4.394,1.505,6.29,3.005
		c0.152-0.672-0.274-1.127-0.35-1.661c-0.224-2.146-0.34-4.324-1.842-6.085c-0.323-0.6-0.446-1.163,0.299-1.557
		c0.794-0.279,1.614-0.183,2.428-0.168c0.69,0.057,1.334,0.288,1.979,0.518c0.885,0.37,1.59,0.988,2.271,1.643
		c1.569,1.101,2.123,2.809,2.699,4.505c0.695,2.541,0.685,5.208,1.383,7.746c0.304,1.455,1.115,2.618,2.09,3.696
		c0.494,0.546,1.153,0.987,1.216,1.821c-0.046,0.299-0.21,0.498-0.498,0.592c-2.687-0.677-3.951-3.019-5.632-4.86
		c-0.365-0.399-0.623-0.925-0.846-1.419c-0.007-0.148-0.07-0.195-0.181-0.123c0.098,0.067,0.169,0.156,0.216,0.277
		c1.458,2.403,3.075,4.65,5.312,6.408c0.572,0.449,1.418,0.903,0.982,1.93c-1.094,0.538-2.049-0.034-2.984-0.443
		c-1.632-0.716-3.202-1.565-4.799-2.359c-0.488-0.269-0.985-0.521-1.492-0.757c-3.685-2.08-7.447-3.91-11.465-3.717
		c3.302,0.016,6.445,1.612,9.543,3.355c1.1,0.626,2.172,1.299,3.28,1.912c2.025,1.232,4.105,2.351,6.357,3.125
		c1.989,0.902,4.076,1.293,6.256,1.212C57.721,119.546,58.793,120.464,59.943,120.011z"/>
	<path fill-rule="evenodd" clip-rule="evenodd" fill="#846474" d="M115.721,89.624c-1.352,1.84-3.196,2.993-5.285,3.809
		c-1.294,1.125-2.867,0.76-4.358,0.822c-1.677,0.138-3.312-0.282-4.972-0.406c-3.623-0.267-6.708,0.619-8.928,3.686
		c-0.885,0.086-0.914-0.667-1.18-1.192c-0.396-2.8,0.039-5.478,1.372-7.962c0.897-1.676,2.456-2.608,4.192-3.26
		c0.635-0.26,1.282-0.484,1.938-0.692c0.484-0.134,0.982-0.165,1.482-0.184c0.203-0.013,0.406-0.019,0.609-0.022
		c2.043-0.1,4.065,0.071,6.065,0.475c1.011,0.321,2.048,0.448,3.095,0.229c0.98-0.204,1.729-0.76,1.875-1.792
		s-0.671-1.337-1.461-1.595c-0.55-0.094-1.129-0.075-1.612-0.421c-0.136-0.153-0.208-0.331-0.22-0.536
		c1.098-2.357,2.666-2.987,5.388-2.165c0.729,0.319,1.381,0.771,2.042,1.21c1.979,1.728,1.668,3.993,1.463,6.234
		c-0.177,0.611-0.544,1.179-0.443,1.855C116.563,88.427,116.557,89.256,115.721,89.624z"/>
	<path fill-rule="evenodd" clip-rule="evenodd" fill="#846474" d="M99.559,116.269c-1.496,0.657-2.752,1.698-4.105,2.581
		c-1.039,0.606-2.079,1.214-3.119,1.82c-1.689,0.522-3.334,1.17-5.069,1.569c-2.435,0.56-4.746-0.124-7.101-0.444
		c-1.118-0.531-2.237-1.063-3.509-1.669c1.523-0.518,2.823,0.4,4.16,0.155c0.73-0.555,1.582-0.451,2.415-0.453
		c1.983,0.084,3.789-0.621,5.607-1.272c2.726-0.883,5.146-2.365,7.546-3.884c3.471-1.998,6.908-4.083,11.305-4.461
		c-4.846,0.109-8.715,2.174-12.517,4.43c-1.915,0.886-3.743,1.954-5.735,2.674c-0.584,0.212-1.147,0.49-1.797,0.34
		c-0.285-0.088-0.502-0.252-0.613-0.539c-0.042-1.262,1.149-1.542,1.793-2.26c1.904-1.624,3.424-3.563,4.702-5.865
		c-1.368,2.299-2.944,4.238-5.053,5.7c-0.971,0.569-1.684,1.772-3.093,1.277c-0.178-1.252,1.139-1.437,1.592-2.238
		c1.431-1.373,2.505-2.958,2.952-4.922c0.705-2.926,0.537-6.021,1.738-8.848c0.291-0.706,0.732-1.326,1.144-1.964
		c0.58-0.902,1.429-1.512,2.294-2.104c1.555-1.172,3.33-1.29,5.173-1.086c1.399,0.394,1.04,1.176,0.446,2.012
		c-0.909,1.071-1.396,2.319-1.441,3.715c-0.039,1.178-0.468,2.275-0.65,3.444c0.52,0.059,0.74-0.396,1.109-0.552
		c1.48-1.085,3.184-1.668,4.918-2.186c1.998-0.215,3.928-0.173,5.412,1.484c2.898,1.986,4.429,4.667,4.176,8.249
		c-0.465,1.957-0.92,3.92-2.654,5.23c-1.085-1.925-3.035-2.092-4.855-2.07C104.184,114.167,101.707,114.75,99.559,116.269z"/>
	<path fill-rule="evenodd" clip-rule="evenodd" fill="#846474" d="M33.582,75.367c2.148-0.86,4.333-1.546,6.688-1.457
		c3.625,0.733,6.071,2.996,7.887,6.076c1.428,3.844,2.041,7.768,1.167,11.838c-0.63-2.157-0.425-4.442-1.099-6.61
		c-1-3.221-2.991-5.801-6.018-7.108c2.835,3.205,5.239,6.229,5.697,10.271c0.161,0.403-0.03,0.512-0.396,0.474
		c-0.545-1.065-1.129-2.104-1.975-2.971c-1.09-1.623-2.546-2.877-4.083-4.051c-0.608,0.031-0.858-0.384-1.063-0.854
		c-0.268-0.212-0.534-0.425-0.801-0.639c-0.759-0.709-1.586-1.31-2.606-1.595c-1.647-1.261-3.638-1.276-5.642-1.477
		C31.832,76.223,32.957,76.089,33.582,75.367z"/>
	<path fill-rule="evenodd" clip-rule="evenodd" fill="#846474" d="M96.549,74.546c0.619-0.336,1.422-0.098,1.98-0.624
		c1.91-0.485,3.793-0.771,5.43,0.745c1.242,0.816,2.686,1.321,3.904,2.501c-1.232,0.191-2.328,0.36-3.423,0.531
		c-1.023,1.076-2.407,1.398-3.755,1.797c-0.25,0.155-0.5,0.311-0.748,0.465c-1.652,1.279-3.393,2.453-4.789,4.035
		c-1.678,1.572-3.041,3.376-3.974,5.724c-0.392-2.708,0.046-3.612,5.361-11.421c-3.62,0.885-6.549,6.873-6.388,11.237
		c-0.509,0.591,0.002,1.427-0.556,2.306c-0.315-2.293-0.235-4.323-0.209-6.353c-0.177-2.366,0.379-4.508,1.938-6.343
		c0.51-0.717,1.021-1.432,1.531-2.148c0.192-0.501,0.4-0.984,1.064-0.965c0.273-0.213,0.548-0.427,0.822-0.64
		C95.052,74.49,95.846,74.615,96.549,74.546z"/>
</g>
</svg>
