<?xml version="1.0" encoding="utf-8"?>
<!-- Generator: Adobe Illustrator 16.0.0, SVG Export Plug-In . SVG Version: 6.00 Build 0)  -->
<!DOCTYPE svg PUBLIC "-//W3C//DTD SVG 1.1//EN" "http://www.w3.org/Graphics/SVG/1.1/DTD/svg11.dtd">
<svg version="1.1" id="Calque_1" xmlns="http://www.w3.org/2000/svg" xmlns:xlink="http://www.w3.org/1999/xlink" x="0px" y="0px"
	 width="92px" height="115.335px" viewBox="0 0 92 115.335" enable-background="new 0 0 92 115.335" xml:space="preserve">
<g>
	<path fill-rule="evenodd" clip-rule="evenodd" fill="#F9C01F" d="M44.634,8.035c0.504,1.03,0.807,2.122,0.997,3.248
		c0.217,0.17,0.222,0.42,0.243,0.662c0.011,0.121,0.011,0.243,0.01,0.364c-0.1,6.864,0.134,13.726,0.183,20.588
		c0.033,4.841,0.073,9.684,0.128,14.525c0.013,1.14,0.132,2.281,0.146,3.425c0.009,0.694,0.278,0.999,0.795,1.02
		c0.614,0.025,0.846-0.385,0.982-0.89c0.077-0.284,0.078-0.578,0.078-0.87c0.003-3.433,0.108-6.869-0.022-10.296
		c-0.238-6.255-0.036-12.509-0.123-18.762c-0.012-0.807,0.038-1.605,0.186-2.396c0.279-1.13,0.604-2.243,1.372-3.163
		c0.111-0.152,0.24-0.289,0.373-0.421c0.8-0.707,1.745-1.112,2.777-1.337c1.664-0.165,3.271-0.098,4.594,1.126
		c0.622,0.62,1.248,1.237,1.577,2.08c0.252,0.504,0.499,1.011,0.665,1.554c0.409,1.375,0.565,2.785,0.581,4.215
		c0.049,1.108-0.115,2.224,0.104,3.327c0.097,1.678,0.002,3.358,0.069,5.037c0.008,0.241-0.036,0.488,0.059,0.722
		c0.087,0.399,0.078,0.803,0.066,1.208c0.01,0.481,0.014,0.963-0.002,1.444c0.004,0.26,0.019,0.521,0.004,0.781
		c0.021,0.86-0.067,1.723,0.079,2.58c0.069,0.344,0.071,0.693,0.061,1.042c0.008,0.219,0.022,0.439,0.004,0.659
		c0.014,1.428-0.062,2.858,0.087,4.284c0.067,0.313,0.069,0.631,0.056,0.948c0.016,1.533-0.056,3.068,0.086,4.599
		c0.086,0.402,0.074,0.809,0.063,1.216c0.02,0.497,0.014,0.995,0.002,1.492c0.068,2.113,0.146,4.225,0.194,6.338
		c0.035,1.528,0.113,3.057,0.114,4.588c0,0.315,0.015,0.633-0.066,0.941c-0.115,0.392-0.464,0.385-0.77,0.426
		c-1.788,0.24-3.552,0.589-5.277,1.123c-3.784,1.169-7.109,3.117-10.003,5.824c-2.788,2.608-5.02,5.621-6.683,9.05
		c-0.69,1.423-1.302,2.884-1.655,4.437c-0.042,0.189-0.093,0.379-0.102,0.574c-0.024,0.54,0.065,1.076,0.629,1.273
		c0.542,0.19,0.832-0.264,1.108-0.638c0.219-0.297,0.35-0.638,0.467-0.985c1.145-3.399,2.748-6.564,5.063-9.312
		c2.625-3.117,5.789-5.537,9.606-7.062c2.024-0.809,4.095-1.396,6.262-1.642c0.507-0.057,1.05-0.086,1.087-0.804
		c0.006-0.115,0.108-0.219,0.263-0.139c0.374,0.642,0.146,1.341,0.198,2.014c0.076,2.125,0.233,4.245,0.46,6.358
		c0.108,0.392,0.328,0.69,0.719,0.842c1.211,0.223,1.669-0.014,2.181-1.116c0.255-0.548,0.472-1.111,0.69-1.674
		c0.211-0.446,0.457-0.876,0.6-1.353c0.432-1.022,0.879-2.039,1.298-3.068c0.402-0.916,0.789-1.837,1.177-2.758
		c0.477-1.002,0.853-2.047,1.3-3.062c0.503-0.966,0.977-1.949,1.625-2.832c1.001-1.353,2.178-2.52,3.604-3.426
		c0.795-0.504,1.643-0.898,2.53-1.208c0.768-0.238,1.545-0.432,2.339-0.562c0.121-0.031,0.243-0.049,0.367-0.051
		c1.029-0.039,2.058-0.007,3.086-0.001c0.081,0.001,0.163,0.009,0.243,0.02c0.526,0.131,1.074,0.186,1.567,0.441
		c0.778,0.396,1.282,1.038,1.636,1.817c0.205,0.581,0.13,1.178,0.104,1.772c-0.202,0.844-0.625,1.604-0.922,2.413
		c-0.271,0.588-0.489,1.199-0.728,1.8c-0.362,0.82-0.645,1.673-1.021,2.487c-0.438,1.062-0.868,2.128-1.308,3.188
		c-0.197,0.494-0.447,0.966-0.613,1.473c-0.421,1.028-0.865,2.047-1.266,3.084c-0.391,0.81-0.681,1.661-1.05,2.48
		c-0.476,1.046-0.877,2.122-1.314,3.183c-0.235,0.437-0.378,0.915-0.593,1.36c-0.421,1.029-0.831,2.063-1.268,3.084
		c-0.421,0.946-0.84,1.895-1.221,2.859c-0.457,0.968-0.854,1.961-1.272,2.946c-0.226,0.482-0.433,0.973-0.628,1.468
		c-0.477,0.957-0.862,1.953-1.277,2.936c-0.404,0.879-0.766,1.775-1.043,2.704c-0.194,0.57-0.476,1.102-0.739,1.641
		c-0.819,1.529-1.697,3.02-2.91,4.284c-0.48,0.669-1.109,1.198-1.67,1.792c-1.314,1.109-2.655,2.183-4.133,3.074
		c-1.046,0.647-2.132,1.221-3.232,1.771c-0.834,0.333-1.646,0.721-2.492,1.023c-0.687,0.25-1.372,0.505-2.064,0.742
		c-0.871,0.253-1.743,0.504-2.622,0.729c-0.672,0.172-1.351,0.313-2.033,0.438c-0.313,0.06-0.628,0.117-0.939,0.193
		c-1.825,0.35-3.674,0.507-5.516,0.725c-1.05,0.061-2.108-0.043-3.152,0.156c-0.484,0.041-0.971,0.035-1.456,0.018
		c-0.266,0.004-0.531,0-0.792-0.058c-1.07-0.203-2.161-0.05-3.239-0.199c-0.685-0.094-1.389-0.102-2.08-0.185
		c-1.274-0.146-2.544-0.31-3.79-0.627c-0.598-0.151-1.199-0.292-1.793-0.462c-0.875-0.303-1.77-0.546-2.633-0.881
		c-1.131-0.453-2.205-1.023-3.293-1.564c-0.961-0.556-1.911-1.13-2.797-1.804c-1.858-1.391-3.517-2.982-4.874-4.874
		c-1.056-1.312-1.875-2.771-2.667-4.248c-0.21-0.565-0.478-1.106-0.706-1.665c-0.387-0.904-0.687-1.841-1.009-2.77
		c-0.164-0.491-0.263-1-0.44-1.486c-0.111-0.48-0.248-0.954-0.36-1.434c-0.239-1.07-0.433-2.149-0.67-3.22
		c-0.062-0.392-0.122-0.786-0.193-1.176c-0.073-0.6-0.137-1.2-0.259-1.792c-0.182-1.198-0.286-2.407-0.475-3.604
		c-0.052-1.354-0.28-2.69-0.387-4.039c-0.041-0.166-0.06-0.334-0.066-0.505c0.037-0.591-0.072-1.171-0.143-1.755
		c-0.029-0.52,0.011-1.044-0.124-1.556c-0.182-3.367-0.385-6.73-0.336-10.106c0.046-3.178-0.004-6.357,0.015-9.536
		c0.001-0.247-0.05-0.481-0.111-0.717c-0.118-0.844-0.062-1.693-0.061-2.541c0.004-3.029-0.03-6.058,0.015-9.086
		c0.007-3.522-0.041-7.046,0-10.569c0.01-0.825,0.138-1.646,0.398-2.437c0.281-0.79,0.605-1.562,1.084-2.256
		c0.201-0.292,0.388-0.612,0.783-0.692c1.637-1.31,3.5-1.583,5.504-1.186c0.858,0.17,1.565,0.637,2.238,1.165
		c1.021,0.615,1.342,1.665,1.673,2.709c0.172,0.512,0.287,1.036,0.294,1.574c0.066,4.863,0.24,9.725,0.144,14.591
		c-0.044,2.211,0.01,4.425-0.01,6.639c-0.001,0.195,0.015,0.389,0.068,0.577c0.113,0.404,0.061,0.822,0.1,1.232
		c0.063,0.65,0.391,0.958,0.977,0.931c0.56-0.025,0.918-0.383,0.921-0.998c0.007-2.335,0.002-4.67,0.004-7.005
		c0.003-1.442,0.001-2.883-0.001-4.324c-0.011-5.018-0.02-10.036,0-15.053c0-0.218,0.004-0.437-0.027-0.652
		c-0.025-0.085-0.039-0.172-0.045-0.259c-0.026-0.544-0.089-1.088-0.071-1.636c0.015-0.469-0.121-0.96,0.208-1.38
		c0.004-1.484,0.016-2.967,0.012-4.45c-0.01-3.645,2.326-6.177,5.957-6.445c2.387-0.177,4.482,1.452,5.251,4.098
		c0.292,1.009,0.418,2.047,0.43,3.096c0.079,6.521,0.154,13.041,0.229,19.561c0.046,4.16,0.087,8.32,0.136,12.48
		c0.004,0.314,0.028,0.632,0.082,0.942c0.095,0.562,0.449,0.834,1.018,0.843c0.558,0.007,0.939-0.232,1.074-0.785
		c0.062-0.257,0.1-0.527,0.1-0.791c-0.009-9.878-0.02-19.757-0.04-29.636c-0.005-2.749-0.04-5.498-0.052-8.247
		c-0.003-0.878,0.106-1.747,0.345-2.594c0.881-3.125,3.733-5.301,7.366-4.298c1.091,0.101,1.821,0.821,2.514,1.544
		C44.154,7.031,44.613,7.415,44.634,8.035z"/>
	<path fill-rule="evenodd" clip-rule="evenodd" fill="#E48D25" d="M61.012,65.993c-0.072,1.064-0.072,1.06-1.204,1.192
		c-4.604,0.54-8.688,2.314-12.283,5.221c-4.09,3.307-6.743,7.589-8.438,12.515c-0.134,0.389-0.246,0.781-0.499,1.126
		c-0.352,0.481-0.669,1.006-1.389,0.789c-0.53-0.16-0.849-0.946-0.721-1.671c0.157-0.888,0.442-1.742,0.763-2.578
		c1.812-4.717,4.627-8.761,8.419-12.078c3.775-3.303,8.185-5.335,13.16-6.103c0.716-0.111,1.422-0.299,2.156-0.269
		C61.342,64.749,61.3,65.369,61.012,65.993z"/>
</g>
</svg>
