<?xml version="1.0" encoding="utf-8"?>
<!-- Generator: Adobe Illustrator 16.0.0, SVG Export Plug-In . SVG Version: 6.00 Build 0)  -->
<!DOCTYPE svg PUBLIC "-//W3C//DTD SVG 1.1//EN" "http://www.w3.org/Graphics/SVG/1.1/DTD/svg11.dtd">
<svg version="1.1" id="Calque_1" xmlns="http://www.w3.org/2000/svg" xmlns:xlink="http://www.w3.org/1999/xlink" x="0px" y="0px"
	 width="92.684px" height="103.153px" viewBox="0 0 92.684 103.153" enable-background="new 0 0 92.684 103.153"
	 xml:space="preserve">
<g>
	<path fill="#9D822F" d="M13.545,99.234c-1.791,2.116-5.208,2.168-7.631,0.116l0,0c-2.424-2.052-2.937-5.431-1.146-7.546
		L53.834,33.84c1.791-2.116,5.208-2.168,7.631-0.116l0,0c2.424,2.052,2.937,5.431,1.146,7.546L13.545,99.234z"/>
	<ellipse opacity="0.2" fill="#DAE35C" cx="51.984" cy="30.086" rx="25.5" ry="24.5"/>
	<ellipse opacity="0.3" fill="#FFC625" cx="58.841" cy="40.998" rx="18.643" ry="17.912"/>
	<polygon fill="#FDEF39" points="86.391,11.481 85.582,16.973 89.647,20.753 84.174,21.681 81.835,26.716 79.262,21.797 
		73.75,21.129 77.633,17.161 76.566,11.713 81.539,14.18 	"/>
	<polygon fill="#FDEF39" points="44.56,10.212 47.565,13.559 52.026,12.979 49.772,16.873 51.701,20.937 47.302,19.996 
		44.033,23.086 43.569,18.611 39.62,16.458 43.731,14.633 	"/>
</g>
</svg>
